<?xml version="1.0" encoding="UTF-8"?>
<svg id="_图层_1" data-name="图层_1" xmlns="http://www.w3.org/2000/svg" version="1.1" viewBox="0 0 800 800">
  <!-- Generator: Adobe Illustrator 29.1.0, SVG Export Plug-In . SVG Version: 2.1.0 Build 142)  -->
  <ellipse id="ellipse10202" cx="400" cy="400" rx="342.3706" ry="350"/>
  <g>
    <path id="path10204" d="M658.7648,437.1935H249.0009v97.5931h376.703c-45.1408,78.8374-129.0645,131.6076-224.4323,131.6076-143.3697,0-260.3542-119.2098-260.3542-266.0763,0-146.5486,116.6667-266.0763,260.3542-266.0763,61.3533,0,117.6204,21.6167,162.1254,57.8565l32.4251-40.0545c-53.406-43.5513-120.7993-69.9364-194.2325-69.9364-171.6621,0-311.2171,142.7339-311.2171,317.8929,0,175.4769,139.555,317.8929,311.2171,317.8929,159.5822,0,291.1898-123.3424,308.9918-281.3352h-51.8165v.6358Z" style="fill: #f9dd00;"/>
    <path id="path10206" d="M402.5432,153.3152c-62.9428,0-123.0245,25.7493-168.8011,72.1617-46.0945,47.0481-71.5259,109.0373-71.5259,174.5232,0,136.0581,105.2225,246.6849,234.287,246.6849,131.6076,0,234.287-105.5404,234.287-240.6449.3179-141.7802-100.1362-252.7248-228.2471-252.7248h0ZM580.2452,273.1608h-17.1662c-6.0399-16.8483-19.0736-30.1998-35.604-36.2398l4.1326-21.2988c19.0736,15.8946,35.604,35.2861,48.6376,57.5386h0ZM507.1299,249.6367c23.842,0,43.5513,20.0273,43.5513,44.505s-19.3915,44.505-43.5513,44.505c-23.842,0-43.5513-20.0273-43.5513-44.505s19.3915-44.505,43.5513-44.505ZM402.5431,168.8919c42.9155,0,82.3342,13.3515,115.3951,36.5577l-5.4042,27.9746c-1.9074-.3179-3.8147-.3179-5.7221-.3179-2.2252,0-4.4505.3179-6.6758.3179-32.4251-5.7221-112.5341-14.3052-198.0472,23.842-54.6776,24.4777-97.2752,69.3006-120.1635,96.9573,21.2988-104.2688,113.8056-185.3315,220.6177-185.3315ZM177.7929,384.4232c10.1726-14.3052,60.7175-82.0164,130.6539-113.1699,63.8965-28.6104,124.9319-29.564,163.079-26.3851-6.9936,5.0863-12.7157,11.762-16.8483,19.7094-81.3806,7.9473-154.178,53.7239-210.763,133.1971-27.6567,38.465-42.9155,70.2543-50.545,88.6921-10.1726-26.703-15.8946-55.9491-15.8946-86.4668-.3179-5.0863,0-10.1726.3179-15.5767ZM464.5323,620.6176c16.2126-25.7493,45.1408-73.4333,49.9092-97.5931l-14.6231-3.1789c-5.4042,27.3388-48.0018,92.8247-56.9028,106.4941-14.941,3.1789-30.1998,4.7684-46.0945,4.7684-29.564,0-57.5386-6.0399-83.2879-17.4841,30.5177-16.2126,100.772-56.5849,116.3488-94.0963l-13.9873-6.0399c-13.9873,33.3787-88.0563,75.9764-119.8456,91.5531-40.3724-21.9346-73.1154-56.5849-94.0963-98.8647,8.5831-21.6167,26.0672-60.3996,54.3597-99.8184,53.0881-74.069,117.6203-116.3488,192.3252-125.8856-.9537,4.1326-1.5895,8.5831-1.5895,13.3515,0,33.6966,26.703,61.0354,59.7639,61.0354s59.7639-27.3388,59.7639-61.0354c0-1.9074,0-3.8147-.3179-5.7221h22.2525c17.4841,34.6503,27.3388,74.3869,27.3388,117.6203,0,102.3615-62.6249,186.2852-151.317,214.8956Z" style="fill: #f9dd00;"/>
    <rect id="rect10208" x="378.7012" y="320.8447" width="24.4777" height="107.7657" style="fill: #f9dd00;"/>
    <polygon id="polygon10210" points="249.3188 320.8447 249.3188 408.5831 249.3188 428.9282 273.7966 428.9282 323.3878 428.9282 323.3878 408.5831 273.7966 408.5831 273.7966 320.8447 249.3188 320.8447" style="fill: #f9dd00;"/>
    <polygon id="polygon10212" points="612.0345 338.9645 641.9165 338.9645 641.9165 428.9282 666.3942 428.9282 666.3942 338.9645 686.1035 338.9645 686.1035 318.6194 612.0345 318.6194 612.0345 338.9645" style="fill: #f9dd00;"/>
    <polygon id="polygon10214" points="512.2162 389.1916 491.2352 320.8447 478.5195 320.8447 454.0418 320.8447 454.0418 428.9282 478.5195 428.9282 478.5195 361.8528 500.772 428.9282 522.7067 428.9282 542.7339 364.0781 542.7339 428.9282 567.2116 428.9282 567.2116 320.8447 542.7339 320.8447 530.654 320.8447 512.2162 389.1916" style="fill: #f9dd00;"/>
  </g>
  <g>
    <path id="path10216" d="M304.3143,462.9428c1.5895,2.2252,2.5432,5.0863,2.5432,8.5831s-.9537,6.0399-2.5432,8.2652c-.9537,1.2716-2.2252,2.2252-4.1326,3.1789,2.861.9537,4.7684,2.5432,6.3579,4.7684,1.2716,2.2252,2.2252,4.7684,2.2252,7.9473s-.9537,6.3579-2.5432,8.901c-.9537,1.5895-2.2252,3.1789-3.8147,4.4505s-3.8147,2.2252-6.04,2.861c-2.2252.6358-4.7684.6358-7.6294.6358h-24.4777v-55.3133h26.0672c6.6757,0,11.4441,1.9074,13.9873,5.7221ZM275.0681,466.7575v12.0799h13.0336c2.2252,0,4.1326-.3179,5.7221-1.2716,1.5895-.9537,2.2252-2.5432,2.2252-4.7684,0-2.5432-.9537-4.1326-2.861-5.0863-1.5895-.6358-3.8147-.9537-6.3579-.9537h-11.762ZM275.0681,488.0563v14.6231h13.0336c2.2252,0,4.1326-.3179,5.4042-.9537,2.2252-1.2716,3.4968-3.4968,3.4968-6.9936,0-2.861-1.2716-4.7684-3.4968-6.0399-1.2716-.6358-3.1789-.9537-5.4042-.9537h-13.0336v.3179Z"/>
    <path id="path10218" d="M369.8002,507.4478c-4.1326,4.4505-9.8547,6.3579-17.802,6.3579-7.6294,0-13.6694-2.2252-17.802-6.3579-5.4042-5.4042-8.2652-12.7157-8.2652-22.8883s2.861-17.802,8.2652-22.8883c4.1326-4.4505,9.8547-6.3579,17.802-6.3579,7.6294,0,13.6694,2.2252,17.802,6.3579,5.4042,5.0863,8.2652,12.7157,8.2652,22.8883-.3179,10.1726-2.861,17.802-8.2652,22.8883ZM362.4886,499.1825c2.5432-3.4968,3.8147-8.2652,3.8147-14.3052s-1.2716-11.1262-3.8147-14.3052c-2.5432-3.4968-6.04-5.0863-10.4905-5.0863s-7.9473,1.5895-10.8084,5.0863c-2.5432,3.4968-4.1326,8.2652-4.1326,14.3052,0,6.3579,1.2716,11.1262,4.1326,14.3052,2.5432,3.4968,6.3579,5.0863,10.8084,5.0863s7.9473-1.9074,10.4905-5.0863Z"/>
    <path id="path10220" d="M426.3851,458.4923c3.8147,1.2716,6.9936,3.4968,9.2189,6.9936,1.9074,2.861,3.1789,5.7221,3.8147,8.901s.9537,6.3579.9537,9.2189c0,7.3115-1.5895,13.6694-4.4505,18.7557-3.8147,6.9936-9.8547,10.1726-18.1199,10.1726h-23.2062v-55.3133h23.2062c3.4968,0,6.3579.3179,8.5831,1.2716h0ZM405.7221,466.7575v35.9219h10.4905c5.4042,0,8.901-2.5432,11.1262-7.9473,1.2716-2.861,1.5895-6.3579,1.5895-10.4905,0-5.7221-.9537-9.8547-2.5432-13.0336-1.5895-2.861-5.0863-4.4505-10.1726-4.4505h-10.4905Z"/>
    <path id="path10222" d="M490.2816,457.2207c3.1789.9537,5.7221,2.5432,8.2652,4.7684l6.0399-6.6757,3.1789,3.1789-6.0399,6.9936c1.2716,1.5895,2.5432,4.1326,3.8147,7.3115.9537,3.1789,1.5895,7.3115,1.5895,12.3978,0,8.5831-2.5432,15.5767-7.3115,21.2988-4.7684,5.4042-11.1262,7.9473-18.7557,7.9473-2.861,0-6.0399-.3179-8.901-1.2716-2.861-.9537-5.7221-2.5432-8.5831-4.7684l-6.3579,6.9936-3.1789-2.861,6.6757-6.9936c-1.2716-1.9074-2.5432-4.4505-3.8147-7.3115-1.2716-3.4968-1.9074-7.6294-1.9074-12.3978,0-8.5831,2.5432-16.2126,7.9473-22.2525,4.4505-4.7684,10.4905-6.9936,17.802-6.9936,3.4968-.9537,6.6758-.6358,9.5368.6358h0ZM487.4206,466.7575c-1.9074-.9537-3.8147-1.5895-6.6758-1.5895-5.0863,0-8.901,1.9074-11.1262,5.4042-2.2252,3.4968-3.4968,8.2652-3.4968,13.9873,0,2.5432.3179,4.7684.6358,6.6758.3179,1.2716.6358,2.5432,1.2716,4.4505l23.2062-26.0672c-.6358-.9537-1.9074-1.9074-3.8147-2.861h0ZM475.6586,503.3152c1.5895.6358,3.4968.9537,5.4042.9537,5.0863,0,8.901-1.9074,11.1262-6.0399,2.2252-4.1326,3.4968-8.5831,3.4968-13.3515,0-1.5895,0-3.1789-.3179-4.7684-.3179-2.2252-.9537-4.4505-1.5895-6.0399l-22.8883,26.0672c1.2716,1.2716,2.861,2.2252,4.7684,3.1789h0Z"/>
    <path id="path10224" d="M560.218,512.5341h-10.1726v-39.7366c-3.8147,3.4968-8.2652,6.3579-13.3515,7.9473v-9.5368c2.5432-.9537,5.7221-2.5432,8.901-5.0863s5.4042-5.4042,6.3579-8.901h8.2652v55.3134Z"/>
    <path id="path10226" d="M571.3443,499.8184l9.8547-1.2716c.3179,2.2252.9537,3.4968,1.9074,4.7684.9537.9537,2.5432,1.5895,4.1326,1.5895,2.2252,0,3.8147-.9537,5.4042-2.861,1.5895-1.9074,2.5432-6.0399,2.861-12.3978-2.5432,3.1789-5.7221,4.7684-9.8547,4.7684s-7.9473-1.5895-10.8083-5.0863c-3.1789-3.1789-4.4505-7.6294-4.4505-13.0336,0-5.7221,1.5895-10.1726,4.7684-13.3515,3.1789-3.4968,7.3115-5.0863,12.3978-5.0863,5.4042,0,9.8547,2.2252,13.3515,6.3579,3.4968,4.4505,5.0863,11.4442,5.0863,21.2988,0,10.1726-1.9074,17.1662-5.4042,21.6167-3.4968,4.4505-8.2652,6.6758-14.3052,6.6758-4.1326,0-7.6294-1.2716-10.1726-3.4968-2.2252-2.5432-3.8147-6.0399-4.7684-10.4905h0ZM594.8683,476.6122c0-3.4968-.6358-6.0399-2.2252-7.9473s-3.1789-2.861-5.4042-2.861c-1.9074,0-3.4968.6358-4.7684,2.2252s-1.9074,4.1326-1.9074,7.6294.6358,6.0399,1.9074,7.9473c1.2716,1.5895,3.1789,2.5432,5.0863,2.5432s3.4968-.9537,5.0863-2.5432c1.2716-1.2716,2.2252-3.8147,2.2252-6.9936h0Z"/>
    <path id="path10228" d="M638.7375,512.5341h-10.1726v-39.7366c-3.8147,3.4968-8.2652,6.3579-13.3515,7.9473v-9.5368c2.5432-.9537,5.7221-2.5432,8.901-5.0863s5.4042-5.4042,6.3579-8.901h8.2652v55.3134Z"/>
    <path id="path10230" d="M685.1499,470.8901l-9.8547,1.2716c-.3179-2.2252-.9537-3.4968-1.9074-4.7684-.9537-.9537-2.2252-1.5895-4.1326-1.5895-2.2252,0-4.1326.9537-5.4042,2.861-1.5895,1.9074-2.5432,6.0399-2.861,12.3978,2.5432-3.1789,5.7221-4.7684,9.5368-4.7684,4.4505,0,7.9473,1.5895,11.1262,5.0863s4.4505,7.6294,4.4505,13.0336c0,5.7221-1.5895,10.1726-4.7684,13.6694s-7.3115,5.0863-12.3978,5.0863c-5.4042,0-9.8547-2.2252-13.3515-6.3579-3.4968-4.4505-5.0863-11.4442-5.0863-21.2988,0-10.1726,1.9074-17.4841,5.4042-21.9346,3.4968-4.4505,8.2652-6.6758,14.3052-6.6758,4.1326,0,7.3115,1.2716,10.1726,3.4968,2.2252,2.861,4.1326,6.0399,4.7684,10.4905h0ZM661.9437,493.7784c0,3.4968.6358,6.0399,2.2252,7.9473s3.1789,2.861,5.4042,2.861c1.9074,0,3.4968-.6358,4.7684-2.2252s1.9074-4.1326,1.9074-7.6294-.6358-6.0399-1.9074-7.9473c-1.2716-1.5895-3.1789-2.5432-5.0863-2.5432s-3.4968.6358-5.0863,2.2252c-1.5895,1.9074-2.2252,4.4505-2.2252,7.3115h0Z"/>
  </g>
</svg>