<?xml version="1.0" encoding="iso-8859-1"?>
<!-- Generator: Adobe Illustrator 26.0.1, SVG Export Plug-In . SVG Version: 6.00 Build 0)  -->
<svg version="1.1" id="Layer_1" xmlns="http://www.w3.org/2000/svg" xmlns:xlink="http://www.w3.org/1999/xlink" x="0px" y="0px"
	 viewBox="0 0 1000 1000" style="enable-background:new 0 0 1000 1000;" xml:space="preserve">
<g id="watermark_1_">
	<g>
		<g id="watermark" style="opacity:0.61;">
			<g>
				<g>
					<g>
						<g>
							<polygon style="fill:#FFFFFF;" points="421.112,924.528 409.007,952.493 402.615,952.493 390.55,924.528 397.541,924.528 
								406.051,944.503 414.68,924.528 							"/>
						</g>
						<g>
							<path style="fill:#FFFFFF;" d="M442.323,943.185h-16.26c0.599,2.677,2.876,4.315,6.153,4.315
								c2.277,0,3.915-0.679,5.393-2.077l3.316,3.595c-1.997,2.278-4.994,3.476-8.868,3.476c-7.431,0-12.265-4.674-12.265-11.067
								c0-6.432,4.914-11.066,11.466-11.066c6.312,0,11.186,4.235,11.186,11.146C442.443,941.987,442.363,942.666,442.323,943.185
								 M425.983,939.55h10.587c-0.44-2.717-2.478-4.475-5.274-4.475C428.46,935.075,426.422,936.793,425.983,939.55"/>
						</g>
						<g>
							<path style="fill:#FFFFFF;" d="M444.997,941.427c0-6.471,4.994-11.066,11.985-11.066c4.514,0,8.07,1.958,9.628,5.473
								l-4.834,2.597c-1.159-2.038-2.877-2.956-4.834-2.956c-3.156,0-5.633,2.198-5.633,5.952c0,3.756,2.477,5.953,5.633,5.953
								c1.958,0,3.675-0.879,4.834-2.956l4.834,2.637c-1.558,3.436-5.114,5.433-9.628,5.433
								C449.991,952.493,444.997,947.899,444.997,941.427"/>
						</g>
						<g>
							<path style="fill:#FFFFFF;" d="M484.386,951.135c-1.279,0.919-3.157,1.358-5.074,1.358c-5.073,0-8.03-2.597-8.03-7.711
								v-8.829h-3.316v-4.794h3.316v-5.233h6.232v5.233h5.353v4.794h-5.353v8.749c0,1.837,0.998,2.836,2.677,2.836
								c0.918,0,1.837-0.279,2.517-0.799L484.386,951.135z"/>
						</g>
					</g>
					<g>
						<path style="fill:#FFFFFF;" d="M527.157,930.68v5.753c-0.519-0.04-0.918-0.08-1.398-0.08c-3.435,0-5.713,1.877-5.713,5.993
							v10.147h-6.232V931h5.953v2.836C521.284,931.759,523.841,930.68,527.157,930.68"/>
					</g>
					<g>
						<path style="fill:#FFFFFF;" d="M528.954,949.257l2.197-4.874c2.357,1.718,5.873,2.916,9.229,2.916
							c3.836,0,5.393-1.278,5.393-2.996c0-5.233-16.26-1.638-16.26-12.025c0-4.754,3.835-8.709,11.785-8.709
							c3.516,0,7.112,0.839,9.708,2.477l-1.998,4.914c-2.597-1.478-5.273-2.197-7.75-2.197c-3.835,0-5.313,1.438-5.313,3.196
							c0,5.154,16.259,1.598,16.259,11.865c0,4.675-3.875,8.67-11.865,8.67C535.905,952.493,531.43,951.175,528.954,949.257"/>
					</g>
					<g>
						<path style="fill:#FFFFFF;" d="M577.131,943.185h-16.26c0.599,2.677,2.876,4.315,6.153,4.315c2.277,0,3.915-0.679,5.393-2.077
							l3.316,3.595c-1.998,2.278-4.994,3.476-8.869,3.476c-7.431,0-12.265-4.674-12.265-11.067c0-6.432,4.914-11.066,11.466-11.066
							c6.312,0,11.187,4.235,11.187,11.146C577.251,941.987,577.171,942.666,577.131,943.185 M560.791,939.55h10.587
							c-0.439-2.717-2.477-4.475-5.273-4.475C563.268,935.075,561.231,936.793,560.791,939.55"/>
					</g>
					<g>
						<path style="fill:#FFFFFF;" d="M602.337,943.185h-16.26c0.599,2.677,2.876,4.315,6.152,4.315c2.277,0,3.915-0.679,5.393-2.077
							l3.316,3.595c-1.998,2.278-4.994,3.476-8.869,3.476c-7.431,0-12.265-4.674-12.265-11.067c0-6.432,4.914-11.066,11.466-11.066
							c6.312,0,11.186,4.235,11.186,11.146C602.457,941.987,602.377,942.666,602.337,943.185 M585.997,939.55h10.587
							c-0.439-2.717-2.477-4.475-5.273-4.475C588.474,935.075,586.437,936.793,585.997,939.55"/>
					</g>
					<g>
						<polygon style="fill:#FFFFFF;" points="615.838,944.064 612.841,947.02 612.841,952.493 606.61,952.493 606.61,922.85 
							612.841,922.85 612.841,939.629 621.95,931 629.381,931 620.432,940.108 630.18,952.493 622.63,952.493 						"/>
					</g>
					<g>
						<path style="fill:#FFFFFF;" d="M514.371,955.416L514.371,955.416l-6.226-6.226c-0.947,1.107-2.075,2.054-3.339,2.796
							c-0.201,0.15-0.406,0.296-0.616,0.433l6.589,6.589c0.992,0.992,2.601,0.992,3.592,0
							C515.363,958.017,515.363,956.408,514.371,955.416"/>
					</g>
					<g>
						<path style="fill:#FFFFFF;" d="M499.965,929.04c0.48-0.377,1.077-0.612,1.735-0.612c0.091,0,0.181,0.005,0.27,0.013
							c-0.466-0.34-1.041-0.542-1.663-0.542c-0.859,0-1.619,0.392-2.137,0.998c-0.111,0-0.218,0.013-0.328,0.016
							c0.086-0.167,0.139-0.354,0.139-0.555c0-0.509-0.311-0.945-0.752-1.13c0.19,0.275,0.301,0.608,0.301,0.968
							c0,0.267-0.066,0.517-0.176,0.742c-6.119,0.437-10.95,5.527-10.95,11.757c0,6.516,5.283,11.799,11.799,11.799
							c6.517,0,11.8-5.283,11.8-11.799C510.004,934.777,505.644,929.892,499.965,929.04 M495.61,932.114
							c0.947,0,1.837,0.244,2.611,0.674c0.813-0.532,1.785-0.842,2.828-0.842c1.547,0,2.934,0.68,3.883,1.756
							c-0.948-0.826-2.186-1.328-3.541-1.328c-0.977,0-1.895,0.261-2.686,0.716c-0.172,0.1-0.34,0.208-0.499,0.326
							c-0.142-0.104-0.29-0.203-0.444-0.292c-0.803-0.476-1.741-0.749-2.743-0.749c-0.653,0-1.279,0.117-1.86,0.331
							C493.895,932.328,494.727,932.114,495.61,932.114 M503.858,941.785c0.25,0.664,0.394,1.38,0.394,2.131
							c0,3.34-2.707,6.047-6.047,6.047c-3.339,0-6.047-2.707-6.047-6.047c0-0.751,0.143-1.467,0.394-2.131
							c-1.35-0.831-2.253-2.317-2.253-4.019c0-2.607,2.114-4.72,4.72-4.72c1.23,0,2.346,0.474,3.186,1.244
							c0.84-0.77,1.956-1.244,3.186-1.244c2.607,0,4.72,2.113,4.72,4.72C506.111,939.467,505.208,940.954,503.858,941.785"/>
					</g>
					<g>
						<path style="fill:#FFFFFF;" d="M503.627,937.351c0,1.082-0.879,1.961-1.961,1.961c-1.082,0-1.961-0.879-1.961-1.961
							s0.879-1.961,1.961-1.961c0.22,0,0.428,0.037,0.625,0.102c-0.065,0.135-0.099,0.287-0.099,0.445
							c0,0.595,0.482,1.076,1.077,1.076c0.11,0,0.217-0.017,0.318-0.048C503.613,937.089,503.627,937.218,503.627,937.351"/>
					</g>
					<g>
						<path style="fill:#FFFFFF;" d="M496.201,937.351c0,0.818-0.665,1.482-1.483,1.482c-0.818,0-1.483-0.664-1.483-1.482
							s0.665-1.483,1.483-1.483c0.166,0,0.324,0.027,0.473,0.077c-0.049,0.102-0.075,0.217-0.075,0.337
							c0,0.449,0.364,0.814,0.814,0.814c0.083,0,0.164-0.013,0.241-0.036C496.191,937.153,496.201,937.251,496.201,937.351"/>
					</g>
					<g>
						<g>
							<g>
								<rect x="484.56" y="939.024" style="fill:#FFFFFF;" width="1.34" height="1.34"/>
							</g>
							<g>
								<rect x="510.51" y="939.024" style="fill:#FFFFFF;" width="1.34" height="1.34"/>
							</g>
							<g>
								<path style="fill:#FFFFFF;" d="M511.332,939.572h-0.304c0-7.07-5.752-12.823-12.823-12.823
									c-7.07,0-12.823,5.753-12.823,12.823h-0.305c0-3.506,1.365-6.803,3.845-9.282c2.479-2.48,5.776-3.845,9.282-3.845
									c3.507,0,6.803,1.365,9.283,3.845C509.966,932.769,511.332,936.065,511.332,939.572"/>
							</g>
						</g>
						<g>
							<rect x="497.534" y="925.927" style="fill:#FFFFFF;" width="1.34" height="1.34"/>
						</g>
						<g>
							<rect x="489.006" y="926.445" style="fill:#FFFFFF;" width="18.397" height="0.304"/>
						</g>
						<g>
							<path style="fill:#FFFFFF;" d="M489.494,926.658c0,0.235-0.191,0.427-0.427,0.427c-0.235,0-0.426-0.191-0.426-0.427
								s0.191-0.427,0.426-0.427C489.303,926.231,489.494,926.422,489.494,926.658"/>
						</g>
						<g>
							<path style="fill:#FFFFFF;" d="M507.829,926.658c0,0.235-0.191,0.427-0.427,0.427c-0.235,0-0.426-0.191-0.426-0.427
								s0.191-0.427,0.426-0.427C507.639,926.231,507.829,926.422,507.829,926.658"/>
						</g>
					</g>
				</g>
				<g>
					<path style="fill:#FFFFFF;" d="M640.109,951.171c0,3.395-5.146,3.395-5.146,0C634.963,947.779,640.109,947.779,640.109,951.171
						z"/>
				</g>
				<g>
					<g>
						<g>
							<path style="fill:#FFFFFF;" d="M307.849,936.236l3.859,13.253l4.038-13.253h4.823l-6.145,17.721h-5.073l-1.822-5.216
								l-1.572-5.896l-1.571,5.896l-1.822,5.216h-5.073l-6.18-17.721h4.858l4.038,13.253l3.822-13.253H307.849z"/>
						</g>
						<g>
							<path style="fill:#FFFFFF;" d="M340.449,936.236l3.859,13.253l4.038-13.253h4.823l-6.145,17.721h-5.073l-1.822-5.216
								l-1.571-5.896l-1.572,5.896l-1.822,5.216h-5.073l-6.18-17.721h4.858l4.038,13.253l3.822-13.253H340.449z"/>
						</g>
						<g>
							<path style="fill:#FFFFFF;" d="M373.048,936.236l3.859,13.253l4.038-13.253h4.823l-6.145,17.721h-5.073l-1.822-5.216
								l-1.572-5.896l-1.571,5.896l-1.822,5.216h-5.073l-6.18-17.721h4.858l4.038,13.253l3.822-13.253H373.048z"/>
						</g>
					</g>
					<g>
						<path style="fill:#FFFFFF;" d="M393.123,951.412c0,3.395-5.146,3.395-5.146,0C387.977,948.02,393.123,948.02,393.123,951.412z
							"/>
					</g>
					<g>
						<path style="fill:#FFFFFF;" d="M658.296,951.171c-2.036,2.001-4.177,2.787-6.787,2.787c-5.108,0-9.361-3.072-9.361-9.323
							c0-6.251,4.253-9.326,9.361-9.326c2.502,0,4.43,0.716,6.359,2.609l-2.752,2.894c-1.036-0.931-2.321-1.393-3.534-1.393
							c-2.929,0-5.073,2.144-5.073,5.216c0,3.357,2.286,5.143,5,5.143c1.393,0,2.787-0.393,3.857-1.463L658.296,951.171z"/>
					</g>
					<g>
						<path style="fill:#FFFFFF;" d="M678.097,944.777c0,5.073-3.465,9.181-9.181,9.181c-5.716,0-9.146-4.107-9.146-9.181
							c0-5.038,3.502-9.181,9.111-9.181S678.097,939.739,678.097,944.777z M664.128,944.777c0,2.679,1.609,5.181,4.788,5.181
							c3.179,0,4.788-2.502,4.788-5.181c0-2.644-1.859-5.216-4.788-5.216C665.772,939.561,664.128,942.133,664.128,944.777z"/>
					</g>
					<g>
						<path style="fill:#FFFFFF;" d="M692.828,953.958v-9.431c0-2.324-1.216-4.43-3.61-4.43c-2.356,0-3.75,2.106-3.75,4.43v9.431
							h-4.36v-17.649h4.038l0.323,2.144c0.928-1.786,2.964-2.429,4.643-2.429c2.109,0,4.218,0.858,5.216,3.287
							c1.574-2.502,3.61-3.217,5.896-3.217c5,0,7.467,3.075,7.467,8.36v9.504h-4.361v-9.504c0-2.321-0.963-4.288-3.322-4.288
							c-2.356,0-3.822,2.036-3.822,4.36v9.431H692.828z"/>
					</g>
				</g>
			</g>
		</g>
		<g style="opacity:0.61;">
			<g>
				<g>
					<path style="fill:#FFFFFF;" d="M708.973,859.493c-0.013-2.665-2.087-4.618-4.766-4.659c-2.011-0.031-1.81,0.261-1.815-1.887
						c-0.006-2.389-0.015-4.778,0.006-7.166c0.007-0.824-0.243-1.505-0.787-2.125c-5.098-5.81-10.184-11.63-15.281-17.441
						c-0.262-0.299-0.599-0.532-0.901-0.796c-13.528,0-27.055,0-40.583,0c-1.729,0.639-2.482,1.889-2.478,3.72
						c0.021,8.159,0.009,16.318,0.008,24.478c0,1.21-0.007,1.281-1.197,1.201c-3.258-0.221-5.477,2.147-5.436,5.426
						c0.096,7.568,0.028,15.137,0.031,22.706c0.001,3.44,1.887,5.32,5.333,5.331c1.267,0.004,1.268,0.004,1.268,1.306
						c0.001,4.831-0.002,9.662,0.002,14.493c0.002,2.595,1.262,3.855,3.85,3.855c17.446,0.001,34.891,0.001,52.337,0
						c2.543,0,3.822-1.268,3.824-3.799c0.005-4.912,0.001-9.823,0.003-14.735c0-1.115,0.005-1.112,1.131-1.121
						c0.589-0.005,1.177,0.017,1.761-0.127c2.169-0.535,3.68-2.273,3.689-4.503C709.007,875.597,709.011,867.545,708.973,859.493z
						 M647.034,828.716c11.619-0.001,23.237-0.001,34.856,0c1.193,0,1.206,0.015,1.207,1.222c0.001,4.884-0.002,9.767,0.002,14.651
						c0.001,1.765,0.543,2.305,2.307,2.306c4.159,0.003,8.318,0,12.477,0.003c0.997,0.001,1.044,0.046,1.046,1.052
						c0.006,1.932,0.005,3.864,0,5.796c-0.003,1.038-0.051,1.085-1.098,1.085c-8.479,0.002-16.958,0.001-25.438,0.001
						c-8.452,0-16.905,0-25.357,0c-1.198,0-1.202-0.003-1.202-1.221c-0.001-7.889-0.001-15.778,0-23.667
						C645.835,828.724,645.844,828.716,647.034,828.716z M697.728,903.645c-8.454,0.001-16.908,0.001-25.362,0.001
						c-8.427,0-16.854,0.001-25.281,0c-1.245,0-1.249-0.003-1.249-1.262c-0.001-4.348-0.003-8.696,0.001-13.043
						c0.001-1.01,0.051-1.059,1.041-1.059c16.989-0.002,33.977-0.002,50.966,0c1.041,0,1.086,0.044,1.087,1.094
						c0.003,4.348,0.003,8.696,0.001,13.043C698.931,903.634,698.92,903.645,697.728,903.645z"/>
				</g>
				<g>
					<g>
						<rect x="668.546" y="828.478" style="fill:#FFFFFF;" width="3.825" height="2.295"/>
					</g>
					<g>
						<rect x="664.722" y="830.773" style="fill:#FFFFFF;" width="3.825" height="2.295"/>
					</g>
					<g>
						<rect x="668.546" y="833.068" style="fill:#FFFFFF;" width="3.825" height="2.295"/>
					</g>
					<g>
						<rect x="664.722" y="835.363" style="fill:#FFFFFF;" width="3.825" height="2.295"/>
					</g>
					<g>
						<rect x="668.546" y="837.658" style="fill:#FFFFFF;" width="3.825" height="2.295"/>
					</g>
					<g>
						<rect x="664.722" y="839.953" style="fill:#FFFFFF;" width="3.825" height="2.295"/>
					</g>
					<g>
						<rect x="668.546" y="842.247" style="fill:#FFFFFF;" width="3.825" height="2.295"/>
					</g>
					<g>
						<rect x="664.722" y="844.542" style="fill:#FFFFFF;" width="3.825" height="2.295"/>
					</g>
					<g>
						<rect x="668.546" y="846.837" style="fill:#FFFFFF;" width="3.825" height="2.295"/>
					</g>
					<g>
						<rect x="664.722" y="849.132" style="fill:#FFFFFF;" width="3.825" height="2.295"/>
					</g>
					<g>
						<rect x="668.546" y="851.427" style="fill:#FFFFFF;" width="3.825" height="2.295"/>
					</g>
					<g>
						<rect x="664.722" y="853.722" style="fill:#FFFFFF;" width="3.825" height="2.295"/>
					</g>
				</g>
			</g>
			<g>
				<path style="fill:#FFFFFF;" d="M364.231,859.493c-0.013-2.665-2.087-4.618-4.766-4.659c-2.011-0.031-1.81,0.261-1.815-1.887
					c-0.006-2.389-0.015-4.778,0.006-7.166c0.007-0.824-0.243-1.505-0.787-2.125c-5.098-5.81-10.184-11.63-15.281-17.441
					c-0.262-0.299-0.599-0.532-0.901-0.796c-13.528,0-27.055,0-40.583,0c-1.729,0.639-2.482,1.889-2.478,3.72
					c0.021,8.159,0.009,16.318,0.008,24.478c0,1.21-0.007,1.281-1.197,1.201c-3.258-0.221-5.477,2.147-5.436,5.426
					c0.096,7.568,0.028,15.137,0.031,22.706c0.001,3.44,1.887,5.32,5.333,5.331c1.267,0.004,1.268,0.004,1.268,1.306
					c0.001,4.831-0.002,9.662,0.002,14.493c0.002,2.595,1.262,3.855,3.85,3.855c17.446,0.001,34.891,0.001,52.337,0
					c2.543,0,3.822-1.268,3.824-3.799c0.005-4.912,0.001-9.823,0.003-14.735c0-1.115,0.004-1.112,1.131-1.121
					c0.589-0.005,1.177,0.017,1.761-0.127c2.169-0.535,3.68-2.273,3.689-4.503C364.264,875.597,364.269,867.545,364.231,859.493z
					 M302.292,828.716c11.619-0.001,23.237-0.001,34.856,0c1.192,0,1.206,0.015,1.207,1.222c0.001,4.884-0.001,9.767,0.002,14.651
					c0.001,1.765,0.543,2.305,2.307,2.306c4.159,0.003,8.318,0,12.477,0.003c0.997,0.001,1.044,0.046,1.046,1.052
					c0.006,1.932,0.005,3.864,0,5.796c-0.003,1.038-0.051,1.085-1.098,1.085c-8.479,0.002-16.958,0.001-25.438,0.001
					c-8.452,0-16.905,0-25.357,0c-1.198,0-1.202-0.003-1.202-1.221c-0.001-7.889-0.001-15.778,0-23.667
					C301.093,828.724,301.102,828.716,302.292,828.716z M352.985,903.645c-8.454,0.001-16.908,0.001-25.362,0.001
					c-8.427,0-16.854,0.001-25.281,0c-1.245,0-1.249-0.003-1.249-1.262c-0.001-4.348-0.003-8.696,0.001-13.043
					c0.001-1.01,0.051-1.059,1.041-1.059c16.989-0.002,33.977-0.002,50.966,0c1.041,0,1.086,0.044,1.087,1.094
					c0.003,4.348,0.003,8.696,0.001,13.043C354.188,903.634,354.177,903.645,352.985,903.645z"/>
			</g>
			<g>
				<path style="fill:#FFFFFF;" d="M303.581,879.891v-17.193h6.051c0.816,0,1.581,0.132,2.293,0.396
					c0.712,0.264,1.333,0.636,1.861,1.117c0.527,0.48,0.944,1.053,1.248,1.717c0.304,0.665,0.456,1.397,0.456,2.198
					c0,0.816-0.152,1.557-0.456,2.221s-0.721,1.236-1.248,1.717c-0.529,0.48-1.149,0.852-1.861,1.117
					c-0.713,0.264-1.477,0.396-2.293,0.396h-2.809v6.315H303.581z M309.68,870.503c0.848,0,1.489-0.241,1.921-0.721
					c0.432-0.48,0.648-1.032,0.648-1.656c0-0.304-0.052-0.601-0.156-0.889c-0.105-0.288-0.264-0.54-0.48-0.756
					c-0.216-0.217-0.484-0.388-0.805-0.516c-0.32-0.129-0.696-0.193-1.128-0.193h-2.857v4.731H309.68z"/>
				<path style="fill:#FFFFFF;" d="M317.796,862.699h3.77l6.916,11.526h0.191l-0.191-3.314v-8.212h3.217v17.193h-3.409l-7.3-12.174
					h-0.191l0.191,3.314v8.86h-3.193V862.699z"/>
				<path style="fill:#FFFFFF;" d="M343.08,870.454h8.429c0.048,0.193,0.087,0.425,0.12,0.697c0.031,0.272,0.048,0.544,0.048,0.816
					c0,1.104-0.167,2.145-0.504,3.121c-0.336,0.977-0.865,1.849-1.585,2.618c-0.768,0.817-1.69,1.449-2.761,1.897
					c-1.073,0.448-2.298,0.672-3.674,0.672c-1.249,0-2.426-0.224-3.53-0.672c-1.104-0.447-2.065-1.072-2.881-1.873
					c-0.816-0.8-1.465-1.749-1.945-2.845c-0.48-1.097-0.72-2.293-0.72-3.59c0-1.296,0.24-2.493,0.72-3.589s1.129-2.045,1.945-2.845
					c0.816-0.8,1.777-1.425,2.881-1.873c1.104-0.448,2.281-0.672,3.53-0.672c1.392,0,2.637,0.24,3.734,0.72
					c1.097,0.48,2.036,1.144,2.821,1.993l-2.232,2.185c-0.562-0.592-1.185-1.044-1.874-1.357s-1.513-0.468-2.473-0.468
					c-0.786,0-1.53,0.14-2.234,0.421c-0.705,0.28-1.321,0.676-1.85,1.188c-0.527,0.512-0.949,1.133-1.259,1.861
					c-0.312,0.728-0.469,1.541-0.469,2.437c0,0.897,0.157,1.709,0.469,2.438c0.311,0.728,0.735,1.349,1.271,1.861
					c0.536,0.512,1.156,0.909,1.862,1.188c0.704,0.281,1.457,0.421,2.258,0.421c0.911,0,1.684-0.132,2.317-0.396
					c0.632-0.264,1.171-0.604,1.62-1.021c0.321-0.288,0.598-0.652,0.829-1.092s0.412-0.932,0.541-1.477h-5.404V870.454z"/>
			</g>
			<g>
				<path style="fill:#FFFFFF;" d="M443.437,859.493c-0.013-2.665-2.087-4.618-4.766-4.659c-2.011-0.031-1.81,0.261-1.815-1.887
					c-0.006-2.389-0.015-4.778,0.006-7.166c0.007-0.824-0.243-1.505-0.787-2.125c-5.098-5.81-10.184-11.63-15.281-17.441
					c-0.262-0.299-0.599-0.532-0.901-0.796c-13.528,0-27.055,0-40.583,0c-1.729,0.639-2.482,1.889-2.478,3.72
					c0.021,8.159,0.009,16.318,0.008,24.478c0,1.21-0.007,1.281-1.197,1.201c-3.258-0.221-5.477,2.147-5.436,5.426
					c0.096,7.568,0.028,15.137,0.031,22.706c0.001,3.44,1.887,5.32,5.333,5.331c1.267,0.004,1.268,0.004,1.268,1.306
					c0.001,4.831-0.002,9.662,0.002,14.493c0.002,2.595,1.262,3.855,3.85,3.855c17.446,0.001,34.891,0.001,52.337,0
					c2.543,0,3.822-1.268,3.824-3.799c0.005-4.912,0.001-9.823,0.003-14.735c0-1.115,0.004-1.112,1.131-1.121
					c0.589-0.005,1.177,0.017,1.761-0.127c2.169-0.535,3.68-2.273,3.689-4.503C443.47,875.597,443.475,867.545,443.437,859.493z
					 M381.498,828.716c11.619-0.001,23.237-0.001,34.856,0c1.192,0,1.206,0.015,1.207,1.222c0.001,4.884-0.001,9.767,0.002,14.651
					c0.001,1.765,0.543,2.305,2.307,2.306c4.159,0.003,8.318,0,12.477,0.003c0.997,0.001,1.044,0.046,1.046,1.052
					c0.006,1.932,0.005,3.864,0,5.796c-0.003,1.038-0.051,1.085-1.098,1.085c-8.479,0.002-16.958,0.001-25.438,0.001
					c-8.452,0-16.905,0-25.357,0c-1.198,0-1.202-0.003-1.202-1.221c-0.001-7.889-0.001-15.778,0-23.667
					C380.299,828.724,380.308,828.716,381.498,828.716z M432.192,903.645c-8.454,0.001-16.908,0.001-25.362,0.001
					c-8.427,0-16.854,0.001-25.281,0c-1.245,0-1.249-0.003-1.249-1.262c-0.001-4.348-0.002-8.696,0.001-13.043
					c0.001-1.01,0.051-1.059,1.041-1.059c16.989-0.002,33.977-0.002,50.966,0c1.041,0,1.086,0.044,1.087,1.094
					c0.003,4.348,0.003,8.696,0.001,13.043C433.394,903.634,433.384,903.645,432.192,903.645z"/>
			</g>
			<g>
				<path style="fill:#FFFFFF;" d="M402.272,862.699h3.698l6.46,17.193h-3.578l-1.416-4.106h-6.628l-1.417,4.106h-3.578
					L402.272,862.699z M406.379,872.808l-1.537-4.298l-0.625-2.089h-0.192l-0.625,2.089l-1.537,4.298H406.379z"/>
				<path style="fill:#FFFFFF;" d="M415.815,866.541c-0.273,0-0.533-0.052-0.781-0.156c-0.248-0.104-0.465-0.248-0.648-0.432
					c-0.184-0.184-0.328-0.396-0.432-0.636c-0.105-0.241-0.156-0.504-0.156-0.793s0.052-0.552,0.156-0.793
					c0.104-0.24,0.248-0.452,0.432-0.636c0.184-0.184,0.4-0.328,0.648-0.432c0.248-0.104,0.508-0.156,0.781-0.156
					c0.56,0,1.041,0.196,1.441,0.588c0.4,0.393,0.601,0.869,0.601,1.429c0,0.56-0.201,1.037-0.601,1.428
					C416.856,866.345,416.375,866.541,415.815,866.541z M414.255,879.891v-11.766h3.145v11.766H414.255z"/>
			</g>
			<g>
				<path style="fill:#FFFFFF;" d="M524.043,859.493c-0.013-2.665-2.087-4.618-4.766-4.659c-2.011-0.031-1.81,0.261-1.815-1.887
					c-0.006-2.389-0.015-4.778,0.006-7.166c0.007-0.824-0.243-1.505-0.787-2.125c-5.098-5.81-10.184-11.63-15.281-17.441
					c-0.262-0.299-0.599-0.532-0.901-0.796c-13.528,0-27.055,0-40.583,0c-1.729,0.639-2.482,1.889-2.478,3.72
					c0.021,8.159,0.009,16.318,0.008,24.478c0,1.21-0.007,1.281-1.197,1.201c-3.258-0.221-5.477,2.147-5.436,5.426
					c0.096,7.568,0.028,15.137,0.031,22.706c0.001,3.44,1.887,5.32,5.333,5.331c1.267,0.004,1.268,0.004,1.268,1.306
					c0.001,4.831-0.002,9.662,0.002,14.493c0.002,2.595,1.262,3.855,3.85,3.855c17.446,0.001,34.891,0.001,52.337,0
					c2.543,0,3.822-1.268,3.824-3.799c0.005-4.912,0.001-9.823,0.003-14.735c0-1.115,0.004-1.112,1.131-1.121
					c0.589-0.005,1.177,0.017,1.761-0.127c2.169-0.535,3.68-2.273,3.689-4.503C524.076,875.597,524.081,867.545,524.043,859.493z
					 M462.104,828.716c11.619-0.001,23.237-0.001,34.856,0c1.192,0,1.206,0.015,1.207,1.222c0.001,4.884-0.001,9.767,0.002,14.651
					c0.001,1.765,0.543,2.305,2.307,2.306c4.159,0.003,8.318,0,12.477,0.003c0.997,0.001,1.044,0.046,1.046,1.052
					c0.006,1.932,0.005,3.864,0,5.796c-0.003,1.038-0.051,1.085-1.098,1.085c-8.479,0.002-16.958,0.001-25.438,0.001
					c-8.452,0-16.905,0-25.357,0c-1.198,0-1.202-0.003-1.202-1.221c-0.001-7.889-0.001-15.778,0-23.667
					C460.905,828.724,460.914,828.716,462.104,828.716z M512.798,903.645c-8.454,0.001-16.908,0.001-25.362,0.001
					c-8.427,0-16.854,0.001-25.281,0c-1.245,0-1.249-0.003-1.249-1.262c-0.001-4.348-0.002-8.696,0.001-13.043
					c0.001-1.01,0.051-1.059,1.041-1.059c16.989-0.002,33.977-0.002,50.966,0c1.041,0,1.086,0.044,1.087,1.094
					c0.003,4.348,0.003,8.696,0.001,13.043C514,903.634,513.989,903.645,512.798,903.645z"/>
			</g>
			<g>
				<path style="fill:#FFFFFF;" d="M470.308,880.275c-0.737,0-1.441-0.104-2.113-0.312c-0.672-0.208-1.289-0.52-1.849-0.936
					c-0.56-0.416-1.048-0.925-1.464-1.525c-0.417-0.601-0.745-1.301-0.985-2.101l3.049-1.2c0.224,0.864,0.616,1.581,1.177,2.149
					s1.297,0.852,2.209,0.852c0.336,0,0.66-0.044,0.973-0.132c0.312-0.087,0.592-0.216,0.84-0.384
					c0.248-0.168,0.444-0.38,0.589-0.636c0.144-0.256,0.216-0.552,0.216-0.888c0-0.32-0.056-0.608-0.168-0.865
					c-0.112-0.255-0.3-0.495-0.564-0.72c-0.264-0.224-0.609-0.44-1.033-0.648c-0.424-0.208-0.948-0.424-1.572-0.648l-1.056-0.384
					c-0.465-0.16-0.933-0.376-1.405-0.648c-0.472-0.272-0.9-0.6-1.284-0.985c-0.385-0.384-0.701-0.836-0.949-1.357
					c-0.249-0.52-0.372-1.108-0.372-1.765c0-0.672,0.132-1.301,0.396-1.885c0.264-0.584,0.64-1.096,1.129-1.537
					c0.488-0.44,1.072-0.784,1.753-1.032c0.681-0.248,1.437-0.372,2.269-0.372c0.864,0,1.612,0.116,2.245,0.348
					c0.633,0.232,1.168,0.528,1.609,0.888c0.44,0.36,0.796,0.757,1.068,1.188c0.272,0.433,0.472,0.84,0.601,1.225l-2.857,1.2
					c-0.161-0.48-0.453-0.913-0.876-1.297c-0.425-0.384-1.005-0.576-1.741-0.576c-0.704,0-1.289,0.164-1.753,0.492
					c-0.465,0.329-0.697,0.757-0.697,1.285c0,0.512,0.224,0.949,0.672,1.309c0.448,0.36,1.161,0.708,2.137,1.044l1.081,0.36
					c0.688,0.241,1.316,0.517,1.885,0.828c0.568,0.312,1.056,0.684,1.465,1.117c0.408,0.433,0.72,0.925,0.936,1.477
					c0.217,0.552,0.324,1.189,0.324,1.909c0,0.897-0.18,1.669-0.54,2.317c-0.36,0.648-0.82,1.181-1.38,1.597
					c-0.561,0.416-1.193,0.728-1.897,0.936C471.668,880.172,470.98,880.275,470.308,880.275z"/>
				<path style="fill:#FFFFFF;" d="M477.175,862.699h3.506l3.554,10.349l0.625,2.209h0.192l0.672-2.209l3.698-10.349h3.506
					l-6.268,17.193h-3.409L477.175,862.699z"/>
				<path style="fill:#FFFFFF;" d="M502.388,870.454h8.428c0.048,0.193,0.088,0.425,0.12,0.697c0.033,0.272,0.049,0.544,0.049,0.816
					c0,1.104-0.169,2.145-0.505,3.121c-0.336,0.977-0.864,1.849-1.585,2.618c-0.768,0.817-1.688,1.449-2.761,1.897
					c-1.073,0.448-2.298,0.672-3.674,0.672c-1.249,0-2.425-0.224-3.529-0.672c-1.105-0.447-2.066-1.072-2.882-1.873
					c-0.816-0.8-1.465-1.749-1.945-2.845c-0.48-1.097-0.72-2.293-0.72-3.59c0-1.296,0.241-2.493,0.72-3.589
					c0.48-1.097,1.129-2.045,1.945-2.845c0.816-0.8,1.777-1.425,2.882-1.873c1.104-0.448,2.28-0.672,3.529-0.672
					c1.392,0,2.637,0.24,3.734,0.72c1.097,0.48,2.038,1.144,2.822,1.993l-2.234,2.185c-0.56-0.592-1.185-1.044-1.874-1.357
					c-0.687-0.312-1.512-0.468-2.473-0.468c-0.784,0-1.528,0.14-2.234,0.421c-0.704,0.28-1.321,0.676-1.848,1.188
					c-0.528,0.512-0.949,1.133-1.261,1.861c-0.312,0.728-0.468,1.541-0.468,2.437c0,0.897,0.156,1.709,0.468,2.438
					c0.312,0.728,0.737,1.349,1.273,1.861c0.536,0.512,1.156,0.909,1.86,1.188c0.705,0.281,1.457,0.421,2.258,0.421
					c0.913,0,1.685-0.132,2.317-0.396c0.632-0.264,1.173-0.604,1.621-1.021c0.32-0.288,0.596-0.652,0.828-1.092
					c0.233-0.44,0.412-0.932,0.541-1.477h-5.402V870.454z"/>
			</g>
			<g>
				<path style="fill:#FFFFFF;" d="M602.976,859.493c-0.013-2.665-2.087-4.618-4.766-4.659c-2.011-0.031-1.81,0.261-1.815-1.887
					c-0.006-2.389-0.015-4.778,0.006-7.166c0.007-0.824-0.243-1.505-0.787-2.125c-5.098-5.81-10.184-11.63-15.281-17.441
					c-0.262-0.299-0.599-0.532-0.901-0.796c-13.528,0-27.055,0-40.583,0c-1.729,0.639-2.482,1.889-2.478,3.72
					c0.021,8.159,0.009,16.318,0.008,24.478c0,1.21-0.007,1.281-1.197,1.201c-3.258-0.221-5.477,2.147-5.436,5.426
					c0.096,7.568,0.028,15.137,0.031,22.706c0.001,3.44,1.887,5.32,5.333,5.331c1.267,0.004,1.268,0.004,1.268,1.306
					c0.001,4.831-0.002,9.662,0.002,14.493c0.002,2.595,1.262,3.855,3.85,3.855c17.446,0.001,34.891,0.001,52.337,0
					c2.543,0,3.822-1.268,3.824-3.799c0.005-4.912,0.001-9.823,0.003-14.735c0-1.115,0.005-1.112,1.131-1.121
					c0.589-0.005,1.178,0.017,1.761-0.127c2.169-0.535,3.68-2.273,3.689-4.503C603.01,875.597,603.015,867.545,602.976,859.493z
					 M541.037,828.716c11.619-0.001,23.237-0.001,34.856,0c1.193,0,1.206,0.015,1.207,1.222c0.001,4.884-0.002,9.767,0.002,14.651
					c0.001,1.765,0.543,2.305,2.307,2.306c4.159,0.003,8.318,0,12.477,0.003c0.997,0.001,1.044,0.046,1.046,1.052
					c0.006,1.932,0.005,3.864,0,5.796c-0.003,1.038-0.051,1.085-1.098,1.085c-8.479,0.002-16.958,0.001-25.438,0.001
					c-8.452,0-16.905,0-25.357,0c-1.198,0-1.202-0.003-1.202-1.221c-0.001-7.889-0.001-15.778,0-23.667
					C539.838,828.724,539.847,828.716,541.037,828.716z M591.731,903.645c-8.454,0.001-16.908,0.001-25.362,0.001
					c-8.427,0-16.854,0.001-25.281,0c-1.245,0-1.249-0.003-1.249-1.262c-0.001-4.348-0.003-8.696,0.001-13.043
					c0.001-1.01,0.051-1.059,1.041-1.059c16.989-0.002,33.977-0.002,50.966,0c1.041,0,1.086,0.044,1.087,1.094
					c0.003,4.348,0.003,8.696,0.001,13.043C592.934,903.634,592.923,903.645,591.731,903.645z"/>
			</g>
			<g>
				<path style="fill:#FFFFFF;" d="M549.998,865.772v3.986h6.891v3.074h-6.891v3.986h7.659v3.073h-10.901v-17.193h10.901v3.073
					H549.998z"/>
				<path style="fill:#FFFFFF;" d="M560.635,879.891v-17.193h6.051c0.816,0,1.581,0.132,2.293,0.396
					c0.712,0.264,1.333,0.636,1.861,1.117c0.528,0.48,0.944,1.053,1.249,1.717c0.304,0.665,0.456,1.397,0.456,2.198
					c0,0.816-0.152,1.557-0.456,2.221c-0.305,0.664-0.721,1.236-1.249,1.717c-0.528,0.48-1.149,0.852-1.861,1.117
					c-0.713,0.264-1.477,0.396-2.293,0.396h-2.809v6.315H560.635z M566.735,870.503c0.848,0,1.489-0.241,1.921-0.721
					c0.432-0.48,0.648-1.032,0.648-1.656c0-0.304-0.052-0.601-0.156-0.889c-0.105-0.288-0.264-0.54-0.48-0.756
					c-0.216-0.217-0.484-0.388-0.805-0.516c-0.32-0.129-0.696-0.193-1.128-0.193h-2.857v4.731H566.735z"/>
				<path style="fill:#FFFFFF;" d="M580.109,880.275c-0.737,0-1.441-0.104-2.113-0.312c-0.672-0.208-1.289-0.52-1.849-0.936
					c-0.56-0.416-1.049-0.925-1.465-1.525c-0.416-0.601-0.744-1.301-0.985-2.101l3.049-1.2c0.224,0.864,0.616,1.581,1.177,2.149
					c0.56,0.568,1.296,0.852,2.209,0.852c0.336,0,0.66-0.044,0.973-0.132c0.312-0.087,0.592-0.216,0.84-0.384
					c0.248-0.168,0.444-0.38,0.588-0.636c0.144-0.256,0.217-0.552,0.217-0.888c0-0.32-0.057-0.608-0.168-0.865
					c-0.112-0.255-0.3-0.495-0.565-0.72c-0.264-0.224-0.608-0.44-1.032-0.648c-0.424-0.208-0.949-0.424-1.573-0.648l-1.056-0.384
					c-0.465-0.16-0.932-0.376-1.404-0.648c-0.473-0.272-0.901-0.6-1.285-0.985c-0.384-0.384-0.701-0.836-0.949-1.357
					c-0.248-0.52-0.372-1.108-0.372-1.765c0-0.672,0.132-1.301,0.396-1.885c0.264-0.584,0.64-1.096,1.129-1.537
					c0.489-0.44,1.073-0.784,1.753-1.032c0.68-0.248,1.437-0.372,2.269-0.372c0.865,0,1.613,0.116,2.246,0.348
					c0.632,0.232,1.168,0.528,1.609,0.888c0.44,0.36,0.796,0.757,1.068,1.188c0.272,0.433,0.472,0.84,0.601,1.225l-2.857,1.2
					c-0.161-0.48-0.453-0.913-0.877-1.297s-1.005-0.576-1.741-0.576c-0.705,0-1.289,0.164-1.753,0.492
					c-0.465,0.329-0.696,0.757-0.696,1.285c0,0.512,0.224,0.949,0.672,1.309c0.448,0.36,1.16,0.708,2.137,1.044l1.08,0.36
					c0.689,0.241,1.317,0.517,1.885,0.828c0.568,0.312,1.056,0.684,1.465,1.117c0.408,0.433,0.72,0.925,0.936,1.477
					c0.216,0.552,0.324,1.189,0.324,1.909c0,0.897-0.18,1.669-0.54,2.317c-0.36,0.648-0.821,1.181-1.38,1.597
					c-0.561,0.416-1.193,0.728-1.897,0.936C581.47,880.172,580.782,880.275,580.109,880.275z"/>
			</g>
			<g>
				<path style="fill:#FFFFFF;" d="M655.431,876.625l8.716-10.854h-8.332v-3.073h12.103v3.266l-8.621,10.854h8.716v3.073h-12.582
					V876.625z"/>
				<path style="fill:#FFFFFF;" d="M670.702,862.699h3.242v17.193h-3.242V862.699z"/>
				<path style="fill:#FFFFFF;" d="M677.402,879.891v-17.193h6.051c0.817,0,1.581,0.132,2.293,0.396
					c0.712,0.264,1.333,0.636,1.861,1.117s0.944,1.053,1.249,1.717c0.304,0.665,0.456,1.397,0.456,2.198
					c0,0.816-0.152,1.557-0.456,2.221c-0.305,0.664-0.721,1.236-1.249,1.717s-1.149,0.852-1.861,1.117
					c-0.713,0.264-1.477,0.396-2.293,0.396h-2.809v6.315H677.402z M683.501,870.503c0.848,0,1.489-0.241,1.921-0.721
					c0.433-0.48,0.648-1.032,0.648-1.656c0-0.304-0.052-0.601-0.156-0.889c-0.105-0.288-0.264-0.54-0.48-0.756
					c-0.216-0.217-0.484-0.388-0.805-0.516c-0.32-0.129-0.696-0.193-1.128-0.193h-2.857v4.731H683.501z"/>
			</g>
		</g>
		<g style="opacity:0.61;">
			<path style="fill:#FFFFFF;" d="M609.144,863.785h19.739v4.881h-19.739V863.785z M609.144,872.201h19.739v4.884h-19.739V872.201z"
				/>
		</g>
	</g>
	<g style="opacity:0.61;">
		<path style="fill:#FFFFFF;" d="M297,963.076h3.498c2.75,0,4.603,1.768,4.603,4.297s-1.854,4.296-4.603,4.296H297V963.076z
			 M300.449,970.883c2.283,0,3.756-1.448,3.756-3.51s-1.473-3.511-3.756-3.511h-2.541v7.021H300.449z"/>
		<path style="fill:#FFFFFF;" d="M315.251,967.373c0-2.504,1.915-4.37,4.517-4.37c2.577,0,4.505,1.853,4.505,4.37
			c0,2.516-1.927,4.369-4.505,4.369C317.166,971.742,315.251,969.877,315.251,967.373z M323.365,967.373
			c0-2.05-1.534-3.56-3.596-3.56c-2.075,0-3.621,1.51-3.621,3.56c0,2.049,1.546,3.559,3.621,3.559
			C321.831,970.932,323.365,969.422,323.365,967.373z"/>
		<path style="fill:#FFFFFF;" d="M346.724,963.076l-2.897,8.593h-0.957l-2.516-7.328l-2.529,7.328h-0.945l-2.897-8.593h0.933
			l2.479,7.389l2.566-7.389h0.847l2.529,7.426l2.516-7.426H346.724z"/>
		<path style="fill:#FFFFFF;" d="M364.435,963.076v8.593h-0.749l-5.524-6.972v6.972h-0.908v-8.593h0.749l5.536,6.973v-6.973H364.435
			z"/>
		<path style="fill:#FFFFFF;" d="M376.108,963.076h0.908v7.807h4.812v0.786h-5.72V963.076z"/>
		<path style="fill:#FFFFFF;" d="M391.279,967.373c0-2.504,1.915-4.37,4.517-4.37c2.577,0,4.505,1.853,4.505,4.37
			c0,2.516-1.927,4.369-4.505,4.369C393.194,971.742,391.279,969.877,391.279,967.373z M399.392,967.373
			c0-2.05-1.534-3.56-3.596-3.56c-2.075,0-3.621,1.51-3.621,3.56c0,2.049,1.546,3.559,3.621,3.559
			C397.858,970.932,399.392,969.422,399.392,967.373z"/>
		<path style="fill:#FFFFFF;" d="M416.478,969.374h-4.787l-1.031,2.295h-0.945l3.928-8.593h0.896l3.928,8.593h-0.957
			L416.478,969.374z M416.147,968.637l-2.062-4.615l-2.062,4.615H416.147z"/>
		<path style="fill:#FFFFFF;" d="M428.765,963.076h3.498c2.75,0,4.603,1.768,4.603,4.297s-1.854,4.296-4.603,4.296h-3.498V963.076z
			 M432.214,970.883c2.283,0,3.756-1.448,3.756-3.51s-1.473-3.511-3.756-3.511h-2.541v7.021H432.214z"/>
		<path style="fill:#FFFFFF;" d="M465.256,969.374h-4.787l-1.031,2.295h-0.945l3.928-8.593h0.896l3.928,8.593h-0.957
			L465.256,969.374z M464.925,968.637l-2.062-4.615l-2.062,4.615H464.925z"/>
		<path style="fill:#FFFFFF;" d="M477.543,963.076h0.908v7.807h4.812v0.786h-5.72V963.076z"/>
		<path style="fill:#FFFFFF;" d="M493.647,963.076h0.908v7.807h4.812v0.786h-5.72V963.076z"/>
		<path style="fill:#FFFFFF;" d="M522.749,963.862v3.376h4.443v0.786h-4.443v3.646h-0.909v-8.593h5.891v0.786H522.749z"/>
		<path style="fill:#FFFFFF;" d="M538.485,963.076h0.909v8.593h-0.909V963.076z"/>
		<path style="fill:#FFFFFF;" d="M551.067,963.076h0.909v7.807h4.811v0.786h-5.72V963.076z"/>
		<path style="fill:#FFFFFF;" d="M573.246,970.883v0.786h-6.076v-8.593h5.891v0.786h-4.983v3.056h4.443v0.774h-4.443v3.191H573.246z
			"/>
		<path style="fill:#FFFFFF;" d="M597.255,963.862v3.376h4.443v0.786h-4.443v3.646h-0.909v-8.593h5.891v0.786H597.255z"/>
		<path style="fill:#FFFFFF;" d="M612.119,967.373c0-2.504,1.915-4.37,4.517-4.37c2.577,0,4.505,1.853,4.505,4.37
			c0,2.516-1.927,4.369-4.505,4.369C614.034,971.742,612.119,969.877,612.119,967.373z M620.232,967.373
			c0-2.05-1.534-3.56-3.596-3.56c-2.075,0-3.622,1.51-3.622,3.56c0,2.049,1.547,3.559,3.622,3.559
			C618.698,970.932,620.232,969.422,620.232,967.373z"/>
		<path style="fill:#FFFFFF;" d="M637.919,971.669l-1.963-2.762c-0.222,0.024-0.442,0.037-0.688,0.037h-2.307v2.725h-0.909v-8.593
			h3.216c2.185,0,3.511,1.105,3.511,2.946c0,1.351-0.712,2.295-1.964,2.7l2.099,2.946H637.919z M637.871,966.022
			c0-1.375-0.909-2.161-2.627-2.161h-2.283v4.309h2.283C636.962,968.17,637.871,967.373,637.871,966.022z"/>
		<path style="fill:#FFFFFF;" d="M658.724,963.076v8.593h-0.871v-6.874l-3.376,5.782h-0.429l-3.376-5.745v6.837h-0.872v-8.593h0.749
			l3.732,6.371l3.695-6.371H658.724z"/>
		<path style="fill:#FFFFFF;" d="M675.787,969.374h-4.788l-1.031,2.295h-0.946l3.928-8.593h0.896l3.928,8.593h-0.957
			L675.787,969.374z M675.455,968.637l-2.062-4.615l-2.062,4.615H675.455z"/>
		<path style="fill:#FFFFFF;" d="M689.312,963.862h-3.02v-0.786h6.948v0.786h-3.02v7.807h-0.908V963.862z"/>
		<path style="fill:#FFFFFF;" d="M702.605,970.626l0.356-0.7c0.614,0.601,1.706,1.043,2.835,1.043c1.608,0,2.308-0.675,2.308-1.522
			c0-2.357-5.29-0.908-5.29-4.087c0-1.265,0.982-2.357,3.167-2.357c0.97,0,1.976,0.282,2.664,0.761l-0.307,0.724
			c-0.737-0.479-1.596-0.712-2.357-0.712c-1.571,0-2.271,0.7-2.271,1.559c0,2.357,5.29,0.933,5.29,4.063
			c0,1.265-1.006,2.344-3.204,2.344C704.508,971.742,703.243,971.288,702.605,970.626z"/>
	</g>
</g>
<g>
</g>
<g>
	<polygon style="fill-rule:evenodd;clip-rule:evenodd;fill:#EC1C24;" points="244.354,500.053 499.946,107 755.646,500.053 
		499.946,893 244.354,500.053 	"/>
	<polygon style="fill-rule:evenodd;clip-rule:evenodd;fill:#FFE600;" points="247.791,500.053 499.946,887.63 752.102,500.053 
		499.946,112.369 247.791,500.053 	"/>
	<path style="fill-rule:evenodd;clip-rule:evenodd;fill:#404041;" d="M501.128,825.343l-1.181,2.04l-1.289-2.04
		c-7.409-12.565-12.457-27.278-14.711-43.602c-2.149-14.928-2.041-31.143,0.752-48.004c-5.692,3.115-10.633,5.692-15.251,7.626
		c-5.584,2.147-10.524,3.329-15.464,3.221c-13.746-0.43-22.122-7.41-27.6-17.075c-5.477-9.343-7.946-21.156-10.095-31.573
		l-0.322-1.826h1.827c11.813,0.214,21.8-2.578,29.854-7.088c9.343-5.37,16.216-13.102,20.512-21.264
		c3.545-6.872,5.047-14.39,5.047-20.942c-0.107-6.657-1.932-12.027-4.939-13.853c-2.471-1.397-8.054-1.074-14.176,0.536
		c-5.692,1.505-11.813,4.189-16.109,7.84c-6.121,5.156-10.203,11.814-12.887,18.257c-2.792,6.551-4.296,12.887-5.048,17.291
		l-0.214,1.61l-1.61-0.428c-3.759-0.967-7.196-2.041-10.203-3.33c-13.424-5.262-21.372-12.887-25.345-22.016
		c-3.867-9.128-3.759-19.651-0.859-30.821c0.752-3.114,1.827-6.336,3.007-9.558c-8.484-2.255-16.109-6.55-21.586-14.282
		c-5.799-8.162-9.236-19.976-8.914-37.05l0.108-1.505h1.396h288.24h1.395l0.109,1.505c0.429,17.074-3.115,28.888-8.915,37.05
		c-5.477,7.732-13.102,12.027-21.586,14.282c1.181,3.221,2.255,6.444,3.007,9.558c2.899,11.17,3.115,21.694-0.858,30.821
		c-3.974,9.129-11.921,16.753-25.238,22.016c-3.114,1.289-6.55,2.363-10.309,3.33l-1.504,0.428l-0.322-1.61
		c-0.752-4.404-2.255-10.74-5.047-17.291c-2.685-6.443-6.766-13.101-12.887-18.257c-4.296-3.651-10.418-6.335-16.109-7.84
		c-6.122-1.61-11.706-1.933-14.176-0.536c-3.007,1.826-4.833,7.196-4.833,13.853c-0.108,6.552,1.396,14.07,4.939,20.942
		c4.296,8.162,11.169,15.894,20.513,21.264c8.054,4.509,18.041,7.302,29.854,7.088h1.826l-0.322,1.826
		c-2.041,10.417-4.618,22.23-9.987,31.573c-5.584,9.665-13.962,16.646-27.707,17.075c-4.94,0.108-9.881-1.074-15.357-3.221
		c-4.726-1.933-9.665-4.511-15.357-7.626c2.792,16.861,2.899,33.077,0.86,48.004C513.692,798.065,508.645,812.779,501.128,825.343
		L501.128,825.343z"/>
	<path style="fill-rule:evenodd;clip-rule:evenodd;fill:#0094D9;" d="M499.946,821.584c6.55-11.705,10.954-25.345,13.102-40.272
		c2.255-15.572,1.933-32.54-1.288-50.152l-0.537-3.115l2.685,1.611c6.766,3.759,12.457,6.873,17.719,8.913
		c5.048,2.041,9.665,3.223,14.176,3.007c12.457-0.322,20.189-6.766,25.237-15.464c4.833-8.485,7.302-19.223,9.343-28.996
		c-11.599-0.108-21.478-3.007-29.533-7.518c-9.987-5.692-17.182-13.854-21.692-22.553c-3.759-7.195-5.478-15.356-5.37-22.23
		c0.108-7.732,2.363-14.068,6.336-16.322c3.115-1.827,9.665-1.719,16.431,0.106c6.121,1.611,12.565,4.51,17.289,8.484
		c6.444,5.477,10.847,12.566,13.746,19.331c2.577,6.122,3.973,11.921,4.833,16.323c3.007-0.752,5.908-1.718,8.485-2.685
		c12.563-5.047,19.975-12.027,23.626-20.511c3.651-8.484,3.437-18.364,0.752-28.889c-0.967-3.543-2.149-7.088-3.545-10.738
		l-0.644-1.611l1.611-0.322c8.484-2.041,16.216-6.122,21.586-13.638c5.261-7.411,8.484-18.258,8.268-33.83H357.33
		c-0.214,15.572,3.007,26.419,8.27,33.83c5.477,7.516,13.102,11.597,21.586,13.638l1.611,0.322l-0.645,1.611
		c-1.396,3.65-2.577,7.194-3.543,10.738c-2.685,10.525-2.901,20.406,0.752,28.889c3.651,8.484,11.169,15.572,23.733,20.511
		c2.577,0.967,5.37,1.933,8.376,2.685c0.859-4.403,2.255-10.201,4.834-16.323c3.006-6.765,7.302-13.854,13.745-19.331
		c4.726-3.973,11.17-6.872,17.291-8.484c6.874-1.826,13.316-1.933,16.431-0.106c3.973,2.254,6.228,8.59,6.335,16.322
		c0.109,6.874-1.502,15.036-5.369,22.23c-4.511,8.699-11.705,16.861-21.694,22.553c-8.054,4.51-17.826,7.41-29.426,7.518
		c1.935,9.773,4.404,20.511,9.237,28.996c5.047,8.698,12.779,15.142,25.237,15.464c4.511,0.216,9.128-0.966,14.176-3.007
		c5.261-2.041,10.953-5.155,17.719-8.913l2.685-1.611l-0.538,3.115c-3.221,17.612-3.543,34.58-1.288,50.152
		C488.993,796.24,493.396,809.879,499.946,821.584L499.946,821.584z"/>
	<polygon style="fill-rule:evenodd;clip-rule:evenodd;fill:#404041;" points="499.946,501.557 293.754,501.557 295.15,499.195 
		498.657,186.146 499.946,184.214 501.128,186.146 704.742,499.195 706.246,501.557 499.946,501.557 	"/>
	<polygon style="fill-rule:evenodd;clip-rule:evenodd;fill:#0094D9;" points="499.946,498.551 700.769,498.551 499.946,189.692 
		299.124,498.551 499.946,498.551 	"/>
	<path style="fill-rule:evenodd;clip-rule:evenodd;fill:#231F20;" d="M499.946,395.239c24.271,0,46.285,9.881,62.287,25.882
		c16.001,16.001,25.882,38.017,25.882,62.287c0,24.377-9.881,46.285-25.882,62.287c-16.001,15.895-38.016,25.881-62.287,25.881
		c-24.27,0-46.285-9.986-62.287-25.881c-15.894-16.001-25.881-37.909-25.881-62.287c0-24.27,9.987-46.285,25.881-62.287
		C453.661,405.12,475.676,395.239,499.946,395.239L499.946,395.239z"/>
	<path style="fill-rule:evenodd;clip-rule:evenodd;fill:#FFFFFF;" d="M574.261,527.868v-36.62l12.243-2.793
		C585.644,502.846,581.243,516.163,574.261,527.868L574.261,527.868z M574.261,476.428v-37.48
		c7.84,12.994,12.349,28.244,12.349,44.46c0,1.61,0,3.115-0.107,4.618L574.261,476.428L574.261,476.428z M574.261,438.948v37.48
		l-4.833-4.618c-0.214-4.295-0.752-8.054-1.826-11.599c-0.859-2.898-1.933-5.691-3.329-8.268v-20.297l0.752-5.37
		C568.462,430.249,571.577,434.437,574.261,438.948L574.261,438.948z M574.261,491.247v36.62c-2.899,4.833-6.228,9.237-9.987,13.424
		v-47.79L574.261,491.247L574.261,491.247z M564.274,478.575c0.752-1.288,1.504-2.577,2.255-3.865c0-5.264-0.644-9.665-1.719-13.64
		c-0.214-0.536-0.321-1.074-0.536-1.611V478.575L564.274,478.575z M527.438,407.805l8.591-3.223
		c-2.792-1.18-5.691-2.362-8.591-3.329V407.805L527.438,407.805z M564.274,431.646v20.297c-0.644-1.397-1.396-2.685-2.148-3.974
		L564.274,431.646L564.274,431.646z M564.274,459.459c-1.074-3.437-2.577-6.55-4.511-9.558c-10.203-7.194-15.786-9.342-26.633-9.128
		l-5.692,8.806v15.25l6.98,22.016l14.069,9.879c6.765-5.261,11.813-11.491,15.786-18.149V459.459L564.274,459.459z M564.274,493.502
		v47.79c-0.966,1.18-2.041,2.255-3.115,3.329c-9.342,9.343-20.834,16.646-33.721,20.941v-70.125l6.55-5.37l15.895,11.169
		l1.718-2.363l-2.684-1.932L564.274,493.502L564.274,493.502z M527.438,443.995v-12.672c1.396,2.47,2.471,4.939,3.329,7.625
		L527.438,443.995L527.438,443.995z M499.946,396.742c-6.658,0-13.101,0.752-19.437,2.255v6.658l11.277,5.908l23.732,0.644
		l11.921-4.403v-6.552C518.847,398.352,509.504,396.742,499.946,396.742L499.946,396.742z M527.438,431.323v12.672l-5.799,9.128
		h-34.472c-1.933-3.113-4.296-6.443-6.658-9.88v-14.175c3.329-5.586,7.84-10.311,12.887-14.499l19.76,0.537
		C518.633,419.724,523.895,425.094,527.438,431.323L527.438,431.323z M527.438,449.579l-3.221,5.047l3.221,10.203V449.579
		L527.438,449.579z M527.438,495.436v70.125c-8.592,2.901-17.935,4.512-27.492,4.512c-6.658,0-13.101-0.753-19.437-2.255v-73.027
		l22.552,21.048L527.438,495.436L527.438,495.436z M480.509,465.473l3.865-11.275c-1.181-1.826-2.47-3.759-3.865-5.692V465.473
		L480.509,465.473z M480.509,398.998c-2.793,0.644-5.585,1.396-8.27,2.363l8.27,4.295V398.998L480.509,398.998z M480.509,429.069
		v14.175c-0.752-1.181-1.611-2.363-2.471-3.543c-0.428-0.645-0.858-1.182-1.288-1.827
		C477.716,434.652,479.006,431.752,480.509,429.069L480.509,429.069z M480.509,448.506c-1.504-2.363-3.223-4.726-4.833-7.088
		c-0.43-0.644-0.86-1.182-1.289-1.825c-10.953,0.322-22.444,1.181-33.077,3.758c-1.074,3.33-2.04,6.552-3.006,9.773
		c-1.611,5.8-2.793,11.492-3.33,17.183c7.088,9.451,13.532,16.323,19.438,21.693l19.223-6.228l6.874-20.298V448.506L480.509,448.506
		z M480.509,494.791l-6.444-6.014l-19.223,6.23l-3.652,7.624l-37.372-11.061l18.15-21.264c0.536-5.906,1.826-11.921,3.543-17.934
		c0.966-3.437,1.932-6.874,3.114-10.31l-5.799-13.316c-12.243,14.928-19.545,33.936-19.545,54.663
		c0,23.949,9.772,45.534,25.451,61.213c11.277,11.275,25.775,19.545,41.776,23.197V494.791L480.509,494.791z"/>
	<path style="fill-rule:evenodd;clip-rule:evenodd;fill:#E4312E;" d="M499.946,497.691c-66.475-0.322-120.278-9.021-202.433-73.885
		c1.182,18.041,2.793,36.19,5.8,55.305l-52.193,15.787c64.972,69.804,157.973,94.29,248.826,94.505
		c90.854-0.216,183.854-24.701,248.827-94.505l-52.193-15.787c3.007-19.115,4.726-37.264,5.906-55.305
		C620.224,488.67,566.421,497.369,499.946,497.691L499.946,497.691z"/>
	<path style="fill-rule:evenodd;clip-rule:evenodd;fill:#FFE600;" d="M499.946,344.121c7.947,7.624,15.035,35.546,0,35.546
		C484.59,379.667,492.106,351.745,499.946,344.121L499.946,344.121z"/>
	<path style="fill-rule:evenodd;clip-rule:evenodd;fill:#FFE600;" d="M473.421,346.591c9.343,6.014,21.478,32.111,6.766,35.01
		C465.044,384.5,467.191,355.718,473.421,346.591L473.421,346.591z"/>
	<path style="fill-rule:evenodd;clip-rule:evenodd;fill:#FFE600;" d="M447.754,354.216c10.309,4.189,27.278,27.385,13.424,32.969
		C446.788,392.985,443.352,364.311,447.754,354.216L447.754,354.216z"/>
	<path style="fill-rule:evenodd;clip-rule:evenodd;fill:#FFE600;" d="M424.129,366.566c10.846,2.04,32.003,21.692,19.33,29.854
		C430.571,404.798,421.658,377.304,424.129,366.566L424.129,366.566z"/>
	<path style="fill-rule:evenodd;clip-rule:evenodd;fill:#FFE600;" d="M403.187,383.212c11.061,0,35.546,15.141,24.701,25.559
		C416.825,419.51,402.865,394.165,403.187,383.212L403.187,383.212z"/>
	<path style="fill-rule:evenodd;clip-rule:evenodd;fill:#FFE600;" d="M385.79,403.508c10.953-2.147,37.802,8.055,29.21,20.404
		C406.086,436.585,387.615,414.354,385.79,403.508L385.79,403.508z"/>
	<path style="fill-rule:evenodd;clip-rule:evenodd;fill:#FFE600;" d="M372.688,426.812c10.309-4.295,38.661,0.645,32.539,14.39
		C398.891,455.379,376.554,437.123,372.688,426.812L372.688,426.812z"/>
	<path style="fill-rule:evenodd;clip-rule:evenodd;fill:#FFE600;" d="M364.204,452.049c9.343-6.013,38.017-6.658,34.687,8.055
		C395.455,475.14,369.895,461.5,364.204,452.049L364.204,452.049z"/>
	<path style="fill-rule:evenodd;clip-rule:evenodd;fill:#FFE600;" d="M526.472,346.591c6.443,9.128,8.054,37.802-6.766,35.01
		C504.565,378.593,517.343,352.713,526.472,346.591L526.472,346.591z"/>
	<path style="fill-rule:evenodd;clip-rule:evenodd;fill:#FFE600;" d="M552.139,354.216c4.509,10.095,0.644,38.661-13.316,32.969
		C524.431,381.385,541.936,358.405,552.139,354.216L552.139,354.216z"/>
	<path style="fill-rule:evenodd;clip-rule:evenodd;fill:#FFE600;" d="M575.765,366.566c2.577,10.846-6.765,38.016-19.33,29.854
		C543.44,387.937,565.026,368.714,575.765,366.566L575.765,366.566z"/>
	<path style="fill-rule:evenodd;clip-rule:evenodd;fill:#FFE600;" d="M596.706,383.212c0.429,11.061-13.854,36.083-24.701,25.559
		C560.837,398.032,585.752,383.212,596.706,383.212L596.706,383.212z"/>
	<path style="fill-rule:evenodd;clip-rule:evenodd;fill:#FFE600;" d="M614.104,403.508c-1.719,10.955-20.512,32.753-29.211,20.404
		C576.087,411.24,603.257,401.469,614.104,403.508L614.104,403.508z"/>
	<path style="fill-rule:evenodd;clip-rule:evenodd;fill:#FFE600;" d="M627.206,426.706c-3.759,10.525-26.419,28.244-32.54,14.497
		C588.437,427.135,617.003,422.731,627.206,426.706L627.206,426.706z"/>
	<path style="fill-rule:evenodd;clip-rule:evenodd;fill:#FFE600;" d="M635.69,452.049c-5.692,9.559-31.251,22.767-34.688,8.055
		C597.565,445.069,626.454,446.142,635.69,452.049L635.69,452.049z"/>
	<path style="fill-rule:evenodd;clip-rule:evenodd;fill:#FFE600;" d="M479.65,515.948c-7.946-0.323-12.028-1.933-12.243-6.552
		c-0.215-3.543,1.933-5.261,4.189-5.155c1.718,0.108,3.221,1.289,3.221,3.543c-0.108,1.289-0.43,2.685,0.216,3.759
		c0.644,1.182,2.47,1.611,4.511,1.718c2.146,0.215,3.65,0.323,4.509-0.966c0.752-1.074,0.43-2.684,1.075-4.081
		c0.428-1.182,1.61-2.255,3.543-2.04c2.255,0.108,3.972,1.504,3.543,4.725C491.57,515.411,488.241,516.163,479.65,515.948
		L479.65,515.948z"/>
	<path style="fill-rule:evenodd;clip-rule:evenodd;fill:#FFE600;" d="M669.304,473.85l6.98,12.565l-1.182,0.644
		c-2.363-2.47-4.296-4.081-5.906-4.833c-1.611-0.859-3.437-1.18-5.37-1.074c-1.074,0.107-2.685,0.752-4.833,1.933l-3.543,1.932
		l19.867,35.762c1.289,2.362,2.255,3.759,2.899,4.189c0.538,0.43,1.397,0.644,2.363,0.752c1.074,0,2.255-0.43,3.545-1.074
		l1.502-0.859l0.752,1.182L662,538.499l-0.644-1.288l1.503-0.86c1.396-0.752,2.362-1.61,2.899-2.47
		c0.43-0.644,0.538-1.504,0.43-2.471c0-0.643-0.644-2.147-1.933-4.509l-19.867-35.762l-3.437,1.933
		c-3.115,1.718-5.047,3.651-5.692,5.692c-0.966,3.007-0.752,6.336,0.645,10.095l-1.289,0.643l-6.98-12.563L669.304,473.85
		L669.304,473.85z"/>
	<path style="fill-rule:evenodd;clip-rule:evenodd;fill:#FFE600;" d="M613.566,541.506l-18.149,4.834l-0.86,5.583
		c-0.214,1.933-0.214,3.33,0.108,4.403c0.322,1.505,1.181,2.363,2.579,2.793c0.752,0.214,2.577,0,5.261-0.43l0.322,1.289
		l-16.968,4.617l-0.43-1.396c1.825-0.752,3.115-1.933,3.973-3.545c0.859-1.502,1.611-4.509,2.255-8.914l7.41-45.748l0.753-0.107
		l29.746,36.942c2.793,3.543,4.94,5.691,6.337,6.336c1.072,0.644,2.469,0.752,3.973,0.428l0.429,1.396l-24.807,6.659l-0.43-1.396
		l1.074-0.215c1.933-0.536,3.329-1.289,3.974-2.041c0.43-0.536,0.536-1.18,0.322-1.932c-0.108-0.43-0.322-0.859-0.536-1.397
		c-0.108-0.214-0.752-0.966-1.933-2.47L613.566,541.506L613.566,541.506z"/>
	<polygon style="fill-rule:evenodd;clip-rule:evenodd;fill:#E4312E;" points="611.526,539.036 599.176,523.465 595.955,543.225 
		611.526,539.036 	"/>
	<path style="fill-rule:evenodd;clip-rule:evenodd;fill:#FFE600;" d="M544.836,546.124l1.289,14.712
		c0.214,2.793,0.538,4.618,0.966,5.37c0.43,0.644,1.074,1.182,2.041,1.611c0.966,0.321,2.577,0.43,4.939,0.214l0.108,1.397
		l-26.847,2.362l-0.108-1.396c2.47-0.216,4.081-0.645,4.939-1.182c0.752-0.536,1.397-1.182,1.611-1.933
		c0.322-0.752,0.322-2.577,0.108-5.37l-3.007-34.365c-0.216-2.899-0.644-4.619-0.966-5.37c-0.43-0.752-1.075-1.288-2.041-1.611
		c-0.967-0.321-2.577-0.429-5.047-0.214l-0.108-1.504l23.089-1.932c7.516-0.752,13.102,0.216,16.645,2.577
		c3.543,2.47,5.477,5.691,5.906,9.772c0.214,3.437-0.536,6.444-2.47,9.021c-1.933,2.685-4.726,4.618-8.377,5.799
		C555.038,544.943,550.85,545.588,544.836,546.124L544.836,546.124z"/>
	<path style="fill-rule:evenodd;clip-rule:evenodd;fill:#E4312E;" d="M542.581,520.243l1.932,22.874
		c0.859,0,1.503-0.106,1.933-0.106c3.223-0.323,5.584-1.397,7.088-3.437c1.61-2.041,2.148-5.048,1.826-9.021
		c-0.322-3.974-1.396-6.766-3.329-8.377c-1.826-1.718-4.511-2.362-7.948-2.04L542.581,520.243L542.581,520.243z"/>
	<path style="fill-rule:evenodd;clip-rule:evenodd;fill:#FFE600;" d="M409.093,547.736l-18.257-4.511l-3.437,4.403
		c-1.074,1.503-1.826,2.792-2.04,3.973c-0.43,1.396-0.108,2.578,0.966,3.545c0.537,0.644,2.148,1.289,4.833,2.255l-0.428,1.396
		l-17.077-4.295l0.323-1.397c1.932,0.108,3.65-0.214,5.155-1.181c1.502-0.966,3.651-3.221,6.335-6.658l28.674-36.404l0.752,0.106
		l8.055,46.823c0.752,4.403,1.502,7.302,2.47,8.699c0.644,0.966,1.718,1.718,3.329,2.254l-0.43,1.396l-24.915-6.228l0.322-1.396
		l1.075,0.216c2.04,0.536,3.436,0.644,4.402,0.214c0.645-0.214,1.075-0.752,1.289-1.504c0.108-0.429,0.216-0.967,0.108-1.503
		c0-0.214-0.108-1.288-0.43-3.114L409.093,547.736L409.093,547.736z"/>
	<polygon style="fill-rule:evenodd;clip-rule:evenodd;fill:#E4312E;" points="408.448,544.621 405.227,524.968 392.876,540.754 
		408.448,544.621 	"/>
	<path style="fill-rule:evenodd;clip-rule:evenodd;fill:#FFE600;" d="M468.696,555.896l19.653-28.243
		c0.108-2.685,0-4.296-0.216-4.94c-0.214-0.752-0.858-1.289-1.718-1.826c-0.859-0.537-2.041-0.86-3.545-0.966h-1.718l0.108-1.505
		l27.599,0.967l-0.108,1.504l-1.718-0.108c-1.503,0-2.792,0.215-3.759,0.752c-0.644,0.323-1.18,0.967-1.61,1.826
		c-0.323,0.644-0.538,2.255-0.645,4.94l-1.182,34.902c-0.106,2.685,0,4.403,0.216,5.048c0.322,0.751,0.86,1.288,1.718,1.826
		c0.86,0.536,2.041,0.858,3.545,0.966h1.718v1.503l-27.706-0.967l0.108-1.502l1.718,0.107c1.504,0,2.793-0.214,3.759-0.751
		c0.644-0.323,1.182-0.967,1.611-1.827c0.322-0.536,0.536-2.255,0.644-4.94l0.966-28.996l-19.653,28.136l-0.106,0.216
		c0,2.793,0,4.511,0.322,5.155c0.322,0.645,0.858,1.289,1.718,1.826c0.859,0.538,2.041,0.86,3.543,0.86l1.719,0.108l-0.108,1.396
		l-27.708-0.966l0.109-1.397l1.718,0.108c1.502,0,2.792-0.214,3.758-0.752c0.645-0.322,1.181-0.966,1.611-1.826
		c0.322-0.644,0.537-2.255,0.645-4.939l1.182-34.903c0.106-2.685,0-4.403-0.216-5.047c-0.322-0.752-0.86-1.396-1.718-1.933
		c-0.859-0.538-2.041-0.752-3.545-0.86h-1.718v-1.502l27.814,0.966l-0.108,1.503l-1.718-0.108c-1.504,0-2.793,0.216-3.759,0.644
		c-0.752,0.43-1.289,0.967-1.719,1.933c-0.321,0.538-0.428,2.255-0.536,4.833L468.696,555.896L468.696,555.896z"/>
	<path style="fill-rule:evenodd;clip-rule:evenodd;fill:#FFE600;" d="M346.483,505.96l6.014,29.104
		c0.86,4.189,1.826,7.196,3.007,9.128c0.86,1.397,1.933,2.363,3.329,3.115l-0.644,1.288l-24.593-12.564l0.644-1.288
		c1.611,0.644,2.685,0.858,3.329,0.752c0.645-0.108,1.075-0.43,1.396-0.859c0.431-0.967,0.323-3.437-0.429-7.194l-3.867-19.116
		l-2.577,0.644l-6.55,12.779c-1.289,2.471-1.827,4.082-1.933,4.833c0,0.752,0.322,1.503,0.858,2.363
		c0.537,0.86,1.719,1.719,3.437,2.579l-0.644,1.287l-23.841-12.134l0.645-1.289l1.61,0.752c1.289,0.752,2.577,1.074,3.651,0.967
		c0.752,0,1.504-0.323,2.255-0.967c0.538-0.43,1.397-1.825,2.579-4.081l15.893-31.143c1.182-2.363,1.827-3.973,1.933-4.725
		c0-0.752-0.214-1.504-0.752-2.363c-0.536-0.86-1.502-1.611-2.792-2.255l-1.611-0.858l0.644-1.289l23.627,12.027l-0.752,1.289
		c-1.504-0.859-2.899-1.18-3.973-1.18c-0.752,0-1.504,0.321-2.255,0.966c-0.538,0.43-1.504,1.826-2.685,4.189l-7.518,14.712
		l24.809-5.263c3.436-0.644,5.477-1.61,6.121-2.792c0.43-0.967,0.215-1.827-0.43-2.899c-0.43-0.537-1.611-1.289-3.651-2.471
		l0.644-1.288l18.472,9.45l-0.645,1.288c-1.718-0.752-3.114-1.073-4.295-1.073c-1.182,0-4.189,0.43-9.021,1.502L346.483,505.96
		L346.483,505.96z"/>
</g>
</svg>
