<?xml version="1.0" encoding="UTF-8" standalone="no"?>
<!-- Generator: Adobe Illustrator 25.2.1, SVG Export Plug-In . SVG Version: 6.00 Build 0)  -->

<svg
   version="1.1"
   id="Layer_1"
   x="0px"
   y="0px"
   viewBox="0 0 600 472.15456"
   xml:space="preserve"
   sodipodi:docname="bayer-logo.svg"
   width="600"
   height="472.15457"
   inkscape:version="1.2 (dc2aeda, 2022-05-15)"
   xmlns:inkscape="http://www.inkscape.org/namespaces/inkscape"
   xmlns:sodipodi="http://sodipodi.sourceforge.net/DTD/sodipodi-0.dtd"
   xmlns="http://www.w3.org/2000/svg"
   xmlns:svg="http://www.w3.org/2000/svg"><defs
   id="defs162" /><sodipodi:namedview
   id="namedview160"
   pagecolor="#ffffff"
   bordercolor="#666666"
   borderopacity="1.0"
   inkscape:showpageshadow="2"
   inkscape:pageopacity="0.0"
   inkscape:pagecheckerboard="0"
   inkscape:deskcolor="#d1d1d1"
   showgrid="false"
   inkscape:zoom="0.2656461"
   inkscape:cx="1336.3644"
   inkscape:cy="312.44577"
   inkscape:window-width="1920"
   inkscape:window-height="1080"
   inkscape:window-x="0"
   inkscape:window-y="0"
   inkscape:window-maximized="0"
   inkscape:current-layer="Layer_1"
   showguides="false"><sodipodi:guide
     position="95.051274,563.44142"
     orientation="0,-1"
     id="guide1262"
     inkscape:locked="false" /></sodipodi:namedview>
<style
   type="text/css"
   id="style132">
	.st0{fill:#FFFFFF;}
	.st1{fill:#FFFF00;}
	.st2{fill:#FF0000;}
	.st3{fill:none;}
</style>


<path
   class="st0"
   d="m 171.85638,25.989884 c 3.22063,-3.220631 10.30601,-10.306018 23.40325,-9.8766 8.15893,-3.864757 17.60611,-2.361796 21.04145,-0.214709 0,0 5.79713,-0.214709 9.66189,1.717669 23.18854,-7.7295126 48.30946,-12.0236867 74.0745,-12.0236867 25.76505,0 50.88597,4.2941741 74.07451,12.0236867 3.86476,-1.932378 9.66189,-1.717669 9.66189,-1.717669 3.43534,-2.147087 12.88252,-3.435339 21.04145,0.214709 13.09724,-0.429418 20.18262,6.441261 23.40325,9.8766 1.71767,-5.153009 4.9383,-9.232474 12.2384,-11.808979 2.5765,-13.74135661 20.39733,-19.7532006 45.51825,-7.3000955 11.16485,-10.0913093 27.69742,0.6441261 33.06514,15.2443175 8.37364,-2.147087 21.47087,5.582427 20.39732,30.273928 8.37364,0.429418 11.59427,9.232475 9.23248,23.617958 4.9383,-1.073544 29.41509,-5.582426 47.02121,16.747279 8.37364,10.520728 3.43533,24.262088 -5.36772,30.918058 -0.64413,1.71767 -4.29418,16.53257 -15.45903,22.54441 -0.64413,7.51481 12.45311,23.61796 17.1767,34.13869 13.74135,29.84451 6.87068,80.30105 -44.23,88.8894 2.3618,2.14709 7.51481,9.23248 9.23248,15.24432 2.14709,7.72951 0.64412,15.02961 -3.22063,21.25616 -4.29418,6.87068 -19.96791,16.74728 -23.83267,21.68558 7.3001,4.29418 15.67374,13.09723 11.80898,29.84451 l -14.60019,65.27145 c -2.3618,10.73543 -9.44719,19.53849 -21.04146,21.90029 -5.79713,1.28825 -12.02368,0 -15.67373,-1.07355 -25.33563,-6.65597 -43.80058,-1.50296 -71.92742,7.51481 -14.60019,4.72359 -30.70334,10.09131 -49.59771,14.17077 -19.32378,4.29418 -41.8682,7.08539 -69.1362,7.08539 -27.26801,0 -49.59772,-3.00592 -69.13621,-7.08539 -18.89436,-4.07946 -34.99752,-9.44718 -49.59771,-14.17077 -28.12684,-9.01777 -46.59179,-14.38548 -71.92742,-7.51481 -3.65004,1.07355 -9.876595,2.14709 -15.673727,1.07355 -11.59427,-2.3618 -18.679658,-11.37956 -21.041454,-21.90029 L 57.846057,357.28542 c -3.650048,-16.74728 4.508883,-25.55033 11.808979,-29.84451 -3.864756,-4.9383 -19.753201,-14.8149 -23.832666,-21.68558 -3.864757,-6.22655 -5.582427,-13.74135 -3.220631,-21.25616 1.71767,-6.01184 6.870679,-13.09723 9.232474,-15.24432 C 0.73354053,260.6665 -6.137138,209.99525 7.6042196,180.36545 12.54252,169.84472 25.425042,153.74157 24.780916,146.22676 13.616063,140.21492 9.7513066,125.40002 9.3218886,123.68235 0.73354053,116.81167 -3.990051,103.28502 4.3835887,92.764292 21.989703,70.434587 46.466496,74.943469 51.404796,76.017013 49.043,61.63153 52.263631,52.828473 60.637271,52.399055 59.778436,27.707554 72.875667,19.97804 81.034598,22.125127 86.402315,7.5249356 102.93488,-3.4252085 114.09973,6.8808095 c 25.12092,-12.6678138 42.94175,-6.44126111 45.51825,7.3000955 7.3001,2.361796 10.52073,6.65597 12.2384,11.808979 z"
   id="path136"
   style="stroke-width:2.14709" /><path
   id="path874"
   style="fill:#000000;stroke-width:2.14709"
   d="m 464.46484,19.328125 c -2.6306,-0.03397 -4.20123,0.811092 -2.75195,3.226563 1.93238,3.435335 -1.93185,4.723332 -5.36719,5.796874 -3.00591,0.858835 -9.44794,1.072747 -10.52148,4.9375 -0.42942,1.288251 0.42995,4.294186 0.85937,6.226563 -2.57649,0.214708 -4.29337,0.644666 -4.9375,0.859375 -3.65004,1.502958 -4.72468,5.582302 -7.94531,6.011719 -1.07354,0.214709 -5.79769,0.429823 -7.08594,0.644531 -2.14707,0.214709 -4.2925,0.644937 -6.65429,1.289062 C 413.834,33.290718 404.60076,34.364499 403.3125,36.296875 c -2.5765,-3.650044 -15.45939,-4.510697 -16.10352,0.212891 -3.65004,-1.50296 -8.80254,-0.642773 -11.59375,2.148437 -23.61793,-8.803048 -48.95427,-13.742187 -75.57812,-13.742187 -26.62384,0 -52.17295,4.939139 -75.57617,13.742187 -2.5765,-2.79121 -7.94539,-3.651261 -11.16602,-1.933594 -0.64413,-4.723586 -13.52701,-4.079597 -16.10351,-0.214843 -1.28825,-1.932377 -10.51954,-3.004204 -16.7461,12.02539 -2.36179,-0.644125 -4.72387,-1.074353 -6.65625,-1.289062 -1.28825,-0.214709 -6.0124,-0.429823 -7.08594,-0.644532 -3.00591,-0.644125 -4.29332,-4.508759 -7.94335,-6.011718 -0.64413,-0.214708 -2.57766,-0.644666 -4.93946,-0.859375 0.42942,-1.932376 1.2888,-4.938312 0.85938,-6.226563 -1.28825,-3.650044 -7.51557,-3.863958 -10.52149,-4.9375 -3.43533,-1.288251 -7.51427,-2.361538 -5.36718,-5.796875 3.86474,-6.441254 -13.95616,-1.716991 -15.67383,1.074219 -1.07354,1.502959 0.85937,4.722656 0.85937,4.722656 0,0 -2.36281,-0.214573 -4.72461,0.214844 -5.79712,0.858834 -10.30515,2.790188 -7.94336,-4.724609 1.50296,-4.938296 -18.679608,1.718436 -15.458981,10.521484 0.858834,2.576502 3.865235,4.509766 3.865235,4.509766 0,0 -2.147434,1.28705 -3.650391,4.292968 -1.288251,2.576503 -6.871094,-0.42808 -6.871094,-4.078125 0,-7.514797 -9.232827,2.789619 -9.876953,9.875 -0.214709,2.576502 0.214378,6.657467 2.576172,8.589844 1.073542,0.858834 4.294922,1.28711 4.294922,1.28711 0,0 -1.503771,2.36208 -1.289062,6.65625 0.214707,3.650044 -6.440671,2.577508 -8.373047,-1.501954 -1.50296,-3.435335 -7.299429,7.944187 -5.152344,15.458985 0.644125,2.361793 3.864499,5.582301 5.796875,6.011719 2.147085,0.429416 5.152344,-0.643991 5.152344,0.214843 -0.214709,1.932376 -0.214709,2.575707 0,4.9375 0.429416,5.367713 -4.938117,6.011238 -9.017578,2.146485 -3.005919,-2.791211 -5.152794,18.250944 3.435546,19.753904 5.153004,0.85884 5.797011,-1.93291 6.011719,-0.85937 0.214709,0.85883 0.430228,1.71801 1.289063,3.65039 2.576501,5.79712 -4.510112,5.36791 -8.160157,3.43554 -3.220627,-1.71766 -1.930737,18.03462 8.804688,17.17579 1.932376,-0.21471 3.434675,-2.36133 5.152344,-2.36133 1.717667,0 1.931218,17.60547 -4.939453,17.60547 -9.876592,0 1.07431,11.38044 10.521484,10.73632 -1.288251,12.88251 -9.018542,30.27326 -16.748047,39.29102 -8.588339,9.66188 -13.310277,20.61197 -12.880859,30.91797 -14.814887,1.50297 -24.476773,-5.36727 -27.91211,-14.81445 -5.367711,-14.60018 4.936781,-30.91787 13.095703,-43.15625 10.950133,-16.53256 9.018043,-35.21224 6.65625,-46.5918 4.079461,-2.79121 6.011719,-7.29985 6.011719,-12.02344 0,-4.93829 -1.073693,-10.95037 -6.441406,-15.888671 -13.311927,-12.45309 -33.70906,-1.932434 -36.929688,3.005861 -1.073542,1.71767 -0.643043,3.86409 1.71875,5.15234 9.017757,4.9383 3.649492,22.75977 20.826172,22.75977 0.858834,3.43532 1.289198,7.08628 1.503906,10.73633 0.429417,10.95014 -2.1471,18.25028 -6.226562,24.90625 -3.005919,4.72358 -9.01806,13.52662 -12.882812,21.68554 -10.735426,22.97381 -3.651197,51.9584 22.972656,60.33203 4.508878,1.28825 13.957393,2.57705 23.833984,0.85938 0.644125,0.64413 1.287515,1.50235 1.931641,2.14648 0.858834,0.85883 1.932317,1.93219 3.005859,2.79102 1.932377,6.22655 1.718463,13.52817 -4.9375,21.04297 -11.379549,13.09722 -16.532629,16.31663 -3.220703,25.97851 25.979728,18.46494 27.912323,32.42149 31.347655,38.00391 -5.367708,0.85884 -10.950916,1.93245 -16.748046,3.2207 -2.576502,0.64413 -8.373782,2.14786 -6.441406,10.52149 l 14.59961,65.27148 c 2.147085,9.66188 9.447472,7.29828 12.882812,6.43945 62.69488,-16.53255 93.1838,28.3418 195.81445,28.3418 102.63067,0 132.90486,-44.87435 195.81446,-28.3418 3.43532,0.85883 10.73572,3.22243 12.88281,-6.43945 l 14.59961,-65.27148 c 1.93238,-8.37363 -3.6502,-9.87736 -6.44141,-10.52149 -5.79713,-1.28825 -11.37838,-2.36186 -16.74609,-3.2207 3.65004,-5.36771 5.58264,-19.53897 31.34765,-38.00391 13.31193,-9.66188 7.94414,-13.096 -3.2207,-25.97851 -6.65596,-7.5148 -6.87183,-14.81642 -4.93945,-21.04297 1.07354,-1.07354 2.14703,-1.93219 3.00586,-2.79102 0.64413,-0.64413 1.28946,-1.50235 1.93359,-2.14648 9.87659,1.93238 19.32315,0.64358 23.83203,-0.85938 26.62386,-8.58834 33.49533,-37.57293 22.97461,-60.33203 -3.86475,-8.15892 -10.0916,-16.96196 -12.88281,-21.68554 -3.86476,-6.65597 -6.65597,-13.95611 -6.22656,-24.90625 0,-3.65005 0.42841,-7.30101 1.50195,-10.73633 17.17668,0 11.81036,-17.82147 20.82812,-22.75977 2.36179,-1.28825 2.79034,-3.64938 1.7168,-5.15234 -3.22062,-4.723589 -23.61776,-15.458951 -36.92969,-3.005861 -5.36771,4.938301 -6.4414,10.735671 -6.4414,15.888671 0,4.72359 1.93226,9.23223 6.01172,12.02344 -2.36179,11.37956 -4.29388,30.05924 6.65625,46.5918 7.94422,12.23838 18.46537,28.55607 13.09765,43.15625 -3.43532,9.44718 -13.09722,16.31742 -27.91211,14.81445 0.42942,-10.09129 -4.29447,-21.04138 -12.88281,-30.91797 -7.7295,-8.80305 -15.67451,-26.40851 -16.74805,-39.29102 9.44717,0.42941 20.39808,-10.73632 10.52149,-10.73632 -6.87067,0 -6.65712,-17.60547 -4.93945,-17.60547 1.71766,0 3.22191,2.14662 5.15429,2.36133 10.73542,0.85883 12.02336,-18.89345 8.80274,-17.17579 -3.65004,1.93237 -10.73666,2.14687 -8.16016,-3.43554 1.07355,-1.93238 1.07436,-2.79156 1.28906,-3.65039 0.21471,-0.85884 1.07343,1.71821 6.01172,0.85937 8.58834,-1.50296 6.44147,-22.759823 3.43555,-19.753904 -4.07947,3.864753 -9.447,3.221228 -9.01758,-2.146485 0.21471,-2.576502 0.21471,-3.219832 0,-4.9375 0,-0.858834 3.00526,0.214573 5.15234,-0.214843 2.14709,-0.429418 5.15275,-3.649926 5.79688,-6.011719 2.14708,-7.514798 -3.64939,-18.89432 -5.15234,-15.458985 -1.93238,4.29417 -8.58776,5.366707 -8.37305,1.501954 0,-4.29417 -1.28906,-6.65625 -1.28906,-6.65625 0,0 3.22138,-0.428276 4.29492,-1.28711 2.3618,-1.932377 2.79088,-6.013342 2.57617,-8.589844 -0.64412,-7.085381 -9.87695,-17.389797 -9.87695,-9.875 0,3.650045 -5.36813,6.654628 -6.8711,4.078125 -1.71766,-3.005918 -3.64843,-4.292968 -3.64843,-4.292968 0,0 3.00445,-1.933264 3.86328,-4.509766 3.22062,-8.803048 -16.96195,-15.45978 -15.45899,-10.521484 2.36179,7.514797 -2.14622,5.583443 -7.94336,4.724609 -2.36178,-0.429417 -4.72461,-0.214844 -4.72461,-0.214844 0,0 1.93292,-3.219831 0.85938,-4.9375 -1.20774,-1.744506 -8.53754,-4.244169 -12.92188,-4.300781 z m -79.1875,58.835937 c 4.50888,3.220625 7.94452,4.937692 12.88282,2.146485 6.22654,5.367708 9.23141,11.594043 10.73437,18.25 -1.28825,-0.644125 -2.36214,-1.28738 -3.65039,-1.716797 -9.87658,-4.294166 -17.39051,-6.655111 -23.40234,-7.943359 z m -170.47851,0.214844 3.43555,10.734375 c -5.79714,1.073542 -13.52772,3.651147 -23.4043,7.945313 -1.28825,0.429416 -2.36214,1.072667 -3.65039,1.716797 1.50296,-6.65596 4.50977,-12.882294 10.73633,-18.25 4.93828,2.576498 8.37392,1.074139 12.88281,-2.146485 z m 170.69336,47.451174 c 3.86474,1.50296 8.80335,3.00586 12.88281,3.00586 10.52071,10.95012 22.54445,43.79911 40.36523,50.45508 2.79121,6.01183 6.86962,10.52142 10.73438,13.52734 7.72949,6.01183 22.33008,20.82718 22.33008,34.7832 -23.61792,0 -26.41016,15.24357 -26.41016,23.61719 0,22.11496 31.99219,28.98609 31.99219,34.7832 0,6.44126 -24.04803,22.33008 -28.98633,22.33008 -9.44716,0 -13.95603,5.796 -15.45898,7.51367 -4.72359,6.22655 -6.65507,21.68731 4.50976,24.47852 -24.04732,4.07945 -46.80604,11.37867 -70.63867,17.17578 41.4387,-23.1885 69.34961,-67.63366 69.34961,-118.51953 0,-45.51816 -22.32845,-85.88276 -56.89649,-110.57422 2.14709,-0.42942 4.29419,-1.28792 6.22657,-2.57617 z m -171.33789,0.21484 c 1.71767,1.28826 4.07948,2.14675 6.22656,2.57617 -34.13862,24.69146 -56.46875,64.84122 -56.46875,110.35938 0,50.88587 27.91286,95.11632 69.35156,118.51953 -23.83261,-5.79711 -46.59148,-13.09633 -70.85351,-17.17578 11.37952,-2.79121 9.44609,-18.25197 4.50781,-24.47852 -1.50297,-1.93236 -6.01183,-7.51367 -15.45899,-7.51367 -4.93828,0 -28.98632,-15.88882 -28.98632,-22.33008 0,-5.79711 31.99218,-12.66824 31.99218,-34.7832 0,-8.37362 -2.79028,-23.61719 -26.4082,-23.61719 0,-14.17073 14.59861,-28.98608 22.32813,-34.7832 3.86473,-2.79121 7.94513,-7.51551 10.73632,-13.52734 17.60609,-6.65597 29.84439,-39.50483 40.15039,-50.24024 4.07946,0 9.01806,-1.5029 12.88282,-3.00586 z" /><g
   id="g1549"><path
     style="fill:#ffff00;fill-opacity:1;stroke-width:2.14709"
     d="M 375.18552,47.460755 C 351.99698,38.22828 326.66135,33.28998 300.03747,33.28998 c -26.62387,0 -51.9595,4.9383 -75.14804,14.170775 -2.79122,5.367718 -6.87068,5.797135 -6.87068,9.447183 7.94422,2.791213 12.4531,10.091309 3.86476,16.317862 l 4.72359,15.029609 c 10.52072,0.429418 11.37956,7.514805 10.09131,13.311941 3.65004,2.3618 6.01184,9.44718 4.29417,14.60019 17.82082,-8.58834 37.78873,-13.31194 58.83019,-13.31194 21.04145,0 41.00936,4.7236 58.83018,13.31194 -1.71767,-5.15301 0.64413,-12.23839 4.29418,-14.60019 -1.28826,-5.797136 -0.42942,-13.097232 10.09131,-13.311941 L 377.76203,73.2258 c -8.58835,-6.011844 -4.07947,-13.31194 3.86475,-16.317862 0.42942,-3.650048 -3.65004,-4.079465 -6.44126,-9.447183 z"
     id="path872" /><path
     style="fill:#ffff00;fill-opacity:1;stroke-width:2.14709"
     d="m 300.03747,444.45716 c 24.90621,0 45.51825,-2.79122 63.33907,-6.65597 18.03554,-3.86476 33.06514,-8.80306 47.02121,-13.31194 27.26801,-8.80306 51.95951,-16.53257 84.38052,-8.80306 5.79714,1.50296 5.79714,1.50296 6.65597,-2.79121 l 13.09723,-58.83019 c 0.85884,-3.43534 0.85884,-3.43534 -3.65004,-4.50888 -38.21815,-8.15893 -69.78033,-2.57651 -101.98664,5.58243 -16.96199,4.29417 -33.70927,9.23247 -51.31538,13.09723 -18.03553,3.86475 -36.9299,6.87068 -57.54194,6.87068 -20.61203,0 -39.5064,-2.79122 -57.54193,-6.87068 -17.60611,-3.86476 -34.35339,-8.80306 -51.31538,-13.09723 -32.20631,-8.15894 -63.55378,-13.74136 -101.986631,-5.58243 -4.294174,1.07354 -4.294174,1.07354 -3.650048,4.50888 l 13.097234,58.83019 c 0.85883,4.29417 0.85883,4.29417 6.655965,2.79121 32.2063,-7.5148 56.8978,0 84.38052,8.80306 13.95606,4.50888 28.98567,9.44718 47.02121,13.31194 17.82082,3.86475 38.43285,6.65597 63.33906,6.65597 z"
     id="path860" /></g>
<path
   style="fill:#ffffff;stroke-width:2.14709"
   d="m 176.57997,238.98092 c 0,68.27737 55.39484,123.45751 123.4575,123.45751 68.06267,0 123.45751,-55.39485 123.45751,-123.45751 0,-68.06266 -55.39484,-123.4575 -123.45751,-123.4575 -68.06266,0 -123.4575,55.18014 -123.4575,123.4575 z"
   id="path866" /><g
   id="g1545"><g
     id="g1077"
     style="fill:#ff0000;fill-opacity:1"><path
       style="fill:#ff0000;fill-opacity:1;stroke-width:2.14709"
       d="m 566.06156,119.17347 c 1.07355,-2.57651 1.71767,-5.36772 2.79122,-7.72952 1.07354,-2.36179 2.5765,-5.15301 5.36771,-7.08539 -4.72359,-3.65004 -18.67965,-8.803055 -27.268,-0.64412 -3.86476,3.65005 -4.72359,7.94422 -4.72359,12.02369 0,6.01184 3.43534,7.30009 6.65597,9.01776 -3.43534,14.8149 -4.50889,31.9916 5.15301,46.8065 4.07946,6.01184 9.01776,13.52665 12.23839,21.68558 3.22063,7.94422 4.9383,17.1767 1.50296,26.19446 -4.50888,12.2384 -16.74728,19.96791 -33.49455,18.25024 -0.64413,2.3618 -1.50297,4.50888 -2.57651,6.87068 8.15893,1.07354 15.45903,0 18.89437,-1.07354 22.75912,-7.3001 29.6298,-32.20631 19.7532,-53.03305 -1.71767,-3.86476 -4.07947,-7.94423 -6.44126,-11.59427 -2.3618,-3.86476 -4.72359,-7.3001 -6.01185,-9.6619 -4.50888,-7.30009 -7.5148,-15.67373 -7.08538,-27.91213 0.2147,-3.86475 1.07354,-10.30602 2.79121,-15.45902 9.23247,0 10.52073,-1.50297 12.4531,-6.65597 z"
       id="path858" /><path
       style="fill:#ff0000;fill-opacity:1;stroke-width:2.14709"
       d="m 452.69537,171.99181 c -4.9383,-0.85884 -8.80306,-3.86476 -8.15893,-7.3001 0.2147,-1.50296 5.79713,1.50296 6.87067,-12.23839 0.42942,-4.50889 -0.42941,-8.37364 -0.64412,-8.37364 -7.51481,-1.28826 -4.72359,9.01776 -11.37956,11.37956 -9.44719,3.43534 -15.24432,-5.79714 -15.24432,-12.2384 5.36772,0.21471 6.22655,-3.65005 4.50888,-7.08539 -0.64413,-1.50296 -1.07354,-4.07946 -1.07354,-4.07946 0,0 -2.14709,1.71767 -5.15301,1.28825 -7.72952,-1.07354 -8.80306,-22.32971 -3.86476,-18.25024 3.00592,2.5765 6.44126,1.07354 8.37364,-1.28825 -9.44718,-3.65005 -19.10907,-9.44719 -23.83267,-11.59427 -20.61203,-9.01777 -29.41509,-9.01777 -32.63572,-7.729518 -1.07354,0.429417 -2.14709,1.71767 -1.71767,4.294176 2.57651,-1.073545 6.44126,-0.858837 6.44126,-0.858837 3.65005,0.214707 3.22063,5.797139 -0.42941,5.582429 -8.80306,0 -10.95015,6.01184 -10.52073,9.23247 0.21471,1.71767 0.42942,3.22063 3.22063,3.00593 2.5765,-5.15301 6.44126,-6.65597 6.44126,-6.65597 3.43534,-1.50296 5.79714,3.43534 2.3618,4.9383 -1.50296,0.85883 -4.29418,3.00592 -3.86476,6.01184 0.21471,1.28825 0.85883,2.3618 2.79121,2.79121 2.3618,0.42942 5.36772,-0.21471 7.51481,-1.71767 l 2.5765,-1.71767 c 0,0 9.66189,4.50889 16.10315,3.65005 l 1.71767,1.93238 c 3.43534,3.65005 6.87068,8.80306 10.09131,14.17078 3.22063,5.36771 6.65597,11.37956 10.30602,16.96198 7.72952,11.80898 15.02961,18.67966 22.115,18.67966 3.00592,0 5.36772,-1.07354 7.08539,-2.79121 z"
       id="path856" /><path
       style="fill:#ff0000;fill-opacity:1;stroke-width:2.14709"
       d="m 446.68352,180.58016 c 2.14709,3.43534 4.50889,6.01184 6.87068,7.72951 7.72951,5.79713 24.47679,22.115 24.47679,39.29169 9.01777,0.85884 12.66782,3.43534 12.66782,3.43534 3.22063,2.14709 0,6.44126 -3.43534,4.72359 -6.44126,-3.22063 -16.74728,-2.36179 -19.7532,-2.14708 -13.95607,1.28825 -16.10316,10.73543 -16.10316,17.60611 0,7.94422 5.58243,13.52665 13.31194,18.67966 3.86476,2.5765 7.94423,4.50888 10.73544,6.44126 1.50296,0.85883 3.22063,1.93238 4.50888,3.22063 1.07355,1.07354 3.22063,3.22063 3.22063,6.65597 0,11.16485 -28.55626,28.12684 -34.78281,28.12684 -6.65597,0 -9.8766,3.86476 -10.95014,5.15301 -1.71767,2.14709 -3.00592,6.87068 -2.57651,10.52073 0.42942,2.36179 1.50296,4.50888 4.72359,4.9383 0,-4.50889 1.50297,-9.6619 4.07947,-13.09723 2.3618,-3.00593 7.08539,0.42941 4.72359,3.43533 -1.93238,2.3618 -3.22063,6.44127 -2.79121,11.80898 3.65005,2.14709 7.94422,2.3618 13.31194,0.42942 -0.64413,-4.50888 1.50296,-10.30602 3.86476,-13.95606 2.14708,-3.22064 7.08538,0.2147 4.72359,3.22063 -1.93238,2.5765 -3.00592,6.22655 -3.00592,9.23247 4.72359,3.86476 11.37956,1.50296 12.23839,0 1.07354,-2.3618 2.3618,-4.72359 3.65005,-7.5148 1.50296,-3.00593 3.22063,-6.22656 5.79713,-9.6619 4.9383,-7.08538 12.45311,-15.02961 25.12092,-23.83266 3.00593,-2.14709 5.36772,-3.43534 1.93238,-7.3001 -1.50296,-1.71767 -3.00592,-3.43534 -4.9383,-5.58243 -7.72951,-8.37364 -4.29417,-16.96198 0.21471,-22.54441 2.14709,-2.79121 4.9383,-5.15301 7.3001,-7.3001 2.14708,-1.93237 4.29417,-3.65004 6.01184,-5.36771 10.73544,-10.73544 9.01777,-26.62388 -4.50888,-42.08291 -7.72952,-9.01777 -17.82083,-29.6298 -18.25024,-45.30354 -5.58243,-4.9383 -5.36772,-16.96199 -8.58835,-16.96199 -4.50888,0 -0.21471,8.37364 0.21471,12.88253 1.71767,15.45902 -13.95607,16.53257 -18.67966,11.37956 -2.79121,-3.22063 4.50888,0.64412 1.28825,-14.17078 -0.42942,-2.36179 -1.71767,-7.08538 -2.79121,-7.08538 -6.22655,0 -2.79121,7.94422 -3.43534,14.17077 -0.64413,6.65597 -3.86476,10.09131 -7.94422,11.59427 -1.07355,4.9383 -5.15301,8.80306 -12.45311,9.23248 z"
       id="path854" /><path
       style="fill:#ff0000;fill-opacity:1;stroke-width:2.14709"
       d="m 516.46385,260.02238 c -5.58242,5.36772 -9.66189,11.80898 -3.65005,18.46495 7.72952,8.58834 13.31194,13.74135 2.14709,21.47087 -20.39733,14.38548 -26.19446,25.55033 -30.27393,34.13868 0.85884,0.42942 1.93238,0.64413 3.22063,1.07355 2.57651,0.64412 4.7236,0.85883 6.87068,1.07354 1.07355,0 1.71767,-3.00592 4.29418,-8.15893 4.07946,-7.94422 11.37956,-18.67966 28.77096,-31.34747 6.44127,-4.72359 6.22656,-5.58243 3.00593,-9.6619 -1.71767,-2.36179 -4.29418,-4.9383 -7.08539,-7.94422 -5.36772,-6.65597 -7.3001,-13.09723 -7.3001,-19.10907 z"
       id="path852" /><path
       id="path850"
       style="fill:#ff0000;fill-opacity:1;stroke-width:2.14709"
       d="m 458.59961,44.078125 c -4.56256,-0.05368 -10.0912,0.270275 -15.35156,1.451172 -1.28825,0.214708 -4.07853,3.863687 -4.72266,4.507812 -1.07354,0.858835 -2.36254,1.504042 -4.29492,1.71875 -1.07355,0.214709 -6.01253,0.642579 -7.30078,0.642579 -3.86476,0.429417 -8.80194,1.932858 -13.74024,3.865234 0,5.58242 3.22071,8.58789 3.22071,8.58789 0,0 -0.21457,5.583655 0.21484,8.160157 0,0.429417 0.64285,0.644395 1.07227,0.429687 2.14707,-0.429417 3.8659,-0.214844 4.93945,-0.214844 4.29416,0.429417 18.67969,0.427735 18.67969,0.427735 V 87.826172 L 423.2793,87.611328 c 0.42942,1.073543 1.28947,2.791151 1.93359,3.00586 2.57651,0.644125 10.09067,1.074489 17.60547,1.503906 3.65004,0.214709 13.31149,0.214438 14.81445,-0.429688 2.5765,-1.073543 7.51624,-7.515896 11.59571,-7.945312 5.58241,-0.858834 9.66123,-3.006341 11.3789,-6.871094 1.28825,-2.79121 1.28866,-3.864228 0.64453,-5.367188 -2.36178,-6.441254 -3.65039,-13.740234 -3.65039,-13.740234 0,0 6.22656,-3.864905 6.22656,-6.441406 0,-1.50296 -0.85878,-1.504176 -3.00585,-1.933594 -1.71767,-0.429416 -6.01113,-0.429687 -8.15821,-0.429687 0,0 -0.85972,-3.219291 -4.50976,-4.078125 -1.39561,-0.322063 -4.99214,-0.752964 -9.55469,-0.806641 z m -7.83594,5.314453 c 2.14708,0 7.514,6.228052 4.9375,8.589844 -2.14709,1.717665 -13.95508,-2.792969 -13.95508,-2.792969 0,0 3.64988,-5.796875 9.01758,-5.796875 z m -0.42969,3.00586 c -1.28823,0 -2.36187,0.645073 -3.2207,1.503906 2.3618,0.858833 4.93818,1.502225 6.01172,1.93164 -0.85883,-1.932374 -2.57631,-3.435546 -2.79102,-3.435546 z" /><path
       style="fill:#ff0000;fill-opacity:1;stroke-width:2.14709"
       d="m 438.7393,96.843758 c -3.86476,3.00592 -4.07947,7.300102 -4.29417,10.735442 -0.21471,4.9383 -2.3618,7.5148 -3.22063,8.80305 -1.71767,2.3618 -6.44127,7.3001 -10.30602,5.15301 -1.71767,-1.07354 0,6.44126 1.71767,7.08539 2.36179,0.85883 7.08538,-2.79121 7.72951,-3.65005 0.64413,3.22063 1.50296,6.22655 2.5765,8.37364 2.3618,4.72359 2.14709,11.80898 -2.79121,13.74136 1.07355,3.00592 5.58243,4.9383 7.72952,3.00592 1.07354,-0.85884 1.93237,-3.86476 2.5765,-5.58243 3.43534,-6.65597 9.01777,-6.65597 14.38548,-4.9383 0.42942,0.21471 2.14709,6.65597 1.50296,13.09723 -0.85883,7.72952 -2.36179,12.02369 -5.153,13.31194 -2.3618,1.07355 11.37956,3.86476 11.37956,-6.87068 0,-1.28825 -0.42942,-7.5148 -0.42942,-9.01776 0,-3.65005 1.07354,-9.8766 9.01776,-9.8766 1.50297,0 3.86476,0.85883 5.36772,3.65005 1.07355,1.71767 2.14709,6.44126 2.3618,7.72951 1.28825,5.79714 1.50296,11.16485 0,12.88252 -1.07355,1.07355 9.01776,0.85884 7.08539,-8.37364 -0.21471,-0.85883 -1.71767,-6.01184 -1.93238,-7.5148 -0.21471,-1.28825 -0.64413,-3.65005 -0.21471,-5.79714 0.85883,-3.22063 3.65005,-5.36771 7.08539,-5.36771 2.36179,0 5.15301,1.28825 6.87067,5.36771 0.64413,1.50296 2.57651,11.80898 5.36772,13.31194 3.43534,1.93238 10.09131,-1.07354 7.51481,-1.71767 -1.50296,-0.42941 -3.00592,-1.93237 -3.65005,-3.43534 -1.28825,-2.36179 -1.93238,-4.9383 -2.3618,-7.72951 -0.64412,-4.07946 -0.21471,-8.15893 0.21471,-10.09131 1.07355,-3.65005 2.79122,-4.72359 5.79714,-4.72359 1.71767,0 3.65005,1.71767 4.9383,2.14709 3.86475,1.50296 6.22655,-6.87068 4.50888,-6.01185 -2.5765,1.07355 -10.09131,-0.85883 -9.23247,-8.58835 0.42941,-3.22063 1.93237,-4.07946 3.00592,-10.73543 0.21471,-1.07354 4.29417,2.79121 8.58835,2.3618 2.36179,-0.21471 3.43534,-8.588352 2.14708,-7.944232 -4.9383,2.576512 -12.23839,-0.42941 -11.59427,-7.085384 0.42942,-6.226553 0.21471,-9.661892 0.21471,-12.023688 0,-0.858835 2.3618,0 6.65597,0.214709 2.79121,0 3.86476,-0.858835 4.50888,-2.576505 0.64413,-1.71767 0,-7.729513 -0.85883,-6.870679 -2.79121,2.791214 -7.3001,2.147088 -9.44718,0.858835 -2.79122,-1.717669 -3.86476,-3.005922 -3.86476,-6.65597 0,-3.864756 -0.42942,-5.797135 -2.5765,-10.306018 5.58242,-0.429417 6.87067,-0.214708 7.94422,-1.932378 2.14708,-3.220631 -1.50296,-9.661892 -1.93238,-7.944222 -0.64413,2.791213 -5.79714,4.508883 -7.94422,4.294174 -6.87068,-0.214709 -4.72359,-5.797135 -12.66782,-10.520727 4.50889,-3.005922 6.44126,-5.153009 6.44126,-6.441261 0.21471,-1.71767 -5.36771,-5.582426 -5.153,-4.079465 0.2147,2.361795 -1.93238,5.582426 -6.01185,6.011843 -3.43534,0.429418 -6.44126,-0.858834 -11.16485,-1.073543 -3.43534,-0.214709 -9.01777,0.214709 -9.01777,0.214709 0,0 4.07947,-6.011844 3.22063,-7.514805 -0.42941,-0.858835 -5.15301,-2.361796 -4.50888,-0.858835 0.42942,1.502961 -1.07354,4.079465 -3.65005,5.797135 -3.00592,1.71767 -5.58242,2.576505 -10.09131,3.435339 -2.14708,0.429418 -2.14708,0.858835 -1.71767,2.147087 0.21471,0.644127 0.42942,1.502961 0.64413,2.361796 9.66189,-0.644126 22.32971,-0.429417 23.61796,4.723592 4.50888,0 9.44718,0.858835 10.95014,2.147087 3.65005,3.005922 3.86476,8.37364 -3.22063,13.741357 1.93238,10.09131 5.36772,11.379562 2.14709,19.109075 -2.79121,6.441261 -9.23248,8.803057 -15.02961,9.876601 -2.57651,0.429417 -5.36772,4.9383 -10.30602,7.514805 -2.5765,1.288252 -12.66781,1.288252 -21.47087,0.644126 z"
       id="path848" /><path
       style="fill:#ff0000;fill-opacity:1;stroke-width:2.14709"
       d="m 415.12134,101.99677 c 4.29418,2.14709 8.80306,4.50888 13.95607,6.44126 0.21471,-3.00592 0.64412,-7.94422 3.00592,-12.238398 -3.43534,-0.214709 -6.22655,-0.644127 -7.72951,-0.858835 -5.15301,-0.858835 -8.37364,-10.950144 -6.22656,-12.882523 h 18.25024 v -4.079465 c -3.22063,0 -9.66189,0 -14.17077,-0.429418 -1.28825,-0.214708 -3.65005,0.214709 -4.9383,0.429418 -6.01184,0.858835 -5.58243,-6.65597 -5.58243,-12.023688 -2.79121,-3.650048 -3.86475,-8.803057 -2.79121,-13.956066 1.93238,-0.858835 3.86476,-1.502961 6.01184,-2.147087 -2.5765,-6.226552 -6.01184,-9.661892 -8.58834,-9.447183 0.85883,1.71767 1.07354,3.435339 1.07354,3.435339 0.64412,3.864757 -4.9383,4.938301 -5.79714,1.073544 -0.21471,-1.502961 -1.28825,-4.079466 -2.5765,-5.797135 -1.50296,-1.073544 -6.22655,-1.502961 -6.44126,-0.214709 2.14708,2.361796 3.65005,5.582426 3.65005,5.582426 1.50296,3.650048 -3.86476,5.797136 -5.36772,2.147087 -0.64413,-1.717669 -2.57651,-5.367717 -4.9383,-6.011843 0,0 -5.36772,-0.858835 -6.01185,1.717669 -0.64412,2.147087 3.22063,5.153009 3.65005,5.582427 1.93238,1.717669 4.29418,3.864756 4.29418,9.017765 v 3.220631 l -4.07947,1.502961 c -4.50888,1.502961 -6.22655,3.650048 -1.93238,6.441261 2.14709,1.502961 4.07947,3.005922 5.79714,4.079466 1.71767,1.288252 2.79121,1.932378 3.86475,2.576504 1.71767,0.858835 2.57651,0.858835 4.29418,0 l 3.43534,-1.717669 2.79121,2.361795 c 8.58835,8.158931 11.80898,17.176697 13.09723,26.194466 z"
       id="path846" /></g><g
     id="g1068"
     style="fill:#ff0000;fill-opacity:1"><path
       style="fill:#ff0000;fill-opacity:1;stroke-width:2.14709"
       d="m 184.95361,101.99677 c 1.28825,-9.232478 4.50888,-18.250243 13.31194,-25.765048 l 2.79121,-2.361796 3.43534,1.71767 c 1.71767,0.858834 2.79121,0.858834 4.29417,0 1.07355,-0.644127 2.3618,-1.288253 3.86476,-2.576505 1.71767,-1.288252 3.65005,-2.791213 5.79714,-4.079465 4.29417,-2.791214 2.5765,-4.938301 -1.93238,-6.441262 l -4.07947,-1.502961 v -3.22063 c 0,-4.9383 2.3618,-7.085387 4.29418,-9.017766 0.42941,-0.429417 4.29417,-3.435339 3.65004,-5.582426 -0.64412,-2.576505 -6.01184,-1.71767 -6.01184,-1.71767 -2.3618,0.644126 -4.29417,4.294174 -4.9383,6.011844 -1.50296,3.650048 -6.87068,1.288252 -5.36772,-2.147087 0,0 1.50296,-3.43534 3.65005,-5.582427 -0.21471,-1.288252 -4.9383,-0.858834 -6.44126,0.214709 -1.28825,1.71767 -2.3618,4.294174 -2.57651,5.797135 -0.64412,3.864757 -6.44126,2.791213 -5.79713,-1.073543 0,0 0.42942,-1.71767 1.07354,-3.43534 -2.5765,-0.214708 -6.01184,3.220631 -8.58835,9.447184 1.93238,0.644126 4.07947,1.50296 6.01185,2.147087 0.85883,5.153009 0,10.306018 -2.79121,13.956066 0,5.367717 0.42941,13.097231 -5.58243,12.023687 -1.28825,-0.214708 -3.65005,-0.429417 -4.9383,-0.429417 -4.50888,0.644126 -11.16485,0.429417 -14.17078,0.429417 v 4.079466 h 18.25024 c 1.93238,1.932378 -1.28825,12.023687 -6.22655,12.882522 -1.28825,0.214709 -4.07946,0.644126 -7.72951,0.858835 2.5765,4.079471 2.79121,9.232481 3.00592,12.238401 4.9383,-2.14709 9.66189,-4.50889 13.74136,-6.87068 z"
       id="path844" /><path
       style="fill:#ff0000;fill-opacity:1;stroke-width:2.14709"
       d="m 161.33565,96.843758 c -9.01777,0.429417 -18.89437,0.644126 -21.25616,-0.644126 -4.9383,-2.791214 -7.94422,-7.085388 -10.30602,-7.514805 -5.79714,-1.073544 -12.2384,-3.43534 -15.02961,-9.876601 -3.22063,-7.514805 0,-9.017765 2.14709,-19.109075 -7.08539,-5.367717 -6.87068,-10.735435 -3.22063,-13.741357 1.50296,-1.288252 6.22655,-2.147087 10.95014,-2.147087 1.28825,-5.153009 14.17078,-5.367718 23.61796,-4.723592 0.21471,-0.644126 0.42942,-1.717669 0.64412,-2.361796 0.42942,-1.288252 0.42942,-1.717669 -1.71767,-2.147087 -4.50888,-0.858834 -7.08538,-1.717669 -10.0913,-3.435339 -2.79122,-1.502961 -4.29418,-4.294174 -3.65005,-5.797135 0.64412,-1.502961 -4.07947,0 -4.50889,0.858835 -0.85883,1.502961 3.22064,7.514805 3.22064,7.514805 0,0 -5.58243,-0.429418 -9.01777,-0.214709 -4.9383,0.214709 -7.72951,1.502961 -11.16485,1.073543 -4.07947,-0.429417 -6.44126,-3.650048 -6.01185,-6.011843 0.21471,-1.502961 -5.36771,2.576504 -5.15301,4.079465 0.21471,1.288252 1.93238,3.435339 6.44127,6.441261 -7.944225,4.508883 -6.01185,10.09131 -12.667814,10.520727 -1.932378,0 -7.300096,-1.502961 -7.944222,-4.294174 -0.429417,-1.71767 -4.079465,4.723591 -1.932378,7.944222 1.073543,1.71767 2.361796,1.502961 7.944222,1.932378 -2.361796,4.508883 -2.576504,6.65597 -2.576504,10.306018 0,3.650048 -1.073544,4.938301 -3.864757,6.65597 -1.932379,1.288253 -6.441261,1.932379 -9.447183,-0.858835 -0.858835,-0.858834 -1.502961,5.153009 -0.858835,6.870679 0.644126,1.71767 1.717669,2.576505 4.508883,2.576505 4.294174,-0.214709 6.65597,-1.073544 6.65597,-0.214709 -0.214709,2.361796 -0.214709,5.797135 0.214708,12.023688 0.429418,6.655974 -6.65597,9.661896 -11.59427,7.085384 -1.288252,-0.64412 0,7.729522 2.147087,7.944232 4.294174,0.42941 8.37364,-3.65005 8.588348,-2.3618 1.073544,6.87068 2.576505,7.5148 3.005922,10.73543 1.073544,7.72952 -6.441261,9.6619 -9.232474,8.58835 -1.932378,-0.85883 0.644126,7.51481 4.508883,6.01185 1.288252,-0.42942 3.22063,-2.14709 4.9383,-2.14709 2.791213,0 4.508883,1.07354 5.797135,4.72359 0.644126,1.93238 0.858835,5.79714 0.214709,10.09131 -0.429418,2.57651 -0.858835,5.15301 -2.361796,7.72951 -0.858835,1.50297 -2.361796,3.00593 -3.650048,3.43534 -2.576504,0.64413 4.294174,3.65005 7.514805,1.71767 2.791214,-1.50296 4.723589,-11.80898 5.367709,-13.31194 1.71767,-4.07946 4.50889,-5.36771 6.87068,-5.36771 3.43534,0 6.22655,2.14708 7.08539,5.36771 0.64413,2.14709 0.21471,4.50889 -0.21471,5.79714 -0.21471,1.50296 -1.71767,6.65597 -1.93238,7.5148 -1.93238,9.01777 8.15893,9.44719 7.08539,8.37364 -1.50296,-1.71767 -1.28825,-7.08538 0,-12.88252 0.21471,-1.28825 1.50296,-6.01184 2.3618,-7.72951 1.71767,-2.79122 3.86475,-3.65005 5.36771,-3.65005 7.94423,0 9.01777,6.22655 9.01777,9.8766 0,1.50296 -0.42942,7.94422 -0.42942,9.01776 0,10.73544 13.52665,7.94423 11.37956,6.87068 -2.5765,-1.28825 -4.29417,-5.36771 -5.15301,-13.31194 -0.64412,-6.44126 1.07355,-12.88252 1.50297,-13.09723 5.36771,-1.71767 10.95014,-1.71767 14.38548,4.9383 0.85883,1.71767 1.50296,4.72359 2.5765,5.58243 2.14709,1.93238 6.65597,0 7.72952,-3.00592 -4.9383,-1.93238 -5.15301,-9.01777 -2.79122,-13.74136 1.07355,-2.14709 1.93238,-5.15301 2.57651,-8.37364 0.85883,0.85884 5.36772,4.29417 7.72951,3.65005 1.71767,-0.64413 3.65005,-7.94422 1.71767,-7.08539 -3.86476,2.14709 -8.58835,-2.79121 -10.30602,-5.15301 -0.85883,-1.28825 -3.00592,-3.86475 -3.22063,-8.80305 -0.42942,-3.22064 -0.64412,-7.729522 -4.50888,-10.735442 z"
       id="path842" /><path
       id="path840"
       style="fill:#ff0000;fill-opacity:1;stroke-width:2.14709"
       d="m 141.3418,43.865234 c -4.5894,0.05368 -8.24112,0.482625 -9.63672,0.804688 -3.65005,0.858834 -4.50781,4.078125 -4.50781,4.078125 -1.93237,0 -6.22778,2.7e-4 -8.16016,0.429687 -2.14708,0.429417 -2.79115,0.645343 -3.00586,1.933594 0,2.576502 6.22656,6.441406 6.22656,6.441406 0,0 -1.28665,7.513689 -3.64843,13.740235 -0.42942,1.288251 -0.43097,2.57793 0.64257,5.36914 1.71767,3.864754 5.79845,6.010307 11.38086,6.869141 4.07947,0.644125 9.23196,7.086478 11.59375,7.945312 1.50297,0.644126 11.16441,0.429688 14.81446,0.429688 7.51479,-0.214708 15.03091,-0.85978 17.60742,-1.503906 1.07354,0 1.71706,-1.717473 2.14648,-2.791016 h -18.25 V 73.441406 c 0,0 14.38552,-2.7e-4 18.67969,-0.429687 1.07355,-0.214709 2.79042,-0.214574 4.9375,0.214843 0.21471,0 1.07422,-2.69e-4 1.07422,-0.429687 0.42942,-2.576501 0.21484,-8.160156 0.21484,-8.160156 0,0 3.22071,-3.220178 3.22071,-8.587891 -4.9383,-1.717667 -9.87744,-3.435817 -13.74219,-3.865234 -1.28825,-0.214708 -6.22723,-0.42787 -7.30078,-0.642578 -1.71767,-0.214708 -3.21943,-0.859916 -4.29297,-1.71875 -0.85884,-0.644126 -3.43636,-4.078396 -4.72461,-4.507813 -5.15301,-1.180897 -10.68014,-1.502896 -15.26953,-1.449219 z m 7.9707,5.527344 c 5.3677,0 9.01758,5.796875 9.01758,5.796875 0,0 -11.80996,4.725343 -13.95703,2.792969 -2.5765,-2.361792 2.79236,-8.589844 4.93945,-8.589844 z m 0.42969,3.00586 c -0.21471,-10e-7 -1.93414,1.503035 -2.79297,3.220703 1.07354,-0.214709 3.65187,-1.072808 6.01367,-1.931641 -0.85883,-0.644124 -1.93245,-1.289062 -3.2207,-1.289062 z" /><path
       style="fill:#ff0000;fill-opacity:1;stroke-width:2.14709"
       d="m 83.611102,260.02238 c 0.214709,6.01184 -1.932378,12.4531 -7.300096,18.89436 -2.791213,3.22063 -5.153009,5.79714 -7.085387,7.94423 -3.435339,4.07946 -3.650048,4.9383 3.005922,9.66189 17.606114,12.66781 24.90621,23.40325 28.770959,31.34747 2.57651,5.36772 3.22063,8.37364 4.29418,8.15893 2.14708,-0.21471 4.29417,-0.42942 6.87068,-1.07354 1.28825,-0.21471 2.36179,-0.64413 3.22063,-1.07355 -4.07947,-8.58835 -9.8766,-19.7532 -30.273927,-34.13868 -11.164853,-7.94422 -5.797135,-13.09723 2.147087,-21.47087 6.011844,-6.44126 1.932379,-12.88252 -3.650048,-18.25024 z"
       id="path838" /><path
       style="fill:#ff0000;fill-opacity:1;stroke-width:2.14709"
       d="m 153.39143,180.58016 c -7.51481,-0.42942 -11.37956,-4.07947 -13.52665,-9.01777 -3.86476,-1.50296 -7.3001,-4.9383 -7.94422,-11.59427 -0.64413,-6.22655 3.00592,-14.17077 -3.43534,-14.17077 -1.07355,0 -2.14709,4.72359 -2.79122,7.08538 -3.22063,14.8149 3.86476,10.95015 1.28826,14.17078 -4.50889,5.36771 -20.39733,4.29417 -18.67966,-11.37956 0.42942,-4.50889 4.9383,-12.88253 0.21471,-12.88253 -3.22063,0 -2.79122,12.02369 -8.588345,16.96199 -0.42942,15.67374 -10.520728,36.28577 -18.250241,45.30354 -13.31194,15.45903 -15.244318,31.34747 -4.508883,42.08291 1.502961,1.50296 3.650048,3.43533 6.011844,5.36771 2.361796,2.14709 4.9383,4.50889 7.300096,7.3001 4.508883,5.58243 7.944224,14.17077 0.214709,22.54441 -1.932379,1.93238 -3.43534,3.86476 -4.938301,5.58243 -3.435339,3.86476 -1.073543,5.15301 1.932379,7.3001 12.667812,8.80305 20.182612,16.74727 25.120912,23.83266 2.3618,3.43534 4.29418,6.65597 5.79714,9.66189 1.28825,2.79122 2.5765,5.15301 3.65004,7.51481 0.85884,1.50296 7.51481,3.86476 12.2384,0 0.21471,-3.00592 -1.07354,-6.65597 -3.00592,-9.23248 -2.14709,-3.22063 2.5765,-6.44126 4.72359,-3.22063 2.57651,3.65005 4.50888,9.44719 3.86476,13.95607 5.36772,1.93238 9.66189,1.71767 13.31194,-0.42942 0.42941,-5.36772 -0.85884,-9.44718 -2.79122,-11.80898 -2.36179,-3.00592 2.3618,-6.65597 4.7236,-3.43534 2.5765,3.43534 4.29417,8.58835 4.07946,13.09724 3.22063,-0.42942 4.29418,-2.3618 4.72359,-4.9383 0.64413,-3.86476 -0.85883,-8.37364 -2.5765,-10.52073 -1.07355,-1.28825 -4.07947,-5.15301 -10.95015,-5.15301 -6.22655,0 -34.78281,-16.96199 -34.78281,-28.12684 0,-3.43534 2.14709,-5.58243 3.22063,-6.65597 1.28826,-1.07354 3.00593,-2.14709 4.50889,-3.22063 3.00592,-1.71767 6.87068,-3.86476 10.73543,-6.44126 7.72952,-4.9383 13.31194,-10.73544 13.31194,-18.67966 0,-6.87068 -2.14708,-16.31786 -16.10315,-17.60611 -3.00592,-0.21471 -13.09723,-1.28826 -19.7532,2.14708 -3.43534,1.71767 -6.44126,-2.5765 -3.43534,-4.72359 0,0 3.65005,-2.5765 12.66781,-3.43534 0,-17.1767 16.74728,-33.27985 24.4768,-39.29169 3.43533,-1.93238 5.79713,-4.72359 7.94422,-7.94422 z"
       id="path836" /><path
       style="fill:#ff0000;fill-opacity:1;stroke-width:2.14709"
       d="m 34.013391,119.17347 c 1.932378,5.153 3.22063,6.65597 12.667814,6.22655 1.717669,5.36772 2.791213,11.59427 2.791213,15.45902 0.429417,12.2384 -2.576505,20.39733 -7.085388,27.91214 -1.502961,2.36179 -3.650048,5.79713 -6.011843,9.66189 -2.361796,3.65005 -4.723592,7.72951 -6.441262,11.59427 -9.661892,20.82674 -3.005922,45.73295 19.753201,53.03305 3.43534,1.07354 10.735436,2.14709 18.894367,1.07354 -1.288253,-2.14708 -2.147087,-4.50888 -2.576505,-6.87068 -16.747279,1.71767 -29.200384,-6.01184 -33.494558,-18.25024 -3.220631,-9.01776 -1.502961,-18.25024 1.502961,-26.19446 3.22063,-7.94422 8.158931,-15.45902 12.238396,-21.68558 9.876601,-14.8149 8.588348,-31.99159 5.153009,-46.8065 3.220631,-1.71767 6.65597,-3.00592 6.65597,-9.01776 0,-4.29418 -0.858835,-8.37364 -4.723592,-12.02369 -8.803057,-8.158932 -22.544414,-3.00592 -27.268005,0.64413 2.791213,1.93238 4.294174,4.72359 5.367717,7.08538 0.858835,2.79122 1.71767,5.58243 2.576505,8.15894 z"
       id="path144" /><path
       style="fill:#ff0000;fill-opacity:1;stroke-width:2.14709"
       d="m 147.59429,171.99181 c 1.71767,1.71767 3.86476,2.79121 7.3001,2.79121 7.08539,0 14.38548,-6.87068 22.115,-18.67966 3.65004,-5.58242 7.08538,-11.59427 10.30601,-16.96198 3.22063,-5.36772 6.65597,-10.73544 10.09131,-14.17078 l 1.71767,-1.93238 c 6.22655,0.85884 16.10316,-3.65005 16.10316,-3.65005 l 2.5765,1.71767 c 2.14709,1.50296 5.15301,1.93238 7.5148,1.71767 1.93238,-0.21471 2.57651,-1.28825 2.79122,-2.79121 0.42942,-3.00592 -2.14709,-5.15301 -3.86476,-6.01184 -3.43534,-1.50296 -0.85883,-6.65597 2.3618,-4.9383 0,0 3.86475,1.50296 6.44126,6.65597 2.79121,0.2147 3.00592,-1.28826 3.22063,-3.00593 0.42942,-3.22063 -1.71767,-9.23247 -10.52073,-9.23247 -3.65005,0.21471 -4.07946,-5.367722 -0.42942,-5.582429 0,0 3.86476,-0.214708 6.44127,0.858837 0.42941,-2.576506 -0.42942,-3.864759 -1.71767,-4.294176 -3.22063,-1.288252 -12.02369,-1.288252 -32.63573,7.729518 -4.72359,2.14708 -14.38548,7.94422 -23.83266,11.59427 2.14708,2.5765 5.36771,3.86475 8.37364,1.28825 4.9383,-4.07947 4.07946,17.1767 -3.86476,18.25024 -3.00592,0.42942 -5.15301,-1.28825 -5.15301,-1.28825 0,0 -0.42942,2.5765 -1.07354,4.07946 -1.71767,3.43534 -1.07355,7.3001 4.50888,7.08539 0,6.65597 -5.79714,15.67374 -15.24432,12.2384 -6.65597,-2.3618 -3.86476,-12.66782 -11.37956,-11.37956 -0.21471,0 -1.07354,3.65004 -0.64413,8.37364 1.07355,13.74135 6.65597,10.73543 6.87068,12.23839 0.42942,3.43534 -3.65005,6.44126 -8.37364,7.3001 z"
       id="path834" /></g></g><g
   id="g977"
   style="fill:#000000"><path
     id="path956"
     style="fill:#000000;stroke-width:2.14709"
     d="m 282.86133,313.48438 v 38.0039 h 8.80273 v -14.38476 h 10.30664 l 10.94922,14.38476 h 10.95117 l -11.38086,-15.24414 c 4.29417,-1.71767 7.30079,-6.01287 7.30079,-10.95117 0,-6.44125 -5.1525,-11.80859 -11.59375,-11.80859 z m 8.80273,8.16015 h 15.45899 c 2.14708,0 3.65039,1.71607 3.65039,3.64844 0,1.93238 -1.50331,3.65039 -3.65039,3.65039 h -15.45899 z" /><path
     style="fill:#000000;stroke-width:2.14709"
     d="m 317.21417,266.46364 v 8.15893 h -25.33563 v 6.44126 h 24.4768 v 8.15893 h -24.4768 v 7.3001 h 25.33563 v 8.15893 h -34.35339 v -38.21815 z"
     id="path952" /><path
     id="path950"
     style="fill:#000000;stroke-width:2.14709"
     d="m 190.53516,220.51562 v 38.00391 h 26.41015 c 6.44127,0 11.59375,-5.1525 11.59375,-11.59375 0,-3.43534 -1.28847,-6.22792 -3.43554,-8.375 1.50295,-1.93238 2.57617,-4.50735 2.57617,-6.86914 0,-6.22654 -5.15223,-11.16602 -11.16407,-11.16602 z m 9.01953,7.94532 h 15.88672 c 1.71765,0 3.2207,1.50303 3.2207,3.2207 0,1.71767 -1.50305,3.2207 -3.2207,3.2207 h -15.88672 z m 0,14.38476 h 16.3164 c 1.93238,0 3.65039,1.71803 3.65039,3.65039 0,1.93238 -1.71801,3.65039 -3.65039,3.65039 h -16.3164 z" /><path
     id="path942"
     style="fill:#000000;stroke-width:2.14709"
     d="m 252.80078,220.30078 -18.89453,38.00391 h 9.66211 l 3.00586,-6.44141 h 21.25781 l 3.00586,6.44141 h 9.66016 l -18.89258,-38.00391 z m 4.29492,9.66211 6.65625,13.74219 h -13.3125 z" /><path
     id="path938"
     style="fill:#000000;stroke-width:2.14709"
     d="m 376.25977,220.30078 v 38.00391 h 9.01757 v -14.38477 h 6.8711 l 10.94922,14.59961 h 10.94922 l -11.16407,-15.0293 c 4.72359,-1.50295 8.37305,-6.01315 8.37305,-11.38085 0,-6.44127 -5.36734,-11.8086 -11.80859,-11.8086 z m 9.01757,8.16016 H 398.375 c 1.93238,0 3.64844,1.50135 3.64844,3.64844 0,1.93236 -1.71606,3.65039 -3.64844,3.65039 h -13.09766 z" /><path
     style="fill:#000000;stroke-width:2.14709"
     d="m 363.59125,220.30127 v 8.15893 h -25.33563 v 6.44126 h 24.4768 v 8.15893 h -24.4768 v 7.3001 h 25.33563 v 8.15893 h -34.35339 v -38.00344 z"
     id="path936" /><path
     style="fill:#000000;stroke-width:2.14709"
     d="m 312.92,220.30127 h 10.95014 l -19.32378,24.6915 v 13.31194 h -9.01777 v -13.31194 l -19.32378,-24.6915 h 10.95014 l 12.88252,17.3914 z"
     id="path934" /><path
     id="path930"
     style="fill:#000000;stroke-width:2.14709"
     d="m 295.74414,174.13867 -18.89453,38.00391 h 9.66211 l 3.00586,-6.44141 h 21.25586 l 3.00586,6.44141 h 9.66211 l -18.89453,-38.00391 z m 4.29297,9.66211 6.65625,13.74219 h -13.3125 z" /><path
     id="path928"
     style="fill:#000000;stroke-width:2.14709"
     d="m 282.64648,128.83594 v 38.21679 h 26.40821 c 6.44125,0 11.5957,-5.15249 11.5957,-11.59375 0,-3.43533 -1.28846,-6.22596 -3.43555,-8.37304 1.71767,-1.93238 2.57618,-4.50944 2.57618,-7.08594 0,-6.22654 -5.15418,-11.16406 -11.16602,-11.16406 z m 9.23243,8.1582 h 15.88867 c 1.71767,0 3.2207,1.50305 3.2207,3.2207 0,1.71767 -1.50303,3.22071 -3.2207,3.22071 h -15.88867 z m 0,14.38477 h 16.31836 c 1.93235,0 3.64843,1.71801 3.64843,3.65039 0,1.93236 -1.71608,3.65039 -3.64843,3.65039 h -16.31836 z" /></g><g
   id="g1059"
   style="fill:#000000"><path
     id="path920"
     style="fill:#000000;stroke-width:2.14709"
     d="m 425.01953,373.25391 c -1.0847,0.003 -2.23587,0.11477 -3.45703,0.34961 -11.59426,2.36179 -14.81546,12.45227 -13.3125,20.39648 1.93238,9.87659 9.66315,15.0299 20.61328,12.88281 4.72359,-0.85883 8.58783,-2.57543 11.59375,-4.50781 l -2.57617,-6.01172 c -2.57651,1.50296 -5.36753,2.57658 -9.01758,3.2207 -4.93829,1.07354 -9.87777,-0.43057 -11.16601,-4.93945 l 22.11523,-4.29492 c 0,-0.85883 -0.21499,-2.14548 -0.42969,-3.64844 -1.14735,-6.31042 -5.53071,-13.47289 -14.36328,-13.44726 z m -1.33789,6.625 c 4.45595,-0.11896 6.07959,3.60767 6.46875,5.74804 l -13.74023,2.57617 c -0.2147,-3.00592 0.85858,-7.51408 5.79687,-8.1582 0.52335,-0.10064 1.01365,-0.15371 1.47461,-0.16601 z" /><path
     style="fill:#000000;stroke-width:2.14709"
     d="m 382.70033,418.69211 -0.21471,-7.08538 c 2.14709,0.64412 6.44126,0.85883 9.44718,0 3.43534,-0.85884 4.29418,-2.57651 3.86476,-4.29418 -0.42942,-1.93238 -1.93238,-2.36179 -6.22655,-2.5765 -7.08539,0 -10.95015,-2.79122 -12.02369,-6.65597 -1.71767,-5.79714 1.93238,-11.59427 9.8766,-13.74136 3.86476,-1.07354 7.30009,-1.07354 9.66189,-0.64413 l 0.21471,6.87068 c -1.71767,-0.42942 -4.72359,-0.64412 -7.72951,0.21471 -2.57651,0.85884 -3.86476,2.3618 -3.43534,4.07947 0.42941,1.71767 2.14708,2.14708 6.65597,2.36179 6.65597,0.21471 10.09131,2.3618 11.59427,7.08539 1.71767,5.58243 -1.71767,11.37956 -10.73544,13.95607 -4.07946,0.85883 -8.15893,1.07354 -10.95014,0.42941 z"
     id="path918" /><path
     style="fill:#000000;stroke-width:2.14709"
     d="m 367.88543,392.28294 4.29417,21.90029 c 0.85884,4.07947 1.50296,7.5148 2.14709,9.8766 l -8.15893,1.50296 -1.28826,-4.72359 h -0.2147 c -0.85884,2.3618 -3.43534,6.44126 -9.44719,7.72951 -6.22655,1.28826 -12.4531,-1.50296 -14.38548,-11.80898 l -3.65005,-18.67965 9.44718,-1.71767 3.22064,16.96199 c 1.07354,5.153 3.22063,7.72951 7.5148,7.08538 3.22063,-0.64412 4.72359,-3.22063 5.15301,-5.36772 0.21471,-0.64412 0.21471,-1.50296 0,-2.36179 l -3.65005,-18.89437 z"
     id="path916" /><path
     style="fill:#000000;stroke-width:2.14709"
     d="m 308.19641,385.19755 1.07354,28.98568 h 0.21471 c 0.85883,-1.28825 1.71767,-2.5765 2.36179,-3.86476 l 7.3001,-10.30601 11.59427,-0.42942 -12.2384,13.52665 15.24432,18.89436 -11.80898,0.42942 -9.66189,-13.52665 -2.79121,3.43534 0.42942,10.52073 -9.44719,0.42941 -1.71767,-47.45062 z"
     id="path914" /><path
     style="fill:#000000;stroke-width:2.14709"
     d="m 268.47529,432.00405 1.93238,-21.68558 c 0.42942,-4.9383 0.64413,-7.94422 0.64413,-10.73543 l 8.15893,0.64412 -0.21471,6.44127 h 0.21471 c 2.14709,-4.7236 6.44126,-6.65597 9.8766,-6.22656 0.85884,0 1.28825,0.21471 2.14709,0.42942 l -0.85884,8.80306 c -0.85883,-0.21471 -1.71767,-0.42942 -2.79121,-0.64413 -4.07947,-0.42942 -6.87068,1.71767 -7.94422,5.15301 -0.21471,0.64413 -0.21471,1.50296 -0.42942,2.14709 l -1.50296,16.53257 z"
     id="path912" /><path
     id="path908"
     style="fill:#000000;stroke-width:2.14709"
     d="m 244.71484,394.08203 c -9.28458,-0.0165 -15.05205,7.22937 -16.39062,14.30469 -1.93238,9.8766 3.43659,17.60486 14.38672,19.75195 4.72358,0.85883 9.0178,0.85897 12.45312,0.21485 v -6.65625 c -3.00591,0.42942 -6.01206,0.21638 -9.66211,-0.42774 -5.153,-0.85884 -9.23201,-4.0811 -8.58789,-8.80469 l 22.11328,4.29493 c 0.42942,-0.64412 0.85938,-2.1473 0.85938,-3.43555 1.50296,-7.30009 -0.42891,-16.74744 -11.59375,-18.89453 -1.24464,-0.23484 -2.43791,-0.34563 -3.57813,-0.34766 z m 0.32227,6.23828 c 0.55061,-0.0231 1.13466,0.0137 1.75195,0.1211 5.36771,1.07355 5.58372,6.01307 5.1543,8.16015 l -13.74219,-2.57812 c 0.75148,-2.44231 2.98166,-5.54167 6.83594,-5.70313 z" /><path
     style="fill:#000000;stroke-width:2.14709"
     d="m 196.54788,379.18571 9.66189,3.65005 -0.64413,16.74728 c 0,3.00592 -0.42941,5.58242 -0.64412,8.15893 h 0.21471 c 1.50296,-2.14709 2.79121,-4.29418 4.72359,-6.65597 l 10.09131,-13.09723 9.44718,3.43534 -23.40325,26.19446 -9.01776,-3.22063 z"
     id="path906" /><path
     id="path902"
     style="fill:#000000;stroke-width:2.14709"
     d="m 171.82227,372.60352 c -8.72681,0.0136 -14.19288,6.84091 -15.85352,13.66796 -2.14709,9.87659 2.79011,17.60514 13.74023,20.18164 4.72359,1.07354 9.01779,1.28867 12.45313,0.64454 l 0.21484,-6.65625 c -3.00591,0.42942 -6.01206,0.21429 -9.66211,-0.64453 -4.93829,-1.28826 -9.01703,-4.50884 -8.1582,-9.23243 l 21.90039,5.1543 c 0.21471,-0.64413 0.85742,-1.93259 0.85742,-3.43555 1.71767,-7.08538 9.1e-4,-16.53287 -10.94922,-19.10937 -1.60024,-0.39252 -3.11494,-0.57254 -4.54296,-0.57031 z m 0.99023,6.17578 c 0.5158,-0.002 1.05748,0.0572 1.62109,0.1914 5.36772,1.28825 5.58163,6.22596 4.9375,8.37305 l -13.52734,-3.2207 c 0.93936,-2.25444 3.35813,-5.32907 6.96875,-5.34375 z" /><path
     style="fill:#000000;stroke-width:2.14709"
     d="m 121.39983,402.58896 -1.50296,-44.87412 9.44718,-0.42942 1.28825,36.9299 19.32379,-0.64413 0.21471,7.94423 z"
     id="path900" /><path
     style="fill:#000000;stroke-width:2.14709"
     d="m 447.32765,402.15954 v -22.3297 c 0,-4.07947 -0.21471,-7.3001 -0.21471,-10.09131 h 8.37364 l 0.42942,4.9383 h 0.21471 c 1.28825,-2.14709 4.9383,-5.58243 10.73543,-5.58243 6.22655,0 12.2384,4.07947 12.2384,14.38548 v 18.89437 h -9.44719 v -17.82082 c 0,-4.72359 -1.71767,-7.94422 -6.01184,-7.94422 -3.22063,0 -5.36772,2.36179 -6.01184,4.50888 -0.21471,0.64413 -0.42942,1.50296 -0.42942,2.36179 v 18.67966 z"
     id="path898" /></g><g
   id="g1204"><path
     style="stroke-width:2.14709"
     d="m 252.37214,95.126088 -9.01776,-29.415093 h -0.21471 l -6.01185,5.367718 -3.22063,-5.582427 8.15893,-7.300096 6.65597,-1.932378 11.16486,36.50048 z"
     id="path888" /><path
     id="path886"
     style="stroke-width:2.14709"
     d="m 274.15039,50.738281 c -0.85387,-0.01427 -1.74399,0.03743 -2.66992,0.158203 -8.37363,1.073543 -13.74151,8.159031 -12.66797,15.673828 1.07355,7.08538 7.08636,10.950632 13.95703,10.091797 3.86476,-0.644125 6.4404,-1.933128 7.94336,-4.294921 h 0.21484 c -0.21471,3.220627 -1.50148,6.011118 -3.86328,8.158203 -1.93237,1.932376 -4.72455,3.221109 -7.73047,3.865234 -1.93237,0.429417 -3.00652,0.644531 -4.08007,0.644531 l 0.85937,6.441406 c 1.07354,10e-7 2.57712,-0.215114 4.08008,-0.644531 5.79713,-1.073543 10.73445,-3.436028 13.95508,-7.300781 3.65004,-4.29417 5.36847,-10.305786 4.29492,-18.25 -1.16748,-8.172342 -6.03892,-14.405015 -14.29297,-14.542969 z m -0.95508,6.31836 c 4.13115,-0.06605 6.06985,3.782692 6.875,8.009765 0,0.858834 -1.4e-4,1.504177 -0.21484,1.933594 -0.64413,1.717668 -2.57793,3.219021 -5.36914,3.648438 -4.07947,0.429417 -6.65457,-2.146696 -7.08399,-5.582032 -0.64412,-4.079462 1.50217,-7.513943 4.9375,-7.943359 0.29523,-0.04026 0.58006,-0.062 0.85547,-0.06641 z" /><path
     id="path882"
     style="stroke-width:2.14709"
     d="m 309.01953,48.949219 c -9.11214,0.09892 -14.37014,8.099107 -14.99414,19.123047 -0.64413,11.379549 3.86546,19.969021 13.52734,20.398437 10.0913,0.429418 15.24456,-7.515116 15.88868,-19.109375 0.64413,-11.164842 -3.43606,-19.969021 -13.52735,-20.398437 -0.30193,-0.01342 -0.60059,-0.01686 -0.89453,-0.01367 z m 0.10547,6.234375 c 0.11864,-0.0025 0.2386,-8.5e-4 0.35938,0.0059 4.07945,0.214709 6.01145,4.939139 5.58203,13.742188 -0.42941,9.017756 -3.00453,13.527207 -7.08399,13.3125 -3.86475,-0.214709 -6.22811,-4.939276 -5.58398,-13.957032 0.416,-8.527953 3.0488,-13.025921 6.72656,-13.103515 z" /><path
     id="path878"
     style="stroke-width:2.14709"
     d="m 349.41992,55.619141 -21.04101,18.679687 -1.50196,5.154297 17.39063,4.722656 -2.36133,9.017578 7.72852,2.146485 2.36132,-9.017578 4.72461,1.289062 1.7168,-6.011719 -4.72266,-1.289062 5.79688,-21.900391 z m 0.64453,6.65625 h 0.21485 c -0.64412,2.361793 -1.28751,4.509165 -1.93164,6.65625 l -2.36328,9.232421 -9.66016,-2.576171 8.37305,-7.515625 c 1.93236,-1.932377 3.43482,-3.649791 5.36718,-5.796875 z" /></g></svg>
