<?xml version="1.0" encoding="UTF-8"?>
<svg id="_图层_1" data-name="图层_1" xmlns="http://www.w3.org/2000/svg" version="1.1" viewBox="0 0 800 800">
  <!-- Generator: Adobe Illustrator 29.1.0, SVG Export Plug-In . SVG Version: 2.1.0 Build 142)  -->
  <path d="M728.6068,498.157c19.0742-15.0634,22.571-38.3335,21.0918-51.1061l-1.069-9.2599-9.1311,1.8729c-.5546.1125-7.2423,1.5514-15.2242,6.0366,25.4244-20.9392,24.283-52.0626,19.8621-66.1131l-2.9338-9.3483-8.8579,4.1878c-.3778.1768-1.8648.9083-4.0028,2.2507-3.0383-83.0413-36.6296-160.3756-95.7335-219.4876-12.0088-12.0089-25.0385-23.1657-38.6712-33.1088-56.0656-41.6855-122.7172-63.7178-192.769-63.7178-47.6014,0-93.4828,10.128-136.2854,30.0624-35.9383,16.2691-68.3719,38.7274-96.4085,66.7723-59.0397,59.0397-92.6147,136.2534-95.7173,219.1741-2.7089-1.8005-4.646-2.749-5.1121-2.966l-8.85-4.1798-2.9338,9.3402c-4.4208,14.0666-5.5223,44.7078,19.2511,65.6228-5.249-2.8857-10.3932-4.6782-14.6213-5.5463l-9.1233-1.8648-1.069,9.2518c-1.4711,12.7725,2.0257,36.0427,21.0918,51.1061-3.4965-.4823-5.8277-.5305-6.125-.5386l-9.0669-.1045.442,9.0589c.603,12.4108,7.5558,33.5831,27.86,44.3541-2.9902.41-4.9031.8601-5.1685.9324l-8.7212,2.1864,2.6446,8.6007c4.7184,15.3527,21.8233,41.2916,54.6188,41.2916,3.995,0,8.223-.3858,12.6922-1.2218,0,0-24.0016,4.9997-24.7331,5.3052l-8.3113,3.5287,3.9869,8.1024c6.2135,12.6278,23.423,31.9192,49.9245,32.0478-3.4884,2.3391-5.5946,4.1879-5.8357,4.4048l-6.7439,6.0768,6.4787,6.3581c7.7005,7.5558,22.8764,16.7272,40.9621,16.7272,4.7586,0,9.7181-.6832,14.7981-2.1542-3.368,3.4323-5.289,6.0687-5.498,6.3662l-5.2568,7.395,7.7005,4.7987c7.1057,4.421,18.7769,8.8338,31.855,8.8338,12.4268,0,26.1156-3.9949,38.3979-15.6984,0,0,8.4963,1.905,9.8065,2.1221l17.3139,2.9098v14.7177c0,1.0048-.0321,1.8166-.0805,2.4596-.4823.0161-1.0531.0241-1.7041.0241h-6.5832l-5.6106,21.2929h58.4046l4.7103-18.2786c.9726,1.7764,2.0417,3.4564,3.1911,5.0238,7.5477,10.1842,18.3028,15.5697,31.0914,15.5697,12.7243,0,23.3908-5.4016,30.8902-15.6581,2.8776-3.9869,5.2166-8.6811,6.9931-14.0104,1.8005,5.3614,4.1878,10.0797,7.1378,14.1068,7.5477,10.1842,18.3028,15.5697,31.0914,15.5697s23.3989-5.4016,30.8902-15.6581c6.1411-8.5123,9.7662-20.0871,10.8031-34.4673,1.5915-.5466,9.9993-.0724,9.9993-.0724,25.9388,30.5929,60.5348,21.4456,75.3248,12.234l7.7086-4.7987-5.2649-7.395c-.233-.3296-2.1381-2.9499-5.482-6.3501,5.0721,1.4629,10.0314,2.1462,14.7819,2.1462,18.0857,0,33.2615-9.1714,40.9621-16.7272l6.4787-6.3581-6.7439-6.0768c-.2411-.217-2.3471-2.0738-5.8277-4.4129,26.4934-.1366,43.7031-19.42,49.9085-32.0478l3.9788-8.1024-8.3113-3.5287c-.7315-.3135-24.7331-5.3052-24.7331-5.3052,4.4692.8359,8.6972,1.2218,12.6922,1.2218,32.7952,0,49.9004-25.9388,54.6188-41.2916l2.6446-8.6007-8.7212-2.1864c-.2652-.0643-2.1783-.5225-5.1685-.9324,20.3042-10.771,27.257-31.9433,27.86-44.3541l.442-9.0589-9.0669.1045c-.2973,0-2.6284.0563-6.125.5386l.0145.0002Z" style="fill: #fff;"/>
  <path d="M280.1306,676.8996c-23.0611-13.6647-43.6145-23.1095-39.2096-55.0126,34.0573,13.2226,40.6726,31.6137,39.2096,55.0126M229.0728,657.142c-20.4649-17.5551-39.1694-30.5205-29.2666-61.1134,31.4208,19.0904,34.7726,38.3577,29.2666,61.1134M183.6013,628.9445c-14.4684-20.5132-28.4468-36.5974-12.3466-62.1182,23.849,24.6367,22.4825,42.7947,12.3466,62.1182M150.3398,592.4275c-11.2452-22.3539-22.7317-40.3833-2.8536-63.5249,20.0069,28.1654,15.8269,45.9778,2.8536,63.5249M120.7678,547.3982c-1.8086-24.6367-5.249-45.2383,18.7367-61.3707,7.0574,32.7954-2.2747,48.5259-18.7367,61.3707M106.0823,500.0299c-.2411-24.6447-2.339-45.3669,22.4744-60.0122,4.9274,33.0847-5.3373,48.1963-22.4744,60.0122M99.5955,444.31c6.9369-23.5757,9.0509-46.3877,39.1616-51.1061-5.0881,33.2133-11.7115,45.9054-39.1616,51.1061M212.016,693.4018s27.2492-38.3497,64.9475-11.2854c-28.1252,34.21-64.9475,11.2854-64.9475,11.2854M212.016,693.4018s27.2492-38.3497,64.9475-11.2854c-28.1252,34.21-64.9475,11.2854-64.9475,11.2854M212.016,693.4018s27.2492-38.3497,64.9475-11.2854c-28.1252,34.21-64.9475,11.2854-64.9475,11.2854M212.016,693.4018s27.2492-38.3497,64.9475-11.2854c-28.1252,34.21-64.9475,11.2854-64.9475,11.2854M160.7732,661.4263s35.0459-31.5736,65.7514,2.8454c-34.9816,27.3536-65.7514-2.8454-65.7514-2.8454M160.7732,661.4263s35.0459-31.5736,65.7514,2.8454c-34.9816,27.3536-65.7514-2.8454-65.7514-2.8454M160.7732,661.4263s35.0459-31.5736,65.7514,2.8454c-34.9816,27.3536-65.7514-2.8454-65.7514-2.8454M160.7732,661.4263s35.0459-31.5736,65.7514,2.8454c-34.9816,27.3536-65.7514-2.8454-65.7514-2.8454M118.6376,614.8618s43.5584-18.4796,60.8804,23.9133c-41.814,14.8463-60.8804-23.9133-60.8804-23.9133M118.6376,614.8618s43.5584-18.4796,60.8804,23.9133c-41.814,14.8463-60.8804-23.9133-60.8804-23.9133M118.6376,614.8618s43.5584-18.4796,60.8804,23.9133c-41.814,14.8463-60.8804-23.9133-60.8804-23.9133M118.6376,614.8618s43.5584-18.4796,60.8804,23.9133c-41.814,14.8463-60.8804-23.9133-60.8804-23.9133M80.8829,559.1177s46.854-11.7597,57.5848,34.1939c-44.5148,8.3275-57.5848-34.1939-57.5848-34.1939M80.8829,559.1177s46.854-11.7597,57.5848,34.1939c-44.5148,8.3275-57.5848-34.1939-57.5848-34.1939M80.8829,559.1177s46.854-11.7597,57.5848,34.1939c-44.5148,8.3275-57.5848-34.1939-57.5848-34.1939M80.8829,559.1177s46.854-11.7597,57.5848,34.1939c-44.5148,8.3275-57.5848-34.1939-57.5848-34.1939M64.638,505.1341s44.7881.5145,44.0809,42.8027c-42.1275-2.8696-44.0809-42.8027-44.0809-42.8027M64.638,505.1341s44.7881.5145,44.0809,42.8027c-42.1275-2.8696-44.0809-42.8027-44.0809-42.8027M64.638,505.1341s44.7881.5145,44.0809,42.8027c-42.1275-2.8696-44.0809-42.8027-44.0809-42.8027M64.638,505.1341s44.7881.5145,44.0809,42.8027c-42.1275-2.8696-44.0809-42.8027-44.0809-42.8027M94.6441,499.7083c-41.0906-11.9687-36.3884-52.6976-36.3884-52.6976,0,0,39.9573,8.1586,36.3884,52.6976M94.6441,499.7083c-41.0906-11.9687-36.3884-52.6976-36.3884-52.6976,0,0,39.9573,8.1586,36.3884,52.6976M94.6441,499.7083c-41.0906-11.9687-36.3884-52.6976-36.3884-52.6976,0,0,39.9573,8.1586,36.3884,52.6976M94.6441,499.7083c-41.0906-11.9687-36.3884-52.6976-36.3884-52.6976,0,0,39.9573,8.1586,36.3884,52.6976M99.6679,409.2318c-17.4668-33.4223,11.3337-55.7038,11.3337-55.7038,0,0,19.203,30.3518-11.3337,55.7038M99.6679,409.2318c-17.4668-33.4223,11.3337-55.7038,11.3337-55.7038,0,0,19.203,30.3518-11.3337,55.7038M99.6679,409.2318c-17.4668-33.4223,11.3337-55.7038,11.3337-55.7038,0,0,19.203,30.3518-11.3337,55.7038M99.6679,409.2318c-17.4668-33.4223,11.3337-55.7038,11.3337-55.7038,0,0,19.203,30.3518-11.3337,55.7038M87.8841,443.257c-36.9028-22.4423-24.4115-62.1343-24.4115-62.1343,0,0,36.3884,17.1131,24.4115,62.1343M87.8841,443.257c-36.9028-22.4423-24.4115-62.1343-24.4115-62.1343,0,0,36.3884,17.1131,24.4115,62.1343M87.8841,443.257c-36.9028-22.4423-24.4115-62.1343-24.4115-62.1343,0,0,36.3884,17.1131,24.4115,62.1343M87.8841,443.257c-36.9028-22.4423-24.4115-62.1343-24.4115-62.1343,0,0,36.3884,17.1131,24.4115,62.1343" style="fill: #cfb986;"/>
  <path d="M518.7891,677.9204c-1.4549-23.4069,5.1523-41.7899,39.2096-55.0126,4.4049,31.9112-16.1485,41.3559-39.2096,55.0126M569.8468,658.1628c-5.5061-22.7558-2.1623-42.0311,29.2666-61.1215,9.9029,30.5929-8.8017,43.5583-29.2666,61.1215M615.3264,629.9653c-10.128-19.3235-11.5025-37.4815,12.3466-62.1182,16.0923,25.5129,2.1221,41.6051-12.3466,62.1182M648.5879,593.4403c-12.9736-17.5471-17.1533-35.3595,2.8536-63.5249,19.8781,23.1416,8.3999,41.171-2.8536,63.5249M678.1518,548.411c-16.462-12.8448-25.7943-28.5754-18.7367-61.3707,23.9857,16.1324,20.5453,36.734,18.7367,61.3707M692.8373,501.0507c-17.1371-11.816-27.3937-26.9275-22.4744-60.0042,24.8136,14.6454,22.7155,35.3595,22.4744,60.0042M699.3241,445.3308c-27.4501-5.2006-34.0735-17.8928-39.1616-51.1061,30.1106,4.7184,32.2247,27.5304,39.1616,51.1061M586.9118,694.4226s-36.8224,22.9246-64.9475-11.2854c37.6986-27.0642,64.9475,11.2854,64.9475,11.2854M586.9118,694.4226s-36.8224,22.9246-64.9475-11.2854c37.6986-27.0642,64.9475,11.2854,64.9475,11.2854M586.9118,694.4226s-36.8224,22.9246-64.9475-11.2854c37.6986-27.0642,64.9475,11.2854,64.9475,11.2854M586.9118,694.4226s-36.8224,22.9246-64.9475-11.2854c37.6986-27.0642,64.9475,11.2854,64.9475,11.2854M638.1464,662.4472s-30.7698,30.199-65.7514,2.8454c30.7136-34.419,65.7514-2.8454,65.7514-2.8454M638.1464,662.4472s-30.7698,30.199-65.7514,2.8454c30.7136-34.419,65.7514-2.8454,65.7514-2.8454M638.1464,662.4472s-30.7698,30.199-65.7514,2.8454c30.7136-34.419,65.7514-2.8454,65.7514-2.8454M638.1464,662.4472s-30.7698,30.199-65.7514,2.8454c30.7136-34.419,65.7514-2.8454,65.7514-2.8454M680.282,615.8826s-19.0664,38.7596-60.8804,23.9133c17.322-42.4008,60.8804-23.9133,60.8804-23.9133M680.282,615.8826s-19.0664,38.7596-60.8804,23.9133c17.322-42.4008,60.8804-23.9133,60.8804-23.9133M680.282,615.8826s-19.0664,38.7596-60.8804,23.9133c17.322-42.4008,60.8804-23.9133,60.8804-23.9133M680.282,615.8826s-19.0664,38.7596-60.8804,23.9133c17.322-42.4008,60.8804-23.9133,60.8804-23.9133M718.0368,560.1385s-13.07,42.5214-57.5848,34.1939c10.7308-45.9457,57.5848-34.1939,57.5848-34.1939M718.0368,560.1385s-13.07,42.5214-57.5848,34.1939c10.7308-45.9457,57.5848-34.1939,57.5848-34.1939M718.0368,560.1385s-13.07,42.5214-57.5848,34.1939c10.7308-45.9457,57.5848-34.1939,57.5848-34.1939M718.0368,560.1385s-13.07,42.5214-57.5848,34.1939c10.7308-45.9457,57.5848-34.1939,57.5848-34.1939M734.2817,506.1549s-1.9452,39.9332-44.0809,42.8027c-.7075-42.2883,44.0809-42.8027,44.0809-42.8027M734.2817,506.1549s-1.9452,39.9332-44.0809,42.8027c-.7075-42.2883,44.0809-42.8027,44.0809-42.8027M734.2817,506.1549s-1.9452,39.9332-44.0809,42.8027c-.7075-42.2883,44.0809-42.8027,44.0809-42.8027M734.2817,506.1549s-1.9452,39.9332-44.0809,42.8027c-.7075-42.2883,44.0809-42.8027,44.0809-42.8027M704.2836,500.7211c-3.5689-44.5309,36.3884-52.6976,36.3884-52.6976,0,0,4.7022,40.7289-36.3884,52.6976M704.2836,500.7211c-3.5689-44.5309,36.3884-52.6976,36.3884-52.6976,0,0,4.7022,40.7289-36.3884,52.6976M704.2836,500.7211c-3.5689-44.5309,36.3884-52.6976,36.3884-52.6976,0,0,4.7022,40.7289-36.3884,52.6976M704.2836,500.7211c-3.5689-44.5309,36.3884-52.6976,36.3884-52.6976,0,0,4.7022,40.7289-36.3884,52.6976M699.2598,410.2526c-30.5367-25.3521-11.3337-55.7038-11.3337-55.7038,0,0,28.8005,22.2815,11.3337,55.7038M699.2598,410.2526c-30.5367-25.3521-11.3337-55.7038-11.3337-55.7038,0,0,28.8005,22.2815,11.3337,55.7038M699.2598,410.2526c-30.5367-25.3521-11.3337-55.7038-11.3337-55.7038,0,0,28.8005,22.2815,11.3337,55.7038M687.918,354.5488l23.1256,89.729c-11.9766-45.0132,24.4115-62.1343,24.4115-62.1343,0,0,12.491,39.692-24.4115,62.1343M711.0437,444.2778c-11.9766-45.0132,24.4115-62.1343,24.4115-62.1343,0,0,12.491,39.692-24.4115,62.1343M711.0437,444.2778c-11.9766-45.0132,24.4115-62.1343,24.4115-62.1343,0,0,12.491,39.692-24.4115,62.1343M711.0437,444.2778c-11.9766-45.0132,24.4115-62.1343,24.4115-62.1343,0,0,12.491,39.692-24.4115,62.1343" style="fill: #cfb986;"/>
  <path d="M333.1498,718.8423c-.185-.9083-.2733-2.6767-.2733-5.3132-.1207-8.874-.2009-16.5664-.2411-23.0773-.024-3.5528-.0321-6.752-.0321-9.5975v-48.4696c-11.0202.635-21.1963.7717-30.5046.41l-1.0852,4.22c5.4499,0,8.6651.3617,9.6698,1.0852,1.6398,1.1816,2.4516,4.4933,2.4516,9.9351.1769,13.8014.2733,24.7412.2733,32.8114v32.6748c0,5.4498-.836,8.7615-2.5158,9.9351-1.0209.7234-3.6251,1.0852-7.8129,1.0852l-1.1093,4.22h40.7129l1.0852-4.22c-4.6298,0-7.4834-.3858-8.5765-1.1575-1.0931-.7717-1.7684-2.2909-2.0417-4.5576l-.0002.016Z" style="fill: #cfb986;"/>
  <path d="M488.373,642.1912c-5.9-8.1667-13.8898-12.2581-23.9614-12.2581-10.1683,0-18.2463,4.0834-24.2349,12.2581-4.6944,6.4787-7.6522,15.0473-8.9302,25.6575h19.4763c1.1976-21.9761,5.7553-33.0124,13.6889-33.0124,9.3482,0,14.0264,15.2482,14.0264,45.7447s-4.6782,45.8813-14.0264,45.8813c-7.1861,0-11.5989-9.075-13.2628-27.1526h-18.9619c1.5594,7.9175,4.204,14.5007,7.9819,19.6692,5.9883,8.0782,14.0666,12.1134,24.2349,12.1134,10.0797,0,18.0616-4.0351,23.9614-12.1134,6.3501-8.8017,9.5332-21.5983,9.5332-38.3979,0-16.7031-3.175-29.4997-9.5332-38.3898h.0078Z" style="fill: #cfb986;"/>
  <path d="M401.5538,699.3098c-1.6639,18.0776-6.0769,27.1526-13.2628,27.1526-9.3482,0-14.0183-15.2965-14.0183-45.8813s4.6701-45.7447,14.0183-45.7447c7.9336,0,12.491,11.0363,13.6889,33.0124h19.0742c-1.2621-10.6103-4.1797-19.1789-8.8017-25.6575-5.9079-8.1667-13.8898-12.2581-23.9695-12.2581-10.1683,0-18.2385,4.0834-24.2349,12.2581-6.4465,8.8982-9.6698,21.6947-9.6698,38.3898,0,16.7915,3.2233,29.5962,9.6698,38.3979,5.9883,8.0782,14.0666,12.1134,24.2349,12.1134,10.0797,0,18.0616-4.0351,23.9695-12.1134,3.7296-5.1685,6.334-11.7516,7.8693-19.6692h-18.576.0081Z" style="fill: #cfb986;"/>
  <path d="M393.7969,672.9931l-.2492.8601c.9807,0,1.6318.0321,1.9612.0884.5306.1206.7958.3858.7958.7958,0,.2733-.1126.619-.3375,1.0449-1.8246,3.802-2.9338,5.9964-3.3437,6.5912-.209-.209-.8441-1.4228-1.8969-3.6573l-2.6686-5.7151h-6.3982l-.2171.8601c.6913,0,1.2378.1286,1.6398.3697.394.2492.7796.6993,1.1495,1.3504,1.0852,1.8809,1.9212,3.392,2.5158,4.5415,1.0369,2.0658,1.7843,3.5528,2.2347,4.4531,0,.5305.0162,1.1816.0321,1.9613v1.5353c0,.9404-.024,1.8327-.0643,2.6686-.024,1.2298-.209,1.9613-.5546,2.2105-.209.1447-.8198.217-1.8408.217l-.2492.9807h9.4368l.2492-.9807c-1.1897,0-1.881-.0724-2.09-.217-.3456-.2492-.5306-.9807-.5465-2.2105-.024-.7154-.0321-1.5835-.0321-2.6043v-4.1637l4.646-8.6972c.3294-.5948.6913-.9887,1.0771-1.1977.3054-.1447.7958-.217,1.4789-.217l.2733-.8601h-7.0171l.0157-.0081ZM421.2148,684.9377c1.4066-3.9789,2.3954-6.752,2.966-8.3033,1.0609,3.4162,1.8969,6.1572,2.5158,8.2471.0162.0804-.8922.1286-2.7248.1527-.9165-.0402-1.8327-.0724-2.757-.0884M442.0977,683.4747v-9.1875c.6753-.1045,1.1654-.1527,1.4711-.1527,1.0209.0241,1.7843.2894,2.2668.7958.5708.635.86,1.7121.86,3.2313,0,2.8133-.5949,4.5174-1.7843,5.1283-.2171.1286-.7234.1929-1.5111.217-.627,0-1.0609-.0161-1.3021-.0321M423.9075,672.9369l-6.4625,18.7207c-.233.6832-.6832,1.1334-1.3666,1.3665l-.0483-3.2313-.9486-.1286c0,1.1012-.1607,1.8407-.4904,2.2024-.6108.6752-1.7765,1.0128-3.4884,1.0128h-1.5032c-.6351,0-1.0609-.0804-1.2861-.2492-.3456-.2652-.5306-.9967-.5546-2.2024v-6.6796h1.9612c.9486.0161,1.5353.0884,1.7843.217.3216.201.4823.6672.4823,1.4067l.8922-.0321v-4.5335l-.8922-.0321c0,.7556-.1607,1.2298-.4823,1.4067-.2252.1286-.8198.1929-1.7843.217h-1.9612v-5.7311c.024-1.3424.1607-2.114.4339-2.323.0964-.0804.7234-.1206,1.8648-.1206h1.8408c1.6318,0,2.4596,1.0691,2.4758,3.2152l.9486-.1527.0883-4.3165h-14.3961l-.2411,1.0048c1.1254,0,1.7843.0643,1.9855.209.3537.2492.5306.9807.5546,2.2024.0402,2.4677.0643,4.8389.0643,7.0976,0,2.2426-.0162,4.6621-.0643,7.2503-.024,1.2218-.2009,1.9532-.5546,2.2024-.2009.1447-.7877.217-1.7443.217l-.2411.9485h15.3125v-.0321h4.5977l.2814-.8842c-.7796,0-1.3102-.0482-1.5996-.1527-.2814-.1045-.4261-.3296-.4261-.6752,0-.2814.1126-.7636.3375-1.4388.4663-1.2861.9645-2.7651,1.4951-4.437.0643-.1447,2.1783-.1769,6.3421-.0965.836,2.6606,1.3342,4.2361,1.5032,4.7505.1045.3055.1528.5707.1528.7958,0,.844-.8279,1.262-2.4837,1.262l-.2171.8842h18.3508l.2411-.9404c-1.1254,0-1.8086-.0804-2.0497-.2411-.3294-.2251-.5063-1.0128-.5225-2.3551v-5.8035c1.0209-.0402,1.5594-.0643,1.6156-.0643,1.3021,3.0625,3.0143,6.1974,5.1523,9.4045h5.8196l.1769-.9404c-.5708,0-1.0288-.1045-1.3744-.3135-.4904-.2814-1.0129-.8521-1.5594-1.7121-2.4113-3.585-4.0109-6.0687-4.8067-7.4352.9405-.3296,1.7843-.9485,2.5401-1.8649,1.0209-1.2459,1.4711-2.6606,1.3504-4.2521-.2411-3.175-2.8134-4.7103-7.7165-4.5817h-7.8693l-.2171.9404c1.069,0,1.696.0724,1.8969.217.3697.2652.5627.9967.5787,2.2024.0643,2.4436.0964,4.8228.0964,7.1458,0,2.2989-.0321,4.7103-.0964,7.2343-.0162,1.1816-.2252,1.9131-.6108,2.2024-.209.1447-.7717.217-1.6879.217l-.0162.0482c-1.1012-.0804-1.8567-.7395-2.2828-1.9854-.836-2.4275-1.6318-4.8309-2.3873-7.2021l-3.6413-11.398-3.159.3376h.0164ZM457.8204,673.7005c-1.5111.8762-2.3068,2.2185-2.3873,4.011-.1207,2.6365,1.4387,4.9113,4.6863,6.8323,1.672.9967,2.7972,1.8488,3.368,2.54.5708.6913.8681,1.5273.8922,2.5079.0643,2.2909-1.0531,3.5126-3.3437,3.6734-1.7765.1286-3.0705-.4903-3.8905-1.8327-.4501-.7556-.6913-1.8649-.7396-3.3358l-1.1333.1527-.209,4.4129c1.2057,1.262,3.183,1.897,5.9402,1.897,2.1864,0,4.0109-.5627,5.482-1.688s2.2185-2.5561,2.2347-4.2923c.024-1.7925-.4985-3.2634-1.5594-4.4129-.6753-.7154-2.0257-1.6398-4.0431-2.7892-1.4066-.7958-2.3632-1.4951-2.8536-2.114-.4099-.5546-.627-1.2379-.6429-2.0497-.0162-1.2218.3456-2.1301,1.1012-2.7249.6591-.5145,1.4549-.7073,2.3954-.5787,2.1864.2652,3.3197,1.8568,3.392,4.7746l1.1654-.1769.1528-4.3486c-1.5353-1.0449-3.2233-1.5594-5.0881-1.5594-2.0417,0-3.6896.3697-4.9355,1.1012" style="fill: #cfb986;"/>
  <path d="M508.2673,440.9822c5.5544.6591,11.9043,4.5496,15.0795,7.9336,6.76,7.1619,13.721,18.785,15.9233,30.3277-19.1466-.7395-30.9466-18.7368-31.0028-38.2612M483.1402,462.6287c-8.9464-13.2869-5.273-29.8695,1.7522-42.0793,2.2023,1.8005,4.7505,5.1122,7.0171,8.1667,11.2775,15.7305,8.6089,25.3039,5.2649,46.235-5.6667-1.7684-11.3016-8.5284-14.0345-12.3223M499.3851,420.0832c11.9364-14.8704,57.0382,4.5174,57.0382,11.1006-7.9255,3.4483-13.6165,3.5367-20.0147,4.1235-.6832.0643-1.3744.0884-2.0738.0884h0c-14.4606,0-33.0123-12.7082-34.9416-15.3125M452.6518,455.2337c-3.7938-8.6007-1.7282-25.8746,1.9612-33.8081,2.6767-5.7955,8.7053-8.231,12.2742-12.9895,12.3625,11.8722-3.0705,56.7649-7.596,58.7664-1.7765-3.7296-4.9676-8.1345-6.6394-11.9687M427.5409,406.3783c4.7665-3.2634,14.7096-6.1331,19.9345-6.8243,3.6896,10.5701-11.9607,37.2083-31.4127,38.4381,1.4468-10.5138,4.1557-26.7025,11.4784-31.6137M247.3756,415.2603c0-.5868,22.7236-17.2979,36.123-22.2253,2.8455-1.0851,15.4894-1.68,18.1097-.217-1.8888,6.2215-19.0742,20.6096-25.0226,23.431-3.2794,1.5755-7.7888,1.6639-11.1568,2.1221-.8441.1206-1.696.1688-2.548.1688-5.5784,0-11.189-2.2748-15.5053-3.2876M390.606,397.3274c1.0771-3.4724,2.2185-7.1217,3.7539-10.8514,5.9322,2.6284,13.3994,15.0794,14.9186,19.9023,4.4773,14.6052-3.8503,34.6039-6.8565,35.8096-1.9933-9.3402-15.8269-31.9272-11.816-44.8525M359.6272,410.4536c-.7474-3.0946-1.9693-8.649-.3859-13.2467,2.0257-5.9321,5.5622-11.9446,8.9945-16.2369,13.0859,5.7231,17.8929,44.2978,2.741,57.0703-2.339-9.9351-8.8338-17.105-11.3497-27.5947M349.4911,380.2947c.0964,9.8627-3.7136,27.5224-21.1642,36.2356-6.1492,3.1188-14.6615,2.741-23.9935,5.1604,8.5444-39.1615,38.1487-41.3479,45.158-41.3961M480.7932,401.25c13.094-21.9761,43.5905-24.6126,54.3534-18.1017-1.2138,3.6332-3.8662,5.3051-6.4385,7.5719-11.5587,10.337-18.5277,13.1503-26.5901,13.1503-5.8277,0-12.2178-1.4629-21.317-2.6124M266.0078,390.6156c-11.1166-.1929-25.2316-6.4224-30.3277-14.5972,4.204-5.281,31.0268-4.9273,35.7212-2.0578,3.6172,2.2426,11.5427,7.9979,16.1404,9.4367-1.9612,3.4966-13.0781,7.2262-21.0116,7.2262h-.5225M443.4159,392.5046c10.2004-5.2167,15.5377-15.5135,24.5322-21.6546,15.0714-10.2887,28.1333-8.0622,30.9788-5.2489-3.2716,6.1733-12.8207,17.4748-19.2994,22.7799-7.2504,4.2441-18.1661,6.1009-26.1961,6.1009-4.9274,0-8.7615-.6993-10.0155-1.9774M408.3298,383.1482c-5.2568-1.2218-10.3692-3.5769-13.512-5.8437,13.8495-14.6615,35.8176-23.8409,48.5981-18.6966-2.974,8.5445-12.1535,17.0729-20.7783,20.6659-2.0657.852-8.7855,4.011-12.9655,4.011-.4823,0-.9324-.0402-1.3423-.1366M297.6135,382.883c-11.2694-3.7538-32.1121-22.0886-34.7326-33.0686,8.3113.3617,13.9138,1.5594,20.481,3.4162,9.9833,1.3343,15.6662,1.6719,25.3039,9.2036,4.8067,3.794,10.0716,13.4236,10.5701,17.2819-2.4999,1.9372-9.4446,4.011-15.6581,4.011-2.1462,0-4.2118-.2492-5.9643-.836M442.1701,353.8414c3.8341-5.9241,12.4511-12.3706,17.0728-13.4879,6.9931,20.3685-3.5851,46.0742-41.1228,51.9742,0-.1768,32.731-14.9187,34.1378-36.0909-3.4482-1.2781-9.7743-2.4837-10.0878-2.3953,0,0,0,.008-.0081.0161,0,0,0-.008.0081-.0161M370.2294,370.0623c1.3423-17.4346,20.7864-33.7599,47.5855-36.7179-.6108,16.4378-15.9233,32.924-29.4596,36.7179-2.7329.3215-6.8081.4662-10.4013.4662-3.8905,0-7.2261-.1688-7.7246-.4662M303.0229,339.389c-3.0866-11.3417-2.7491-15.8752-2.4113-21.5179,6.3661,1.1977,23.9374,10.2325,27.8038,14.1872,3.6413,3.7618,5.0721,10.3289,6.4465,16.044,1.9452,7.8612,2.0176,17.2015-.7474,21.6385-9.6215-1.0208-27.9726-18.9779-31.0914-30.3518M347.5861,363.4952c-9.935-16.2289-10.12-29.6524-1.7765-48.2043,10.2404,1.3906,31.2439,33.4303,11.7196,57.9143-3.9226-1.9774-7.4351-5.6106-9.9431-9.71M404.1742,289.3761c-40.3591-6.2376-50.0692,12.5394-52.77,15.2482-1.2621,1.2298-16.1887-1.5835-30.392,14.2113-3.81-.3778-20.0309-9.1393-25.6253-7.7648-2.2828,6.3179.6832,30.6652,1.9452,35.2148-6.3982,1.4308-14.7741.2251-22.378-.9887-8.5444-1.3584-16.1164-2.7169-18.7769-.3215-1.696,9.919,7.2744,21.5983,7.2744,21.7671-10.3692-1.0691-30.1911.1447-36.4206,4.8872-1.3102,1.2861,2.2828,9.3402,7.5156,14.4766,5.6346,5.5543,14.8141,10.2646,26.7991,11.2452,0,.1849-21.6062,13.2307-28.8245,22.7236,2.1221,1.3424,17.3944,5.7713,18.9538,6.2777,8.4077,2.6927,32.0157-5.1926,32.4096-5.1926-1.3021,6.4305-5.707,23.5918-5.8277,26.8713.185,4.9917,9.9191,11.832,13.4075,14.0265.0562,11.0604-1.0931,43.2287-1.0931,43.2287-.0321,4.9273-.7396,11.8964.5868,15.7948,2.4677.4742,8.5122-.5787,13.8495-1.6237,4.9355-.9726,9.2759-1.9372,9.6056-1.7041,1.7122,2.4998,1.8648,10.771,2.8455,13.9621,3.1428.7234,5.4178,2.2989,8.8257,2.6686.9324,2.8294-1.463,7.604.1045,10.1601,1.2219,3.601,7.0333,4.5576,10.3932,5.9241,0,6.4626.2411,12.8609.2411,19.2994,1.696,3.4724,14.4444,8.1104,17.9571,10.1441,0-.201,27.8681-26.9758,27.884-27.032,5.2247,5.2649,8.89,9.3403,12.5394,15.3045-4.1959,12.0571-19.8219,33.7438-20.8267,35.1022-.651,1.1816,3.5851,4.1717,4.0833,4.9595,5.5301-6.551,7.6441-9.5814,12.652-18.1339,4.9836-8.5927,7.6763-12.9975,11.9607-23.5516-4.6863-6.0446-10.12-11.7919-14.5651-17.2979,2.3471-6.8323,5.4418-8.8258,9.0912-15.3768-1.5756-1.0289-2.6203-1.8327-4.7343-1.5835-13.3111,15.7225-23.889,25.6977-38.5586,39.3142-1.8729-1.4147-8.03-3.5448-10.1119-4.6138-.7396-4.0512.8039-17.2015-.603-19.4441-1.5996-4.0914-7.0976-3.6493-10.353-5.9321-.209-.0884-.86-.5305-1.045-.6511.4904-14.3721-.0964-10.6263-9.1233-15.1277-.4099-.201-.8441-1.6719-.7717-2.8213.0402-4.4451-.3216-12.3947-1.5032-15.8029-4.0593.1688-20.6015,5.1604-23.2863,6.5832-.394.0965-.5868.0804-.6913-.1125l-.1607-.6028v-1.3504c0-11.398-.0321-25.8665,1.3102-36.3321.4501-3.376.651-6.8645,1.0931-9.8386.2895-2.1622.3859-3.1911,1.1897-4.6541,10.0557.1688,18.552,3.0544,28.0449,4.0753,4.0833-4.2923,9.7101-6.969,14.5891-10.5299,3.4082-2.4436,7.6522-5.3534,10.5139-7.604.3859-.3778.5708-.6913.5868-1.1816.0402-.4421-.3294-3.7055-1.1576-5.2167-3.2635.0804-10.6022,3.0786-15.208,4.6621-7.8531,2.7008-16.0038,4.3165-23.3827,6.4465-5.5223,1.5755-12.1295,3.8663-16.9281,4.6621-4.3163-.217-9.1473-4.5013-10.5058-7.5879-2.2347-5.0961,5.6106-24.5161,4.0512-32.7391,7.5718-7.604,11.2052-12.6117,14.6132-14.0345-5.4337,8.7776-8.0462,17.2175-8.3194,27.8117,9.1071-1.2057,20.079-1.7202,29.2344-5.1685,14.7338-5.6025,20.6096-12.2822,25.8102-19.1467,3.6091,19.9344,10.7389,26.389,15.9233,42.2802,10.964.4582,19.0664-30.5849,19.2754-30.5849,4.6298,18.1741,10.8674,21.7751,13.2949,33.3339,4.3647-.6511,8.3675-10.0637,10.9479-10.5781.4823,2.0819.7075,2.9419,1.3264,4.6701,18.6965-1.5031,32.731-16.261,32.94-16.261-8.3113,20.1755,10.0797,46.6529,12.0652,48.4776,7.1216-2.9982,15.9395-15.9315,17.5391-17.5551,3.4482,7.6683,7.9978,14.8222,14.5972,19.2593,3.1509,2.2185,5.8277,3.601,9.099,5.6588,3.2956-2.9741,5.6829-13.295,7.403-15.2643,8.1828,9.0187,25.3841,18.7368,37.7469,14.2033,0,0-2.0657-30.0463-21.6224-41.589,2.765.3296,6.7841,1.4227,9.4206,1.9613,4.3968.8279,24.8538-2.6526,32.1523-11.1247-5.8277-8.8499-17.3623-21.116-42.8028-22.6272,6.3099-2.0336,20.8426-20.0148,21.944-29.8373-5.7472-5.2408-15.3366-6.0286-22.3699-7.5317,2.2587-15.3447-10.2004-24.9823-11.7919-26.3408-.5465-1.5353-1.4951-23.6802-29.8533-30.7617-.8039-.209-7.5639-16.2128-24.5805-24.0178-10.1842-4.6862-19.4441-6.1733-27.2249-6.1733-12.2499,0-20.8186,3.6895-23.5113,4.4129" style="fill: #f20012;"/>
  <path d="M472.6827,519.1283h6.1411v-1.8086h-6.1411v1.8086ZM412.7266,506.5326c-1.8086,0-3.7938-.0402-4.6139-.1045-.3537.0724-.3618.8038-.0964.9887l.6913.1447c2.3873.426,2.508.6832,2.508,3.5769v8.6088c0,2.9098-.0883,3.2795-2.508,3.585l-1.1093.1366c-.2652.1929-.2411.9003.1607,1.0289.7555-.1286,3.1671-.1366,4.9676-.1366s4.0271.008,4.9998.1366c.3618-.1286.418-.8359.1207-1.0289l-1.3102-.1366c-2.2023-.201-2.2828-.6672-2.2828-3.585v-8.6088c0-2.8937.1126-3.1509,2.508-3.5769l.6913-.1447c.2733-.1929.2492-.9244-.1366-.9887-.9807.0724-2.7731.1045-4.5818.1045M502.11,515.0852c0-3.6493,2.1381-7.6603,5.3775-7.6603,3.1671,0,5.3454,3.9789,5.3454,7.5879,0,3.8341-2.1381,7.8854-5.3856,7.8854-3.1671,0-5.3454-4.019-5.3454-7.805M499.3047,515.4228c0,4.429,2.6525,8.9303,7.9014,8.9303,5.6427,0,8.448-4.9514,8.448-9.6779,0-4.429-2.6525-8.7052-7.9014-8.7052-5.6427,0-8.448,4.7264-8.448,9.4528M420.7245,514.1367c0,3.4483,2.2507,6.2376,5.3935,6.2376,1.6398,0,2.926-.5787,3.9788-1.4549.0724-.3296.0402-.6591-.2573-.7636-.603.2572-1.1333.3456-1.9612.3456-2.741,0-4.2442-3.4724-4.2442-6.0849,0-2.9178,1.6318-5.0962,4.1557-5.0962,3.995,0,4.8791,4.421,4.8791,7.2102,0,7.6523-4.3647,12.3706-6.5108,14.0184-1.5996,1.2861-3.5206,2.3873-5.8436,3.2072-.2814.2572-.0643.7717.2009.9163,2.9419-.5225,6.6475-2.0819,9.5011-4.7827,4.2602-4.0592,6.0366-8.8258,6.0366-13.1342,0-5.1444-2.3792-8.8017-7.3066-8.8017-4.2521,0-8.014,3.3358-8.014,8.1747M440.3617,510.6964c0,.41.4099.7476.8279.6028,1.0609-1.7684,2.4194-2.8776,4.1719-2.8776,2.2347,0,3.6172,1.479,3.6172,4.0672,0,2.6767-2.0738,5.0881-4.228,7.4433-1.6237,1.7764-2.926,2.8776-4.1154,3.8341-.1366.2572.024.6028.233.7315.8681-.1286,2.2828-.1366,3.6413-.1366h4.0431c2.3311,0,4.0593.008,5.5865.1366.4904-1.2138,1.1816-2.7168,1.905-4.3245-.1528-.3778-.6351-.5546-.9886-.3456-.9726,2.0417-1.881,2.0819-4.0995,2.0819h-4.871c-.6913,0-.8039-.2411-.7796-.5868l3.1992-3.585c2.4516-2.7651,3.6815-4.3566,3.6815-6.8886,0-2.8616-2.0336-4.8872-5.3133-4.8872-3.2152,0-5.5784,2.6445-6.543,4.7344M482.0712,510.6964c0,.41.4018.7476.8198.6028,1.069-1.7684,2.4194-2.8776,4.1797-2.8776,2.2347,0,3.6172,1.479,3.6172,4.0672,0,2.6767-2.0738,5.0881-4.228,7.4433-1.6237,1.7764-2.9338,2.8776-4.1154,3.8341-.1447.2572.0162.6028.233.7315.8681-.1286,2.2828-.1366,3.6413-.1366h4.0431c2.3311,0,4.0593.008,5.5865.1366.4904-1.2138,1.1816-2.7168,1.9131-4.3245-.1528-.3778-.6351-.5546-.9886-.3456-.9645,2.0417-1.881,2.0819-4.0914,2.0819h-4.8791c-.6913,0-.8039-.2411-.7717-.5868l3.1992-3.585c2.4516-2.7651,3.6815-4.3566,3.6815-6.8886,0-2.8616-2.0336-4.8872-5.3133-4.8872-3.2152,0-5.5784,2.6445-6.5349,4.7344M517.7924,510.6964c0,.41.4018.7476.8279.6028,1.0609-1.7684,2.4194-2.8776,4.1797-2.8776,2.2347,0,3.6172,1.479,3.6172,4.0672,0,2.6767-2.0738,5.0881-4.228,7.4433-1.6237,1.7764-2.926,2.8776-4.1073,3.8341-.0402.0643-.0562.1286-.0562.201,0,.209.1207.4341.2895.5305.8681-.1286,2.2828-.1366,3.6413-.1366h4.0431c2.3311,0,4.0593.008,5.5865.1366.4904-1.2138,1.1816-2.7168,1.905-4.3245-.1528-.3778-.6351-.5546-.9886-.3456-.9645,2.0417-1.881,2.0819-4.0914,2.0819h-4.8791c-.6351,0-.7796-.201-.7796-.5064v-.0804l3.1992-3.585c2.4516-2.7651,3.6815-4.3566,3.6815-6.8886,0-2.8616-2.0336-4.8872-5.3133-4.8872-3.2152,0-5.5784,2.6445-6.543,4.7344M466.638,506.4925l-2.8615.4341c-1.3264.2251-2.1381.3296-2.6686.4823-.5306.1849-1.2621,1.4549-1.8086,2.7651-.5384,1.262-.9003,2.6686-.9003,3.3679,0,1.487,1.4789,2.315,3.2395,3.6171,1.7443,1.3183,3.3518,3.1992,3.3518,5.8597,0,4.646-4.3004,7.7728-6.5349,8.4882-.3375.2974-.1607.9887.3054,1.1575,3.0062-.9083,9.0669-4.7666,9.0669-10.6263,0-3.3197-1.8888-5.7151-4.5496-7.604-.5306-.3939-1.278-.8922-1.9372-1.3584-1.1254-.7797-1.3744-1.27-1.1254-2.0336.1688-.6752.3859-.9887,1.5915-1.1575l5.2007-.7877c1.2942-.1607,2.0578-1.7764,2.3311-2.6847.0402-.2652-.0964-.4903-.4742-.5546-.442.2894-.6994.41-2.2266.627M544.0606,506.4925l-2.8615.4341c-1.3183.2251-2.1381.3296-2.6606.4823-.5384.1849-1.2699,1.4549-1.8167,2.7651-.5384,1.262-.9003,2.6686-.9003,3.3679,0,1.487,1.4789,2.315,3.2395,3.6171,1.7443,1.3183,3.3518,3.1992,3.3518,5.8597,0,4.646-4.2923,7.7728-6.5349,8.4882-.3375.2974-.1607.9887.2973,1.1575,3.0143-.9083,9.0669-4.7666,9.0669-10.6263,0-3.3197-1.8888-5.7151-4.5496-7.604-.5306-.3939-1.2699-.8922-1.9372-1.3584-1.1174-.7797-1.3744-1.27-1.1174-2.0336.1688-.6752.3859-.9887,1.5915-1.1575l5.2007-.7877c1.2942-.1607,2.0657-1.7764,2.3311-2.6847.0402-.2652-.0964-.4903-.4742-.5546-.442.2894-.7075.41-2.2347.627" style="fill: #e80011;"/>
  <path d="M634.0952,284.714c-.8279,1.6237-1.6077,3.2152-2.3311,4.7907-.7234,1.5674-1.4308,3.175-2.1302,4.7987-.6994,1.6237-1.4228,3.4483-2.1542,5.4498-.7796-.4662-1.8567-1.045-3.2233-1.7523-1.3744-.7074-2.9017-1.4871-4.5899-2.323-1.6882-.836-3.4644-1.7041-5.3373-2.5963-1.8729-.8922-3.7136-1.7121-5.5301-2.4677-.5306,2.0497-1.045,4.7103-1.5513,7.9898-.5063,3.2795-.9886,6.7359-1.4549,10.3611-.4582,3.6252-.8841,7.1458-1.2621,10.5701-.3778,3.4242-.6672,6.326-.8681,8.6972-.0724.6189-.1528,1.2539-.2411,1.905-.0883.6591-.3859,1.0932-.8841,1.3022-.2733.1125-.4261.2733-.442.4742-.0081.201.0883.3215.2973.3698.7555.0804,1.7041.1768,2.8615.2894s2.3311.2251,3.5287.3537,2.3471.2653,3.4644.426c1.1174.1608,1.9855.3054,2.6284.4341.1607.0643.2492-.0241.2814-.2653.0321-.2411-.0321-.3939-.1928-.4582-.1688-.2572-.3859-.6913-.6351-1.3022-.2573-.6109-.3697-1.3584-.3294-2.2185.1126-1.9452.2171-4.011.3216-6.2134.1045-2.2024.2171-4.4049.3537-6.6234.1285-2.2105.3054-4.3566.5225-6.4385.2171-2.0819.4582-3.9949.7234-5.7392,1.4951.6189,2.8455,1.1896,4.0352,1.7121,1.1976.5144,2.3954,1.0851,3.5929,1.7041,1.1976.6109,2.508,1.2861,3.9145,2.0095,1.4066.7234,3.1269,1.5514,5.1445,2.4837.2252-.5546.627-1.5192,1.2057-2.9017.5708-1.3826,1.2299-2.958,1.9693-4.7344.7396-1.7764,1.5273-3.6252,2.3632-5.5382.8441-1.9131,1.6639-3.6332,2.4837-5.1444,2.3954,1.688,4.9755,3.6654,7.7408,5.9241,2.757,2.2507,5.5061,4.7103,8.239,7.3709.7396.6752,1.2861,1.262,1.6639,1.7684.3697.5064.442.9565.2252,1.3826-.0643.1527-.0081.3296.1688.5225.1769.1849.3294.1849.4501.008.442-.5064,1.0129-1.1495,1.7041-1.9292.6913-.7797,1.4228-1.5674,2.2023-2.3793s1.5432-1.5996,2.299-2.3712c.7555-.7717,1.4228-1.4067,2.0014-1.905.1447-.1286.1285-.2492-.0562-.3698-.185-.1206-.3697-.1768-.5546-.1608-.4985.0723-.9564-.0322-1.3987-.3054-.442-.2733-.9165-.635-1.4228-1.0771-2.0176-1.7121-4.1797-3.5207-6.4949-5.4016s-4.6379-3.7538-6.969-5.6025c-2.3311-1.8488-4.646-3.6573-6.945-5.4177-2.299-1.7684-4.4611-3.3679-6.4949-4.8148-1.0931,1.9533-2.0497,3.7377-2.8857,5.3614M171.5604,317.3888c-3.2716-.1929-6.6715-1.0771-10.2004-2.6767-3.4725-1.5755-6.1733-3.4805-8.1185-5.7151-1.9372-2.2346-3.3037-4.5817-4.0914-7.0253-.7877-2.4436-1.069-4.8952-.8519-7.3548.2171-2.4516.7555-4.646,1.6318-6.5751,1.2219-2.6927,2.8615-5.0479,4.9433-7.0574,2.0738-2.0095,4.4692-3.5287,7.194-4.5496,2.717-1.0208,5.6667-1.479,8.8338-1.3665,3.175.1125,6.4625.9405,9.8869,2.4918,3.6332,1.6478,6.4465,3.6814,8.4399,6.1089,1.9855,2.4275,3.3839,4.9113,4.1878,7.4674.8039,2.5561,1.1174,4.9836.9405,7.2905-.1769,2.3069-.6108,4.1959-1.278,5.6829-1.2942,2.8615-3.0143,5.3373-5.1523,7.4191-2.1381,2.0819-4.5818,3.6252-7.3306,4.638-2.3149.852-4.8229,1.2781-7.5075,1.2781-.4985,0-.9967-.0161-1.5111-.0482M160.6126,265.9371c-3.7539,1.4147-7.1861,3.5528-10.3049,6.4224-3.1188,2.8615-5.6187,6.3903-7.5156,10.5701-2.1702,4.7827-3.183,9.4126-3.0545,13.8818s1.0209,8.6007,2.6767,12.4027c1.6558,3.802,3.8983,7.1217,6.7117,9.9592,2.8215,2.8374,5.8757,4.9997,9.1714,6.4948,3.5689,1.6157,7.3789,2.532,11.422,2.7329,4.0431.209,7.9819-.3456,11.816-1.6559,3.8341-1.3102,7.3708-3.376,10.5941-6.1893,3.2314-2.8133,5.8517-6.4465,7.8693-10.9077,1.9452-4.2923,2.966-8.6007,3.0705-12.9252.1045-4.3325-.5868-8.4239-2.0819-12.2822-1.4951-3.8663-3.7055-7.3468-6.6315-10.4656-2.926-3.1188-6.4144-5.5945-10.4815-7.4352-3.6815-1.6639-7.5396-2.532-11.5748-2.6124h-.5868c-3.8262,0-7.5318.6752-11.0926,2.0256M591.3567,269.1925c-2.6365-.4984-4.9193-1.3665-6.8645-2.6124-1.9452-1.2459-3.4161-2.5159-4.4049-3.8181-1.9131-2.4918-3.2794-5.1765-4.1073-8.0381-.8279-2.8696-1.0369-5.7553-.627-8.649.4099-2.9017,1.463-5.7472,3.175-8.5445,1.7122-2.7972,4.0995-5.3694,7.1699-7.7246,3.0224-2.315,5.9802-3.81,8.8741-4.4611,2.8936-.6591,5.6025-.7556,8.1264-.2894,2.532.4582,4.8229,1.3665,6.8805,2.7169,2.0657,1.3504,3.7377,2.8615,5.0238,4.5415,1.8005,2.3471,3.0947,4.9113,3.8983,7.6924.7958,2.7731.9967,5.6106.6108,8.4882-.3859,2.8857-1.3744,5.699-2.966,8.44-1.5996,2.749-3.8824,5.2569-6.8565,7.5397-3.1671,2.4275-6.2859,3.9467-9.3723,4.5576-1.7041.3296-3.3278.5064-4.8953.5064-1.2621,0-2.4918-.1125-3.6653-.3296M587.5466,216.9048c-3.8262,1.1495-7.1861,2.8294-10.0476,5.0238-3.1107,2.3873-5.7151,5.3132-7.805,8.7776-2.09,3.4724-3.4644,7.2021-4.1154,11.2051-.6591,4.003-.5063,8.0943.4501,12.2661.9564,4.1798,2.926,8.2069,5.9,12.0893,2.8615,3.7377,6.1814,6.6796,9.9431,8.8178,3.7617,2.1381,7.7005,3.4564,11.8079,3.9628,4.1073.4984,8.223.201,12.3544-.9083,4.1235-1.1093,7.9576-3.0223,11.5025-5.7392,3.2071-2.4596,5.7955-5.4498,7.7648-8.9785s3.2152-7.2825,3.7377-11.2533c.5225-3.9788.2573-8.014-.7958-12.1214-1.0531-4.1075-2.974-7.9818-5.7712-11.623-3.1992-4.1718-6.7922-7.2584-10.7872-9.2518-4.0028-1.9935-8.0621-3.159-12.1937-3.4885-.9324-.0723-1.8488-.1125-2.765-.1125-3.1509,0-6.2054.4421-9.1714,1.3343M191.8805,227.7321c2.5158,5.1203,5.0319,10.2405,7.5318,15.3367,2.4999,5.1042,4.9433,10.1119,7.3147,15.0312,2.3792,4.9193,4.5334,9.6457,6.4546,14.1631.3054.6672.4904,1.1977.5384,1.5996.0483.4019-.209.8842-.7555,1.4388-.1207.1366-.1126.3215.0081.5466s.2652.2974.4261.1929c.7796-.5305,1.6879-1.1012,2.7329-1.7121s2.114-1.2298,3.1992-1.8407c1.0931-.6189,2.1702-1.2057,3.2395-1.7523,1.069-.5466,2.0417-1.053,2.9098-1.5031.1285-.0563.1285-.1929,0-.418-.1285-.2331-.2733-.3296-.442-.3215-.7555.2251-1.2459.1768-1.487-.1447s-.4823-.7154-.7315-1.1655c-5.4739-9.6537-9.8146-17.74-13.0135-24.2428-3.2071-6.5108-5.4658-11.3578-6.776-14.565.7877.201,2.0417.5225,3.7698.9726,1.7282.4501,3.6734.9646,5.8357,1.5594,2.1623.5868,4.437,1.2298,6.8243,1.9292,2.3873.6993,4.6863,1.4067,6.8967,2.1221,2.2185.7154,4.228,1.3665,6.0205,1.9613,1.7924.5948,3.183,1.1093,4.1638,1.5514.442.217.7636.4019.9726.5386.2009.1366.2573.4823.1688,1.045.0162.1688.1528.3054.418.418.2652.1045.394.0804.3778-.0884.2411-.7475.5465-1.7282.9084-2.9339.3618-1.1977.7474-2.4436,1.1654-3.7136.418-1.27.8198-2.4837,1.2057-3.6252.3859-1.1495.7234-2.0256,1.0209-2.6526.0724-.1768-.0321-.3054-.3216-.3939-.2814-.0804-.418-.0402-.4099.1286-.2171.4501-.4904.6913-.812.7395s-.7555.0241-1.3183-.0643c-1.1735-.209-2.8053-.5787-4.8953-1.1093-2.0978-.5305-4.3809-1.1414-6.8484-1.8327-2.4758-.6913-5.04-1.4147-7.7086-2.1542-2.6686-.7395-5.2088-1.4469-7.612-2.1301-2.4035-.6832-4.5575-1.3022-6.4625-1.8648s-3.2956-.9887-4.1719-1.262c-1.3102-.418-2.7329-.8279-4.2683-1.2298-1.5273-.4019-3.0785-.8199-4.6541-1.262-1.5756-.4341-3.1026-.8601-4.5899-1.262-1.487-.4019-2.8215-.7958-4.0109-1.1816,2.2587,4.9756,4.646,10.0235,7.1699,15.1437M549.6231,160.5177c-.1447.1929-.1607.3697-.0483.5305.2652.3456.3618.6029.2814.7717-.0805.1608-.1688.3617-.2652.5948-.5384.9485-1.3825,2.2828-2.5158,3.9869-1.1333,1.7121-2.4596,3.6332-3.9629,5.7472-1.5032,2.114-3.0866,4.3084-4.7424,6.5751-1.6558,2.2667-3.2314,4.429-4.7265,6.4787-1.9212,2.6365-3.8743,5.2649-5.8598,7.8853-1.9855,2.6284-3.8743,5.0801-5.6589,7.3709-1.7843,2.2908-3.3839,4.3325-4.8067,6.1331-1.4228,1.8005-2.5401,3.1991-3.3359,4.1878-.3216.4421-.6672.635-1.045.5868s-.7555-.1688-1.1254-.3778c-.1447-.1045-.2973-.0482-.4582.1688-.1607.217-.1688.3858-.024.4903l.6591.4823c.7153.4501,1.6077,1.045,2.6767,1.7845s2.1221,1.4951,3.175,2.2587c1.045.7636,2.0417,1.5031,2.974,2.2265.9324.7154,1.6237,1.2781,2.0819,1.688.1447.1045.2973.0482.4582-.1688.1607-.217.1688-.3778.024-.4903l-.3618-.2653c-.2733-.3456-.394-.6431-.3697-.8842s.1285-.4823.3054-.7234c1.1495-1.7845,2.9981-4.5817,5.5622-8.3917,2.5561-3.8181,5.6508-8.2149,9.284-13.1905,1.3906,4.4531,2.8215,9.292,4.3085,14.5328,1.487,5.2328,2.8134,10.2968,3.9629,15.1679l.2733,1.3183c.0643.426.1366.852.233,1.2941.0883.4421-.0562.8199-.4339,1.1414-.2733.1688-.3537.3537-.233.5546.1126.1929.2573.2813.4261.2572.651-.2733,1.5032-.6189,2.5561-1.045,1.0531-.426,2.1542-.8601,3.2956-1.2941,1.1414-.4341,2.2909-.836,3.4482-1.1896,1.1576-.3537,2.1381-.5787,2.9419-.6591.1688-.0241.2573-.1527.2652-.3698s-.1447-.3698-.4582-.4501c-.4582-.1849-.86-.5386-1.1976-1.045-.3375-.5144-.7153-1.4067-1.1333-2.6767-.7153-2.0899-1.463-4.2843-2.2266-6.5591s-1.5032-4.5415-2.2266-6.7841c-.7153-2.2426-1.3666-4.4209-1.9612-6.535-.5946-2.114-1.0852-4.0271-1.4789-5.7392,1.9291-.0884,3.8824-.1527,5.8679-.209,1.9774-.0482,4.0352-.0965,6.1652-.1527,2.1302-.0563,4.4049-.1125,6.8081-.1929,2.4113-.0723,5.0157-.1366,7.8129-.1849,1.3825-.0482,2.1945.0482,2.4356.2653.2492.217.442.4501.5627.6913.024.1688.185.2411.4582.217.2814-.0241.4018-.1125.3778-.2894-.1045-.6672-.1688-1.5353-.1769-2.5963-.0162-1.053,0-2.1703.024-3.3438.0321-1.1736.0724-2.323.1045-3.4483s.1045-2.114.1928-2.95c-.0321-.1688-.1607-.2411-.394-.2331-.233.0161-.3778.1125-.4339.2974-.1045.4501-.6672.7073-1.696.7797-3.1026.3537-5.9241.6672-8.472.9324-2.548.2733-5.0478.5225-7.4996.7556-2.4516.2331-4.9755.426-7.5879.5787-2.6125.1527-5.5061.2974-8.681.4501,1.4228-1.9533,2.8536-3.8663,4.2923-5.7311,1.4387-1.8729,2.765-3.6091,3.9788-5.2247,1.2138-1.6157,2.339-3.0545,3.3761-4.3245,1.0288-1.262,1.8648-2.2265,2.4918-2.8857.2252-.209.4823-.3778.7636-.5064.2814-.1286.6753-.0804,1.1897.1366.185.0563.3456-.008.4823-.209.1366-.1929.1366-.3456,0-.4501-.7153-.4501-1.5675-1.0128-2.532-1.68s-1.9533-1.3665-2.95-2.0979c-.9967-.7315-1.9533-1.4469-2.8615-2.1462-.9084-.6993-1.6398-1.2861-2.1864-1.7603-.0483-.0321-.1045-.0563-.1528-.0563-.0883,0-.185.0643-.2733.1849M250.1647,158.468c.024.2411.1207.3778.2895.4019.5708-.0241.8681.2411.9003.8118s.1366,1.5674.3294,2.9821c.2973,2.741.5708,5.2328.812,7.4593.2411,2.2265.4582,4.3486.651,6.3581.1928,2.0095.3537,4.011.4823,6.0205.1366,2.0095.2411,4.1637.3216,6.4706-5.3211-1.6398-10.5701-3.384-15.7305-5.2167-5.1604-1.8327-9.9593-3.7377-14.3801-5.7231-.2411-.1286-.4742-.2572-.7153-.3858s-.3216-.5144-.2492-1.1494c.0321-.1688-.0562-.2894-.2652-.3697-.2009-.0804-.3216-.0321-.3456.1366-.2171.7475-.5384,1.6719-.9726,2.7892-.4339,1.1173-.8922,2.2507-1.3744,3.4001s-.9324,2.2667-1.3585,3.3358c-.4261,1.0771-.7555,1.9211-.9967,2.524-.0321.1688.0643.3296.2733.4742.209.1527.4018.0804.5868-.1929.1769-.2653.4018-.3939.6753-.3698.2814.0241.6913.1125,1.2299.2492,1.9372.5546,4.2521,1.1977,6.945,1.9292,2.6929.7315,5.5703,1.5272,8.657,2.3873,3.0785.8601,6.2295,1.7845,9.4608,2.757,3.2314.9807,6.318,1.9774,9.2599,3.0143l8.9624,12.7484c.1045.1447.3375.4823.6994.9967.3697.5144.8039,1.1495,1.3264,1.889s1.0852,1.5674,1.6801,2.4757c.603.9083,1.1976,1.7764,1.7843,2.6204.3294.5787.6429,1.1736.9243,1.7845.2814.6189.233,1.1253-.1366,1.5433-.2171.2251-.2411.426-.0724.6029.1607.1849.3216.217.4663.1125.3456-.2411.8039-.5868,1.3825-1.0208.5708-.4341,1.1897-.9083,1.8648-1.4227.6672-.5064,1.3423-.9967,2.0336-1.479.6832-.4823,1.2459-.8842,1.6879-1.1896.8279-.5868,1.5834-1.1173,2.2747-1.5996.6832-.4823,1.3183-.8922,1.8969-1.2298.2492-.1688.2973-.3939.1447-.6511-.1528-.2653-.3216-.3296-.5144-.1849-.6429.4501-1.1897.4662-1.6318.0402-.4501-.426-.8841-.8842-1.3183-1.3986-.603-.7556-1.2459-1.5674-1.9212-2.4114-.6753-.852-1.3183-1.68-1.9452-2.4596-.6189-.7797-1.1816-1.4951-1.672-2.1462-.4985-.6511-.8441-1.1253-1.0531-1.4227l-8.2792-11.4623c-.1126-2.0578-.2411-4.3888-.3697-6.9931s-.2652-5.281-.3859-8.0381c-.1285-2.7571-.209-5.498-.2573-8.239-.0402-2.741-.0724-5.281-.1045-7.6201-.0081-.4341-.0081-1.0691,0-1.889.0081-.8199.2814-1.3826.812-1.68.185-.0563.2733-.1929.2652-.4099s-.1126-.3215-.3294-.3215c-.6591.0161-1.5353.0241-2.6365.0241s-2.2507.0161-3.4563.0482c-1.1976.0321-2.3551.0321-3.4806.008-1.1174-.0241-2.0657-.0563-2.8374-.1045-.2171,0-.3135.1286-.2895.3697M495.9691,172.9044c-.9486-.3939-1.8648-.7797-2.757-1.1494s-1.8086-.7636-2.741-1.1896c-.9405-.426-1.9693-.8681-3.0785-1.3263,1.672-1.6558,3.0705-3.0545,4.1959-4.1959,1.1254-1.1334,2.1059-2.114,2.9419-2.95.836-.8279,1.5756-1.5514,2.2266-2.1622.651-.6109,1.3504-1.2218,2.1302-1.8166.1045,1.1575.1126,2.9419.0321,5.3614-.0883,2.4195-.0321,5.9884.1607,10.7148-1.1174-.4662-2.1462-.8922-3.0947-1.2861M495.2856,147.9944c-4.1073,3.9869-8.1747,7.9577-12.2018,11.9044-4.0271,3.9547-8.0219,7.821-11.9766,11.607-3.9629,3.7859-7.7888,7.2905-11.4863,10.5299-.5306.4984-.9807.836-1.3504,1.0128s-.9003.0804-1.6077-.2733c-.1607-.0723-.3375-.008-.5144.1768-.1769.1849-.1928.3456-.0483.4742.7474.5707,1.6077,1.2218,2.5722,1.9533.9726.7315,1.9612,1.5031,2.966,2.3069.9967.8119,1.9693,1.5996,2.8857,2.3793.9165.7797,1.7282,1.5031,2.4275,2.1864.0883.0965.2171.0563.4018-.1366.1688-.1849.233-.3617.1688-.5144-.4582-.6431-.5627-1.1334-.3216-1.4629.233-.3296.5225-.6752.8762-1.053,2.2587-2.4596,4.3809-4.7344,6.3661-6.8243,1.9774-2.0899,3.9548-4.1637,5.9241-6.2215,3.0866,1.2218,6.3018,2.5239,9.6536,3.9145,3.3437,1.3906,6.5027,2.7731,9.4608,4.1316.1126,3.9789.1607,7.4433.1366,10.4093-.024,2.966-.0964,5.0801-.2252,6.334-.0805.4903-.1447.8601-.209,1.0932-.0643.2331-.3778.4019-.9405.4984-.1607.0643-.2411.2251-.2492.4823s.0883.3698.3054.3215c.7315-.0241,1.7443.008,3.0464.0965,1.3102.0804,2.6606.1688,4.0593.2653,1.3987.0965,2.7329.1849,4.0028.2894,1.2621.1045,2.2347.1929,2.9179.2813.1928.008.2814-.1286.2733-.426,0-.2974-.0883-.418-.2411-.3456-.4985-.0804-.812-.2572-.9564-.5466-.1366-.2894-.2573-.7154-.3537-1.2781-.1607-1.1816-.3456-3.0705-.5384-5.6669-.1928-2.5963-.394-5.5061-.5868-8.7294-.2009-3.2233-.394-6.6234-.5708-10.2003-.185-3.5769-.3537-6.9288-.5225-10.0797-.1688-3.1429-.3135-5.9321-.442-8.3757-.1285-2.4436-.209-4.1235-.209-5.0399-.0883-2.7812-.209-5.6829-.3697-8.6892-.1607-3.0062-.2733-5.7713-.3294-8.2873-4.019,3.6975-8.0864,7.5317-12.1856,11.5186M444.5495,121.5653c-.0483.2411.0162.4019.185.4984.394.2009.5868.3858.5868.5707s0,.4019.0162.643c-.024,1.1012-.1928,2.6526-.5063,4.654s-.6913,4.2361-1.1174,6.7037c-.4339,2.4757-.9084,5.072-1.4228,7.7969-.5144,2.7329-.9967,5.3453-1.4711,7.8371-.603,3.2072-1.2299,6.4546-1.8729,9.7421-.6429,3.2876-1.2861,6.3822-1.9212,9.2759-.6351,2.8937-1.2138,5.49-1.7363,7.7809-.5225,2.2989-.9324,4.0673-1.2299,5.2971-.1607.5305-.418.844-.7796.9646-.3618.1125-.7555.1688-1.1816.1447-.1769-.0321-.2973.0804-.3456.3537-.0483.2653.0081.418.1928.4501l.8039.1527c.7796.0884,1.8246.2411,3.135.4501,1.3102.217,2.6365.4501,3.9707.6993s2.6125.5064,3.8181.7556c1.2057.2653,2.1059.4742,2.6927.643.1769.0321.2895-.0884.3456-.3537.0483-.2653-.0162-.418-.1928-.4501l-.3537-.0643c-.6753-.3135-.9564-.7958-.836-1.4469.1528-1.1414.4018-2.8616.7396-5.1604s.7396-4.9354,1.2057-7.8854c.4582-2.95.9726-6.117,1.5432-9.4849.5708-3.3599,1.1654-6.7037,1.7924-10.0315.4582-2.4355.9645-4.9997,1.5353-7.6924.5627-2.6927,1.0931-5.2649,1.5834-7.7246.4904-2.4596.9645-4.6621,1.4228-6.5993.4582-1.9452.836-3.4081,1.1495-4.3968.1126-.2894.2733-.5466.4742-.7877.1928-.2411.5787-.3697,1.1333-.3858.185-.0241.3054-.1608.3537-.3939.0402-.2331-.024-.3697-.2009-.4019-.836-.0964-1.8567-.2411-3.0545-.4341-1.1897-.1929-2.4113-.4099-3.6572-.643-1.2459-.2411-2.4596-.4823-3.6413-.7315s-2.1221-.4742-2.8215-.6672h-.0643c-.1366,0-.233.1045-.2652.3135M331.1886,131.4038c-.7234,4.2602-1.4789,8.4882-2.2587,12.668-.7796,4.1878-1.5675,8.2631-2.3471,12.2259-.7877,3.9628-1.5513,7.6522-2.299,11.0684-3.0305-2.323-5.8196-4.5415-8.3675-6.6394-2.5401-2.0979-5.1766-4.3165-7.8933-6.6475-2.7167-2.331-5.6106-4.8871-8.6972-7.6764-3.0785-2.7812-6.6394-6.0044-10.6665-9.6537.3456,2.6767.7555,5.7874,1.2299,9.3161.4663,3.5287.9564,7.2584,1.4549,11.189.5063,3.9306,1.0048,7.9577,1.5032,12.0812.4985,4.1235.9726,8.1104,1.4147,11.9607.4501,3.8583.8519,7.4835,1.2138,10.8916.3618,3.4081.6672,6.3662.9084,8.8901.1285.9807-.2652,1.5433-1.1654,1.7041-.1688.0563-.2492.217-.2171.4984.024.2733.1285.3939.2973.3296,1.1254-.2411,2.3471-.4823,3.6572-.7475,1.3102-.2653,2.5963-.5064,3.8584-.7154,1.2621-.217,2.4113-.3778,3.4563-.4984,1.0369-.1125,1.905-.1849,2.5963-.217.1928,0,.2733-.1206.2652-.3698-.024-.2411-.1285-.4019-.3456-.4582-.7234-.0804-1.1654-.2251-1.3264-.426-.1607-.209-.3294-.7797-.5144-1.7443-.3778-2.54-.8198-5.5061-1.3342-8.8981-.5144-3.384-1.0369-6.8163-1.5513-10.3048-.5144-3.4805-1.0209-6.8243-1.5111-10.0315-.4904-3.1992-.8762-5.9321-1.1576-8.1908,1.7041,1.3584,3.786,3.0866,6.2295,5.1846,2.4516,2.0979,4.9836,4.3084,7.6041,6.6475,2.6203,2.331,5.2007,4.646,7.7408,6.9288,2.548,2.2908,4.8067,4.3566,6.7922,6.1893.3859-1.7764.7958-3.802,1.2299-6.1089.4339-2.2989.8841-4.6942,1.3504-7.1941s.9564-5.0318,1.4549-7.604c.5063-2.5722.9807-5.0399,1.4228-7.4111.442-2.3632.8841-4.5495,1.3183-6.5591.4261-2.0095.8039-3.6975,1.1254-5.072,1.8488,3.2072,3.5527,6.2215,5.0881,9.0267,1.5353,2.8053,2.974,5.5141,4.3244,8.1265,1.3423,2.6124,2.6686,5.1524,3.9707,7.6201,1.3021,2.4677,2.6525,4.9997,4.0593,7.596.2973.5385.5063.9887.627,1.3665s-.024.7234-.4261,1.0449c-.1928.1929-.209.3858-.0483.5868s.3216.2492.4742.1366c.8841-.6029,1.8888-1.2781,3.0143-2.0176s2.2426-1.4469,3.3599-2.1301,2.1542-1.2941,3.1107-1.8568c.9645-.5627,1.7443-.9726,2.3632-1.2379.1688-.0563.185-.2009.0483-.4421s-.2973-.3296-.4742-.2733c-.8198.2009-1.3264.1688-1.5032-.0884-.1769-.2653-.4904-.6993-.9405-1.3182-1.3666-2.0979-2.9338-4.5335-4.6782-7.2986-1.7443-2.7731-3.5851-5.7311-5.5223-8.8901-1.9291-3.1509-3.8824-6.4144-5.8517-9.7743-1.9693-3.3599-3.8983-6.6555-5.7955-9.8868-1.8969-3.2313-3.6653-6.326-5.3133-9.284-1.6477-2.958-3.1026-5.6025-4.3566-7.9255-.6351,3.9467-1.3102,8.0542-2.0336,12.3143M411.6576,118.6957c-4.2521.0964-8.6089.1849-13.0457.2492-4.437.0723-8.7374.0964-12.9012.0723-4.1638-.0241-7.7005-.1206-10.6022-.2974.1366,6.342.1607,12.4027.0883,18.166-.0805,5.7713-.1688,11.3739-.2814,16.8076,0,1.0289-.0081,1.9452-.0402,2.7571-.0321.8199-.0724,1.5594-.1285,2.2265,0,.4823-.1607.8279-.4985,1.0449-.3294.209-.7075.3456-1.1254.4099-.185,0-.2895.1366-.3216.4099-.024.2733.1045.4099.4099.4099.1207,0,.2411-.008.3618-.0482.1207-.0321.2411-.0482.3618-.0482.7796-.0563,1.7522-.0884,2.8936-.0964,1.1495,0,2.3068-.008,3.4884-.008,1.1735,0,2.3068.008,3.392.0402,1.0852.0321,1.9612.0723,2.6284.1286.1769,0,.2733-.1366.2733-.4099s-.0883-.4099-.2733-.4099l-.4501-.0884c-.4261-.0563-.6913-.209-.812-.4501-.1285-.2411-.185-.4823-.185-.7234l-.2814-5.5302c-.0643-2.114-.1045-4.3888-.1045-6.8404s-.0081-4.8309-.0162-7.1619c0-2.323,0-4.4852.0321-6.4787s.0724-3.6252.1285-4.8952c8.8741-.3778,18.174-.4019,27.8921-.0563,0,1.2057,0,2.5079.0081,3.8985,0,1.3906,0,2.9902.0081,4.8068,0,1.8166,0,3.8824-.0321,6.2054-.024,2.323-.0643,4.9997-.1126,8.014,0,4.4129-.0081,9.1554-.0562,14.2274-.0483,5.072-.1607,9.8145-.3294,14.2274-.0562.9083-.4823,1.3906-1.2621,1.4469-.185,0-.2733.1366-.2733.4099s.0883.4099.2733.4099c.1207,0,.2573-.0161.4018-.0482.1528-.0321.2895-.0482.4099-.0482.9084-.0643,1.9212-.1125,3.0383-.1447,1.1171-.0321,2.2668-.0482,3.4404-.0482s2.2747.0241,3.3037.0804c1.0288.0563,1.905.1125,2.6284.1688.1769,0,.2733-.1366.2733-.4019,0-.2733-.0883-.4099-.2733-.4099-.7234-.0563-1.1174-.4823-1.1816-1.27-.0643-1.1414-.1285-2.4275-.1928-3.8502-.0643-1.4227-.1126-3.0786-.1447-4.9836-.0321-1.905-.0724-4.1075-.1045-6.6153s-.0562-5.4498-.0643-8.8338c-.0081-5.6749,0-11.615.0562-17.8043.0483-6.1893.209-12.4831.4985-18.8895-3.1992.0723-6.9288.1527-11.1809.2492" style="fill: #f20012;"/>
  <path d="M230.3187,340.4661c-.0402.0482-.1126.0563-.1928.0241-.1607-.0482-.3135-.008-.4582.1286-.1528.1366-.2973.2653-.4339.3939-.5144.5144-1.1576,1.1253-1.9291,1.8407-.7636.7234-1.5675,1.4549-2.3873,2.2024-.8279.7475-1.6237,1.4549-2.3954,2.114s-1.4147,1.1736-1.9452,1.5514c-.2733-.5386-.5384-1.0932-.7958-1.6719s-.4985-1.1334-.7234-1.6639c-.2252-.5305-.4261-1.0128-.603-1.4469s-.3135-.7877-.4018-1.045c-.5708.3215-1.0931.5948-1.5834.836s-.9645.4742-1.4468.6913-.9807.4341-1.4951.6431-1.0931.4341-1.7282.6752c-.185-.7395-.3697-1.5433-.5546-2.4034-.185-.8681-.3618-1.7443-.5384-2.6365s-.3456-1.7845-.5063-2.6847-.3054-1.7443-.4339-2.54c-.0321-.201-.0724-.3778-.1126-.5305-.0483-.1527-.1366-.2653-.2652-.3456-.0483-.0322-.0805-.0804-.0964-.1447-.0162-.0643,0-.0965.0562-.0965.233,0,.5144-.0161.8441-.0482.3294-.0322.6672-.0563,1.0048-.0884.3456-.0322.6672-.0723.9886-.1125.3135-.0402.5708-.0804.7717-.1125.0643-.0161.0964.0161.1045.0884,0,.0804-.0162.1286-.0643.1527-.1366.0563-.209.1768-.2252.3698-.0081.1929,0,.4341.0402.7395.1045,1.1575.2492,2.2748.4501,3.3438s.4018,2.0417.6189,2.9098c.4904-.1849,1.0209-.426,1.5996-.6993s1.1254-.5546,1.6477-.8199c.5225-.2653.9886-.4984,1.3906-.7074.4099-.209.6913-.3456.8519-.4341.2814.6189.5144,1.1495.6994,1.5996s.3537.8601.5063,1.2379c.1607.3858.3216.7556.4985,1.1093.1688.3537.3697.7556.5949,1.1977.4018-.3537.836-.7475,1.3021-1.1896.4663-.4341.9324-.9003,1.3987-1.3906s.9324-.9807,1.3906-1.471c.4582-.4903.9003-.9485,1.3102-1.3745.1769-.1929.2973-.3858.3618-.5787.0643-.1929.1045-.3376.1126-.4341-.024-.0482,0-.0884.0483-.1447.0562-.0482.0964-.0482.1207,0,.1207.1608.2973.3617.5225.6189s.4663.5225.7153.7877c.2492.2653.5063.5305.7474.7797.2492.2492.4501.4662.6108.635.0402.0482.0402.0965,0,.1447M234.2092,327.2274c-.0964.1768-.1928.3858-.2973.6189-.0964.2331-.209.4984-.3294.7797-.0643.1527-.1528.3456-.2492.5787-.1045.2331-.1928.4742-.2895.7154-.0883.2411-.1769.4582-.2492.6672-.0805.209-.1447.3698-.1928.4903-.024.0482-.0724.0643-.1366.0482s-.0964-.0804-.0805-.1688c.0321-.1688-.0402-.3054-.209-.418s-.3456-.217-.5306-.3135c-.2895-.1206-.5868-.2492-.8841-.3939-.3054-.1366-.5787-.2653-.836-.3698-.2573-.1125-.4742-.201-.651-.2733s-.2895-.1286-.3456-.1447l-4.3728-1.8648c-.9243.209-1.8888.4421-2.8857.7074-.9967.2653-1.9612.5386-2.9017.8119-.9324.2733-1.8167.5305-2.6284.7717-.8198.2411-1.5192.4501-2.114.6189-.1607.0563-.2814.0965-.3537.1366-.0724.0402-.1126.1045-.1126.209s-.0402.1527-.1207.1447c-.0805,0-.1285-.0322-.1447-.0804-.0402-.201-.0883-.4742-.1528-.8199-.0643-.3456-.1285-.7074-.185-1.0851s-.1285-.7475-.1928-1.1012c-.0724-.3617-.1366-.6511-.1928-.8762-.0162-.0482,0-.0804.0724-.0884s.1045,0,.1285.0563c.0883.1768.1688.2653.2492.2572.0805,0,.1607-.008.2492-.0161,1.463-.1929,3.0143-.4742,4.646-.8279,1.6318-.3537,3.2716-.7475,4.9193-1.1816-.394-.5868-.7717-1.1253-1.1254-1.6237s-.7234-.9967-1.0931-1.4871-.7717-1.0048-1.1897-1.5433c-.4261-.5386-.8922-1.1414-1.4147-1.8086-.2733-.3376-.4663-.5787-.5627-.7234-.1045-.1366-.2171-.1608-.3618-.0643-.0483.0161-.0964,0-.1366-.0563s-.0402-.1045.0162-.1447c.209-.1125.4582-.2492.7555-.426.2895-.1768.5949-.3617.9003-.5627s.603-.3939.8841-.5707.5144-.3215.6753-.4341c.0562-.0322.1045-.0241.1366.0322.0402.0563.0402.1045,0,.1527-.0883.1608-.0724.3537.0562.5627.1285.217.233.3778.3054.4903.3778.6029.8039,1.2539,1.254,1.9613s.9165,1.4067,1.3906,2.0979c.4742.6913.9405,1.3665,1.3906,2.0256.4501.6511.86,1.2379,1.2219,1.7523l3.9869,1.6478c.1045.0402.2652.1045.5063.1929.233.0884.4904.1849.7796.2894.2895.1045.5868.209.9003.3215s.6108.217.8841.3215c.1928.0643.3859.1125.5708.1527s.3216-.0563.418-.2733c.024-.0723.0805-.0804.1607-.0322.0805.0482.1045.1125.0724.1929M227.9795,310.1626c1.9212,1.3183,3.7617,2.5802,5.5223,3.7859,1.7603,1.1977,3.5527,2.4114,5.3775,3.6412.1207.0884.233.1366.3456.1447s.209-.0402.2895-.1447c.024-.0482.0724-.0563.1528-.008.0724.0402.0964.0804.0724.1286-.1366.201-.2895.4501-.4742.7395-.185.2894-.3697.6029-.5546.9405s-.3697.6913-.5546,1.053c-.185.3617-.3537.7154-.5144,1.045-.0483.0804-.1045.1125-.1769.0884-.0724-.0161-.0964-.0723-.0643-.1608.1126-.2492.0562-.4501-.1688-.6029l-15.8431-11.7838,15.2723-4.9595-6.8003-3.81c-.5546-.2894-1.069-.5546-1.5273-.8038-.4663-.2492-.8279-.426-1.0852-.5225-.0724-.0241-.1366-.0402-.1928-.0563s-.1285.0241-.2171.1125c-.0483.0402-.0964.0402-.1607,0-.0643-.0322-.0805-.0804-.0562-.1286.1207-.1849.2733-.426.4501-.7315s.3537-.6189.5384-.9485c.185-.3296.3537-.6591.5225-.9726s.3054-.5948.4099-.8279c.024-.0482.0724-.0563.1366-.0241s.0883.0804.0805.1366c-.0483.1608-.0483.2894,0,.3698s.1126.1527.185.209c.1045.0804.2573.1849.4663.3215s.442.2974.6994.4742c.2652.1768.5384.3537.8198.5466.2895.1929.5546.3537.812.4984l12.1295,6.969-15.8912,5.281h-.0007ZM253.9266,292.0045c-.8681,1.3584-1.7443,2.7329-2.6284,4.1155-.8841,1.3826-1.7363,2.7249-2.5401,4.011-.8039,1.2861-1.5111,2.4275-2.114,3.4001l-.1045-.0402c-.3537-.7717-.7958-1.6559-1.3183-2.6606-.5225-.9967-1.0931-2.0738-1.7041-3.2152-.611-1.1414-1.254-2.323-1.9291-3.5287-.6753-1.2057-1.3342-2.4034-1.9933-3.5769-.6591-1.1736-1.2861-2.3069-1.8969-3.384-.603-1.0771-1.1414-2.0578-1.6237-2.9419,0-.0241.0081-.0643.0402-.1045.0081-.0161.0321-.0322.0724-.0482,1.4549.3054,3.0785.6591,4.8872,1.061,1.8005.4019,3.6251.8038,5.4739,1.2057,1.8488.4019,3.6251.7797,5.3292,1.1253,1.7041.3456,3.183.6109,4.4289.7958l.0321.0965c-.7396,1.1012-1.5432,2.3391-2.4113,3.6975M249.5136,290.2924c-.7555-.1688-1.5756-.3698-2.4516-.5787-.8762-.217-1.7684-.4341-2.6927-.6511-.9243-.217-1.7443-.426-2.4918-.6109.3697.6913.8039,1.4951,1.3183,2.4034.5063.9083,1.0048,1.8166,1.5032,2.7169.4904.9003.9564,1.7362,1.3825,2.5159.4339.7797.7636,1.3745.9886,1.7845.3859-.5386.7636-1.1334,1.1495-1.7764s.7555-1.2861,1.1174-1.9372c.3537-.6511.6994-1.2781,1.0369-1.8729.3294-.6029.6351-1.1334.9003-1.5996-.4099-.0884-.9967-.217-1.7522-.3939M266.7954,277.8897c-.0321.0563-.0805.0723-.1366.0482-.0402-.008-.0805-.0241-.1126-.0402-.0321-.0161-.0724,0-.1045.0322-.7234.7877-1.3987,1.5272-2.0176,2.2265-.6189.6993-1.2057,1.3584-1.7765,1.9935-.5627.635-1.1012,1.2459-1.6077,1.8407-.5144.5948-1.0129,1.1977-1.5192,1.8166-.1928.2251-.3859.4582-.5868.7154-.2009.2492-.3697.4662-.4985.6431l-.1045.1286c-.0321.0482-.0805.0402-.1366-.008s-.0724-.0965-.0483-.1527c.0805-.1768.1045-.3135.0805-.418-.024-.1045-.1045-.2251-.2411-.3698-.185-.1527-.4501-.3939-.7958-.6993-.3537-.3135-.7474-.6591-1.1897-1.0369-.442-.3778-.9003-.7717-1.3825-1.1896-.4823-.4099-.9564-.8199-1.4147-1.2138-.4582-.3939-.8841-.7556-1.2699-1.0851-.3859-.3296-.6994-.6029-.9564-.8199-.6429-.5546-1.1976-1.0128-1.6477-1.3906-.4582-.3778-.8762-.7234-1.254-1.0369-.3859-.3215-.7717-.635-1.1495-.9485-.3859-.3215-.8198-.6913-1.3102-1.1093-.0964-.0804-.2171-.1849-.3456-.2974-.1366-.1125-.2733-.217-.4261-.3135s-.2973-.1608-.4501-.201-.2895-.0322-.4099.0322c-.0483.0322-.1045.0241-.1607-.0241-.0562-.0482-.0643-.0965-.0321-.1366l.1447-.1688c.2171-.2251.4339-.4582.651-.6993.2171-.2331.4339-.4903.6672-.7556.418-.4662.8762-.9646,1.3504-1.4951.4823-.5305.9564-1.0771,1.4228-1.6237.4985-.5466,1.0209-1.1495,1.5756-1.8166s1.069-1.27,1.5353-1.8166c.1928-.2251.3375-.4099.4339-.5787.0964-.1608.1045-.2894.0162-.3858-.0562-.0723-.0483-.1527.024-.2331.0321-.0402.0643-.0563.0883-.0322.024.0161.0402.0161.0483,0,.1366.1206.3456.2974.6189.5305.2733.2331.5546.4742.836.7234.2895.2411.5627.4742.836.6752.2652.209.4742.3617.6108.4501.0724.0322.0805.0884.0321.1527-.0483.0723-.1126.0804-.1928.0322-.1528-.0804-.2573-.1206-.3216-.1125-.0643,0-.1769.0723-.3375.201-.6994.6189-1.2861,1.1575-1.7684,1.6398-.4823.4742-.9165.9405-1.3102,1.3906-.3937.4501-.7796.9163-1.1576,1.3906-.3778.4823-.8039,1.0369-1.2942,1.6559l3.5527,3.1188c1.1495-1.1736,2.1945-2.3712,3.1269-3.585s1.7041-2.2908,2.3068-3.2313c.0724-.1045.0724-.217,0-.3296-.0483-.0643-.0402-.1125,0-.1608.0483-.0482.0964-.0482.1366-.0161.1607.1608.3537.3456.5949.5627s.4904.4341.7474.6591c.2573.2251.5144.4341.7717.6431s.4985.3939.7234.5627c.0402.0322.0321.0884-.0162.1527s-.0964.0804-.1207.0563c-.1528-.0563-.2814-.0241-.4018.0884-.9405.8681-1.9212,1.8648-2.9419,2.9741-1.0209,1.1093-1.9774,2.2426-2.8536,3.376.4582.3939.8681.7395,1.2138,1.0208.3537.2894.6832.5627,1.0048.8199.3216.2653.6591.5386,1.0209.8279s.7796.6189,1.254.9967c.4985-.4984.9645-.9887,1.4066-1.471.4339-.4823.86-.9726,1.278-1.4549.4099-.4823.8198-.9807,1.2219-1.4871.4018-.5064.7958-1.053,1.1976-1.6317.0805-.1206.1607-.2733.2492-.4582.0883-.1849.0724-.3537-.0321-.5144-.0483-.0884-.0483-.1688,0-.2411.0483-.0643.1045-.0723.1769-.0161.1126.0965.2973.2572.5465.4903s.5306.4662.8198.7234c.2895.2492.5868.4984.8681.7234s.5063.4019.6591.5064c.0321.0482.0321.1045,0,.1527M276.9878,269.2166c-.0562.0161-.1207,0-.185-.0723-.1126-.1206-.2733-.1527-.4663-.1045-.1928.0482-.3859.1045-.5627.1527-.6913.217-1.5432.4742-2.5561.7556-1.0129.2894-2.0578.5787-3.1269.8681-1.0771.2894-2.1059.5546-3.0947.7877-.9807.2331-1.7924.4019-2.4356.4823,0-.5948.024-1.2138.0562-1.8488s.0724-1.2379.1126-1.8086.0805-1.0932.1285-1.5594c.0402-.4742.0805-.844.1207-1.1173-.651.0241-1.2459.0322-1.7843.0241-.5384-.008-1.0771-.0241-1.6077-.0482-.5306-.0241-1.069-.0563-1.6237-.1045s-1.1735-.1125-1.8488-.1929c.1688-.7395.3778-1.5433.6108-2.3953s.4742-1.7202.7234-2.5882c.2492-.8681.5063-1.7443.7717-2.6124.2652-.8762.5225-1.696.7717-2.4596.0643-.1929.1126-.3698.1366-.5305s0-.2974-.0805-.4341c-.024-.0482-.0321-.1125-.0162-.1768.0081-.0643.0483-.0804.0964-.0563.209.1045.4663.217.7717.3456s.6189.2492.9405.3778c.3216.1286.627.2411.9243.3456s.5465.1929.7396.2572c.0643.0161.0805.0563.0483.1286s-.0724.1045-.1285.1045c-.1447-.0161-.2652.0563-.3618.2251-.1045.1608-.2009.3858-.3054.6752-.4339,1.0771-.812,2.1381-1.1333,3.1831-.3135,1.045-.5787,2.0015-.7717,2.8696.5225.0563,1.1012.0884,1.7363.1045s1.254.0241,1.8327.0241c.5868,0,1.1093,0,1.5675.008h.9564c-.024.6752-.0643,1.2539-.1045,1.7362s-.0805.9324-.1126,1.3343c-.0321.418-.0562.8199-.0643,1.2138-.0081.4019-.0162.844-.0162,1.3424.5225-.1286,1.0931-.2813,1.7041-.4582s1.2378-.3778,1.881-.5948c.6429-.217,1.278-.4421,1.905-.6672.6351-.2251,1.2299-.4341,1.7924-.627.2492-.0884.442-.209.5868-.3456.1447-.1447.2411-.2572.2973-.3296,0-.0482.0321-.0884.1045-.1045.0724-.0241.1045,0,.1045.0482.0402.1929.0964.4582.185.7958.0805.3296.1769.6752.2814,1.0289s.209.6993.3054,1.0369c.1045.3456.185.6189.2492.844.0081.0643-.0081.1125-.0724.1286M295.5316,249.7725c-.1447.1366-.3294.3456-.5384.6109-.2171.2653-.442.5546-.6913.8681s-.4904.635-.7315.9646-.4582.635-.6429.9003c-.0321.0482-.0805.0563-.1447.0161s-.0805-.0965-.0483-.1688c.0805-.1366.0805-.2492.0081-.3456s-.185-.201-.3294-.3215c-.6753-.5868-1.3342-1.1655-1.9774-1.7282-.6351-.5627-1.2861-1.1495-1.9533-1.7523-.6672-.6029-1.3666-1.2218-2.114-1.8568-.7396-.635-1.5513-1.3102-2.4275-2.0256.0562.426.1366.9485.2252,1.5674.0964.6189.2009,1.2941.3294,2.0176s.2573,1.4871.394,2.2748.2733,1.5674.4018,2.331c.1366.7636.2652,1.4951.394,2.1944.1285.7074.2252,1.3343.3135,1.8729-.7636-.3054-1.6318-.6591-2.6125-1.0369-.9726-.3778-1.9612-.7556-2.9581-1.1414-.9967-.3778-1.9612-.7395-2.8857-1.0771-.9243-.3376-1.7041-.6029-2.339-.8038.3216.6109.7315,1.3504,1.2138,2.2185.4823.8601.9886,1.7604,1.5111,2.7008.5225.9405,1.045,1.8648,1.5513,2.7731.5144.9083.9564,1.7121,1.3423,2.3953.1528.2572.2652.4019.3294.4421s.209.0322.4261-.0241c.0643,0,.1126.0241.1447.0965.0321.0643.024.1125-.0321.1366-.1928.0804-.4339.1929-.7153.3376-.2895.1447-.5949.3215-.9324.5144-.3375.201-.6753.4019-1.0209.6189s-.6672.418-.9645.6109c-.0402.0322-.0805.0161-.1207-.0643-.0402-.0723-.0321-.1286.0081-.1608.2411-.1447.2895-.3456.1528-.6109-.3456-.6913-.7474-1.5112-1.2219-2.4436-.4742-.9324-.9807-1.9292-1.5192-2.9821-.5384-1.053-1.1093-2.1381-1.696-3.2634-.5868-1.1253-1.1654-2.2185-1.7363-3.2876-.5627-1.0691-1.1093-2.0819-1.6237-3.0384-.5144-.9565-.9645-1.8005-1.3585-2.5239,1.5432.6109,2.9098,1.1414,4.0833,1.6076,1.1816.4662,2.2828.8842,3.3116,1.2539,1.0209.3698,2.0176.7234,2.966,1.045.9564.3215,1.9855.6591,3.1026.9887-.1528-1.053-.3375-2.1864-.5384-3.4081-.2009-1.2218-.418-2.4677-.6429-3.7457-.233-1.2781-.4742-2.5641-.7234-3.8583-.2492-1.2941-.4985-2.54-.7474-3.7377.6108.5305,1.3102,1.1253,2.0978,1.7925.7877.6672,1.6318,1.3584,2.5158,2.0738.8922.7234,1.7924,1.4549,2.7248,2.2024.9243.7475,1.8327,1.471,2.7248,2.1622.8922.6913,1.7363,1.3343,2.532,1.9452.7958.6029,1.5032,1.1253,2.1221,1.5755.1928.1286.3294.217.4099.2733s.2252.008.4339-.1366c.0483-.0322.0964-.0241.1607.0322s.0805.0965.0321.1366M311.3667,238.8407c-.2973,1.2298-.8279,2.3793-1.6077,3.4483-.7796,1.0691-1.7843,1.9693-3.0143,2.7169-1.278.7717-2.5641,1.2218-3.8662,1.3665-1.3021.1447-2.5401.0482-3.7377-.2894-1.1897-.3376-2.2747-.8842-3.2554-1.6398-.9807-.7556-1.7765-1.6478-2.3954-2.6686-.5708-.9485-.9645-2.0256-1.1735-3.2233-.2171-1.2057-.2009-2.4275.0483-3.6654.2411-1.2379.7396-2.4355,1.4789-3.5769.7474-1.1414,1.8005-2.1301,3.175-2.958,1.1976-.7234,2.4356-1.1736,3.7217-1.3504,1.278-.1768,2.5158-.1125,3.7055.1768,1.1897.2974,2.2828.8038,3.2794,1.5272.9967.7234,1.8167,1.6076,2.4516,2.6686.6994,1.1736,1.1495,2.4034,1.3423,3.6895.1928,1.2941.1447,2.5561-.1528,3.7859M308.5452,236.5981c-.0805-.9565-.4261-1.9533-1.0609-2.9982-.5868-.9887-1.2699-1.7684-2.0497-2.3471-.7796-.5787-1.5996-.9807-2.4596-1.1977-.86-.217-1.7282-.2492-2.5963-.1045-.8681.1447-1.6879.4501-2.4677.9163-.5546.3296-1.069.7877-1.5513,1.3665s-.836,1.2379-1.0609,1.9935c-.233.7475-.2895,1.5755-.1928,2.4757.0964.9003.4501,1.8488,1.045,2.8455.6108,1.0128,1.3021,1.8327,2.09,2.4436.7877.6189,1.6156,1.0369,2.4758,1.262.8681.2251,1.7443.2572,2.6446.1125.9003-.1527,1.7603-.4742,2.5803-.9646.4261-.2572.86-.6591,1.3102-1.2057s.7877-1.2057,1.0288-1.9935c.2411-.7797.3216-1.6478.2411-2.6043M328.3269,232.4103c-.0321.3376-.0643.6913-.0805,1.061-.024.3698-.0402.7234-.0562,1.0851-.0162.3537-.0321.6431-.0483.8762-.0081.0643-.0483.0965-.1045.0965-.0643,0-.1126-.0402-.1528-.1286-.0724-.1527-.209-.2331-.4099-.2492s-.394-.0322-.5868-.0482c-.7234-.0241-1.6077-.0723-2.6606-.1447-1.0531-.0643-2.1302-.1447-3.2395-.2331-1.1093-.0884-2.1702-.1929-3.175-.2974s-1.8246-.2251-2.4596-.3537c.2009-.5627.4261-1.1414.6753-1.7282s.4823-1.1334.7153-1.6639c.233-.5225.4501-1.0048.6429-1.4308.1928-.4341.3618-.7636.4904-1.0128-.6189-.201-1.1816-.3858-1.696-.5787-.5063-.1929-1.0048-.3858-1.4951-.5868-.4904-.1929-.9886-.4099-1.4951-.6431-.5063-.2331-1.0609-.4984-1.672-.8038.4099-.6431.8681-1.3263,1.3744-2.0497.5063-.7234,1.0209-1.4549,1.5513-2.1944.5306-.7395,1.069-1.471,1.6077-2.2024.5384-.7315,1.0609-1.4147,1.5513-2.0578.1285-.1608.233-.3135.3054-.4501.0805-.1366.1045-.2813.0724-.4341-.0081-.0563,0-.1125.0402-.1688.0321-.0563.0724-.0643.1126-.0241.1607.1688.3618.3617.6108.5868.2492.217.4985.4421.7555.6672.2573.2251.5063.4341.7555.6431.2411.201.4501.3617.6108.4903.0562.0322.0562.0804,0,.1366s-.1045.0804-.1528.0563c-.1285-.0563-.2652-.0322-.418.0884-.1447.1206-.3216.2974-.5144.5305-.7717.8762-1.487,1.7443-2.1302,2.6204-.651.8762-1.2138,1.688-1.696,2.4436.4742.2331,1.0048.4582,1.5996.6832.5949.2331,1.1735.4501,1.7201.6431.5546.201,1.045.3778,1.4711.5305.4261.1608.7315.2653.9003.3296-.2573.627-.4823,1.1575-.6832,1.5996s-.3859.852-.5546,1.2218c-.1688.3778-.3216.7475-.4663,1.1173s-.2973.7958-.4663,1.262c.5306.0563,1.1174.0965,1.7603.1366.6429.0322,1.2942.0563,1.9693.0643.6753.0161,1.3504.0161,2.0257.0161s1.3021,0,1.8969.008c.2652,0,.4904-.0482.6753-.1286.185-.0884.3135-.1608.3859-.217.0162-.0482.0643-.0723.1366-.0643.0724,0,.1045.0322.0883.0804-.0321.201-.0643.4662-.0964.8119M357.0309,217.0174c-.0964.8842-.3456,1.7443-.7555,2.5641-.4099.8279-.9726,1.5835-1.6879,2.2748-.7153.6913-1.5915,1.2459-2.6125,1.6719.0805.2974.185.5948.2895.8842.1126.2894.1928.5064.2573.6591.024.0884.0643.1608.1126.209.0483.0563.1447.0804.2814.0804l.1366-.0402c.0562-.008.0883.0161.1126.0965.024.0804,0,.1286-.0483.1447-.185.0322-.4582.0965-.8279.1929-.3697.0884-.7474.1929-1.1495.3054-.4018.1125-.7958.2251-1.1816.3456-.394.1125-.6994.217-.9243.2974l-.2411.0723c-.0562.0161-.0883-.0161-.1126-.0965-.024-.0804,0-.1286.0483-.1447.1207-.0482.2171-.1206.3054-.201.0805-.0804.1045-.201.0562-.3617l-.3375-1.5112-.0562.0161c-2.2909.1447-4.1476-.2653-5.5544-1.2218-1.4147-.9646-2.3713-2.3712-2.8936-4.2119-.233-.836-.3135-1.7041-.2411-2.5882.0805-.8922.3135-1.7523.6994-2.5802.3859-.8279.9243-1.5916,1.5996-2.2908.6753-.6993,1.4951-1.2781,2.4516-1.7443-.1126-.3537-.2171-.6591-.2973-.9163-.0805-.2653-.1688-.4823-.2573-.6431-.0402-.0643-.0724-.1286-.0883-.1768-.024-.0482-.1045-.0804-.2411-.0804-.0562,0-.0964-.0402-.1126-.1125-.024-.0723,0-.1125.0483-.1286.2171-.0402.5063-.1045.86-.201.3537-.0884.7234-.1849,1.0931-.2894.3778-.1045.7396-.209,1.0931-.3215.3537-.1125.651-.209.8922-.2974.0562-.0161.0883.008.1126.0804.0162.0723,0,.1286-.0483.1527-.1447.0804-.233.1688-.2573.2572-.024.0965-.0321.1849-.024.2813l.3216,1.4388c1.1976-.1849,2.2828-.1768,3.2635.0322.9886.201,1.8488.5466,2.6044,1.045s1.3906,1.1334,1.9131,1.905.9165,1.6398,1.1897,2.5963c.233.8199.2973,1.6719.2009,2.5641M347.4494,219.1394c-.2652-.9807-.5306-1.9452-.8039-2.9017l-1.0931-3.8904c-.5949.2813-1.0771.6591-1.463,1.1253-.3859.4742-.6753.9807-.8681,1.5272-.1928.5386-.2973,1.0851-.3135,1.6237-.024.5386.0321,1.0289.1528,1.4549.1285.4582.3135.9324.5546,1.4067.2411.4823.5627.9083.9645,1.2781.4018.3778.9003.6832,1.487.9083s1.2861.3215,2.1059.2813c-.2171-.8922-.4501-1.8407-.7234-2.8133M353.8398,214.8712c-.185-.6591-.4742-1.2218-.86-1.68-.3859-.4662-.8279-.836-1.3342-1.1012-.4985-.2733-1.0209-.4582-1.5756-.5466s-1.0931-.1125-1.6077-.0643c.1447.6672.3216,1.3424.5063,2.0095.1928.6752.3618,1.3263.5225,1.9533.2573.9807.5384,1.9533.836,2.9258.2973.9646.5949,1.897.8841,2.7972,1.3744-.6189,2.2507-1.4871,2.6284-2.5963.3778-1.1173.3697-2.3471,0-3.6895M368.6217,222.0974c-.185.0161-.4582.0563-.836.1125-.3697.0643-.7636.1366-1.1654.209-.4099.0804-.812.1608-1.2057.2411-.4018.0804-.7153.1608-.9405.217l-.2411.0482c-.0562.008-.0883-.0241-.1045-.1045-.0162-.0804,0-.1286.0562-.1366.1285-.0482.233-.1045.3216-.1768.0883-.0723.1285-.1929.1126-.3537-.0562-.3858-.1366-.9324-.2411-1.6478-.1045-.7154-.233-1.5112-.3697-2.4034-.1447-.8922-.3054-1.8407-.4823-2.8535-.185-1.0048-.3697-2.0015-.5546-2.9741-.1447-.7636-.2973-1.5594-.4582-2.3953-.1607-.8279-.3135-1.6237-.4663-2.3712s-.2973-1.4227-.4261-2.0336c-.1366-.6029-.2573-1.061-.3778-1.3826-.0321-.0643-.0562-.1286-.0805-.1849-.0162-.0563-.0964-.0884-.233-.0965-.0562-.008-.0883-.0482-.1045-.1206s0-.1125.0643-.1286c.2171-.0241.5144-.0643.8762-.1286.3618-.0563.7315-.1286,1.1174-.1929.3778-.0723.7474-.1527,1.1093-.2251.3618-.0804.6672-.1527.9165-.217.0562-.008.0883.0241.1045.0884.0162.0723,0,.1286-.0562.1527-.1607.0643-.2492.1447-.2814.2331-.0321.0965-.0483.1849-.0483.2733.024.3135.0805.7717.1688,1.3745s.1928,1.2861.3294,2.0336c.1366.7556.2733,1.5433.4099,2.3712.1366.8279.2814,1.6157.418,2.3551.1928,1.0128.4018,2.0336.6108,3.0545.209,1.0208.418,1.9774.6189,2.8696s.3778,1.68.5384,2.3793c.1607.6913.2814,1.2057.3697,1.5514.0402.201.1688.3054.4018.3215l.1045-.0241c.0562-.008.0883.0241.1045.1045.0162.0804,0,.1286-.0562.1366M388.6286,215.466c-.1928.0804-.4582.201-.7796.3778-.3216.1768-.6591.3617-1.0209.5627-.3537.1929-.6994.3939-1.0369.5868-.3294.1929-.603.3537-.812.4662-.0321.0402-.0724.0241-.1045-.0563s-.0402-.1366,0-.1768c.1366-.1045.1928-.1929.1769-.2733-.0162-.0723-.0562-.1768-.1045-.3215-.1285-.2974-.3294-.7074-.6108-1.2138-.2733-.5064-.5868-1.0691-.9405-1.688-.3456-.6189-.7153-1.2539-1.1012-1.9131-.3859-.6511-.7636-1.27-1.1254-1.8488-.3618-.5787-.6913-1.1012-.9807-1.5594s-.5063-.7958-.6351-.9967c-.3778.9887-.8762,2.54-1.5192,4.6621-.6351,2.1221-1.3504,4.8309-2.1381,8.1265-.0321.1527-.0643.2894-.0805.4099-.0081.1206.0883.2411.3054.3456.0402.0322.0483.0884.0321.1688-.024.0723-.0483.1045-.0883.0884-.2895-.0804-.6108-.1688-.9645-.2733-.3537-.0965-.7153-.1929-1.0852-.2813-.3697-.0884-.7396-.1688-1.1012-.2492-.3618-.0804-.6832-.1447-.9645-.1849-.0562-.0161-.0805-.0563-.0562-.1286.024-.0804.0562-.1206.1126-.1286.2411,0,.394-.0643.4742-.1608.0724-.1045.1447-.2572.209-.4742.5144-1.4067,1.0129-2.9098,1.5111-4.5094.4904-1.5916.9886-3.2152,1.487-4.8791.5063-1.6639,1.0048-3.3278,1.5032-4.9916.4985-1.6719,1.0209-3.2956,1.5513-4.8711.185.3296.4018.6993.651,1.0932.2492.4019.4985.8119.7636,1.2379.2573.426.5144.836.7796,1.2459.2573.4099.4904.7958.6994,1.1575.1366.2411.3618.627.6672,1.1495.3054.5225.6591,1.1093,1.0609,1.7604.394.6511.812,1.3424,1.254,2.0578.442.7234.86,1.4147,1.2699,2.0899.4099.6672.7877,1.2781,1.1495,1.8327.3537.5546.6429.9807.86,1.27.1126.1366.2009.2331.2814.2894s.1928.0563.3294,0c.0321-.0402.0724-.0241.1126.0563.0483.0804.0483.1286-.0081.1527M408.0004,217.2665c-.2009.0563-.4904.1527-.8519.2733-.3697.1286-.7555.2572-1.1576.4019-.4018.1447-.7958.2813-1.1735.4099-.3778.1366-.6672.2492-.8681.3456-.0562.0402-.0964.0161-.1285-.0563-.024-.0723-.024-.1286.0081-.1688.1447-.0884.2171-.1768.209-.2492s-.0321-.1849-.0724-.3296c-.1126-.3698-.3456-.9726-.6994-1.8086-.3456-.836-.7796-1.8005-1.2861-2.9017-.9967-.0322-2.0417-.0322-3.1509-.0241-1.1012.008-2.1623.0322-3.175.0563-.3054.8199-.6108,1.6317-.9165,2.4596-.3054.8279-.627,1.7202-.9726,2.6767-.0483.1527-.0964.2813-.1207.4019-.024.1206.0643.2411.2652.3698.0402.0322.0483.0884.0162.1608s-.0562.1045-.0964.0804c-.2733-.1045-.5949-.217-.9405-.3215-.3537-.1045-.7153-.217-1.0931-.3215s-.7474-.209-1.1093-.2974c-.3618-.0884-.6753-.1688-.9564-.2411-.0562-.0161-.0724-.0643-.0483-.1366.0321-.0723.0643-.1125.1285-.1125.2411.0161.4018-.0241.4823-.1206.0805-.0884.1688-.2411.2573-.4421.651-1.3504,1.3021-2.7972,1.9612-4.3325s1.3183-3.1027,1.9693-4.6942c.6591-1.5916,1.3264-3.1991,2.0014-4.8068.6753-1.6076,1.3585-3.175,2.0417-4.6942.3216.6993.6832,1.4629,1.0852,2.2908.4018.8279.7877,1.6237,1.1414,2.3953.1126.2572.3294.7234.6672,1.3906.3294.6672.7075,1.4388,1.1254,2.2989.418.8601.8762,1.7845,1.3504,2.7651.4823.9807.9405,1.9131,1.3825,2.7972s.8441,1.6719,1.2138,2.3793.6429,1.2138.8279,1.5272c.0883.1527.1769.2572.2492.3135.0805.0643.185.0804.3294.0402.0321-.0322.0724-.0161.1126.0723.0402.0804.0321.1366-.024.1527M399.3594,207.4601c-.2652-.6913-.4823-1.1896-.651-1.5031-.1447.2653-.2733.5144-.3778.7636-.1045.2492-.2252.5386-.3618.8762-.1366.3296-.2895.7234-.4742,1.1816-.185.4582-.4018,1.0128-.6753,1.68h1.9293c.2973,0,.5949,0,.9084-.008.3135,0,.6591,0,1.0209-.008-.6189-1.3022-1.069-2.2989-1.3342-2.9902M430.3943,211.1576c-.1366,1.3584-.5225,2.6043-1.1414,3.7538-.6189,1.1495-1.4147,2.1221-2.3873,2.9339-.9726.8038-2.09,1.3986-3.3599,1.7845-1.2621.3858-2.6125.5064-4.0352.3537-1.487-.1527-2.7891-.5627-3.9145-1.2298-1.1254-.6672-2.0657-1.4871-2.8134-2.4757-.7474-.9887-1.2861-2.0738-1.6237-3.2634-.3294-1.1896-.4339-2.3793-.3054-3.5689.1126-1.1012.442-2.1944.9967-3.2876.5465-1.0932,1.2942-2.0578,2.2347-2.9098.9405-.844,2.0497-1.5031,3.3359-1.9693,1.278-.4662,2.717-.6189,4.3085-.4501,1.3906.1527,2.6525.5305,3.786,1.1575,1.1254.627,2.0819,1.4147,2.8536,2.3712.7717.9485,1.3423,2.0176,1.7122,3.1911.3697,1.1736.4904,2.3793.3618,3.6091M426.6728,208.2157c-.2733-.9324-.6913-1.7443-1.2459-2.4275-.5546-.6913-1.2299-1.2379-2.0095-1.6478-.7796-.4019-1.6237-.6591-2.5158-.7475-.6429-.0723-1.3342-.0161-2.0578.1608-.7315.1768-1.4147.4903-2.0497.9565-.6351.4662-1.1816,1.0851-1.6398,1.8648s-.7555,1.7523-.8762,2.9017c-.1285,1.1816-.0562,2.2507.209,3.2152.2652.9646.6672,1.8005,1.2299,2.4998.5546.6993,1.2378,1.262,2.0497,1.68.8039.418,1.6879.6752,2.6446.7797.4985.0482,1.0852-.008,1.7684-.1768s1.3585-.4903,2.0176-.9726c.6591-.4823,1.2459-1.1253,1.7603-1.9292.5144-.8119.8279-1.8247.9564-3.0384.1207-1.1414.0402-2.1783-.233-3.1027M424.1087,212.5723c-.0081.0884-.0562.1286-.1366.1206-.0805,0-.1207-.0563-.1126-.1527.0081-.0884,0-.1527-.0321-.1849-.0321-.0322-.0643-.0643-.0964-.1045-.0883-.0643-.233-.1286-.442-.1849s-.4501-.1206-.7153-.1688c-.2733-.0563-.5708-.1045-.8841-.1527-.3216-.0402-.627-.0804-.9243-.1125-.2411-.0241-.5384-.0563-.9084-.0965-.3697-.0322-.7396-.0723-1.1174-.1045s-.7396-.0402-1.0771-.0322c-.3456.008-.6189.0482-.836.1206-.0162,0-.0562.0161-.1045.0563s-.0883.0884-.1126.1366c-.0483.0884-.1126.1286-.1928.1206-.0805-.008-.1126-.0563-.0805-.1527.0562-.1768.1285-.426.2009-.7475.0805-.3135.1528-.6431.2171-.9807s.1207-.6591.185-.9726c.0562-.3054.1126-.5627.1528-.7636.0321-.1045.0805-.1527.1528-.1366.0724.0161.1045.0563.1045.1125.0081.0723.2895.1768.8441.3135.5546.1286,1.3504.2492,2.3954.3617.0321,0,.2009.0241.4904.0563s.6351.0643,1.0209.1045.7717.0804,1.1654.1125c.394.0322.7234.0402.9807.0322.0562,0,.1285.008.209,0,.0805,0,.1366-.0161.1607-.0563.0643-.0482.1126-.0563.1688-.0241.0483.0322.0805.0643.0724.1045-.1528.3939-.2895.9003-.4099,1.5272-.1207.627-.233,1.2298-.3294,1.8166M448.689,221.3981c-.209.008-.4985.0482-.86.1125-.3618.0643-.7474.1286-1.1495.201-.4018.0723-.7958.1447-1.1735.2251-.3697.0804-.6753.1366-.9165.1849-.0483.0322-.0724,0-.0805-.0884s.0081-.1447.0562-.1688c.1607-.0563.2492-.1286.2492-.201.0081-.0723.0081-.1849,0-.3376-.024-.3296-.0805-.7717-.185-1.3424s-.2171-1.2057-.3456-1.897c-.1285-.6993-.2733-1.4227-.4339-2.1622-.1607-.7475-.3135-1.4469-.4742-2.114-.1607-.6672-.2973-1.262-.4339-1.7925-.1285-.5305-.2252-.9163-.2814-1.1495-.6672.8119-1.6477,2.1221-2.926,3.9306-1.2861,1.8005-2.8215,4.1396-4.622,7.0172-.0805.1366-.1528.2492-.209.3617s0,.2572.1769.426c.024.0482.024.0965-.024.1608-.0483.0723-.0805.0884-.1126.0643-.2492-.1688-.5225-.3537-.8279-.5627s-.6189-.4099-.9405-.6189-.6429-.4019-.9564-.5948c-.3135-.1929-.603-.3537-.8519-.4823-.0483-.0322-.0562-.0804-.0081-.1447.0483-.0643.0883-.0884.1447-.0804.233.0643.394.0643.4904,0,.1045-.0723.2171-.1929.3537-.3778.9405-1.1736,1.8888-2.4355,2.8695-3.7859.9726-1.3584,1.9693-2.7329,2.974-4.1476s2.0176-2.8294,3.0224-4.2521c1.0129-1.4227,2.0176-2.7972,3.0224-4.1235.0643.3778.1528.7877.2652,1.2459.1045.4582.2171.9324.3216,1.4147.1126.4903.2252.9646.3375,1.4388.1126.4662.209.9083.2895,1.3183.0562.2733.1447.7154.2652,1.3022.1207.5948.2733,1.262.4339,2.0095.1607.7475.3456,1.5272.5306,2.3551.185.8199.3697,1.6157.5384,2.3793s.3375,1.471.4985,2.106c.1607.635.2973,1.1334.4099,1.479.0562.1608.1126.2894.1769.3617.0562.0804.1607.1125.3135.1125.0483-.0241.0724,0,.0964.0884.0162.0884,0,.1366-.0562.1447M471.0991,223.1102c-.3778,1.1012-.9726,2.114-1.8005,3.0384-.8279.9244-1.7924,1.6639-2.9098,2.2265.5787.217,1.069.3698,1.487.4742.418.1045.86.217,1.3264.3296.418.1045.7075.1045.8762,0,.0562-.0563.1126-.0723.1769-.0482.0562.0322.0805.0723.0562.1286-.0805.1849-.185.4099-.3054.6832-.1207.2653-.2492.5546-.3778.852s-.2492.5948-.3618.8842-.2009.5466-.2733.7556c-.0162.0563-.0643.0723-.1285.0482-.0724-.0241-.1045-.0643-.1045-.1206,0-.1366-.0724-.2411-.2252-.3296-.1528-.0804-.3294-.1527-.5225-.217-1.0209-.3456-2.0578-.7074-3.1026-1.0851-1.045-.3778-2.2023-.7797-3.4806-1.2138l.5144-2.6284c1.5432-.0241,2.8615-.5305,3.9548-1.5353,1.0852-.9967,1.905-2.315,2.4596-3.9387.2973-.8762.3859-1.7443.2573-2.6043-.1285-.8601-.4018-1.6559-.8279-2.3793-.4261-.7315-.9564-1.3665-1.6077-1.9211-.651-.5546-1.3504-.9565-2.0978-1.2138-.8762-.2974-1.7363-.3778-2.6044-.2411-.86.1366-1.6639.4099-2.4113.8279-.7474.418-1.3906.9405-1.9291,1.5594-.5465.627-.9324,1.2861-1.1735,1.9854-.185.5386-.3135,1.1575-.3859,1.8568-.0724.6993-.0643,1.4067.024,2.1221.0883.7234.2733,1.4147.5708,2.0899.2973.6752.7234,1.262,1.2699,1.7604l-.6429,2.6767c-.9003-.209-1.8567-.4341-2.8695-.6591-1.0129-.2251-1.9291-.4341-2.741-.6109l-1.278-.2653c-.3294-.0723-.5546-.1045-.6672-.0965-.1207,0-.209.0482-.2733.1286-.0483.0402-.1126.0563-.1688.0402-.0643-.0161-.0883-.0482-.0724-.0965.0562-.217.1126-.4742.1688-.7636.0562-.2894.1126-.5868.1607-.8922.0483-.3054.0883-.6029.1285-.8922s.0724-.5305.1045-.7395c.0162-.0482.0643-.0804.1285-.0884.0724,0,.1285.0482.1607.1608.0562.1206.1447.1929.2733.2411.1207.0402.2814.0965.4742.1608.6429.217,1.1976.3939,1.6639.5225s.9645.2572,1.5032.3778c-.6753-1.1655-1.045-2.4194-1.1012-3.7618s.1447-2.7088.6108-4.0833c.4582-1.3424,1.1333-2.4837,2.0257-3.4322.9003-.9405,1.9131-1.6639,3.0464-2.1703,1.1414-.5064,2.3471-.7958,3.6413-.852,1.2861-.0563,2.548.1206,3.786.5386,1.4711.4984,2.6525,1.2298,3.5527,2.1864.9003.9646,1.5594,2.0176,1.9855,3.175.4261,1.1575.627,2.3551.6108,3.593-.024,1.2379-.209,2.3873-.5627,3.4322M495.8322,223.1906c-.0321.0643-.0805.0965-.1366.0884-.1688-.0402-.2895-.0322-.3618.0241-.0805.0563-.1447.1206-.2009.1929-.0724.1045-.1688.2653-.2973.4823s-.2652.4582-.4261.7315c-.1607.2733-.3294.5546-.4985.852-.1688.2974-.3216.5787-.4501.844l-6.2295,12.5314-6.2135-15.5697c-1.2057,2.0015-2.3551,3.9145-3.4404,5.7392-1.0931,1.8327-2.1945,3.6895-3.3116,5.5865-.0805.1286-.1207.2411-.1207.3537s.0483.201.1607.2733c.0483.0241.0562.0723.024.1447-.0321.0804-.0805.1045-.1285.0804-.209-.1206-.4582-.2653-.7636-.426-.2973-.1688-.6189-.3296-.9726-.4984-.3456-.1688-.7075-.3296-1.0852-.4903-.3697-.1608-.7315-.3135-1.069-.4501-.0805-.0402-.1207-.0965-.1045-.1688s.0643-.1045.1607-.0804c.2573.1045.4582.0322.5868-.209l10.8112-16.5343,5.8517,14.9669,3.4001-7.0253c.2573-.5707.4904-1.1012.7075-1.5755.2171-.4823.3697-.852.4582-1.1173.0081-.0723.0321-.1366.0483-.1929s-.024-.1286-.1285-.217c-.0402-.0402-.0483-.0965-.0162-.1608.0321-.0723.0724-.0884.1207-.0643.1928.1125.442.2492.7555.4099s.6351.3215.9807.4823.6753.3215,1.0048.4662c.3294.1527.6108.2653.8519.3617.0483.0241.0562.0723.024.1366M520.2923,246.6216c-1.1174,1.5272-2.1783,2.9902-3.1911,4.3968-.603.836-1.1254,1.5674-1.5594,2.1944-.442.627-.8279,1.1816-1.1576,1.6559-.3294.4742-.6189.8922-.8519,1.262-.2411.3617-.4501.6913-.6429.9887-.1285.201-.1045.3778.0643.5225.0483.0322.0402.0804,0,.1527-.0483.0643-.0964.0804-.1366.0482-.1688-.1447-.3778-.3135-.6189-.5144-.2411-.1929-.5144-.4019-.8039-.6109-.2973-.209-.5787-.4099-.86-.6029-.2814-.1929-.5384-.3617-.7717-.5064-.0321-.0241-.0643-.0402-.1126-.0563-.0402-.0241-.0805-.0402-.1126-.0643-.0483-.0322-.0402-.0804,0-.1527.0483-.0723.0964-.0804.1366-.0563.209.1286.394.0804.5708-.1366.8279-1.061,1.7041-2.2185,2.6203-3.4644.9165-1.2459,1.7684-2.4194,2.5561-3.5126.5546-.7395,1.0369-1.3906,1.463-1.9613s.7958-1.0851,1.1174-1.5272c.3216-.4501.6108-.844.8519-1.1896.2492-.3456.4742-.6672.6913-.9646-2.3471-1.8247-4.646-3.4805-6.9126-4.9756-.2411.3054-.5384.6993-.9003,1.1896-.3618.4903-.7474,1.0208-1.1654,1.5996-.4099.5787-.836,1.1736-1.278,1.7764-.4339.6109-.836,1.1736-1.1976,1.7121l-.9165,1.4227c-.0402.0563-.0724.1286-.0805.209-.0162.0804.024.1688.1207.2572l.0964.1045c.0483.0322.0402.0804,0,.1447-.0483.0723-.0964.0884-.1366.0563-.1528-.1366-.3618-.2974-.627-.4984s-.5384-.4099-.836-.6189c-.2895-.209-.5787-.418-.86-.6189-.2814-.209-.5306-.3698-.7315-.4984-.0321-.0241-.0643-.0402-.0964-.0563s-.0724-.0322-.0964-.0563c-.0724-.0563-.0805-.1125-.024-.1688.0562-.0643.1045-.0804.1528-.0482.1126.0563.233.0884.3537.0965s.2171-.0482.3054-.1688c.1366-.1527.2733-.3296.4339-.5225.1528-.1929.3216-.426.4985-.6752.9967-1.3263,2.0257-2.7008,3.0705-4.1155,1.0531-1.4147,2.1302-2.9178,3.2233-4.5094.6913.5627,1.5432,1.2218,2.5722,1.9693,1.0209.7475,2.09,1.5192,3.2071,2.2908,1.1093.7797,2.2023,1.5353,3.2716,2.2667,1.069.7395,2.0095,1.3826,2.8134,1.9372-1.2138,1.5353-2.3792,3.0625-3.4965,4.5897M537.4294,253.2771s-.024.0322,0,.0482c-.1207.1366-.2973.3456-.5384.6189-.233.2733-.4742.5466-.7234.836s-.4742.5627-.6913.836c-.209.2653-.3618.4742-.4582.6109-.0321.0643-.0883.0804-.1607.0322-.0643-.0482-.0805-.1125-.0321-.1929.0805-.1527.1126-.2572.1126-.3215s-.0724-.1768-.2009-.3376c-.6108-.6993-1.1495-1.2941-1.6237-1.7845-.4742-.4823-.9324-.9244-1.3744-1.3263s-.9084-.7877-1.3825-1.1655-1.0288-.8119-1.6477-1.3102l-3.1428,3.5287c1.1654,1.1575,2.3551,2.2105,3.5608,3.159,1.2057.9405,2.2747,1.7202,3.2071,2.331.1126.0643.2171.0643.3294,0,.0643-.0482.1126-.0402.1607.008.0402.0482.0483.0884.0081.1366-.1607.1527-.3456.3537-.5627.5868-.2171.2411-.442.4823-.6672.7395-.2252.2572-.442.5144-.651.7717s-.4018.4903-.5627.7154c-.0321.0402-.0883.0402-.1528-.0161-.0643-.0563-.0805-.0965-.0562-.1206.0562-.1527.024-.2813-.0883-.4019-.86-.9485-1.8488-1.9372-2.95-2.9741-1.1012-1.0369-2.2185-1.9935-3.3518-2.8857-.4018.4582-.7474.8601-1.0369,1.2057-.2895.3456-.5708.6752-.836.9967s-.5384.6591-.8279,1.0208-.627.7797-1.0129,1.2459c.4904.4984.9807.9726,1.463,1.4147s.9645.8762,1.4387,1.2941c.4823.418.9726.8279,1.4789,1.2298.5063.4019,1.045.8038,1.6237,1.2057.1207.0804.2733.1688.4582.2492.185.0884.3537.0804.5144-.0241.0883-.0482.1688-.0402.233,0,.0643.0482.0724.1045.0162.1768-.0964.1125-.2652.2894-.4904.5386-.233.2492-.4742.5225-.7315.8119-.2573.2894-.4985.5787-.7315.8601-.233.2894-.4018.5064-.5144.6591-.0483.0241-.1045.0241-.1607-.008-.0562-.0322-.0724-.0804-.0483-.1366.0081-.0402.024-.0804.0402-.1125s0-.0723-.0321-.1045c-.7796-.7315-1.5192-1.4067-2.2104-2.0336s-1.3504-1.2218-1.9774-1.7925-1.2378-1.1173-1.8246-1.6317c-.5949-.5144-1.1897-1.0208-1.8005-1.5272-.2252-.1929-.4582-.3939-.7075-.5948-.2492-.209-.4663-.3698-.6429-.5064l-.1285-.1125c-.0402-.0322-.0402-.0804.0081-.1366s.0964-.0723.1528-.0482c.1769.0804.3135.1125.418.0884s.233-.1045.3778-.2411c.1607-.1849.394-.4501.7075-.7958s.6672-.7395,1.045-1.1816c.3778-.4341.7796-.9003,1.1976-1.3745.418-.4823.8279-.9485,1.2219-1.4067.4018-.4582.7636-.8842,1.0931-1.262.3294-.3858.6108-.6993.8279-.9485.5546-.6431,1.0209-1.1896,1.4066-1.6398.3778-.4501.7315-.8681,1.045-1.2539.3216-.3778.6429-.7636.9645-1.1414.3135-.3858.6913-.8199,1.1093-1.3022.0883-.0965.185-.209.2973-.3456.1126-.1366.2171-.2733.3135-.426s.1607-.2974.2009-.4421c.0483-.1527.0321-.2894-.024-.4099-.0321-.0482-.024-.1045.024-.1608.0483-.0563.0964-.0643.1366-.0241l.1688.1447c.2252.217.4582.4341.6913.6511.2411.217.4904.4421.7555.6752.4582.426.9564.8842,1.487,1.3665.5306.4903,1.069.9646,1.6077,1.4388.5465.4984,1.1495,1.0289,1.8086,1.5916.6591.5627,1.2621,1.0771,1.8005,1.5514.2171.1929.4099.3376.5708.4421.1528.0965.2814.1045.3859.0241.0724-.0563.1528-.0482.233.0241.0402.0322.0562.0643.0321.0884M545.0413,261.0017c-.0562.0482-.1045.0643-.1528.0402-.1447-.0884-.2652-.1286-.3537-.1045-.0964.0241-.1769.0643-.2573.1125-.2492.1929-.603.4984-1.045.9083-.4501.4099-.9564.8762-1.5032,1.4147-.5465.5305-1.1254,1.0932-1.7363,1.6639-.6108.5787-1.1816,1.1334-1.7122,1.6639-.7315.7315-1.463,1.4629-2.1864,2.2105-.7234.7475-1.4066,1.4549-2.0257,2.114-.627.6591-1.1816,1.2539-1.672,1.7684-.4823.5225-.8441.9083-1.0771,1.1736-.1447.1366-.1607.3135-.0402.5064l.0805.0804c.0402.0402.0321.0884-.024.1447s-.1045.0643-.1447.0241c-.1126-.1447-.3054-.3537-.5627-.627-.2652-.2733-.5384-.5627-.8279-.852-.2895-.2974-.5868-.5868-.8762-.8601-.2895-.2813-.5306-.4984-.7075-.6591l-.1769-.1768s-.0321-.0884.0321-.1527c.0562-.0563.1045-.0643.1447-.0241.1045.0804.209.1366.3216.1688s.233,0,.3618-.1045c.2895-.2572.6994-.635,1.2219-1.1173.5306-.4903,1.1254-1.0369,1.7843-1.6559.6591-.6189,1.3585-1.2861,2.09-2.0015s1.4549-1.4227,2.1623-2.1301c.5465-.5466,1.1254-1.1173,1.7282-1.7121.603-.5948,1.1735-1.1736,1.7041-1.7121.5384-.5466,1.0209-1.045,1.4387-1.4951.4261-.4501.7315-.8119.9324-1.0771.0402-.0643.0805-.1206.1045-.1688.0321-.0482.0162-.1286-.0483-.2411-.024-.0563-.0162-.1045.0402-.1527.0483-.0563.0964-.0563.1366-.0241.1447.1688.3375.3939.5949.6591.2492.2653.5144.5386.7877.8119s.5384.5386.812.7958c.2652.2572.4904.4742.6913.6431.0402.0402.0321.0804-.024.1366M554.7754,277.2306c-.3618.6672-.8519,1.27-1.487,1.8086-.7555.6511-1.5353,1.0851-2.3471,1.3102-.8039.217-1.6077.2492-2.3954.1045-.7877-.1527-1.5432-.4582-2.2668-.9163-.7234-.4582-1.3906-1.045-2.0095-1.7604-.024-.0241-.0883-.1045-.2009-.2331-.1045-.1286-.2411-.2813-.4018-.4662-.1528-.1849-.3216-.3778-.5063-.5868-.185-.209-.3456-.4019-.5063-.5868-.8922.7717-1.7363,1.5192-2.5158,2.2426-.7877.7234-1.6077,1.4951-2.4677,2.3069-.0643.0643-.1126.1286-.1447.1929-.024.0723-.0081.1688.0483.2894l.0883.1045c.0321.0402.024.0884-.0402.1447s-.1126.0563-.1528.0161c-.1045-.1527-.2733-.3698-.4985-.6431-.2252-.2813-.4742-.5707-.7315-.8681-.2573-.2974-.5144-.5948-.7796-.8842-.2573-.2894-.4742-.5144-.6429-.6832l-.1607-.1929c-.0321-.0402-.024-.0884.0402-.1447s.1126-.0563.1447-.0161c.0964.0884.2009.1527.3135.1929.1126.0402.2252,0,.3537-.1045,1.3342-1.0289,2.5641-2.0417,3.7136-3.0384,1.1414-.9967,2.323-2.0176,3.5206-3.0545.6429-.5546,1.1816-1.0289,1.6237-1.4227s.8441-.7556,1.2138-1.0851c.3697-.3296.7474-.6672,1.1174-.9967.3697-.3296.8039-.7074,1.2861-1.1334.0964-.0804.209-.1849.3456-.2974.1285-.1125.2573-.2411.3697-.3778.1126-.1366.209-.2733.2652-.4099.0643-.1366.0724-.2733.0321-.4099-.024-.0563,0-.1045.0483-.1527.0562-.0482.1045-.0482.1366-.008l.1447.1688c.1688.2251.3456.4501.5306.6752.185.2331.3778.4662.5868.6993.1207.1447.3216.3698.6108.6832.2814.3135.5787.6511.8841,1.0128.3054.3537.603.6913.8841,1.0128.2895.3135.4823.5466.6108.6832.6913.7958,1.1816,1.5916,1.4951,2.3873.3054.7958.4501,1.5674.418,2.3069-.024.7475-.2252,1.4469-.5868,2.114M552.2756,274.2404c-.1285-.9244-.603-1.8729-1.4387-2.8374-.1207-.1366-.2252-.2572-.3054-.3537-.0805-.0965-.1688-.1929-.2573-.2974-.0805-.0965-.185-.209-.2973-.3456-.1126-.1286-.2573-.2974-.4261-.4903-.4099.3135-.86.6591-1.3342,1.053s-.9405.7958-1.3906,1.1816c-.4501.3939-.8841.7717-1.2861,1.1253-.4099.3617-.7315.6752-.9726.9324l.9886,1.1495c.1688.1929.4261.4903.7796.8842.3456.3939.7717.7234,1.2699.9887.4904.2653,1.0531.3858,1.6801.3617.6189-.0241,1.2861-.3456,2.0014-.9565.7796-.6752,1.1093-1.471.9807-2.3953M563.9309,285.976c-.4501.8038-.8841,1.5755-1.3102,2.3069-.1447.2411-.4018.6913-.7636,1.3424s-.7796,1.4067-1.2378,2.2426c-.4663.836-.9645,1.7362-1.4951,2.6927-.5306.9565-1.0369,1.8648-1.5032,2.7329-.4742.8681-.8922,1.6559-1.2621,2.3551-.3697.7074-.627,1.2218-.7717,1.5594-.0643.1608-.1045.2894-.1126.3858s.0402.1929.1607.2894c.0483.008.0562.0563.0081.1286-.0483.0804-.0964.1045-.1366.0723-.1607-.1366-.4018-.3135-.7153-.5466s-.6429-.4742-.9886-.7234c-.3456-.2492-.6832-.4903-1.0048-.7234s-.5868-.4099-.7717-.5144c-.0643-.0241-.0724-.0723-.024-.1366.0402-.0643.0883-.0884.1366-.0804.1607.0643.2733.0723.3216.0241.0562-.0482.1285-.1366.233-.2492.233-.3054.5949-.836,1.0852-1.5996s1.0369-1.6719,1.6477-2.7169c-.5465-.8279-1.1414-1.696-1.7843-2.5963-.6429-.9003-1.2621-1.7604-1.8648-2.5722-.8441.217-1.6879.4341-2.5401.6511-.8519.217-1.7684.4662-2.7491.7395-.1528.0402-.2814.0804-.4018.1286-.1126.0482-.1607.1929-.1447.426-.0081.0563-.0562.0884-.1285.1125-.0805.0161-.1207,0-.1285-.0322-.0643-.2894-.1607-.6109-.2733-.9565s-.233-.7154-.3618-1.0771c-.1285-.3778-.2573-.7315-.394-1.0771s-.2492-.6591-.3537-.9244c-.0162-.0563.0162-.0965.0883-.1125.0805-.0241.1285-.008.1607.0322.1207.209.2492.3135.3697.3296.1207.0161.2973,0,.5144-.0402,1.4789-.2411,3.0383-.5305,4.6782-.8681,1.6318-.3376,3.2956-.6913,4.9755-1.061,1.6801-.3698,3.3761-.7395,5.08-1.1093,1.7041-.3698,3.3761-.7074,5.0157-1.0128-.3859.6591-.8039,1.3906-1.254,2.1944M558.6176,288.1141c-.2652.0563-.5787.1206-.9243.201-.3537.0804-.7636.1768-1.2378.2894s-1.0609.2411-1.7603.4019c.209.2974.4099.5787.5787.844.1769.2653.3456.5144.5144.7475.1688.2411.3456.4903.5306.7475.185.2572.3778.5305.5868.836.7153-1.2539,1.278-2.1864,1.6879-2.7972.418-.6109.6994-1.0771.86-1.3906-.2973.0322-.5787.0723-.8441.1286M574.6376,300.1471c-.0643.0402-.1126.0322-.1607,0-.1126-.1286-.2171-.1849-.3135-.1849s-.185.0161-.2733.0482c-.2895.1286-.6994.3376-1.2378.6189-.5384.2894-1.1414.6189-1.8005,1.0048-.6591.3778-1.3585.7797-2.09,1.1896s-1.4228.8119-2.0657,1.1977c-.8841.5305-1.7765,1.0691-2.6606,1.6157s-1.7122,1.0691-2.4837,1.5594c-.7717.4903-1.4549.9244-2.0497,1.3183-.5949.3858-1.0369.6752-1.3264.8681-.1769.1045-.233.2653-.1688.4823l.0562.0965c.0321.0482.0081.0884-.0643.1366-.0724.0402-.1207.0402-.1528-.008-.0805-.1688-.209-.418-.394-.7475s-.3859-.6752-.5949-1.0289-.4261-.7074-.6429-1.053c-.2171-.3456-.3859-.6189-.5306-.8119l-.1285-.209c-.0321-.0482-.0081-.0884.0643-.1366.0724-.0402.1207-.0402.1447,0,.0805.1045.1769.1849.2733.2411s.2252.0563.3778-.0161c.3456-.1849.8279-.4421,1.463-.7877.6351-.3456,1.3423-.7395,2.1302-1.1736.7958-.4341,1.6237-.9163,2.508-1.4308.8843-.5145,1.7522-1.0289,2.6125-1.5353.6672-.3939,1.3666-.8119,2.09-1.2459.7315-.4341,1.4228-.852,2.0738-1.2459.651-.4019,1.2378-.7636,1.7603-1.0932.5144-.3296.9084-.6109,1.1654-.8279.0562-.0482.1045-.0965.1447-.1366.0402-.0322.0483-.1206.0081-.2492-.0081-.0563.0162-.1045.0805-.1447s.1126-.0322.1366.0161c.0964.201.233.4582.418.7797.1769.3215.3697.6431.5627.9807.2009.3296.394.6591.5949.9646.1928.3135.3697.5787.5144.7877.024.0482.0081.0884-.0562.1286M583.1096,319.0848c-.0562,1.3183-.3537,2.532-.8841,3.6412-.5384,1.1093-1.254,2.0899-2.1542,2.9419-.9003.844-1.8488,1.5031-2.8536,1.9854-1.045.4984-2.1945.7717-3.4323.8279-1.2378.0482-2.4435-.1286-3.6172-.5386.2492.5627.4742,1.0289.6913,1.3986s.442.7636.6832,1.1896c.2171.3698.418.5787.603.627.0805,0,.1366.0322.1528.0965.024.0643,0,.1045-.0483.1286-.1928.0723-.4261.1608-.6994.2572-.2814.1045-.5708.209-.8762.3215s-.5949.2331-.8841.3617c-.2895.1286-.5306.2331-.7315.3296-.0483.0241-.0964,0-.1207-.0643-.0321-.0643-.024-.1206.0162-.1608.1045-.0884.1285-.217.0724-.3858s-.1126-.3456-.2009-.5305c-.4663-.9807-.9243-1.9693-1.3825-2.9821s-.9807-2.1221-1.5513-3.3438l2.2426-1.4629c1.0931,1.0932,2.3713,1.68,3.8503,1.7684s2.9902-.2411,4.5415-.9807c.8279-.3939,1.5111-.9405,2.0417-1.6317.5306-.6913.9084-1.4388,1.1333-2.2507.2252-.8119.3135-1.6478.2573-2.4918-.0562-.852-.2573-1.6317-.5949-2.3471-.394-.836-.9405-1.5112-1.6398-2.0336-.6994-.5305-1.4549-.9083-2.2747-1.1575-.8198-.2411-1.6477-.3456-2.4677-.2974-.8279.0482-1.5756.2251-2.2347.5386-.5144.2492-1.045.5868-1.5996,1.0208-.5465.4341-1.0531.9324-1.5111,1.4951-.4582.5627-.8198,1.1816-1.1012,1.8729-.2733.6832-.4018,1.3906-.3778,2.1381l-2.3713,1.3986c-.4742-.7958-.9886-1.6317-1.5273-2.5159-.5384-.8842-1.0369-1.68-1.4711-2.3953l-.7075-1.1012c-.1769-.2813-.3054-.4662-.394-.5466-.0883-.0804-.185-.1206-.2814-.1125-.0643-.008-.1207-.0402-.1528-.0965s-.024-.0884.024-.1125c.1928-.1125.4099-.2492.6591-.4099s.4985-.3296.7555-.5144c.2492-.1768.4904-.3537.7234-.5305.233-.1688.4339-.3215.603-.4421.0483-.0241.1045-.008.1528.0322.0562.0482.0562.1206,0,.2251-.0402.1286-.0321.2411.0162.3617.0562.1125.1285.2653.2171.4501.2895.6189.5546,1.1334.7796,1.5594.233.418.4904.8681.7796,1.3424.3618-1.2941,1.0048-2.4355,1.9291-3.4162.9243-.9807,2.0417-1.7845,3.3599-2.4034,1.2861-.6109,2.5722-.9244,3.8743-.9324,1.3021-.0161,2.5239.209,3.6815.6672,1.1576.4662,2.2023,1.1414,3.1428,2.0176.9405.8842,1.6879,1.9131,2.2507,3.1027.6672,1.4067.9645,2.757.9084,4.0753M592.5061,336.9856c-.185.1447-.394.3296-.6429.5546-.2411.2251-.4904.4501-.7396.6913-.2492.2331-.4823.4662-.7075.6913s-.4099.4099-.5465.5627c-.0402.0482-.0883.0482-.1366-.008-.0483-.0643-.0643-.1125-.0402-.1608.0724-.1286.0562-.2653-.0483-.426s-.2652-.3456-.4823-.5627c-.7958-.852-1.5915-1.6478-2.4035-2.3793-.8039-.7315-1.5675-1.3665-2.2668-1.9211-.2733.4501-.5465.9565-.836,1.5272s-.5546,1.1253-.8039,1.6559-.4742.9967-.6672,1.4147c-.2009.4099-.3375.6993-.4099.8681-.5949-.3135-1.1093-.5948-1.5273-.836s-.8039-.4662-1.1576-.6752-.7153-.3939-1.069-.5787c-.3537-.1768-.7555-.3698-1.2057-.5868-.1045.5305-.209,1.1093-.3054,1.7362-.0964.635-.185,1.2861-.2573,1.9533s-.1447,1.3424-.209,2.0095-.1285,1.3022-.1928,1.889c-.024.2653,0,.4903.0643.6832.0724.1929.1285.3296.1769.4099.0483.0241.0643.0723.0483.1447-.0162.0723-.0483.0965-.0964.0804-.1928-.0482-.4582-.1045-.7958-.1688-.3294-.0643-.6832-.1286-1.045-.1849s-.7153-.1125-1.069-.1608-.6429-.0965-.8681-.1286c-.0643-.0161-.0964-.0563-.0883-.1125.0081-.0643.0562-.1045.1447-.1366.1528-.0563.2492-.1849.2895-.3858.0321-.201.0724-.3939.1045-.5787.0964-.7234.233-1.5996.4018-2.6365.1688-1.0369.3537-2.106.5465-3.2072.1928-1.1012.394-2.1462.603-3.1348.209-.9967.4018-1.7925.5949-2.4114.5384.2572,1.0852.5386,1.6477.836.5546.2974,1.0852.5948,1.5834.8762.5063.2813.9564.5386,1.3666.7797.4018.2331.7234.4341.9564.5868.2573-.6029.5063-1.1414.7396-1.6317.233-.4823.4823-.9646.7234-1.4308.2492-.4662.5063-.9405.7877-1.4227.2814-.4823.5949-1.0128.9564-1.5916.603.4742,1.2299.9967,1.9131,1.5674.6672.5707,1.3504,1.1575,2.0336,1.7604s1.3585,1.2057,2.0336,1.8166c.6753.6109,1.3102,1.1977,1.8969,1.7443.1447.1447.2895.2653.418.3537.1285.0884.2652.1286.4261.1125.0562,0,.1126.0241.1688.0563.0562.0402.0562.0804.0081.1125" style="fill: #e41e26;"/>
  <path d="M713.7123,391.6043c1.7843-2.6284,3.7136-4.9836,5.7312-7.1137-1.1816-80.2602-32.313-160.1586-93.4186-221.264-124.6304-124.6303-327.4229-124.6303-452.053,0-60.6714,60.6714-91.7787,139.8544-93.3783,219.5278,1.9855,1.9211,3.8983,4.0431,5.691,6.3983.0162-80.3486,30.5929-160.6811,91.7628-221.8508,122.3878-122.3877,321.5148-122.3877,443.9026,0,61.7888,61.7887,92.3655,143.142,91.7625,224.3024h-.0002Z" style="fill: #cfb986;"/>
  <path d="M696.8164,349.9751c2.3873,2.1864,4.646,4.7666,6.6958,7.612-6.9609-67.3108-36.1551-132.7407-87.623-184.2085-119.0357-119.0358-312.7293-119.0358-431.765,0-52.1268,52.1269-81.4257,118.5776-87.8882,186.7968,2.0497-2.8053,4.3004-5.3453,6.6715-7.4915,7.821-64.0956,36.2035-126.1334,85.3-175.23,116.7932-116.7932,306.8212-116.7932,423.6144,0,48.4053,48.4053,76.7235,109.3901,85.0106,172.5212h-.0159Z" style="fill: #f20012;"/>
</svg>