<?xml version="1.0" encoding="UTF-8"?>
<svg id="_图层_1" data-name="图层_1" xmlns="http://www.w3.org/2000/svg" xmlns:xlink="http://www.w3.org/1999/xlink" version="1.1" viewBox="0 0 800 800">
  <!-- Generator: Adobe Illustrator 29.1.0, SVG Export Plug-In . SVG Version: 2.1.0 Build 142)  -->
  <defs>
    <linearGradient id="_未命名的渐变_2" data-name="未命名的渐变 2" x1="687.2752" y1="-21.866" x2="687.2752" y2="672.7679" gradientTransform="translate(.4162 468.6173) scale(.5838 -.5838)" gradientUnits="userSpaceOnUse">
      <stop offset=".09" stop-color="#13bff1"/>
      <stop offset=".85" stop-color="#083a63"/>
    </linearGradient>
  </defs>
  <path d="M393.7835,746.6508h-.4817l-5.7233-3.0509c-1.0896-.585-2.1563-1.1584-3.2115-1.7434l-.2638-.1491s-2.053-1.124-2.3513-1.2846c-1.2502-.6881-2.5462-1.4107-3.8423-2.1448-3.2344-1.8122-6.595-3.7506-10.2309-5.9069l-.2179-.1147-.8717-.539c-.5161-.3097-1.0323-.6193-1.5599-.952-5.9412-3.5555-12.0316-7.3749-18.099-11.3549-.4244-.2638-.8488-.5505-1.2731-.8373-1.2273-.7914-2.4545-1.6172-3.6703-2.443-.9176-.5964-1.8237-1.2158-2.7298-1.8466-1.1011-.7456-2.2939-1.5484-3.4753-2.3742l-.3441-.2294-1.2273-.8602c-3.0509-2.1104-6.2624-4.3929-9.7721-6.9391-1.1699-.8373-2.443-1.7663-3.7047-2.7068-.2179-.1606-.4358-.3097-.6538-.4817l-.1491-.1147c-1.6172-1.1814-3.2115-2.3857-4.8172-3.6129-2.6265-1.9727-5.2531-3.9914-7.7534-5.9757l-.0803-.0573-1.2502-.6079-1.9957-1.9269-7.0997-5.5627-.4588-.2294-.7226-.6996-.5047-.4014v-.0918l-1.0323-1.0093c-.9061-.7456-1.8007-1.5025-2.6954-2.2595-1.0323-.8602-2.1333-1.7893-3.2459-2.7412l-.3326-.2867c-.7685-.6538-1.5599-1.3304-2.3398-2.0072-.39-.3326-.8143-.6996-1.2502-1.0896-.952-.8144-1.9498-1.686-2.9247-2.5577-.5391-.4702-1.0896-.9405-1.6287-1.4337-.6538-.5735-1.3878-1.2158-2.1104-1.881-4.1749-3.7276-8.0058-7.2488-11.699-10.747-1.2158-1.147-2.5233-2.3857-3.8194-3.6473-.2638-.2409-.9061-.8602-.9061-.8602l-.5161-.5047c-1.1928-1.147-2.4316-2.3513-3.6703-3.5785-.2523-.2409-.5047-.4932-.7455-.7341-1.2846-1.2616-2.6151-2.6036-3.9455-3.9455l-.4129-.4014-.2982-.3326c-1.2617-1.2846-2.5233-2.5692-3.785-3.8652l-.8602-.8946c-1.2387-1.2846-2.5462-2.661-3.8538-4.0373-.195-.195-.4129-.4358-.6308-.6652-1.319-1.3993-2.6265-2.7986-3.9341-4.2094-3.0165-3.2688-5.9757-6.5491-8.7972-9.7491-45.259-51.4067-77.5803-107.8829-93.4427-163.3039-1.1125-3.8882-2.0875-7.547-2.9821-11.1714-.7455-2.9247-1.4681-6.0101-2.1563-9.1183-.4473-2.0187-.8602-4.0373-1.2617-6.0674-.952-4.714-1.8007-9.623-2.5348-14.5434l-.0229-.172c-.1147-.8143-.2409-1.6172-.3326-2.4315-.1376-.8946-.2638-1.7893-.367-2.661-.1491-1.1584-.3097-2.4086-.4473-3.6588-.0459-.367-.1032-.8143-.1491-1.2731-.0688-.4932-.1147-.9978-.1606-1.5025-.0918-.7685-.172-1.5254-.2409-2.2939-.0803-.6996-.1491-1.3993-.2065-2.0989-.1262-1.3649-.2523-2.7298-.3556-4.0832-.0688-.9749-.1376-1.8237-.1835-2.6724-.0573-.8029-.1147-1.5943-.172-2.3971l-.0459-.7799v-.1491c-.0803-1.3764-.1491-2.7527-.2179-4.1291l-.0344-.8946c-.0229-.5276-.0344-1.0552-.0459-1.5943-.0344-.9864-.0688-1.9154-.0918-2.8559-.0344-1.5828-.0573-3.2115-.0688-4.8516v-1.5025c0-15.0596.0459-27.3779.1376-38.7901.2867-32.9865,1.1125-58.0246,2.6839-81.1702.172-2.3857.3326-4.6681.5047-6.9506.0229-.3211.0573-.7455.1032-1.2043l1.8925-24.9693h.4817c.2982-2.6151.6194-5.2645.952-7.914l.8832-6.7785.1606-1.0896c.1376-1.0552.2867-2.0989.4358-3.1541l.2523-1.7434.8258-5.3448c.1491-1.0093.3211-2.0072.4817-3.0165.5735-3.5212,1.1355-6.7441,1.709-9.8638.2523-1.4108.5161-2.8903.8029-4.347.0803-.4703.172-.9405.2753-1.4108.1835-.9405.3556-1.8925.5505-2.833l.1147-.5735c.172-.8487.3441-1.6975.5276-2.5348.4932-2.4545,1.0437-5.0007,1.6057-7.547.2638-1.2043.5276-2.3627.7799-3.4982,1.0208-4.5075,2.1333-9.038,3.2803-13.4768l2.2824-8.7857,7.2832-5.4251c29.1213-21.666,72.3157-42.6324,118.5152-57.5085,2.6036-.8373,5.4251-1.7204,8.6137-2.6839,2.0186-.6079,4.0373-1.2158,6.0674-1.8007,4.2552-1.2387,8.671-2.4545,13.4768-3.7161,1.9154-.4932,3.6244-.929,5.3448-1.3534,6.1477-1.5484,12.4101-2.9706,18.5693-4.2323.8946-.195,1.7778-.367,2.6724-.5505,1.6975-.3441,3.4523-.6882,5.2187-1.0208,1.8351-.3441,3.6014-.6652,5.3678-.9749,8.3613-1.4681,16.608-2.6495,24.499-3.5212l.5735-.0573c1.1928-.1262,2.3054-.2409,3.4065-.3441l.8373-.0803c.9864-.0918,1.9613-.195,2.9477-.2753,1.2731-.1147,2.5348-.2179,3.7964-.3211.4473-.0344,1.0093-.0688,1.6057-.1032,7.2947-.5276,14.4631-.8029,21.322-.8029,1.3305,0,2.661,0,3.9799.0344,42.3572.6652,88.224,8.671,132.6457,23.1686,21.5399,7.0194,42.0819,15.4037,61.0526,24.889,19.785,9.8983,37.6317,20.8976,53.0239,32.6883l1.3534,1.0323,6.4115,6.4115,1.7204,7.2144c7.8223,33.8009,12.8459,67.5558,15.8051,106.2886,2.4889,32.608,3.5556,68.3931,3.5785,119.6392.0115,13.5456-1.2158,27.8481-3.6359,42.4833-2.1792,13.2129-5.2416,26.5865-9.3707,40.8546-.367,1.2961-.7914,2.7068-1.2158,4.1061-.3211,1.1126-.6882,2.2939-1.0552,3.4638l-.367,1.1584-.5506,1.6745c-.4473,1.3878-.929,2.7986-1.4108,4.2094-.3556,1.0781-.757,2.2251-1.147,3.3606l-.0459.1376c-2.1563,6.1018-4.5305,12.2839-7.0882,18.4201l-6.6179,15.8854h-.4588c-.3326.6996-.6538,1.3764-.9864,2.0531-.4014.8373-.8258,1.7319-1.2731,2.6265l-.2523.5276c-1.1355,2.3283-2.443,4.9319-3.9914,7.914-.4473.8946-.9405,1.8466-1.4566,2.7986-2.1563,4.0717-4.3699,8.109-6.5606,11.9284-.6996,1.2617-1.4681,2.5921-2.248,3.9111-.9864,1.709-2.0301,3.4409-3.0738,5.1728l-1.0552,1.7204c-.585.9749-1.2043,1.9957-1.8466,3.0165-.195.3211-.39.6423-.585.9405-.7226,1.1814-1.5369,2.4545-2.3513,3.7276l-.6767,1.0667c-.6652,1.0323-1.3075,2.0301-1.9613,3.028-.4014.6308-.8602,1.319-1.3305,2.0187l-.2294.3326c-.8831,1.3649-1.8581,2.8101-2.833,4.2552l-.2064.2982c-.6882,1.0093-1.3878,2.0301-2.0875,3.0509l-.2409.3556c-.5506.8029-1.1011,1.6057-1.6745,2.4086l-.3326.4703c-.2409.3556-.5047.7226-.7685,1.0896-1.2387,1.7663-2.5348,3.5785-3.8538,5.3907-.7685,1.0667-1.5828,2.1792-2.4086,3.2918-1.5598,2.1219-3.2115,4.3126-4.8861,6.5147l-.8373,1.1011c-.5047.6652-1.0323,1.3534-1.5598,2.0301-1.5713,2.0187-3.1885,4.0602-4.8058,6.1018-.5391.6767-1.0781,1.342-1.6172,2.0072l-1.0093,1.2502-1.0208,1.2502c-.7341.9061-1.4796,1.8122-2.2136,2.6954-.8946,1.0896-1.8351,2.2136-2.7757,3.3262-2.2366,2.661-4.6337,5.4481-7.3176,8.5219s-5.4595,6.1592-8.476,9.4395c-1.3878,1.514-2.833,3.0853-4.2896,4.6222-1.3993,1.5025-2.8674,3.0509-4.3355,4.5764-1.3993,1.4681-2.8674,2.9935-4.3699,4.5075-1.0667,1.1011-2.1907,2.2251-3.3032,3.3606l-1.4681,1.4796c-1.1584,1.1584-2.3054,2.2939-3.4524,3.4179-.3211.3326-.6538.6538-.9749.9635-1.0208.9978-2.1104,2.0645-3.2115,3.1083-3.4524,3.3491-7.0997,6.79-10.8044,10.1735-1.1011,1.0208-2.2366,2.053-3.3835,3.0968-.2523.2294-.5047.4588-.757.6881l-1.514,1.3534c-.6882.6193-1.3878,1.2387-2.076,1.8581-1.904,1.6975-3.8767,3.4064-5.838,5.1155-1.4337,1.2387-2.8903,2.5004-4.3699,3.7391-1.1814,1.0093-2.3971,2.0301-3.6244,3.0624l-.5276.4473c-3.8767,3.2344-7.7879,6.4229-11.676,9.5083l-.9634.757c-.7685.6193-1.5484,1.2273-2.3398,1.8466-1.5369,1.2043-3.1427,2.4545-4.7599,3.7047-1.6172,1.2502-3.2574,2.5004-4.909,3.7276-3.2229,2.4315-6.3886,4.7713-9.3821,6.9276-.1606.1261-.39.2867-.5964.4244-11.2975,8.1778-22.8474,15.9313-34.3055,23.0538-1.5943.9978-3.2344,2.0072-4.8516,3.005-2.5118,1.537-5.081,3.0738-7.6732,4.5993l-.757.4588-1.6287.9405c-2.3857,1.3878-4.7714,2.7527-7.1455,4.0832l-11.8022,6.6409-6.9735-3.4064-.0916.0573Z" style="fill: #fff;"/>
  <g>
    <path d="M395.6301,738.6221h-.3326l-3.957-2.1104c-1.147-.6193-2.2825-1.2387-3.4179-1.8581,0,0-1.9613-1.0667-2.248-1.2273-1.2846-.7111-2.5577-1.4222-3.8308-2.1448-3.2574-1.8237-6.6753-3.7964-10.3685-5.9871l-.1606-.0803-.5964-.367c-.5047-.2982-1.0093-.6079-1.514-.9176-5.8839-3.5212-11.9284-7.3061-17.9499-11.2631-.39-.2409-.7799-.5047-1.1814-.7684-1.2273-.7914-2.4545-1.6172-3.6703-2.443-.8717-.562-1.7319-1.147-2.5921-1.7434-1.1928-.8029-2.3971-1.6172-3.5785-2.443l-.2179-.1376-1.2273-.8602h0c-3.0624-2.1218-6.228-4.3584-9.6574-6.8588-1.1928-.8602-2.443-1.7778-3.6932-2.7068-.195-.1376-.3785-.2753-.5849-.4244l-.2064-.1491c-1.5713-1.1584-3.1427-2.3284-4.7025-3.5212-2.6265-1.9727-5.2072-3.957-7.6387-5.8839-.2638-.2064-.5276-.4129-.7914-.6193l-.8488-.4129-1.3763-1.3304-6.0445-4.7369v-.1376c-.4817-.39-.952-.7799-1.4337-1.1699l-.6882-.3326-1.5713-1.537c-.9749-.8029-1.9269-1.6058-2.8903-2.4201-1.0323-.8602-2.1219-1.7778-3.2-2.7068l-.3211-.2753c-.7685-.6653-1.5484-1.319-2.3054-1.9842-.4014-.3441-.8029-.6881-1.2158-1.0552-.9978-.8602-1.9728-1.709-2.9477-2.5807-.5161-.4358-1.0208-.8832-1.5255-1.3419-.6996-.6193-1.3993-1.2273-2.0875-1.8695-4.1405-3.6932-7.9255-7.1685-11.5728-10.6208-1.2387-1.1584-2.5233-2.3857-3.8079-3.6358-.1835-.1721-.8143-.7799-.8143-.7799l-.5161-.5047c-1.2387-1.1928-2.466-2.3857-3.6817-3.6015-.2294-.2179-.4588-.4473-.6882-.6767-1.319-1.3075-2.6724-2.661-4.0144-4.0029l-.2867-.2753-.2065-.2294c-1.2961-1.3075-2.5807-2.6265-3.8767-3.9455l-.8373-.8602c-1.2272-1.2731-2.5233-2.6265-3.8079-3.9914-.195-.195-.3785-.4014-.5505-.5964-1.319-1.3993-2.6265-2.7986-3.9341-4.2094-2.9936-3.2344-5.8954-6.4574-8.6595-9.6-44.479-50.5121-76.2154-105.9216-91.7567-160.2186-1.0896-3.8079-2.0416-7.3635-2.9133-10.8846-.7226-2.8674-1.4452-5.8954-2.0989-8.9119-.4358-1.9613-.8373-3.9226-1.2158-5.8839-.929-4.5993-1.7663-9.4051-2.4774-14.1879l-.0229-.172c-.1147-.7914-.2294-1.5713-.3211-2.3513-.1376-.8717-.2523-1.7319-.367-2.5807-.1491-1.1355-.2982-2.3398-.4358-3.5441-.0573-.4473-.1147-.8831-.1606-1.3305-.0573-.4473-.1032-.9061-.1491-1.3649-.0918-.7685-.172-1.5369-.2409-2.2939-.0803-.6652-.1376-1.3305-.195-1.9957-.1262-1.342-.2523-2.6724-.3556-4.0144-.0688-.8946-.1262-1.709-.172-2.5233v-.1147c-.0688-.757-.1262-1.514-.172-2.2824l-.0344-.5391v-.1376c-.0803-1.4108-.1606-2.833-.2179-4.2552l-.0344-.8373c-.0229-.5161-.0344-1.0323-.0459-1.5369-.0344-.9405-.0688-1.8351-.0803-2.7183-.0344-1.6057-.0573-3.1885-.0688-4.7943v-1.4452c0-15.071.0459-27.3779.1376-38.7213.2867-32.8259,1.1011-57.7149,2.6724-80.6885.172-2.3398.3326-4.6108.5047-6.8703.0229-.3326.0573-.7226.0918-1.147l1.3305-17.6173h.2523c.4932-4.8746,1.0667-9.8868,1.6975-14.9449l.8602-6.5835.172-1.1584c.1376-1.0437.2867-2.0989.4358-3.1427l.2523-1.7434.8143-5.2531c.1491-.9979.3097-1.9728.4703-2.9477.5735-3.4868,1.124-6.6524,1.686-9.7147.2523-1.4452.5161-2.8903.8029-4.3355.0688-.4358.1606-.8602.2523-1.2846.1835-.952.3556-1.8925.5505-2.8445l.1147-.562c.1606-.8143.3326-1.6402.5047-2.4545.5047-2.5004,1.0437-5.0007,1.5943-7.5011.2638-1.1928.5161-2.3169.7685-3.4294.9979-4.4158,2.0875-8.8775,3.223-13.2359l1.5713-6.0559,5.0122-3.7276c28.4446-21.1614,70.7903-41.6919,116.1754-56.3042,2.5807-.8373,5.3563-1.6975,8.476-2.638,1.9728-.5964,3.9455-1.1928,5.9298-1.7548,4.2323-1.2272,8.5907-2.4316,13.3162-3.6703,1.8122-.4588,3.5212-.8946,5.2416-1.319,6.0674-1.5255,12.261-2.9362,18.3169-4.1749.8488-.1835,1.6975-.3556,2.5348-.5161,1.7319-.3556,3.4638-.6882,5.1957-1.0093,1.7778-.3326,3.5097-.6423,5.2416-.952,8.2007-1.4337,16.2868-2.6036,24.0058-3.4523l.5391-.0573c1.1126-.1147,2.2136-.2294,3.3262-.3326l.8602-.0803c.952-.0918,1.904-.1835,2.8559-.2638,1.2502-.1147,2.4774-.2179,3.7162-.3097.4473-.0344.9634-.0688,1.491-.1032,7.1226-.5161,14.1305-.7799,20.8058-.7799,1.2961,0,2.5807,0,3.8538.0344,41.5658.6538,86.6068,8.5219,130.283,22.7671,21.1614,6.9047,41.3364,15.1169,59.9515,24.4302,19.3377,9.6689,36.7371,20.4044,51.7278,31.8854l.929.7111,4.4272,4.4273,1.1928,5.0122c7.719,33.3421,12.6854,66.7186,15.6101,105.0384,2.4774,32.3901,3.5326,67.9917,3.5441,119.0313,0,13.1097-1.1814,26.965-3.5326,41.1758-2.1219,12.8918-5.1269,25.9671-9.1642,39.9371-.367,1.2846-.7799,2.6495-1.1928,4.0029-.3326,1.1355-.6882,2.271-1.0437,3.4065l-.3556,1.147-.5161,1.5828c-.4358,1.3534-.8946,2.7183-1.3649,4.0832-.3785,1.124-.757,2.2366-1.147,3.3491l-.0459.1491c-2.0989,5.9527-4.4158,11.9628-6.9047,17.9614l-4.5534,10.942h-.2294c-.4588,1.0208-.9061,1.9957-1.3649,2.9706l-.1835.4014c-.5047,1.0781-1.0208,2.1563-1.5369,3.2344-.4129.8717-.8258,1.7204-1.2502,2.5807l-.2523.5276c-1.124,2.3054-2.4086,4.8516-3.9111,7.742-.4588.9061-.9176,1.7893-1.3993,2.6839-2.1448,4.0602-4.324,8.0172-6.4574,11.7563-.7111,1.2731-1.4452,2.5462-2.1907,3.8079-.9978,1.7204-2.0072,3.4065-3.028,5.0925l-1.0437,1.6975c-.6079,1.0093-1.2158,2.0072-1.8466,3.005-.172.2867-.3441.562-.5161.8373-.7685,1.2387-1.5484,2.466-2.3398,3.7047l-.6767,1.0552c-.6423.9978-1.2846,1.9843-1.9269,2.9706-.4244.6652-.8602,1.319-1.3075,1.9843l-.195.2982c-.9061,1.3993-1.8581,2.8101-2.7986,4.1979l-.195.2867c-.6767.9978-1.3534,1.9957-2.0531,2.9821l-.2867.4129c-.5276.7685-1.0437,1.5254-1.5943,2.2824l-.367.5276c-.2294.3326-.4703.6767-.7111,1.0093-1.2502,1.7893-2.5233,3.5556-3.8194,5.3333-.7799,1.0781-1.5598,2.1563-2.3627,3.2344-1.5598,2.1104-3.1771,4.2667-4.8172,6.423l-.8373,1.0896c-.4932.6538-.9978,1.3075-1.5025,1.9613-1.5713,2.0072-3.1656,4.0373-4.7828,6.0674-.5161.6538-1.0437,1.2961-1.5598,1.9384l-1.0208,1.2617-.9978,1.2158c-.7341.8946-1.4566,1.7893-2.1907,2.6724-.8831,1.0667-1.8007,2.1678-2.7183,3.2574-2.2022,2.6265-4.5764,5.3907-7.2373,8.4302-2.638,3.0165-5.3678,6.0559-8.3384,9.2904-1.3764,1.5025-2.7871,3.028-4.2094,4.5419-1.4108,1.5254-2.8559,3.028-4.2896,4.5305-1.3878,1.4566-2.833,2.9477-4.3011,4.4387-1.0896,1.124-2.1907,2.2366-3.2918,3.3377l-1.4452,1.4566c-1.147,1.147-2.2939,2.2824-3.4409,3.4064-.2753.2867-.562.562-.8373.8258-1.0667,1.0437-2.1333,2.076-3.2,3.0968-3.4524,3.3491-7.0538,6.7326-10.7011,10.0703-1.124,1.0437-2.248,2.0645-3.3835,3.0853-.2179.2064-.4358.4014-.6652.5964l-1.3305,1.1928c-.757.6767-1.5025,1.3534-2.2595,2.0301-1.8925,1.6746-3.8308,3.3721-5.7692,5.0581-1.4108,1.2273-2.8445,2.4545-4.2896,3.6818-1.2043,1.0323-2.3971,2.0416-3.6129,3.0509l-.5391.4473c-3.8194,3.1886-7.6732,6.3312-11.504,9.3706l-.952.757c-.757.6079-1.5254,1.2043-2.2824,1.8007-1.5484,1.2158-3.1312,2.443-4.7255,3.6703-1.6057,1.2387-3.2115,2.4545-4.8287,3.6703-3.1541,2.3742-6.2739,4.6911-9.256,6.8473-.195.1491-.3785.2753-.5391.39-11.1599,8.0746-22.5607,15.7362-33.8926,22.7786-1.5943.9978-3.2115,1.9957-4.8172,2.9821-2.6839,1.6401-5.4481,3.2918-8.2237,4.9204l-.0344.0344-1.6287.9405c-2.3627,1.3649-4.714,2.7183-7.0653,4.0373l-8.1205,4.5764-4.8631-2.3627.0116-.0232Z" style="fill: #083a63;"/>
    <g>
      <path d="M463.4038,679.2784c-3.0394,2.2939-6.0903,4.542-9.1527,6.7671,3.0624-2.2136,6.1133-4.4732,9.1527-6.7671ZM454.0561,686.1832c-10.9534,7.914-21.9987,15.3463-33.0553,22.2281,11.0567-6.8703,22.1134-14.3025,33.0553-22.2281ZM406.7785,716.979c3.1541-1.8237,6.3197-3.7047,9.4853-5.643-3.1656,1.9154-6.3197,3.7964-9.4739,5.6315,0,0,0,.0115-.0115.0115ZM399.7591,720.8443s.0918.0573.1376.0803c2.2825-1.2846,4.5649-2.5921,6.8588-3.9226l.0229-.023c-2.3054,1.3419-4.5993,2.6495-6.8817,3.9341-.0574-.023-.0918-.0459-.1376-.0688ZM378.4945,708.7782c.4358.2753.8602.539,1.2961.7914.0459.023.0918.0573.1376.0803-.367-.2179-.7226-.4358-1.0896-.6653-.1147-.0573-.2294-.1261-.3441-.2064ZM348.903,689.6585c.39.2753.7799.539,1.1699.8144.0344.023.0688.0459.1032.0688-.0344-.0344-.0688-.0573-.1032-.0803-.39-.2638-.7799-.5276-1.1699-.8029ZM278.6633,631.8976c.1835.1835.3785.367.562.5506,0,0-.0229-.0229-.0229-.0344-.1835-.172-.3556-.3441-.5391-.5161ZM152.5782,407.6787c.0918.7799.2065,1.5484.3211,2.3283.6652,4.4731,1.4452,8.9463,2.3398,13.3965-.8832-4.4617-1.6631-8.9233-2.3283-13.3965-.1147-.7799-.2294-1.5484-.3326-2.3283ZM153.4498,244.5239c-.0344.39-.0573.7799-.0918,1.1814.0344-.39.0688-.7799.1032-1.1814h-.0115Z" style="fill: #094166; fill-rule: evenodd;"/>
      <path d="M563.6595,583.2436c-1.0437,1.2731-2.0875,2.5577-3.1312,3.8194-.8602,1.0437-1.7319,2.0875-2.6036,3.1197-2.3168,2.7527-4.6681,5.4825-7.0423,8.2007-2.638,3.0165-5.3219,5.9986-8.0402,8.9577-1.3534,1.4796-2.7183,2.9591-4.0946,4.4158-1.3649,1.4681-2.7527,2.9247-4.1405,4.3699-1.3878,1.4566-2.7757,2.8903-4.1864,4.324-1.1584,1.1928-2.3283,2.3742-3.4982,3.5556l-1.1011,1.1011c-1.1584,1.1584-2.3168,2.3054-3.4868,3.4409-.1835.195-.367.3785-.5506.5506-1.0552,1.0323-2.1104,2.0645-3.1771,3.0738-3.4409,3.3377-6.9276,6.618-10.4488,9.8409-1.1126,1.0323-2.2136,2.0416-3.3377,3.0509-.2294.2179-.4703.4244-.7111.6423-1.1011.9864-2.2022,1.9842-3.3147,2.9707-1.8581,1.6516-3.7391,3.2918-5.6201,4.9204-1.3878,1.2043-2.7757,2.3972-4.1749,3.5785-1.3534,1.1584-2.7068,2.2939-4.0717,3.4409-3.6817,3.0738-7.3864,6.0903-11.114,9.0495-1.0437.8258-2.076,1.6516-3.1197,2.466-1.5484,1.2158-3.0853,2.4086-4.6337,3.6015-1.5484,1.1928-3.0968,2.3742-4.6566,3.5441-3.0394,2.2939-6.0903,4.5534-9.1527,6.7671-.0573.0459-.1261.0918-.195.1376-10.942,7.9255-21.9987,15.3578-33.0553,22.2281-1.5828.9864-3.1656,1.9613-4.7369,2.9247-3.1656,1.9384-6.3312,3.8194-9.4853,5.643l-.0229.023c-2.2939,1.3304-4.5764,2.638-6.8588,3.9226-.0459-.023-.0918-.0459-.1376-.0803h-.0229c-1.4566-.7799-2.9018-1.5713-4.3584-2.3627-.3326-.1835-.6767-.367-1.0208-.562-1.2617-.6996-2.5233-1.3993-3.785-2.1104-3.5441-1.9842-7.0997-4.0488-10.6438-6.1592-.0459-.023-.0918-.0573-.1376-.0803-.3097-.1835-.6308-.3785-.952-.585-.1147-.0573-.2294-.1261-.3441-.2064-5.9068-3.5212-11.8022-7.2258-17.6632-11.0796-.2982-.1835-.5964-.3785-.8946-.585-1.2387-.8029-2.4774-1.6287-3.7047-2.466-.8029-.5161-1.5943-1.0552-2.3857-1.6058-1.2273-.8258-2.4545-1.6631-3.6703-2.5004-.0344-.023-.0688-.0459-.1032-.0688h0c-.39-.2753-.7799-.539-1.1699-.8144-3.1312-2.1678-6.2395-4.3814-9.3362-6.6295-1.2617-.9061-2.5233-1.8351-3.7735-2.7641-.1032-.0688-.195-.1376-.2982-.2179-.1147-.0803-.2294-.1721-.3441-.2523-1.5025-1.1011-2.9936-2.2251-4.4846-3.3606-2.4889-1.8695-4.9663-3.7735-7.4323-5.7233-.7455-.5735-1.491-1.1584-2.2251-1.7434-.0229-.0115-.0574-.0344-.0803-.0573-1.5713-1.2387-3.1427-2.5004-4.7025-3.7621-.0229-.023-.0459-.0344-.0688-.0573-1.5599-1.2616-3.1197-2.5348-4.6681-3.8194-.0229,0-.0459-.0344-.0688-.0573-1.1126-.9176-2.2136-1.8351-3.3147-2.7641-1.0437-.8717-2.076-1.7434-3.1083-2.6265-.8717-.7456-1.7434-1.491-2.6036-2.2366-.3785-.3212-.7455-.6423-1.124-.9749-.9864-.8487-1.9613-1.6975-2.9247-2.5577-.4703-.4014-.9405-.8144-1.4108-1.2387-.6538-.5735-1.3075-1.147-1.9498-1.7434-3.8079-3.395-7.5814-6.8473-11.2975-10.3685-1.2846-1.2043-2.5577-2.4201-3.8194-3.6473-.2179-.195-.4244-.4014-.6423-.6079-.1835-.1835-.3785-.367-.562-.5506-1.2158-1.1699-2.4201-2.3398-3.6129-3.5326-.1835-.172-.367-.3556-.5505-.5391-1.3763-1.3649-2.7527-2.7412-4.1176-4.1176-.9099-.9176-.9176-.9252-.0229-.0229-1.3534-1.3764-2.7068-2.7527-4.0602-4.1405-.2294-.2409-.4703-.4817-.6996-.7226-1.2961-1.342-2.5807-2.6954-3.8653-4.0488-.1032-.1032-.2065-.2179-.2982-.3211-1.3305-1.4108-2.6495-2.8215-3.9685-4.2438-2.81-3.0394-5.5972-6.1248-8.3384-9.2445-40.2353-45.6948-72.2125-98.1567-88.0176-153.3713-.9749-3.4179-1.8925-6.8359-2.7412-10.2653-.7111-2.8101-1.3764-5.6316-1.9957-8.4531-.4014-1.8237-.7799-3.6473-1.1355-5.471-.8946-4.4502-1.6746-8.9233-2.3398-13.3965-.1147-.7799-.2294-1.5484-.3211-2.3283-.1262-.8143-.2409-1.6287-.3441-2.4315-.1491-1.124-.2867-2.248-.4129-3.3721-.0573-.4588-.1147-.9176-.1606-1.3764-.0459-.3097-.0803-.6308-.1032-.952-.0918-.7914-.1835-1.5828-.2523-2.3742-.0688-.585-.1262-1.1699-.172-1.7548-.1262-1.2961-.2409-2.5807-.3441-3.8652-.0573-.7685-.1147-1.5369-.1606-2.3054-.0573-.757-.1147-1.5025-.1606-2.2595v-.1376c-.0918-1.5025-.172-3.0165-.2409-4.5305-.0229-.6996-.0573-1.3993-.0688-2.0989-.0344-.8373-.0688-1.6745-.0803-2.5118-.0344-1.5369-.0573-3.0624-.0688-4.5993h0c2.4316.7914,4.8746,1.5943,7.3061,2.4086.2065.0688.4129.1376.6194.2179,1.3878.4473,2.7642.9176,4.152,1.3878,1.3305.4473,2.6724.9061,4.0144,1.3649,1.9613.6652,3.9226,1.342,5.8839,2.0187,2.443.8487,4.8975,1.6975,7.3635,2.5692.5735.195,1.1584.4014,1.7434.6194,2.7183.952,5.4366,1.9269,8.1663,2.9133,1.0781.3785,2.1563.7799,3.2459,1.1699.5391.195,1.0781.39,1.6172.585,1.5025.5391,2.9936,1.0896,4.4961,1.6401.5964.2179,1.1928.4358,1.7893.6652.7914.2867,1.5943.585,2.4086.8946,2.0416.757,4.0946,1.5254,6.1592,2.2939,1.1814.4473,2.3742.8946,3.567,1.3534,1.2961.4817,2.5921.9864,3.8882,1.4796,1.7204.6538,3.4409,1.319,5.1728,1.9957,1.8351.7111,3.6703,1.4222,5.5169,2.1448.9176.3556,1.8466.7226,2.7642,1.0896s1.8351.7226,2.7527,1.0896c.9864.3785,1.9728.7799,2.9592,1.1699.2753.1032.5505.2179.8258.3326.1262.0459.2523.1032.39.1491.4703.1835.9405.3785,1.4108.5735.3211.1261.6538.2523.9749.39.6308.2523,1.2731.5047,1.904.757.6194.2523,1.2502.5047,1.8695.757,1.147.4588,2.2939.929,3.4409,1.4108.5391.2179,1.0667.4358,1.6057.6538h.0115c1.9728.8143,3.957,1.6287,5.9298,2.4545.1032.0344.195.0688.2982.1147.6079.2523,1.2272.5047,1.8466.7685,1.8007.7455,3.6129,1.5025,5.4251,2.271,1.2272.5161,2.4545,1.0437,3.6817,1.5598.5161.2179,1.0437.4473,1.5599.6652.2638.1147.5391.2294.8143.3441.5047.2179,1.0208.4358,1.5255.6538v.0115h.0115c14.5434,6.2165,29.1786,12.7542,43.94,19.6474.7226.3326,1.4452.6767,2.1678,1.0093,2.5921,1.2158,5.1957,2.443,7.7993,3.6817,1.6516.7914,3.3262,1.5828,4.9893,2.3857.6882.3326,1.3878.6652,2.0875.9978.0229.0229.0574.0344.0803.0459.7799.367,1.5484.7455,2.3283,1.124,3.5097,1.6975,7.0194,3.4065,10.5405,5.1498.5047.2523,1.0093.4932,1.514.7455,1.1699.585,2.3398,1.1584,3.5097,1.7434,4.7369,2.3627,9.4739,4.7484,14.2338,7.18.2982.1491.6079.3097.9061.4588h0c.3211.172.6308.3326.952.5047,1.5369.7799,3.0853,1.5713,4.6222,2.3742.1491.0688.2982.1491.4588.2294.8488.4358,1.709.8831,2.5692,1.342,1.147.585,2.3054,1.1928,3.4753,1.8007.7111.3785,1.4337.7455,2.1448,1.124.3326.172.6652.3441.9978.5276,1.2387.6538,2.4889,1.3075,3.7391,1.9728,2.2366,1.1814,4.4731,2.3742,6.7097,3.567.39.2064.7914.4244,1.1814.6423.1147.0573.2409.1261.3556.1835,1.1011.585,2.2022,1.1814,3.3147,1.7778.3785.2064.757.4129,1.147.6194.6882.3785,1.3649.7455,2.053,1.1126.8602.4588,1.709.929,2.5692,1.3993.6538.3556,1.2961.6996,1.9384,1.0552.3556.195.7226.39,1.0781.5964,1.6516.9061,3.3147,1.8237,4.9778,2.7298.5391.2982,1.0781.5964,1.6172.8946,1.8237,1.0093,3.6473,2.0301,5.4825,3.0624,2.2022,1.2158,4.4043,2.4545,6.6179,3.7047.3097.172.6079.3441.9176.5161,1.8925,1.0781,3.7964,2.1563,5.7004,3.2459,4.0832,2.3283,8.1893,4.6911,12.3069,7.0882.6308.367,1.2731.7455,1.9154,1.124,2.8215,1.6401,5.6545,3.3147,8.499,4.9893.6079.367,1.2273.7341,1.8351,1.1011.6996.4014,1.3878.8143,2.0875,1.2273.4244.2638.8602.5161,1.2961.7799,1.7434,1.0323,3.4753,2.076,5.2186,3.1312h0c.0573.0459.1147.0803.172.1032,5.1842,3.1197,10.38,6.2739,15.5872,9.4853,5.7233,3.5326,11.4696,7.1112,17.2388,10.7585,22.9277,14.4861,46.1307,29.8782,69.6433,46.2568h.0229Z" style="fill: #fff; fill-rule: evenodd;"/>
      <path d="M649.8075,371.4234c.0115,12.7198-1.1814,25.5198-3.2918,38.2625-2.1219,12.8689-5.1269,25.5313-8.7054,37.907-.367,1.2846-.757,2.5807-1.147,3.8652-.4014,1.3764-.8373,2.7412-1.2617,4.1061-.172.5276-.3441,1.0552-.5161,1.5828-.4244,1.3075-.8602,2.6036-1.3075,3.8997-.3785,1.1355-.7685,2.2595-1.1584,3.3835-2.0072,5.6889-4.1864,11.332-6.5262,16.952-3.9799-2.9018-7.9599-5.7921-11.9513-8.6481-1.8122-1.2961-3.6129-2.5921-5.4366-3.8882-1.4108-1.0093-2.8215-2.0072-4.2438-3.005-2.1678-1.5254-4.3355-3.0509-6.5033-4.5649-2.0645-1.4452-4.1291-2.8789-6.1936-4.3126-.4014-.2753-.8029-.562-1.2158-.8373-2.2366-1.5369-4.4731-3.0738-6.7097-4.5878-2.3627-1.6172-4.714-3.2115-7.0653-4.7943-2.3627-1.6057-4.7255-3.1771-7.0882-4.7484-2.3513-1.5713-4.714-3.1312-7.0767-4.6911-7.0882-4.6566-14.1993-9.256-21.3105-13.7635-2.7986-1.7778-5.5972-3.5441-8.3957-5.2875-.5391-.3441-1.0667-.6652-1.5943-.9978.0229-.5506.0573-1.0896.0803-1.6401.0573-.9978.0917-1.9843.1261-2.9821,1.1584-32.5277-3.1656-64.6999-18.2481-95.037-7.937-15.9657-18.2481-31.7822-29.6833-40.155-8.4531-6.1821-19.7047-7.8681-27.3779-7.6387-6.0789.172-11.7104-.4703-17.4223-5.3448-5.9298-5.0581-12.7427-8.1663-19.9112-9.7606-35.4984-7.8911-64.3902-6.0903-90.9767,3.0394-.8602.2982-1.6975.5849-2.5348.8946-.8143.2867-1.6172.5735-2.4086.8717-.4932.1835-.9864.367-1.4681.5505-.5505.2064-1.1011.4244-1.6516.6423-2.2251.8488-4.3814,1.7434-6.4688,2.6724-.7341.3211-1.4566.6423-2.1792.9749-.0688.0344-.1376.0688-.2064.0918-.5505.2523-1.1011.5161-1.6401.7799-.4817.2179-.952.4473-1.4108.6882-.5505.2638-1.1011.5391-1.6401.8258-.5964.2867-1.1699.5964-1.7434.9061-1.147.6079-2.271,1.2387-3.3606,1.881-.5505.3097-1.0896.6423-1.6172.9749-.6538.39-1.3075.8029-1.9498,1.2273-.3441.2179-.6767.4358-1.0093.6652-1.0781.7111-2.1219,1.4681-3.1197,2.2251-.4473.3326-.8832.6652-1.319,1.0093-.3785.2867-.757.5964-1.1126.9061-.0688.0574-.1376.1147-.2064.1835-.4473.3556-.8717.7226-1.2961,1.1126,0,0-.0229.0115-.0344.0229-.4014.367-.8029.7341-1.1928,1.1011-.4014.3785-.7914.757-1.1814,1.147-.3785.39-.757.7799-1.124,1.1814-.3785.39-.7341.7914-1.0781,1.2043-1.0437,1.2158-1.9957,2.4545-2.8789,3.7391-.2867.4244-.562.8602-.8373,1.2961h0c-.2753.4244-.5276.8488-.757,1.2617-.0115.0229-.0229.0459-.0344.0574-.2523.4473-.4932.8946-.7226,1.3419h0c-4.1405-1.6516-8.2696-3.3032-12.433-4.9319-1.7319-.6882-3.4638-1.3649-5.2072-2.0416-2.5348-.9978-5.081-1.9728-7.6273-2.9592-4.5305-1.7434-9.0724-3.4753-13.6259-5.1843-2.6036-.9864-5.2187-1.9613-7.8337-2.9247-2.6151-.9749-5.2187-1.9498-7.8452-2.9018-15.7133-5.7692-31.5414-11.332-47.4841-16.7227-1.4681-.5047-2.9247-.9978-4.3929-1.491-1.2961-.4358-2.6036-.8717-3.8997-1.3075-2.5692-.8602-5.1269-1.709-7.6961-2.5462-2.6609-.8832-5.3334-1.7663-8.0058-2.638.0573-.8258.1262-1.6516.195-2.466.0803-1.0093.1606-2.0072.2523-3.0165.0688-.8488.1491-1.6975.2294-2.5462.1032-1.2273.2179-2.4545.3441-3.6703.5964-6.3197,1.2961-12.5936,2.076-18.8101.2753-2.1104.5505-4.2093.8258-6.3197.0573-.3785.1147-.757.172-1.147.2065-1.5484.4358-3.0968.6538-4.6452.2065-1.3305.4129-2.6724.6194-4.0029.0688-.4473.1376-.8832.2065-1.3419.1376-.9061.2867-1.8237.4358-2.7412.5161-3.1427,1.0552-6.2739,1.6287-9.4051.2523-1.4337.5161-2.8789.8029-4.3126.0459-.2982.1032-.5964.172-.8946.1835-.9749.367-1.9498.562-2.9247.195-.9634.39-1.9384.5964-2.9018.4932-2.466,1.0323-4.9319,1.5713-7.3979.2294-1.0552.4703-2.1219.7111-3.1771.9634-4.2437,1.9957-8.4875,3.0968-12.7198,26.9879-20.0832,67.4526-39.6159,111.0141-53.6432,2.7068-.8717,5.4481-1.7204,8.1778-2.5462,1.8925-.5735,3.785-1.147,5.6889-1.686,4.2896-1.2502,8.6022-2.4316,12.9033-3.5556,1.6631-.4244,3.3262-.8488,5.0007-1.2617,5.9183-1.491,11.8481-2.8445,17.7664-4.0488.7685-.172,1.5369-.3211,2.3054-.4703,1.686-.3441,3.3606-.6652,5.0466-.9864,1.6516-.3097,3.3032-.6079,4.9549-.8946,7.7305-1.3534,15.3807-2.466,22.9277-3.3032,1.2043-.1262,2.3971-.2523,3.59-.367,1.1928-.1147,2.3742-.2409,3.567-.3326,1.1928-.1147,2.3742-.2065,3.5556-.2982,8.3843-.6423,16.585-.9176,24.5105-.7914h0c40.2353.6194,84.0032,8.499,125.0414,21.884,20.1177,6.5606,39.5357,14.4402,57.52,23.4324,17.9729,8.9922,34.512,19.0969,48.8719,30.0962l.0459.0459c7.8681,33.9844,12.5133,67.1773,15.2087,102.389,2.7757,36.3242,3.4868,74.472,3.4982,117.6779h0Z" style="fill: url(#_未命名的渐变_2);"/>
      <path d="M153.4498,244.5239c.0688-.8258.1376-1.6516.2065-2.466-.0688.8143-.1376,1.6401-.195,2.466h-.0115Z" style="fill: none;"/>
      <path d="M375.111,76.6895c8.3728-.6538,16.5735-.929,24.5105-.8029h0c-7.9255-.1147-16.1262.172-24.5105.8029Z" style="fill: none;"/>
      <g>
        <polygon points="365.878 132.5923 355.4063 132.5923 355.4063 97.4495 380.777 97.4495 380.777 105.2947 365.878 105.2947 365.878 111.3162 379.7906 111.3162 379.7906 119.127 365.878 119.127 365.878 132.5923" style="fill: #ffce08;"/>
        <path d="M393.795,127.6489c0,3.4179-2.5577,5.7692-6.0101,5.7692s-5.9527-2.4086-5.9527-5.7692,2.5692-5.8151,6.0215-5.8151,5.9527,2.3857,5.9527,5.8151h-.0115Z" style="fill: #ffce08;"/>
        <path d="M397.4996,115.5141c0-12.3183,10.2997-18.6151,21.8725-18.6151,2.8903,0,7.18.367,9.8409,1.5599l.6538.2982-2.2251,7.5355-.8487-.3097c-2.248-.8258-4.6452-1.1814-7.0309-1.1814-6.6294,0-11.4581,3.4179-11.4581,10.2653s4.886,10.1162,11.5155,10.1162c2.1678,0,4.9434-.3326,6.985-1.0437l.8946-.3097,1.6631,7.4782-.6194.2753c-2.7298,1.1814-7.2946,1.5025-10.2309,1.5025-7.1914,0-14.704-2.1448-18.6151-8.5334-1.6746-2.7298-2.4086-5.861-2.4086-9.038h.0115Z" style="fill: #ffce08;"/>
        <path d="M434.0073,127.8324c0-3.4065,2.5577-5.8151,6.0101-5.8151s5.9527,2.3857,5.9527,5.8151-2.5577,5.7577-6.0101,5.7577-5.9527-2.4086-5.9527-5.7577Z" style="fill: #ffce08;"/>
      </g>
      <path d="M531.1088,417.2558c.5276.3326,1.0667.6538,1.5943.9978-.5276-.3326-1.0667-.6652-1.5943-.9978-4.2667-2.6724-8.5449-5.2989-12.823-7.914h-.0229c-1.904-1.1584-3.8194-2.3283-5.7348-3.4753-.2867-.172-.5735-.3441-.8602-.5161-.1911-.1147-.1988-.1147-.0229,0-28.1578-16.9864-56.568-32.8718-85.2649-47.7938-14.337-7.4667-28.7543-14.6811-43.2518-21.6546-34.0647-16.4245-68.5881-31.5872-103.6277-45.6834h0c.2409-.4588.4703-.9061.7226-1.3419,0-.0229.0229-.0344.0344-.0574.2409-.4244.4932-.8488.757-1.2617h0c.2753-.4473.5505-.8717.8488-1.3075.8717-1.2731,1.8237-2.5233,2.8674-3.7276.3441-.4129.7111-.8143,1.0781-1.2043s.7455-.7914,1.1355-1.1814c.3785-.3785.7799-.7685,1.1814-1.147.3785-.3785.7914-.7341,1.1928-1.1011l.0344-.0344c.4244-.3785.8488-.7455,1.2846-1.1126.0688-.0688.1376-.1262.2064-.172.367-.3097.7455-.6079,1.124-.9176.4358-.3441.8602-.6767,1.3075-1.0093.9978-.757,2.0416-1.5025,3.1312-2.2251.3326-.2294.6652-.4473,1.0093-.6652.6423-.4244,1.2846-.8373,1.9498-1.2273.5276-.3326,1.0667-.6538,1.6172-.9749,1.0896-.6423,2.2136-1.2617,3.3606-1.881.5735-.3097,1.147-.6193,1.7434-.9176.5391-.2867,1.0896-.562,1.6401-.8258.4588-.2409.929-.4588,1.4108-.6882.5391-.2638,1.0781-.5161,1.6287-.7799.0688-.0344.1491-.0574.2179-.1032.7226-.3211,1.4452-.6538,2.1678-.9749,2.0989-.929,4.2437-1.8122,6.4688-2.6724.5505-.2179,1.0896-.4358,1.6516-.6423.4817-.1835.9749-.3785,1.4681-.5505.7914-.2982,1.6057-.5849,2.4086-.8717.8373-.3097,1.686-.5964,2.5348-.8946,26.5865-9.1298,55.4784-10.9305,90.9767-3.0394,7.1685,1.5943,13.9814,4.6911,19.9112,9.7491,5.7119,4.8746,11.3434,5.5169,17.4223,5.3448,7.6732-.2294,18.9248,1.4681,27.3779,7.6387,11.4237,8.3728,21.7349,24.1893,29.6718,40.155,15.0825,30.3371,19.4065,62.4977,18.2481,95.0369-.0344.9978-.0803,1.9843-.1261,2.9821-.0229.5391-.0459,1.0781-.0803,1.6287l.0229.0115Z" style="fill: none;"/>
      <path d="M541.0988,423.5412c7.1226,4.5075,14.2223,9.1069,21.322,13.775-7.0997-4.6681-14.1993-9.256-21.322-13.775Z" style="fill: none;"/>
      <path d="M513.0672,317.5966c-7.937-15.9657-18.2481-31.7822-29.6833-40.155-8.4531-6.1821-19.7047-7.8681-27.3779-7.6387-6.0789.172-11.7104-.4703-17.4223-5.3448-5.9298-5.0581-12.7427-8.1663-19.9112-9.7606-35.4984-7.8911-64.3902-6.0903-90.9767,3.0394-.8602.2982-1.6975.5849-2.5348.8946-.8143.2867-1.6172.5735-2.4086.8717-.4932.1835-.9864.367-1.4681.5505-.562.2064-1.1011.4244-1.6516.6423-2.2251.8488-4.3814,1.7434-6.4688,2.6724-.7341.3211-1.4566.6423-2.1792.9749-.0688.0344-.1376.0688-.2064.0918-.5505.2523-1.1011.5161-1.6401.7799-.4817.2179-.952.4473-1.4108.6882-.5505.2638-1.1011.5391-1.6401.8258-.5964.2867-1.1699.5964-1.7434.9061-1.147.6079-2.271,1.2387-3.3606,1.881-.5391.3211-1.0896.6423-1.6172.9749-.6538.39-1.3075.8029-1.9498,1.2273-.3441.2179-.6767.4358-1.0093.6652-1.0781.7111-2.1219,1.4681-3.1197,2.2251-.4473.3326-.8832.6652-1.319,1.0093-.367.2982-.757.6079-1.1126.9061-.0688.0574-.1376.1147-.2064.1835-.4473.3556-.8717.7341-1.2961,1.1126,0,0-.0229.0115-.0344.0229-.4014.367-.8029.7341-1.1928,1.1011-.4014.3785-.7914.7685-1.1814,1.147-.3785.4014-.757.7914-1.124,1.1814-.3785.39-.7341.7914-1.0781,1.2043-1.0437,1.2158-1.9957,2.4545-2.8789,3.7391-.2867.4358-.562.8602-.8373,1.2961h0c-.2753.4244-.5161.8488-.757,1.2617-.0115.0229-.0229.0459-.0344.0574-.2523.4473-.4932.8946-.7226,1.3419h0c-4.1405-1.6516-8.2696-3.3032-12.433-4.9319-1.7319-.6882-3.4753-1.3649-5.2072-2.0416-2.5348-.9978-5.081-1.9728-7.6273-2.9592-4.5305-1.7434-9.0724-3.4753-13.6259-5.1843-2.6036-.9864-5.2187-1.9613-7.8337-2.9247-2.6036-.9749-5.2301-1.9384-7.8452-2.9018-15.7133-5.7692-31.5414-11.332-47.4841-16.7227-1.4681-.5047-2.9247-.9978-4.3929-1.491-1.2961-.4358-2.6036-.8717-3.8997-1.3075-2.5692-.8602-5.1269-1.709-7.6961-2.5462-2.6609-.8832-5.3334-1.7663-8.0058-2.638h-.0115c-.0344.39-.0573.7799-.0918,1.1814-.0344.39-.0688.7799-.0918,1.1699-.172,2.2251-.3326,4.4617-.4932,6.7097-2.4889,36.4962-2.7527,74.9308-2.7642,118.2055v1.319c2.638.8717,5.276,1.7434,7.9255,2.6265,2.7183.9061,5.448,1.8237,8.1663,2.7527,2.5807.8831,5.1728,1.7778,7.7534,2.6724,2.4086.8373,4.8287,1.6745,7.2373,2.5348,2.7183.952,5.4366,1.9269,8.1663,2.9133,1.0781.3785,2.1563.7799,3.2459,1.1699.5391.195,1.0781.39,1.6172.585,1.491.5391,2.9936,1.0896,4.4961,1.6516.5964.2064,1.1928.4244,1.7893.6538.7914.2867,1.5943.585,2.4086.8946.3211.1261.6423.2409.9634.367,1.7319.6308,3.4638,1.2846,5.1957,1.9269,1.1814.4473,2.3742.8946,3.567,1.3534,1.2961.4817,2.5921.9864,3.8882,1.4796,1.7204.6538,3.4409,1.319,5.1728,1.9957,1.8351.7111,3.6703,1.4222,5.5169,2.1448.8602.3441,1.709.6767,2.5692,1.0208.0688.0229.1262.0459.195.0688.9176.367,1.8351.7226,2.7527,1.0896.9864.39,1.9728.7799,2.9592,1.1814.2753.0917.5505.2064.8258.3211.1262.0459.2523.1032.39.1491,1.4222.562,2.8559,1.1355,4.2896,1.7204.6194.2523,1.2502.5047,1.8695.757,1.147.4588,2.2939.929,3.4409,1.4108.5391.2179,1.0667.4358,1.6057.6538h.0115c2.076.8487,4.152,1.6975,6.228,2.5692.6079.2523,1.2272.5047,1.8466.7685,1.3305.5506,2.6724,1.1126,4.0144,1.686.4703.195.9405.39,1.4108.585,1.2272.5161,2.4545,1.0437,3.6817,1.5598.5161.2179,1.0437.4473,1.5599.6652.2638.1147.5391.2294.8143.3441.5047.2064,1.0208.4244,1.5255.6423-.1147-.1835-.2065-.3785-.2982-.6079-.0344-.0803-.0574-.172-.0918-.2638-.0344-.1032-.0688-.2294-.0918-.3441-.0803-.3211-.1376-.6652-.172-1.0552-.0115-.172-.0229-.3441-.0344-.5276-.1376-4.2552,3.1771-5.0352,4.9778-6.6179,0,0,.0115,0,.0115-.0115,0,.0229,0,.0344.0229.0459.0574.172.1147.3441.172.4932.4244,1.0437.9405,1.881,1.5484,2.5692,2.0989,2.3971,5.2072,2.8789,8.5563,3.4409.6423.1147,1.3075.2294,1.9498.3556,4.1979.8373,8.5678.9864,12.6395,2.3054,5.3448,1.7434,9.4395,5.1613,12.433,9.3936.6996.9749,1.2043,1.9384,1.5599,2.9477.0688.172.1376.3441.1835.5161.6079,1.9728.7111,4.1749.5964,7.0309.7226.3326,1.4452.6767,2.1678,1.0093.6996.3326,1.3878.6652,2.0875.9978,1.904.8831,3.8079,1.7778,5.7118,2.6839,1.6516.7914,3.3262,1.5828,4.9893,2.3857.6882.3326,1.3878.6652,2.0875.9978.0229.0229.0574.0344.0803.0459.7799.367,1.5484.7455,2.3283,1.124,3.5097,1.6975,7.0194,3.4065,10.5405,5.1498.5047.2523,1.0093.4932,1.514.7455,1.1699.585,2.3398,1.1584,3.5097,1.7434,4.7369,2.3627,9.4739,4.7484,14.2338,7.18.2982.1491.6079.3097.9061.4588.9864.5047,1.9613,1.0093,2.9477,1.514.6996.367,1.4108.7341,2.1219,1.0896.1606.0917.3326.172.5047.2753.1491.0688.2982.1491.4588.2294.8488.4358,1.709.8831,2.5692,1.342,1.1584.5964,2.3169,1.2043,3.4753,1.8122,1.0437.5391,2.0875,1.0896,3.1427,1.6401,1.2387.6538,2.4889,1.3075,3.7391,1.9728,2.2251,1.1699,4.4617,2.3627,6.7097,3.567.39.2064.7914.4244,1.1814.6423.1147.0573.2409.1261.3556.1835,1.1011.585,2.2022,1.1814,3.3147,1.7778.3785.2179.7685.4244,1.147.6308.6882.3556,1.3649.7341,2.053,1.1011.8602.4588,1.709.929,2.5692,1.3993.6423.3556,1.2961.7111,1.9384,1.0667.367.1835.7226.3785,1.0781.585,1.6516.9061,3.3147,1.8237,4.9778,2.7298.5391.2982,1.0781.5964,1.6172.8946,1.8237,1.0093,3.6473,2.0301,5.4825,3.0624,2.2022,1.2158,4.4043,2.4545,6.618,3.7047,2.2022,1.2502,4.4158,2.5004,6.6179,3.762,4.0832,2.3283,8.1893,4.6911,12.3069,7.0882.6308.367,1.2731.7455,1.9154,1.124,2.8215,1.6401,5.6545,3.3147,8.499,4.9893.6079.367,1.2158.7226,1.8351,1.1011,1.124.6652,2.248,1.3305,3.3721,2.0072h0c1.7434,1.0323,3.4753,2.076,5.2186,3.1312h0c.0573.0459.1147.0803.172.1032,5.1842,3.1197,10.38,6.2739,15.5872,9.4853-.39,4.7599-.7914,9.5197-1.1814,14.2796-.1835,2.2939-.367,4.5993-.562,6.8932-.3326,4.0029-.6538,8.0058-.9864,11.9972-.3211,4.0144-.6538,8.0172-.9978,12.0201-.3326,4.0144-.6652,8.0172-1.0093,12.0431-.0573.6423-.1147,1.2961-.172,1.9498-.0573.6423-.1147,1.2961-.1835,1.9498-.1376,1.3075-.2753,2.6265-.4358,3.9455-.107.8793-.107.8831,0,.0115-.3211,2.6265-.6882,5.276-1.124,7.8796h0c-.8602,5.2301-1.9728,10.2997-3.4179,14.8416-1.8237,5.7577-3.6359,11.2631-5.5169,16.5277-4.1405,11.5957-8.6022,22.0101-14.3141,31.3579-.562.9176-1.1355,1.881-1.7319,2.8904-.3556.5964-.7226,1.2043-1.0896,1.8237-.6767,1.1355-1.3764,2.3169-2.1219,3.5441-.2982.5047-.6079,1.0208-.9176,1.537-.0229.0344-.0459.0688-.0573.0918-.1261.2064-.2523.4129-.39.6308-.4932.8144-.9978,1.6401-1.5369,2.4889-.0115.023-.0229.0459-.0344.0573l-.0344.0688c-.2179.3441-.4244.6881-.6538,1.0323-.5391.8602-1.0896,1.7319-1.6745,2.6265-.172.2753-.3556.562-.5391.8373-.0917.1261-.172.2523-.2523.3785-.4358.6653-.8831,1.3419-1.342,2.0187-.2179.3212-.4358.6538-.6652.9749-.3097.4588-.6308.9176-.952,1.3878-.2753.39-.5506.7914-.8373,1.1928-5.8609,8.3154-13.3735,17.6058-23.4668,27.3091-.39.3785-.7799.757-1.1814,1.1355-1.6631,1.5713-3.4065,3.1656-5.2072,4.7599-.7914.7111-1.6057,1.4107-2.4315,2.1333.0459.0344.0918.0573.1376.0803,2.2825-1.2846,4.5649-2.5921,6.8588-3.9226l.0229-.023.0115-.0115c.5276-.4473,1.0323-.8602,1.5369-1.2502.1606-.1261.3211-.2409.4932-.3556.172-.1261.3326-.2409.4932-.3441,49.388-34.7413,73.6003-78.796,80.2412-130.6385.2638-2.0416.5161-4.0717.7455-6.1018.3211-2.6839.6079-5.3563.8831-8.0172.172-1.5369.3326-3.0853.4703-4.6222.4588-4.6222.8602-9.1871,1.2273-13.7291.1261-1.5254.2409-3.0394.3556-4.5534.2409-3.028.4703-6.0445.6882-9.061.0344-.4358.0688-.8831.0917-1.3075.0229-.2638.0459-.5161.0573-.7685.172-2.3283.3326-4.6566.5047-6.9965.1147-1.7319.2409-3.4638.3785-5.2072.2982-4.3355.6194-8.7054.9634-13.1212.195-2.5807,2.1792-4.5075,4.4158-6.1706.9864-.7226,1.9498-1.5254,2.8903-2.3627.2867-.2638.5735-.5276.8602-.8029.5161-.5047,1.0437-1.0323,1.5484-1.5713.2753-.2867.5506-.5964.8258-.8946.1376-.1491.2753-.3097.4129-.4703.2294-.2638.4588-.5276.6767-.7914.3441-.4014.6767-.8143,1.0093-1.2387.2179-.2753.4358-.562.6538-.8487.2753-.3556.5391-.7111.7914-1.0896.5276-.7226,1.0552-1.4796,1.5598-2.2595.2523-.3785.4932-.757.7341-1.147.7455-1.1814,1.4566-2.4086,2.1448-3.6703.1491-.2638.2982-.5391.4473-.8143,1.4452-2.7068,2.7986-5.5857,4.0373-8.6022.3441-.8717.6996-1.7548,1.0323-2.638,1.1928-3.0968,2.271-6.3198,3.2574-9.6344.2294-.7685.4588-1.5484.6652-2.3283.0688-.2409.1376-.4703.2064-.7111.2064-.7341.4014-1.4681.585-2.2136.2294-.8258.4358-1.6631.6308-2.5118.1606-.6652.3326-1.3305.4817-1.9957.7226-3.1541,1.3878-6.3427,1.9613-9.5771.3441-1.9154.6652-3.8308.952-5.7577.2179-1.3305.4014-2.661.5735-4.0029.1147-.7455.2064-1.5025.2982-2.271.172-1.4108.3441-2.833.4932-4.2667.0917-.8143.1606-1.6172.2294-2.4201.1032-.8487.172-1.6745.2409-2.5233.0688-.7111.1261-1.4108.172-2.1219.0803-.9405.1491-1.881.2064-2.8215.0688-.8831.1147-1.7778.1606-2.661.0115-.1491.0229-.2982.0344-.4358h0c.0229-.562.0573-1.1011.0803-1.6516.0459-.9978.0803-1.9843.1261-2.9821,1.1584-32.5277-3.1656-64.6999-18.2481-95.037h.023ZM512.6428,405.6257c.2409.0803.4703.172.6996.2638.4588.1835.9061.39,1.3305.6194.2179.1147.4244.2294.6308.3556.2753.1606.5506.3441.8029.5391.2638.1835.5161.3785.757.585.2523.2064.4932.4244.7226.6538.2409.2064.4588.4473.6767.6882-1.904-1.1584-3.8194-2.3283-5.7348-3.4753-.2753-.172-.5506-.3326-.8143-.5047.3211.0803.6194.172.929.2753h0ZM503.88,453.2933c-1.709,1.5369-3.9685,2.3283-5.9871,3.4065-1.9384,1.0208-2.7871,2.3857-4.2438,3.4982-1.3075.9864-1.514,2.638-2.5807,3.6817-1.0437,1.0323-2.1448,1.2387-3.3262,1.2502-1.2846,0-2.9018-.5276-4.0946-1.0208-1.686-.6767-1.491-2.5233-.6079-3.6359,1.4222-1.7663,3.1656-3.5556,4.7025-5.2072,1.4566-1.5369,3.0738-2.6954,4.6681-4.1864,1.8581-1.7434,2.6495-4.4846,3.0853-6.9965.39-2.3283-.9061-4.9205-2.3971-6.9965-1.2043-1.686-2.6495-3.1656-4.4846-4.152-.5506-.2982-1.2617-1.2731-.0803-1.8466,3.2574-1.5713,6.6638-3.2688,10.2767-3.395,2.638-.1032,5.4136.9978,7.4667,2.661,2.0531,1.686,3.5785,4.2323,4.1864,6.8244.6767,2.8674.3441,6.1592-.7685,8.9348-1.1699,2.8445-3.5212,5.1154-5.8151,7.18h0ZM404.9434,421.4308c-3.2229-.9634-6.6868-1.3764-10.0473-.9749-.929.1147-1.9269,1.7204-1.3763,2.4889,1.2502,1.7434,3.5097,2.466,5.5742,3.0738,4.6911,1.4108,9.1986,2.6151,13.2244,5.0237,1.0552.6308,2.6151,2.4545.7455,3.6015-4.3126,2.5921-9.428,3.9111-14.3828,4.5993-.7341.1032-1.5369-.3556-2.0301-.9176-2.1907-2.4774-4.7943-5.1154-8.476-6.2739-.6882-.2064-1.4222.7111-1.6631,1.3878-1.709,4.9434-5.4595,6.9276-10.1391,6.5377-4.2552-.3441-8.5563-5.1613-7.742-8.6595.1262-.5161-.9061-.929-1.4337-.7799-4.2323,1.2961-6.0789,4.9663-7.7305,8.843-.2638.6194-.6767,1.8351-1.2961,1.5598-3.5441-1.5713-6.8932-3.7391-9.6803-6.4344-.6423-.6194.9634-2.1104.2753-2.6724-1.5828-1.3075-4.0488-.952-5.8495-1.9384-2.0989-1.147-5.2187-2.0645-5.6774-4.4272-.562-2.9018.7341-6.6982,3.2229-8.281,9.5771-6.0789,26.1621-8.2007,40.8432-8.8889,15.7133-.7341,32.6539,2.7412,42.3572,12.8574.7226.7455,1.0781,1.7319.0917,2.0645-7.0079,2.3168-12.5821.0459-18.8101-1.7893h0Z" style="fill: #fff; fill-rule: evenodd;"/>
      <path d="M444.4217,569.6637c-2.6954-3.9685-7.3635-5.0007-11.894-3.4065-8.0058,2.833-15.8051,6.5377-23.8567,10.3685-1.6057.7685-3.2344,1.5369-4.8631,2.3054-1.6401.7685-3.2803,1.5369-4.9434,2.2939-.8373.39-1.6746.7685-2.5118,1.1355-.8373.367-1.686.7455-2.5348,1.1126-.6538.2867-1.2846.562-1.904.8373-1.8695.8258-3.6473,1.5943-5.3907,2.3283-1.1584.4817-2.3169.952-3.4982,1.4108-5.8724,2.248-12.1692,4.0029-22.0216,5.1957-4.2437.5161-8.304.7914-12.5362.585-2.8559-.1376-5.8036-.4932-8.9463-1.1355-.8946-.1835-1.8007-.3785-2.6954-.5964-2.6954-.6308-5.3907-1.3878-8.0631-2.3742-.8946-.3211-1.7893-.6767-2.6724-1.0667-.8946-.3785-1.7778-.7914-2.6724-1.2387-.8832-.4473-1.7663-.9176-2.6495-1.4452-.8717-.5161-1.7548-1.0667-2.6265-1.6631,12.1004,17.2732,41.6919,29.0868,70.3315,25.5083,1.491-.1835,2.9706-.4129,4.4502-.6767,2.9706-.5276,5.9183-1.2158,8.8201-2.0416.7341-.2064,1.4566-.4244,2.1792-.6423,3.6014-1.1126,7.1226-2.4201,10.5061-3.8997,1.3534-.5964,2.6839-1.2158,3.9914-1.8466,7.1914-3.5212,13.6029-7.7534,18.6496-12.261.929-.8143,1.8007-1.6516,2.6151-2.4889,2.0531-2.0875,3.8079-4.2208,5.1957-6.3542,1.881-2.8903,1.881-6.4803-.4588-9.9441h0ZM510.4635,437.1785c-.6079-2.5921-2.1333-5.1384-4.1864-6.8244-2.0531-1.6631-4.8287-2.7642-7.4667-2.661-3.6129.1261-7.0194,1.8237-10.2767,3.395-1.1814.5735-.4703,1.5484.0803,1.8466,1.8351.9864,3.2803,2.466,4.4846,4.152,1.491,2.076,2.7871,4.6681,2.3971,6.9965-.4358,2.5118-1.2273,5.2531-3.0853,6.9965-1.5943,1.491-3.2115,2.6495-4.6681,4.1864-1.5369,1.6516-3.2803,3.4409-4.7025,5.2072-.8831,1.1126-1.0781,2.9591.6079,3.6359,1.1928.4932,2.8101,1.0208,4.0946,1.0208,1.1814-.0115,2.2824-.2179,3.3262-1.2502,1.0667-1.0437,1.2731-2.6954,2.5807-3.6817,1.4566-1.1126,2.3054-2.4774,4.2438-3.4982,2.0187-1.0781,4.2782-1.8695,5.9871-3.4065,2.2939-2.0645,4.6452-4.3355,5.8151-7.18,1.1126-2.7757,1.4452-6.0674.7685-8.9348h0ZM358.8586,550.7733c-.2064-.4817-.6079-.929-1.2731-1.319-2.6954-1.5828-6.3312-1.4681-9.4853-.9634-2.7183.4244-5.4022,1.342-7.9828,2.3054-4.0373,1.491-10.9649,2.3398-12.4445,2.0187-.5735-.1261-1.124-.2179-1.6516-.2638-3.59-.4014-5.9527.7341-6.8703,2.4774-.2638.5047-.4014,1.0667-.4129,1.6516-.0803,3.5785,3.0165,5.2186,5.666,6.0789.7799.2523,1.5369.4588,2.2939.6423.1606.0344.3326.0688.5047.1032,1.0667.2409,2.1219.4014,3.1771.5047,2.1678.2409,4.324.2294,6.5606.1376,4.519-.195,9.1757-1.5828,13.4997-3.3147,3.1083-1.2502,5.7921-4.0602,7.742-6.9047.1147-.172.2294-.3556.3326-.5391.2523-.4588.4473-.952.5047-1.4452.0459-.39,0-.7914-.1606-1.1699ZM373.597,531.6764c-.195-.1606-.4014-.2982-.6079-.4129-.2179-.1261-.4358-.2294-.6652-.3097-.2179-.0917-.4588-.1606-.6882-.2064-.1147-.0344-.2294-.0459-.3441-.0688-1.7319-.2523-3.5441.1147-5.3448.5276-.8373.1835-1.6631.3785-2.4889.5276-.6767.1147-1.3993.2409-2.1792.367-3.6932.5735-8.2925,1.0323-11.8366.2867-4.7599-1.0093-9.623-1.9498-14.4746-2.3513-4.2781-.3556-6.3083.367-8.5678,1.514-1.6401.8487-3.2803,2.1678-5.1154,2.0875-.4817-.0229-.9061-.0803-1.3075-.1606-.39-.0803-.7455-.195-1.0896-.3211-.3441-.1376-.6652-.2867-.9864-.4588-.3326-.172-.6538-.367-.9978-.585-1.6172-1.0093-3.0394-.9405-4.6108-.929-2.1678.0229-4.0946.8946-5.6316,2.1907-.172.1491-.3441.2982-.5047.4588-.9749.9176-1.7663,2.0187-2.3398,3.1656-.6079,1.2158-.952,2.0416-.6767,2.7298.0574.172.1606.3326.3097.4817.4244.4703.8946.7914,1.3993,1.0552.8373.4358,1.7548.6652,2.6495.9749,1.2731.4358,2.8559.3441,3.8767-.4588.195-.1606.39-.2867.5964-.39.1147-.0573.2294-.1147.3326-.1491.3211-.1376.6538-.2179.9864-.2753.4358-.0688.8717-.0688,1.3075-.0115,1.8122.2179,3.4638.6652,5.1613,1.1928.367.1147.7226.2064,1.0896.2982.1032.0229.195.0459.2867.0573.3441.0803.6767.1376,1.0208.195,1.1928.195,2.4086.2409,3.6473.1835,2.9247-.1491,5.8495-.8258,8.5219-1.6516,2.8445-.8946,5.8839-1.3993,8.8545-.8258,3.6932.6996,7.1685.7914,10.7814.8258,5.7577.0459,11.6531-.0344,17.0553-1.9384.2409-.0803.4817-.1835.7111-.2867.8373-.39,1.6516-.929,2.2595-1.5828.1835-.195.3326-.39.4817-.5964.2064-.3097.367-.6308.4703-.9749.0688-.2179.1147-.4588.1262-.6996.0918-1.5713-.5391-2.7298-1.4681-3.4753h0ZM355.888,497.2562c-.1262-.8143-.3556-1.4337-.7111-1.9154-.0688-.1032-.1491-.195-.2294-.2753-.8029-.8602-2.0645-1.1928-3.8538-1.3993-1.4796-.172-2.7642.3556-4.0144.952l-.6538.3097c-.3326.1606-.6538.3097-.9864.4473-.1147.0459-.2179.0917-.3326.1376-.2982.1147-.6079.2179-.9061.3211-.5964.195-1.1928.3785-1.8007.5276-.5964.1491-1.1928.2638-1.8007.3556-2.3857.367-4.8631.2638-7.6617-.3785-5.1498-1.1814-9.061-.7341-12.2151.7111-.5161.2409-1.0208.5047-1.5025.7914-.3211.195-.6308.4014-.9405.6194-.4932.3441-.9978.6538-1.5025.9061-2.6495,1.3534-5.5857,1.5369-10.2309.5506-.1376-.0344-.2867-.0229-.4244.0115-.1147.0344-.2179.0917-.2867.1606-.1032.0917-.1491.2179-.0918.3441.0459.1032.1491.2064.3441.2982,14.5205,8.7283,29.5571,9.6574,45.1901,2.9706,1.3763-.5964,2.8789-1.2158,3.8079-2.4086.1835-.2294.3441-.4932.4817-.7799s.2409-.5964.3097-.9405c.0803-.3441.1147-.7111.1147-1.124,0-.367-.0344-.7685-.1032-1.1928h0ZM312.4756,430.6638c-.0574-.172-.1147-.3441-.1835-.5161-.3556-1.0093-.8602-1.9728-1.5599-2.9477-2.9936-4.2323-7.0882-7.6502-12.433-9.3936-4.0717-1.319-8.4416-1.4681-12.6395-2.3054-.6423-.1261-1.3075-.2409-1.9498-.3556-3.3491-.562-6.4574-1.0437-8.5563-3.4409-.6079-.6882-1.124-1.5254-1.5484-2.5692-.0574-.1491-.1147-.3211-.172-.4932-.0115-.0115-.0115-.0229-.0229-.0459,0,.0115-.0115.0115-.0115.0115-1.8007,1.5828-5.1154,2.3627-4.9778,6.6179.0115.1835.0229.3556.0344.5276.0344.39.0918.7341.172,1.0552.0229.1147.0574.2409.0918.3441.0344.0917.0574.1835.0918.2638.0918.2294.1835.4244.2982.6079h0v.0229h.0115s.0459.0803.0688.1147c.1262.1835.2753.3556.4358.4817.0229.0229.0459.0459.0803.0573.0344.0344.0803.0573.1147.0917.195.1376.4014.2409.6308.3097,3.1197.952,5.5513,2.0416,7.9714,3.2459.9634.4703,1.9269.9634,2.9247,1.491,0,0,.0115-.0115.0115,0,.4932.2638.9978.5276,1.5255.7914.1491.0688.3441.1835.562.3097.9634.585,2.271,1.6631.7341,2.076-.9749.2638-1.7778.6079-2.443,1.0437-.3326.2179-.6193.4473-.8946.7111-1.3305,1.2961-1.9269,3.1885-2.4201,5.8036-.1491.7685-.4014,1.709-.5735,2.6495-.0229.1032-.0459.2179-.0574.3326-.0344.1376-.0574.2867-.0688.4358-.0574.4932-.0803.9634-.0344,1.4108,0,.0344.0115.0688.0344.1032.172.2179.7799.2638,1.1355-.2638,2.5692-3.9455,5.8495-6.1821,9.7033-6.9276,1.1699-.2294,1.9728.1835,2.1219,1.4681.1147,1.0552.0229,1.9154.2294,2.8101.0574.2294.1262.4588.2294.6882.2523.5964.6882,1.2273,1.4222,1.9613.1376.1491.2982.2982.4703.4588,1.4566,1.342,4.2552,2.2595,6.2165,2.0072.2409-.0344.4932-.0803.7341-.1376s.4932-.1376.7341-.2294c.1262-.0344.2409-.0917.3556-.1491.2409-.0917.4703-.2064.6996-.3326.0115,0,.0229-.0229.0229-.0229.562-.3097,1.0896-.6882,1.5369-1.124.3556-.3441.6652-.7341.8946-1.1355.1376-.2409.2294-.4932.3097-.7685.0803-.2638.1262-.5391.1606-.8258.0688-.562.0918-1.147.1491-1.6975.0115-.172.1147-.367.2753-.5276.0344-.0459.0688-.0803.1147-.1147.195-.1491.4473-.2294.7111-.1261.0803.0229.1606.0688.2409.1376h0c.0803.0688.1606.1491.2294.2409.5047.585.9176,1.5828,1.5943,2.1104,1.147.9061,2.466,1.6745,3.8652,2.076.4932.1491,1.0208-.0459,1.124-.4014.0229-.0459.0344-.0917.0344-.1376,0-.2753.0229-.562.0229-.8373h0c.1147-2.8674.0115-5.0696-.5964-7.0423l.0114.0002ZM423.6617,421.1555c-9.7033-10.1162-26.6438-13.5915-42.3572-12.8574-14.6811.6882-31.2661,2.8101-40.8432,8.8889-2.4889,1.5828-3.785,5.3792-3.2229,8.281.4588,2.3627,3.5785,3.2803,5.6774,4.4272,1.8007.9864,4.2667.6308,5.8495,1.9384.6882.562-.9176,2.0531-.2753,2.6724,2.7871,2.6954,6.1362,4.8631,9.6803,6.4344.6193.2753,1.0323-.9405,1.2961-1.5598,1.6516-3.8767,3.4982-7.547,7.7305-8.843.5276-.1491,1.5599.2638,1.4337.7799-.8143,3.4982,3.4867,8.3154,7.742,8.6595,4.6796.39,8.4302-1.5943,10.1391-6.5377.2409-.6767.9749-1.5943,1.6631-1.3878,3.6817,1.1584,6.2853,3.7964,8.476,6.2739.4932.562,1.2961,1.0208,2.0301.9176,4.9549-.6882,10.0703-2.0072,14.3828-4.5993,1.8695-1.147.3097-2.9706-.7455-3.6015-4.0258-2.4086-8.5334-3.6129-13.2244-5.0237-2.0645-.6079-4.324-1.3305-5.5742-3.0738-.5505-.7685.4473-2.3742,1.3763-2.4889,3.3606-.4014,6.8244.0115,10.0473.9749,6.228,1.8351,11.8022,4.1061,18.8101,1.7893.9864-.3326.6308-1.319-.0917-2.0645h0ZM513.0672,317.5966c-7.937-15.9657-18.2481-31.7822-29.6833-40.155-8.4531-6.1821-19.7047-7.8681-27.3779-7.6387-6.0789.172-11.7104-.4703-17.4223-5.3448-5.9298-5.0581-12.7427-8.1663-19.9112-9.7606-35.4984-7.8911-64.3902-6.0903-90.9767,3.0394-.8602.2982-1.6975.5849-2.5348.8946-.8143.2867-1.6172.5735-2.4086.8717-.4932.1835-.9864.367-1.4681.5505-.562.2064-1.1011.4244-1.6516.6423-2.2251.8488-4.3814,1.7434-6.4688,2.6724-.7341.3211-1.4566.6423-2.1792.9749-.0688.0344-.1376.0688-.2064.0918-.5505.2523-1.1011.5161-1.6401.7799-.4817.2179-.952.4473-1.4108.6882-.5505.2638-1.1011.5391-1.6401.8258-.5964.2867-1.1699.5964-1.7434.9061-1.147.6079-2.271,1.2387-3.3606,1.881-.5391.3211-1.0896.6423-1.6172.9749-.6538.39-1.3075.8029-1.9498,1.2273-.3441.2179-.6767.4358-1.0093.6652-1.0781.7111-2.1219,1.4681-3.1197,2.2251-.4473.3326-.8832.6652-1.319,1.0093-.367.2982-.757.6079-1.1126.9061-.0688.0574-.1376.1147-.2064.1835-.4473.3556-.8717.7341-1.2961,1.1126,0,0-.0229.0115-.0344.0229-.4014.367-.8029.7341-1.1928,1.1011-.4014.3785-.7914.7685-1.1814,1.147-.3785.4014-.757.7914-1.124,1.1814-.3785.39-.7341.7914-1.0781,1.2043-1.0437,1.2158-1.9957,2.4545-2.8789,3.7391-.2867.4358-.562.8602-.8373,1.2961h0c-.2753.4244-.5161.8488-.757,1.2617-.0115.0229-.0229.0459-.0344.0574-.2523.4473-.4932.8946-.7226,1.3419h0c-.172.3441-.3441.6882-.5047,1.0323v.0229c-.172.3441-.3211.6996-.4703,1.0667-.1491.3441-.2982.6882-.4358,1.0437-.0115.0115-.0115.0344-.0229.0574-.1032.2867-.2179.5735-.3097.8488-.5505,1.5369-.9978,3.1197-1.319,4.7484-2.2022,11.114,1.6057,17.1929,4.7943,21.8954.3785.562.2179,1.3534,0,2.0416-6.962,16.585-8.7054,41.6346-3.3606,67.2117.0459.2064.0918.3785.1376.5276.0803.2179.1491.367.2294.4588.2294.2753.4703.1147.6652-.2064.0574-.0688.1147-.172.1606-.2753.0344-.0917.0803-.2064.1147-.2982.0344-.0803.0574-.172.0803-.2409,0-.0229.0115-.0459.0229-.0688h0c0-.0917.0344-.1835.0459-.2523,1.6516-12.5133,3.4065-23.7421,4.9319-37.2532.757-6.6638,3.0624-15.4036,7.4208-22.6983.2064-.3556.7685-.3441,1.147-.1491,10.4373,5.1728,23.6618,7.4896,36.9206,8.2122,7.547.4129,15.9427.4244,24.7858.0803,1.6631-.0574,3.3377-.1376,5.0122-.2179.3326-.0229.6538-.0459.9864-.0574,1.3878-.0803,2.7986-.1491,4.1979-.2523h0c.8602-.0574,1.7204-.1147,2.5807-.172.8832-.0688,1.7434-.1376,2.6151-.2064,1.8237-.1376,3.6588-.2867,5.5054-.4473,1.6746-.1491,3.3721-.3097,5.0581-.4817.8717-.0918,1.7548-.172,2.638-.2753h.0229c3.2229-.3326,6.4459-.7111,9.6688-1.124.7341-.0803,1.4452-.172,2.1792-.2753.7111-.0803,1.4452-.1835,2.1678-.2753,4.3355-.5849,8.6481-1.2273,12.9033-1.9154.7111-.1147,1.514.1606,2.076.6079,7.8452,6.1362,14.2681,13.6947,14.2337,24.4876v.1606c0,.4817,0,.9634-.0344,1.4566-.0344,1.6287-.1491,3.2803-.3441,4.9549-.4817,4.1864-1.5025,8.5104-3.2574,13.0753-.195.5161-.4014,1.0437-.6308,1.5828-.929,2.2136-2.0301,4.4846-3.3377,6.8129-.5161.9405-.7685,1.7893.0573,2.2136,12.4904,6.5147,27.8367,24.9119,30.4059,36.4733,1.4452,6.5033,2.638,6.8015,2.3168,15.2775-.2638,6.6409-2.3513,25.5772-2.4889,39.788-.0229,1.4566.8258,1.5254,1.5598,1.6975,1.1814.2753,2.3513-.0917,3.5441-.2753,2.1907-.3326,4.519.1261,6.6638.0344,3.3606-.172,6.79-1.2502,9.9786-2.5233.6652-.2638,1.4337-.9405,1.5025-1.6516.1376-1.6516-.562-3.2574-.8373-4.8861-.8717-6.4-1.0323-13.2703-.5506-19.8883.39-5.4251,1.3649-10.942,3.3147-16.023,2.1104-5.471,4.7943-10.4258,8.671-15.0137,7.4323-8.8086,17.147-16.6538,26.2768-15.7477.8373.0917,1.6745.2409,2.4545.4358.52.13.5276.1338.0229.0115h.0344c.3211.0803.6194.172.929.2753.2409.0803.4703.172.6996.2638.4588.1835.9061.39,1.3305.6194.2179.1147.4244.2294.6308.3556.2753.1606.5506.3441.8029.5391.2753.1835.5161.367.757.585.2523.195.4932.4129.7226.6538.2409.2064.4588.4473.6767.6882.0115.0115.0229.0115.0229.0115.195.2409.39.4703.5735.7226.0688.0803.1376.1491.195.2409.195.2523.367.5161.5506.7914.0344.0573.0803.1147.1147.1835.1606.2523.3097.5161.4473.7799.0688.1032.1261.2064.172.3211.1376.2638.2753.5391.39.8143.0229.0344.0459.0803.0573.1261.1261.2753.2409.562.3441.8487.0459.1032.0803.2179.1261.3326.1032.3097.2179.6308.3097.952.0229.0917.0459.172.0688.2638.1147.3556.195.7226.2867,1.0896.1032.4588.1835.9405.2638,1.4337,1.9843,12.6051.4817,27.0797-5.4366,42.0934-4.3126,10.9534-8.4531,19.3148-18.8675,24.866-4.3011,2.2939-7.6043,2.7527-11.5384,2.3971-1.9384-.1835-2.8445-1.1126-4.5305-2.076-.6308-.367-1.491.1147-1.6631,1.881-.4588,4.9893-.9061,9.9786-1.342,14.9678-.2409,2.6151-.4588,5.2416-.6767,7.8567-.4588,5.3333-.9176,10.6667-1.3534,16.0001-.39,4.7599-.7914,9.5197-1.1814,14.2796-.1835,2.2939-.367,4.5993-.562,6.8932-.3326,4.0029-.6538,8.0058-.9864,11.9972-.3211,4.0144-.6538,8.0172-.9978,12.0201-.3326,4.0144-.6652,8.0172-1.0093,12.0431-.0573.6423-.1147,1.2961-.172,1.9498-.0573.6423-.1147,1.2961-.1835,1.9498-.1376,1.3075-.2753,2.6265-.4358,3.9455-.1071.8793-.1071.8832,0,.0115-.3211,2.6265-.6882,5.276-1.124,7.8796h0c-.8602,5.2301-1.9728,10.2997-3.4179,14.8416-1.8237,5.7577-3.6359,11.2631-5.5169,16.5277-4.1405,11.5957-8.6022,22.0101-14.3141,31.3579-.562.9176-1.1355,1.881-1.7319,2.8904-.3556.5964-.7226,1.2043-1.0896,1.8237-.6767,1.1355-1.3764,2.3169-2.1219,3.5441-.2982.5047-.6079,1.0208-.9176,1.537-.0229.0344-.0459.0688-.0573.0918-.1261.2064-.2523.4129-.39.6308-.4932.8144-.9978,1.6401-1.5369,2.4889-.0115.023-.0229.0459-.0344.0573l-.0344.0688c-.2179.3441-.4244.6881-.6538,1.0323-.5391.8602-1.0896,1.7319-1.6745,2.6265-.1835.2753-.367.562-.5506.8373-.6652,1.0208-1.3534,2.076-2.0875,3.1312-.0573.0803-.1032.1606-.1606.2409-.3097.4588-.6308.9176-.952,1.3878-.2753.39-.5506.7914-.8373,1.1928-5.8609,8.3154-13.3735,17.6058-23.4668,27.3091-.39.3785-.7799.757-1.1814,1.1355-1.6631,1.5713-3.4065,3.1656-5.2072,4.7599-.7914.7111-1.6057,1.4107-2.4315,2.1333.0459.0344.0918.0573.1376.0803,2.2825-1.2846,4.5649-2.5921,6.8588-3.9226l.0229-.023.0115-.0115c.5276-.4473,1.0323-.8602,1.5369-1.2502.1606-.1261.3211-.2409.4932-.3556.172-.1261.3326-.2409.4932-.3441,49.388-34.7413,73.6003-78.796,80.2412-130.6385.2638-2.0416.5161-4.0717.7455-6.1018.3211-2.6839.6079-5.3563.8831-8.0172.172-1.5369.3326-3.0853.4703-4.6222.4473-4.6222.8487-9.1871,1.2273-13.7291.1261-1.5254.2409-3.0394.3556-4.5534.2409-3.028.4703-6.0445.6882-9.061.0344-.4358.0688-.8831.0917-1.3075.0229-.2638.0459-.5161.0573-.7685.172-2.3283.3326-4.6566.5047-6.9965.1147-1.7319.2409-3.4638.3785-5.2072.2982-4.3355.6194-8.7054.9634-13.1212.195-2.5807,2.1792-4.5075,4.4158-6.1706.9864-.7226,1.9498-1.5254,2.8903-2.3627.2867-.2638.5735-.5276.8602-.8029.5161-.5047,1.0437-1.0323,1.5484-1.5713.2753-.2867.5506-.5964.8258-.8946.1376-.1491.2753-.3097.4129-.4703.2294-.2638.4588-.5276.6767-.7914.3441-.4014.6767-.8143,1.0093-1.2387.2179-.2753.4358-.562.6538-.8487.2753-.3556.5391-.7111.7914-1.0896.5276-.7226,1.0552-1.4796,1.5598-2.2595.2523-.3785.4932-.757.7341-1.147.7455-1.1814,1.4566-2.4086,2.1448-3.6703.1491-.2638.2982-.5391.4473-.8143,1.4452-2.7068,2.7986-5.5857,4.0373-8.6022.3441-.8717.6996-1.7548,1.0323-2.638,1.1928-3.0968,2.271-6.3198,3.2574-9.6344.2294-.7685.4588-1.5484.6652-2.3283.0688-.2409.1376-.4703.2064-.7111.2064-.7341.4014-1.4681.585-2.2136.2294-.8258.4358-1.6631.6308-2.5118.1606-.6652.3326-1.3305.4817-1.9957.7226-3.1541,1.3878-6.3427,1.9613-9.5771.3441-1.9154.6652-3.8308.952-5.7577.2179-1.3305.4014-2.661.5735-4.0029.1147-.7455.2064-1.5025.2982-2.271.172-1.4108.3441-2.833.4932-4.2667.0917-.8143.1606-1.6172.2294-2.4201.1032-.8487.172-1.6745.2409-2.5233.0688-.7111.1261-1.4108.172-2.1219.0803-.9405.1491-1.881.2064-2.8215.0688-.8831.1147-1.7778.1606-2.661.0115-.1491.0229-.2982.0344-.4358h0c.0229-.562.0573-1.1011.0803-1.6516.0459-.9978.0803-1.9843.1261-2.9821,1.1584-32.5277-3.1656-64.6999-18.2481-95.037l.0002.0113Z" style="fill: #083a63; fill-rule: evenodd;"/>
      <path d="M281.2325,322.9415c-6.962,16.585-8.7169,41.6346-3.3606,67.2117.0344.2064.0918.3785.1376.5276.0688.2179.1491.367.2294.4588.2294.2638.4703.1032.6652-.2064.0574-.0803.1032-.172.1606-.2753.0344-.1032.0803-.2064.1147-.3097.0344-.0803.0574-.172.0803-.2409,0-.0344,0-.0459.0229-.0688-.1032.7799-.2638,1.7204-.4703,2.7757-1.0781,5.7119-3.4065,14.5778-5.3792,15.8395h0v-.0573h0c-1.8007,1.5828-5.1154,2.3627-4.9778,6.6179,0,.1835.0229.3556.0344.5276.0344.3785.0918.7226.172,1.0552.0344.1147.0574.2409.1032.3441.0344.0917.0574.172.0918.2638.0918.2294.1835.4244.3097.6079-.7914-.3326-1.5599-.6652-2.3513-.9864-2.0875-.8946-4.1635-1.7778-6.2509-2.6495-4.1635-1.7548-8.3269-3.4753-12.4904-5.1728-1.686-.6996-3.3721-1.3878-5.0581-2.0645-.6194-.2523-1.2502-.5161-1.8695-.757-1.8351-.7455-3.6817-1.4796-5.5054-2.2022-1.9728-.7914-3.9455-1.5713-5.9068-2.3398-2.6954-1.0781-5.3907-2.1333-8.0861-3.1656-1.7319-.6652-3.4638-1.3305-5.1842-1.9957-4.2323-1.6172-8.4416-3.2115-12.6395-4.7599-1.7204-.6538-3.4409-1.2846-5.1613-1.9154-2.0416-.757-4.0832-1.5025-6.1133-2.2251-3.5556-1.2961-7.1111-2.5692-10.6438-3.8194-10.6667-3.7735-21.2875-7.3864-31.851-10.8502v-1.319c.0229-43.2747.2753-81.7093,2.7756-118.2055.1606-2.2366.3097-4.4846.4932-6.7097.0573-.7914.1147-1.5713.172-2.3513h0c2.6724.8717,5.3448,1.7434,8.0172,2.638,2.5692.8488,5.1269,1.686,7.6846,2.5577,1.2961.4358,2.6036.8602,3.8997,1.3075,1.4681.4932,2.9247.9864,4.3928,1.4796,15.9427,5.3907,31.7707,10.9649,47.4841,16.7341,2.6151.9634,5.2416,1.9269,7.8452,2.9018,2.6151.9634,5.2301,1.9498,7.8337,2.9247,4.5534,1.709,9.0954,3.4409,13.6259,5.1843,2.5462.9864,5.0925,1.9613,7.6273,2.9592,1.7319.6767,3.4753,1.3534,5.1957,2.0416,4.1635,1.6287,8.304,3.2803,12.433,4.9434-.172.3326-.3326.6767-.5047,1.0208v.0344c-.172.3441-.3211.6996-.4703,1.0552-.1491.3441-.2982.6882-.4358,1.0437,0,.0229,0,.0344-.0229.0574-.1032.2867-.2179.5735-.3097.8602-.5505,1.5369-.9978,3.1083-1.319,4.7484-2.2022,11.114,1.6057,17.1929,4.7943,21.8954.3785.562.2179,1.3534,0,2.0416l-.0344-.0115Z" style="fill: #ffce08; fill-rule: evenodd;"/>
      <path d="M461.1902,516.743s-.1147-.0573-.172-.1032h0c-1.7434-1.0552-3.4753-2.0989-5.2186-3.1312h0c-.4244-.2638-.8602-.5161-1.2846-.7799-.6996-.4129-1.3878-.8258-2.0875-1.2273-.6194-.3785-1.2273-.7341-1.8351-1.1011-2.8445-1.6745-5.6775-3.3491-8.499-4.9893-.6423-.3785-1.2846-.757-1.9154-1.124-4.1176-2.3971-8.2237-4.7599-12.3069-7.0882-1.904-1.0896-3.8079-2.1678-5.7004-3.2459-.3097-.172-.6079-.3441-.9176-.5161-2.2136-1.2502-4.4158-2.4889-6.618-3.7047-1.8351-1.0323-3.6588-2.0531-5.4825-3.0624-.5391-.2982-1.0781-.5964-1.6172-.8946-1.6631-.9061-3.3262-1.8237-4.9778-2.7298-.3556-.2064-.7111-.4014-1.0781-.585h0c-.6423-.367-1.2846-.7111-1.9384-1.0667-.8602-.4703-1.709-.9405-2.5692-1.3993-.6882-.367-1.3649-.7455-2.053-1.1011h0c-.39-.2179-.7685-.4244-1.147-.6308-1.1126-.5964-2.2136-1.1928-3.3147-1.7778-.5161-.2867-1.0323-.562-1.5369-.8258-2.248-1.2043-4.4846-2.3971-6.7097-3.567-1.2502-.6652-2.5004-1.319-3.7391-1.9728-.3326-.1835-.6652-.3556-.9978-.5276-.7226-.3785-1.4337-.7455-2.1448-1.1126h0c-1.1699-.6194-2.3283-1.2273-3.4753-1.8122-.8602-.4588-1.7204-.9061-2.5692-1.342-.3211-.172-.6423-.3326-.9634-.5047-.7111-.3556-1.4222-.7226-2.1219-1.0896-.6652-.3441-1.3305-.6767-1.9957-1.0093-.3211-.172-.6308-.3326-.952-.4932-.2982-.1606-.6079-.3097-.9061-.4703-4.7599-2.4315-9.4968-4.8172-14.2338-7.18-1.1699-.585-2.3398-1.1584-3.5097-1.7434-.5047-.2523-1.0093-.4932-1.514-.7455-3.5212-1.7434-7.0309-3.4524-10.5405-5.1498-.7799-.3785-1.5484-.757-2.3283-1.124-.0229-.0115-.0574-.0229-.0803-.0459-.6996-.3326-1.3993-.6652-2.0875-.9978-1.6631-.8029-3.3377-1.5943-4.9893-2.3857-2.6036-1.2387-5.2072-2.466-7.7993-3.6817-.7226-.3326-1.4452-.6767-2.1678-1.0093h0c0,.2867-.0115.562-.0344.8602,0,.0459-.0115.0803-.0229.1261-.1032.3556-.6308.5506-1.124.4014-1.3993-.4014-2.7183-1.1699-3.8652-2.076-.6767-.5276-1.0896-1.5254-1.5943-2.1104-.0803-.0917-.1491-.1606-.2294-.2294-.0803-.0688-.1606-.1147-.2409-.1491-.2638-.1032-.5161-.0229-.7111.1261-.0459.0344-.0803.0688-.1147.1147-.1606.1606-.2638.3556-.2753.5276-.0574.5506-.0803,1.1355-.1491,1.6975-.0344.2867-.0803.562-.1606.8258-.0688.2753-.172.5276-.3097.7685-.2294.4014-.5391.7914-.8946,1.1355-.4358.4358-.9634.8258-1.5369,1.124,0,0,0,.0229-.0229.0229-.2294.1261-.4588.2409-.6996.3326-.1147.0573-.2294.1147-.3556.1491-.2409.0917-.4932.172-.7341.2294-.2409.0573-.4932.1032-.7341.1376-1.9613.2523-4.7599-.6652-6.2165-2.0072-.172-.1606-.3326-.3097-.4703-.4588-.7341-.7455-1.1584-1.3764-1.4222-1.9613-.1032-.2294-.172-.4588-.2294-.6882-.2064-.8946-.1147-1.7548-.2294-2.8101-.1491-1.2846-.952-1.6975-2.1219-1.4681-3.8538.7455-7.1341,2.9821-9.7033,6.9276-.3556.5276-.9634.4817-1.1355.2638-.0229-.0344-.0459-.0688-.0459-.1032-.0459-.4473-.0229-.929.0459-1.4108.0115-.1491.0344-.2982.0688-.4358.0115-.1147.0229-.2179.0574-.3326.172-.9405.4244-1.881.5735-2.6495.4932-2.6151,1.0896-4.5075,2.4201-5.8036.2753-.2638.562-.5047.8946-.7111.6652-.4358,1.4681-.7799,2.443-1.0437,1.5369-.4129.2294-1.491-.7341-2.076-.2179-.1376-.4014-.2523-.5505-.3211-.5276-.2638-1.0323-.5276-1.5369-.7799,0-.0115-.0115,0-.0115,0-.9978-.5276-1.9613-1.0208-2.9247-1.491-2.4201-1.2043-4.8516-2.2939-7.9714-3.2459-.2294-.0688-.4358-.172-.6308-.3097-.0688-.0344-.1376-.0917-.195-.1491-.1606-.1261-.3097-.2982-.4358-.4817-.0344-.0344-.0574-.0803-.0803-.1147v-.0115c-.5047-.2179-1.0208-.4358-1.5255-.6538-.2753-.1147-.5505-.2294-.8143-.3441-.5276-.2179-1.0437-.4473-1.5599-.6652-1.2272-.5161-2.4545-1.0437-3.6817-1.5598-.4703-.195-.9405-.39-1.4108-.585-2.0531-.8717-4.1061-1.7204-6.1592-2.5692-1.9842-.8258-3.9685-1.6401-5.9412-2.4545-.5391-.2179-1.0667-.4358-1.6057-.6538-2.4086-.9864-4.8172-1.9613-7.2144-2.9247-.3211-.1376-.6538-.2638-.9749-.39-.6079-.2409-1.2043-.4817-1.8007-.7226-.2753-.1147-.5505-.2294-.8258-.3211h0c-.9864-.4014-1.9728-.8029-2.9592-1.1814-.9176-.367-1.8351-.7226-2.7527-1.0896s-1.8466-.7341-2.7642-1.0896c-1.8466-.7226-3.6817-1.4337-5.5169-2.1448-1.7319-.6767-3.4523-1.342-5.1728-1.9957-1.3075-.5047-2.6036-.9978-3.8882-1.4796-1.1928-.4588-2.3857-.9061-3.567-1.3534-2.0645-.7685-4.1176-1.5369-6.1592-2.2939-.8143-.3097-1.6172-.6079-2.4086-.8946-.5964-.2294-1.1928-.4473-1.7893-.6538h0c-1.5025-.562-2.9936-1.1126-4.4961-1.6516-.5391-.195-1.0781-.39-1.6172-.585-1.0781-.4014-2.1678-.7914-3.2459-1.1699-2.7298-.9864-5.4481-1.9613-8.1663-2.9133-.5849-.2179-1.1699-.4244-1.7434-.6194-1.8351-.6423-3.6703-1.2846-5.4939-1.9154-.6308-.2294-1.2502-.4358-1.8695-.6538-1.9613-.6767-3.9226-1.3534-5.8839-2.0187-1.3419-.4588-2.6839-.9176-4.0144-1.3649-1.5943-.5391-3.1771-1.0781-4.7713-1.6057-2.4316-.8143-4.8746-1.6172-7.3061-2.4201h0c.0115,1.5484.0344,3.0738.0688,4.6108.0115.8373.0459,1.6745.0803,2.5118.0115.6996.0459,1.3993.0688,2.0989.0688,1.514.1491,3.028.2409,4.5305v.1376c.0459.757.1032,1.5025.1606,2.2595.0459.7685.1032,1.5369.1606,2.3054.1032,1.2846.2179,2.5692.3441,3.8652.0459.585.1032,1.1699.172,1.7548.0688.7914.1606,1.5828.2523,2.3742.0229.3211.0573.6423.1032.952.0459.4588.1032.9176.1606,1.3764.1262,1.124.2638,2.248.4129,3.3721.1032.8029.2179,1.6172.3441,2.4315.0918.7799.2065,1.5484.3211,2.3283.6652,4.4731,1.4452,8.9463,2.3398,13.3965.3556,1.8237.7341,3.6473,1.1355,5.471.6194,2.8215,1.2846,5.6431,1.9957,8.4531.8487,3.4294,1.7663,6.8473,2.7412,10.2653,15.8051,55.2146,47.7823,107.6764,88.0176,153.3713,2.7412,3.1197,5.5283,6.205,8.3384,9.2445,1.319,1.4222,2.638,2.833,3.9685,4.2438.0918.1032.195.2179.2982.3211,1.2846,1.3534,2.5692,2.7068,3.8653,4.0488.2294.2409.4703.4817.6996.7226,1.3534,1.3878,2.7068,2.7642,4.0602,4.1405.9023.9176.9099.9252.0229.0229,1.3649,1.3764,2.7412,2.7527,4.1176,4.1176.1835.1835.367.367.5505.5391,1.1928,1.1928,2.3971,2.3627,3.6129,3.5326.1835.172.3556.3441.5391.5161.2179.2179.4358.4358.6652.6423,1.2617,1.2273,2.5348,2.443,3.8194,3.6473,3.7162,3.5212,7.4896,6.9735,11.2975,10.3685.6423.5964,1.2961,1.1699,1.9498,1.7434.4703.4244.9405.8373,1.4108,1.2387.9749.8717,1.9498,1.7204,2.9247,2.5577.3785.3326.7455.6538,1.124.9749.8602.7456,1.7319,1.491,2.6036,2.2366,1.0323.8832,2.0645,1.7549,3.1083,2.6265,1.1011.929,2.2022,1.8466,3.3147,2.7641.0229.023.0459.0459.0688.0573,1.5484,1.2846,3.1083,2.5577,4.6681,3.8194.0229.023.0459.0344.0688.0573,1.5599,1.2616,3.1312,2.5233,4.7025,3.7621.0229.023.0574.0459.0803.0573h0c.7455.5964,1.4796,1.1699,2.2251,1.7434,2.466,1.9498,4.9434,3.8538,7.4323,5.7233,1.491,1.1355,2.9821,2.2595,4.4846,3.3606.1147.0918.2294.1721.3441.2523.1032.0803.195.1491.2982.2179,1.2502.929,2.5118,1.8581,3.7735,2.7641,3.0968,2.2481,6.205,4.4617,9.3362,6.6295.39.2753.7799.539,1.1699.8144.0344.023.0688.0459.1032.0688,1.2158.8373,2.443,1.6746,3.6703,2.5004.7914.5505,1.5828,1.0896,2.3857,1.6058,1.2273.8373,2.466,1.6631,3.7047,2.466.2982.2064.5964.4014.8946.585,5.861,3.8538,11.7563,7.5585,17.6632,11.0796.4358.2753.8602.539,1.2961.7914.0459.023.0918.0573.1376.0803,3.5441,2.1104,7.0997,4.1749,10.6438,6.1592,1.2617.7111,2.5233,1.4107,3.785,2.1104.3441.195.6882.3785,1.0208.562,1.4566.7914,2.9018,1.5828,4.3584,2.3627h.0115c.8258-.7226,1.6401-1.4222,2.443-2.1333,1.8007-1.5943,3.5441-3.1886,5.2072-4.7599.4014-.3785.7914-.757,1.1814-1.1355,10.0932-9.7033,17.6058-18.9936,23.4668-27.3091.2867-.4014.562-.8029.8373-1.1928.3211-.4702.6423-.929.952-1.3878.0573-.0688.1032-.1491.1491-.2179.172-.2523.3441-.5047.5161-.757.4588-.6767.9061-1.3534,1.342-2.0187.0803-.1261.172-.2523.2409-.3785h.0115c.1835-.2753.367-.562.5391-.8373.585-.8947,1.1355-1.7663,1.6745-2.6265.2409-.367.4703-.7341.6882-1.1011,0-.0115.0229-.0344.0344-.0573.5391-.8487,1.0437-1.6746,1.5369-2.4889.4703-.7684.929-1.5255,1.3649-2.2595.7455-1.2273,1.4452-2.4086,2.1219-3.5441.367-.6308.7341-1.2273,1.0896-1.8237.5964-1.0093,1.1699-1.9727,1.7319-2.8904,5.7119-9.3477,10.1735-19.7621,14.3141-31.3578,1.8695-5.276,3.6817-10.7814,5.5054-16.5392,1.4452-4.5419,2.5577-9.6,3.4294-14.8187h0c.4244-2.6151.8029-5.2645,1.124-7.8911q.2141-1.751,0-.0115c.1491-1.319.2982-2.638.4358-3.9455.0688-.6538.1261-1.3075.1835-1.9498.0688-.6538.1261-1.3075.1835-1.9498,1.0208-12.0545,2.0072-24.0632,2.9821-36.0604.195-2.2939.3785-4.5993.562-6.8932.39-4.7599.7799-9.5197,1.1814-14.2796-5.2072-3.2115-10.4029-6.3656-15.5872-9.4853h-.0344ZM305.8347,500.0892c.0688-.0688.172-.1261.2867-.1606.1376-.0344.2867-.0459.4244-.0115,4.6452.9864,7.5814.8029,10.2309-.5506.5161-.2638,1.0093-.5735,1.5025-.9176.3097-.2179.6193-.4129.9405-.6079.4817-.2867.9864-.562,1.5025-.7914,3.1541-1.4452,7.0653-1.8925,12.2151-.7111,2.7986.6423,5.276.7455,7.6617.3785.6079-.0917,1.2043-.2064,1.8007-.3556.6079-.1491,1.2043-.3326,1.8007-.5276.2982-.1032.6079-.2179.9061-.3326.1147-.0459.2179-.0803.3326-.1261.3326-.1376.6538-.2867.9864-.4473l.6538-.3097c1.2502-.5964,2.5348-1.124,4.0144-.952,1.7893.2064,3.0509.5391,3.8538,1.3993.0803.0803.1606.172.2294.2753.3556.4817.5849,1.1011.7111,1.9154.0688.4244.1032.8258.1032,1.1928,0,.4129-.0344.7799-.1147,1.124-.0688.3441-.172.6538-.3097.9405-.1376.2867-.2982.5506-.4817.7799-.929,1.1928-2.4315,1.8122-3.8079,2.4086-15.633,6.6868-30.6697,5.7577-45.1902-2.9706-.195-.0917-.3097-.195-.3441-.2982-.0574-.1261-.0115-.2523.0918-.3441h0ZM314.5975,540.9553c-.4358-.0573-.8717-.0573-1.3075.0115-.3326.0459-.6652.1376-.9864.2753-.1032.0344-.2179.0917-.3326.1491-.2064.1032-.4014.2294-.5964.39-1.0208.8029-2.6036.8946-3.8767.4588-.8946-.3097-1.8122-.5391-2.6495-.9749-.5047-.2523-.9749-.585-1.3993-1.0437h0c-.1491-.1606-.2523-.3211-.3097-.4932-.2753-.6996.0688-1.5254.6767-2.7298.5735-1.147,1.3649-2.248,2.3398-3.1656.1606-.1606.3326-.3097.5047-.4588,1.5369-1.2961,3.4638-2.1678,5.6316-2.1907,1.5713-.0115,2.9936-.0803,4.6108.929.3441.2179.6652.4129.9978.585.3211.172.6423.3211.9864.4588.3441.1261.6996.2409,1.0896.3211.4014.0803.8258.1376,1.3075.1606,1.8351.0803,3.4753-1.2387,5.1154-2.0875,2.2595-1.147,4.2896-1.8695,8.5678-1.514,4.8516.4014,9.7147,1.342,14.4746,2.3513,3.5441.7455,8.1434.2867,11.8366-.2867.7799-.1147,1.5025-.2409,2.1792-.3556.8258-.1491,1.6516-.3441,2.4889-.5391,1.8007-.4129,3.6129-.7799,5.3448-.5276.1147.0229.2294.0344.3441.0688.2294.0459.4703.1147.6882.2064.2294.0803.4473.1835.6652.3097.2064.1147.4129.2523.6079.4129.929.7455,1.5599,1.904,1.4681,3.4753,0,.2409-.0574.4817-.1262.6996-.1032.3441-.2638.6767-.4703.9749-.1491.2064-.2982.4014-.4817.5964-.6193.6538-1.4222,1.1928-2.2595,1.5828-.2294.1032-.4703.2064-.7111.2867-5.4022,1.904-11.2975,1.9843-17.0553,1.9384-3.6129-.0344-7.0882-.1261-10.7814-.8258-2.9706-.5735-6.0101-.0688-8.8545.8258-2.6724.8258-5.5972,1.5025-8.5219,1.6516-1.2387.0573-2.4545.0115-3.6473-.1835-.3441-.0459-.6767-.1147-1.0208-.195-.0918-.0115-.1835-.0344-.2867-.0573-.367-.0917-.7226-.1835-1.0896-.2982-1.6975-.5276-3.3491-.9749-5.1613-1.1928h0ZM359.0192,551.9431c-.0574.4932-.2523.9864-.5047,1.4452-.1032.1835-.2179.367-.3326.5391-1.9498,2.8445-4.6337,5.6545-7.742,6.9047-4.324,1.7319-8.9807,3.1197-13.4997,3.3147-2.2366.0917-4.3929.1032-6.5606-.1376-1.0552-.1032-2.1104-.2638-3.1771-.5047-.172-.0344-.3441-.0688-.5047-.1032-.757-.1835-1.514-.39-2.2939-.6423-2.6495-.8602-5.7463-2.5004-5.666-6.0789.0115-.585.1491-1.147.4129-1.6516.9061-1.7548,3.2688-2.8789,6.8703-2.4774.5276.0459,1.0781.1376,1.6516.2638,1.4796.3211,8.4072-.5276,12.4445-2.0187,2.5807-.9634,5.2645-1.881,7.9828-2.3054,3.1541-.5047,6.79-.6194,9.4853.9634.6652.39,1.0667.8373,1.2731,1.319.1606.3785.2064.7799.1606,1.1699ZM444.8805,579.6078c-1.3878,2.1333-3.1427,4.2667-5.1957,6.3542-.8258.8373-1.6975,1.6631-2.6151,2.4889-5.0466,4.5075-11.4581,8.7398-18.6496,12.261-1.3075.6308-2.638,1.2502-3.9914,1.8466-3.3835,1.4681-6.9047,2.7871-10.5061,3.8997-.7226.2179-1.4452.4358-2.1792.6423-2.9018.8143-5.8495,1.5025-8.8201,2.0416-1.4796.2638-2.9592.4932-4.4502.6767-28.6395,3.5785-58.2311-8.2352-70.3315-25.5083.8717.5964,1.7548,1.147,2.6265,1.6631.8832.5161,1.7663.9978,2.6495,1.4452.8946.4473,1.7778.8602,2.6724,1.2387.8832.39,1.7778.7455,2.6724,1.0667,2.6724.9864,5.3678,1.7434,8.0631,2.3742.8946.2064,1.8007.4014,2.6954.585,3.1312.6423,6.0789,1.0093,8.9463,1.147,4.2323.2064,8.2925-.0688,12.5362-.585,9.8524-1.1928,16.1492-2.9477,22.0216-5.1957,1.1814-.4588,2.3398-.929,3.4982-1.4108,1.7434-.7341,3.5212-1.5025,5.3907-2.3283.6193-.2638,1.2502-.5506,1.904-.8258.8488-.367,1.6975-.7455,2.5348-1.124.8373-.367,1.6746-.7455,2.5118-1.1355,1.6631-.757,3.3032-1.5254,4.9434-2.2939,1.6287-.7685,3.2574-1.5369,4.8631-2.3054,8.0517-3.8308,15.851-7.5355,23.8567-10.3685,4.5305-1.5943,9.1986-.562,11.894,3.4065,2.3398,3.4638,2.3398,7.0538.4588,9.9441Z" style="fill: #fff; fill-rule: evenodd;"/>
      <path d="M488.6255,432.9462c-.5735-.2982-1.2617-1.2731-.0917-1.8466,3.2574-1.5713,6.6638-3.2803,10.2767-3.4065,2.638-.0917,5.4136.9978,7.4667,2.6724,2.0645,1.686,3.5785,4.2323,4.1979,6.8129.6767,2.8789.3441,6.1706-.7799,8.9348-1.1584,2.8559-3.5097,5.1269-5.8036,7.18-1.709,1.5369-3.9685,2.3283-5.9871,3.4065-1.9384,1.0208-2.7757,2.3857-4.2438,3.4982-1.3075.9978-1.514,2.6265-2.5807,3.6817-1.0437,1.0323-2.1448,1.2387-3.3147,1.2387-1.2961,0-2.9018-.5276-4.1061-1.0093-1.686-.6882-1.491-2.5233-.5964-3.6359,1.4108-1.7663,3.1541-3.5556,4.7025-5.2072,1.4452-1.5369,3.0738-2.7068,4.6566-4.1864,1.8581-1.7434,2.661-4.4846,3.0853-6.9965.4014-2.3283-.8946-4.909-2.3971-6.9965-1.2043-1.6745-2.6495-3.1656-4.4731-4.1405h-.0115ZM340.4729,417.187c9.5771-6.0674,26.1507-8.2007,40.8317-8.8889,15.7133-.7341,32.6539,2.7298,42.3572,12.8459.7226.757,1.0781,1.7434.0917,2.076-7.0079,2.3168-12.5821.0459-18.7986-1.8007-3.2344-.952-6.6982-1.3649-10.0473-.9634-.9405.1147-1.9269,1.7204-1.3878,2.4889,1.2502,1.7434,3.5212,2.466,5.5742,3.0853,4.6911,1.3993,9.1986,2.6036,13.2244,5.0237,1.0552.6308,2.6151,2.4545.7341,3.59-4.3011,2.6036-9.4165,3.9226-14.3828,4.5993-.7341.1032-1.5369-.367-2.0301-.9176-2.1907-2.4774-4.7943-5.104-8.476-6.2624-.6882-.2179-1.4222.6996-1.6631,1.3878-1.7204,4.9434-5.4595,6.9276-10.1391,6.5377-4.2552-.3556-8.5448-5.1613-7.742-8.6595.1262-.5276-.9061-.9405-1.4337-.7799-4.2437,1.2846-6.0903,4.9663-7.742,8.843-.2638.6194-.6767,1.8466-1.2846,1.5713-3.5441-1.5713-6.8932-3.7505-9.6803-6.4459-.6423-.6194.9634-2.0989.2753-2.6724-1.5828-1.3075-4.0602-.9405-5.8495-1.9384-2.0989-1.1584-5.2187-2.0645-5.666-4.4158-.562-2.9133.7226-6.6982,3.2229-8.2925l.0115-.0116ZM273.3987,408.6193c2.076,5.8609,7.0653,5.8609,12.2725,6.8932,4.1979.8373,8.5563.9864,12.628,2.3054,5.3563,1.7434,9.4395,5.1613,12.4445,9.3936,2.1448,3.0165,2.5118,5.8839,2.3398,10.4947,53.0239,24.7399,107.5159,53.93,163.6939,88.5337,1.0667-12.9262,2.1792-25.8524,3.3835-38.8131.1606-1.7663,1.0208-2.2595,1.6631-1.8925,1.6745.9634,2.5921,1.8925,4.519,2.076,3.9455.367,7.2488-.1032,11.5499-2.3971,10.4144-5.5513,14.5549-13.9126,18.8789-24.866,5.9183-15.0022,7.4208-29.4768,5.4366-42.0819-.5735-3.6703-1.9269-6.6753-3.9226-8.9119-2.2022-1.342-4.3928-2.6724-6.5835-3.9914-.7914-.2064-1.6172-.3556-2.4889-.4473-9.1183-.9061-18.8331,6.9391-26.2653,15.7477-3.8652,4.5878-6.5606,9.5427-8.6595,15.0137-1.9498,5.081-2.9247,10.5979-3.3147,16.023-.4703,6.6179-.3211,13.4882.5506,19.8883.2753,1.6287.9634,3.2344.8258,4.8861-.0573.7226-.8258,1.3878-1.5025,1.6516-3.1885,1.2731-6.6179,2.3398-9.9786,2.5118-2.1448.1032-4.4846-.3556-6.6638-.0229-1.1928.1835-2.3742.5506-3.5441.2753-.7455-.172-1.5828-.2523-1.5713-1.709.1491-14.1993,2.2366-33.1471,2.4889-39.788.3211-8.476-.8602-8.7742-2.3054-15.2889-2.5692-11.5499-17.9155-29.9471-30.4173-36.4733-.8143-.4244-.5735-1.2617-.0459-2.2136,5.7577-10.2882,7.5699-19.3033,7.6043-27.894v-.1491c.0229-10.7814-6.4-18.3513-14.2452-24.499-.562-.4473-1.3649-.7111-2.076-.5964-8.8086,1.4222-17.904,2.638-26.9191,3.59-19.1542,2.0186-38.0102,2.8674-53.4138,2.0301-13.2474-.7226-26.4947-3.0394-36.9206-8.2237-.367-.1835-.9405-.195-1.147.1606-4.347,7.2832-6.6638,16.023-7.4208,22.6983-1.5255,13.4997-3.2803,24.7284-4.9319,37.2532,0,.0688-.0229.1491-.0459.2294-.6767,4.9663-3.6129,16.9979-5.8839,18.5922l-.0115.0114Z" style="fill: #fff; fill-rule: evenodd;"/>
      <path d="M625.8934,481.3938c-.0573.1376-.1147.2867-.172.4244-.4129.9864-.8258,1.9613-1.2502,2.9362-.952,2.2366-1.9498,4.4731-2.9591,6.6982-.5047,1.1126-1.0093,2.2251-1.5369,3.3262-.0344.0803-.0688.1606-.1032.2409-.4817,1.0323-.9749,2.0645-1.4681,3.0853-.4703.9978-.952,1.9728-1.4337,2.9591-1.2043,2.4774-2.466,4.9549-3.7505,7.4208-.4129.8029-.8373,1.6057-1.2731,2.4201-2.0187,3.8194-4.0946,7.6273-6.2624,11.3893-.6652,1.1928-1.3534,2.3742-2.0531,3.567-.952,1.6287-1.9154,3.2459-2.8903,4.8631-.3326.562-.6767,1.124-1.0208,1.6745-.6079,1.0093-1.2158,2.0187-1.8466,3.005-.1261.2179-.2523.4244-.3785.6194-.8717,1.4222-1.7778,2.8445-2.6839,4.2667-.7111,1.1011-1.4108,2.2022-2.1333,3.2918-.4588.7226-.929,1.4337-1.4108,2.1563-.8602,1.3305-1.7548,2.661-2.6495,3.9799-.7111,1.0437-1.4222,2.0875-2.1448,3.1312-.5735.8373-1.1355,1.6745-1.7319,2.5004-.367.5161-.7226,1.0552-1.1011,1.5713-1.2273,1.7434-2.466,3.4753-3.7276,5.2186-.7341,1.0208-1.4796,2.0416-2.2366,3.0509-1.5369,2.0875-3.0968,4.1635-4.6796,6.2395-.7226.952-1.4566,1.9154-2.2022,2.8674-1.5484,2.0072-3.1312,4.0029-4.714,5.9871-.7914.9978-1.5943,1.9728-2.3971,2.9706-2.9362-2.0416-5.8724-4.0717-8.7972-6.0903-1.6975-1.1699-3.395-2.3398-5.081-3.4868-2.3054-1.5828-4.6108-3.1541-6.9162-4.7025-4.5993-3.1197-9.1986-6.205-13.775-9.2445-1.6172-1.0667-3.2115-2.1333-4.8172-3.1885-.6767-.4473-1.3534-.9061-2.0416-1.342-2.2136-1.4566-4.4272-2.9133-6.6294-4.347-7.2258-4.7025-14.4173-9.3248-21.5858-13.8552.0229-.2523.0344-.5161.0573-.7685.172-2.3283.3326-4.6566.5047-6.9965.1147-1.7319.2409-3.4638.3785-5.2072.3097-4.347.6308-8.7169.9634-13.1212.195-2.5807,2.1792-4.5075,4.4272-6.1706.9864-.7226,1.9498-1.5254,2.8789-2.3627.2867-.2638.585-.5276.8602-.8029.5161-.5047,1.0437-1.0323,1.5484-1.5713.2753-.2867.5506-.585.8143-.8946.1376-.1491.2753-.3097.4129-.4588.2294-.2523.4588-.5276.6767-.7914.3441-.4014.6767-.8143,1.0093-1.2387l.6538-.8602c.2753-.3556.5391-.7226.7914-1.0781.5276-.7226,1.0552-1.4796,1.5598-2.2595.2409-.3785.4932-.757.7226-1.147.7455-1.1928,1.4681-2.4086,2.1563-3.6703.1491-.2638.2982-.5391.4473-.8143,1.4452-2.7068,2.7871-5.5742,4.0258-8.5907.3556-.8717.7111-1.7548,1.0437-2.638,1.1928-3.0968,2.271-6.3198,3.2574-9.6344.2294-.7685.4473-1.5369.6652-2.3283.0688-.2409.1376-.4703.195-.7111.2064-.7341.4014-1.4681.585-2.2251.2294-.8258.4358-1.6631.6308-2.5004.172-.6652.3326-1.3305.4817-2.0072.7226-3.1427,1.3878-6.3312,1.9613-9.5656.3441-1.9154.6538-3.8308.9405-5.7692.2179-1.3305.4014-2.6495.585-4.0029.1032-.7455.2064-1.5025.2982-2.271.172-1.4108.3441-2.8445.4932-4.2782.0917-.8029.172-1.6057.2409-2.4201.1032-.8487.172-1.6745.2409-2.5233.0688-.7111.1261-1.4108.172-2.1219.0803-.9405.1491-1.881.2064-2.8215.0573-.8831.1032-1.7778.1606-2.661,0-.1491.0229-.2982.0344-.4473h0c.5276.3211,1.0667.6538,1.5943.9978,2.7986,1.7434,5.6086,3.5097,8.3957,5.2875,7.1226,4.5075,14.2223,9.1069,21.322,13.775,2.3627,1.5484,4.714,3.1082,7.0767,4.6911,2.3742,1.5828,4.7255,3.1541,7.0767,4.7484,2.3627,1.5828,4.714,3.1771,7.0653,4.7943,2.2366,1.5254,4.4731,3.0509,6.7097,4.5878.4129.2867.8143.5735,1.2158.8487,2.0645,1.4337,4.1291,2.8674,6.1936,4.3126,2.1678,1.514,4.347,3.0394,6.5033,4.5649,1.4108.9864,2.833,1.9957,4.2323,3.005,1.8237,1.2846,3.6244,2.5807,5.4366,3.8767,3.9914,2.8559,7.9714,5.7463,11.9513,8.6595v-.0228Z" style="fill: #ffce08; fill-rule: evenodd;"/>
      <g>
        <polygon points="262.7206 155.2906 262.7206 233.169 240.504 233.169 240.504 174.3072 215.2021 174.3072 215.2021 233.169 192.997 233.169 192.997 155.2906 262.7206 155.2906" style="fill: #fff;"/>
        <path d="M327.2943,155.2906h-30.188l-24.6481,77.8785h23.5126l4.5993-17.9499h22.9162l4.9549,17.9499h25.0725s-26.2195-77.8785-26.2194-77.8785ZM305.0777,197.6363l6.5147-25.4166,7.0194,25.4166s-13.5341,0-13.5341,0Z" style="fill: #fff;"/>
        <path d="M497.0327,153.7651c-26.7241,0-42.9077,18.3055-42.9077,40.9005s17.0438,40.8891,42.9077,40.8891,42.9192-18.3055,42.9192-40.8891-16.195-40.9005-42.9192-40.9005ZM497.0327,217.6048c-11.0452,0-18.1907-10.2768-18.1907-22.9392s7.5126-22.9392,18.1907-22.9392,18.2022,10.2767,18.2022,22.9392-7.1456,22.9392-18.2022,22.9392Z" style="fill: #fff;"/>
        <path d="M410.0359,157.7451v-6.2853h-20.9664v6.2739c-22.446,3.5785-36.9665,18.6037-36.9665,36.6683s14.7843,33.0324,36.9665,36.6338v6.2968h20.9664v-6.3083c22.1936-3.6129,36.9665-18.6495,36.9665-36.6224s-14.5205-33.0783-36.9665-36.6568ZM389.058,214.8177c-8.0631-3.6588-13.6259-11.4122-13.6259-20.4273s5.5628-16.7685,13.6259-20.4273v40.8546ZM410.0359,214.7948v-40.8202c8.0631,3.6588,13.6259,11.4237,13.6259,20.4159s-5.5628,16.7456-13.6259,20.4044Z" style="fill: #fff;"/>
        <polygon points="610.1801 215.2192 610.1801 233.169 543.3354 233.169 543.3354 220.8163 548.5082 215.2192 567.1003 195.1359 546.8795 173.2749 545.2622 171.5315 545.2622 155.2906 607.4503 155.2906 607.4503 173.2749 572.9728 173.2749 592.5055 194.4019 573.2366 215.2192 610.1801 215.2192" style="fill: #fff;"/>
        <line x1="567.7885" y1="194.4019" x2="567.1003" y2="195.1359" style="fill: none;"/>
        <line x1="567.7885" y1="195.8585" x2="567.1003" y2="195.1359" style="fill: none;"/>
      </g>
    </g>
  </g>
</svg>