<?xml version="1.0" encoding="UTF-8"?>
<svg id="Layer_1" data-name="Layer 1" xmlns="http://www.w3.org/2000/svg" viewBox="0 0 960 960">
  <defs>
    <style>
      .cls-1 {
        fill: #1c1058;
      }

      .cls-1, .cls-2, .cls-3, .cls-4, .cls-5, .cls-6 {
        stroke-width: 0px;
      }

      .cls-1, .cls-2, .cls-4, .cls-5, .cls-6 {
        fill-rule: evenodd;
      }

      .cls-2 {
        fill: #9f4516;
      }

      .cls-3, .cls-5 {
        fill: #fff;
      }

      .cls-4 {
        fill: #c8831a;
      }

      .cls-6 {
        fill: #f4f1e0;
      }
    </style>
  </defs>
  <path class="cls-4" d="M811.05,266.7c-196.47,35.3-312.42-99.31-331.21-123.12-18.78,23.81-134.75,158.42-331.22,123.12,0,0-49.68,417.51,331.22,640.27,380.91-222.75,331.21-640.27,331.21-640.27"/>
  <path class="cls-1" d="M163.12,284.02c-.42,7.68-.79,17.89-.79,30.5,0,42.24,4.17,109.69,24.63,186.08,44.97,167.88,143.58,298.41,292.89,388.32,149.32-89.92,247.93-220.45,292.89-388.32,20.46-76.39,24.62-143.84,24.62-186.08,0-12.61-.37-22.81-.79-30.5-169.3,22.77-277.85-73.68-316.72-116.52-38.86,42.83-147.42,139.29-316.72,116.52"/>
  <path class="cls-5" d="M178.84,306.33c.18,43.43,4.71,109.82,24.83,184.94,43.27,161.57,136.24,288.72,276.18,378.46,139.94-89.74,232.9-216.89,276.18-378.46,20.12-75.13,24.65-141.5,24.82-184.94-145.99,7.27-247.78-62.04-301-111.44-53.23,49.39-154.99,118.7-301.01,111.44"/>
  <polygon class="cls-4" points="424.02 53.12 437.4 83.39 470.58 86.94 445.92 109.02 452.8 141.67 424.18 125.05 395.25 141.67 402.22 109.32 377.47 86.94 410.39 83.57 424.02 53.12"/>
  <polygon class="cls-4" points="535.67 53.12 549.05 83.39 582.22 86.94 557.57 109.02 564.44 141.67 535.83 125.05 506.9 141.67 513.87 109.32 489.12 86.94 522.04 83.57 535.67 53.12"/>
  <path class="cls-1" d="M479.85,668.73c-77.37,0-140.1-63.06-140.1-140.84s62.72-140.85,140.1-140.85,140.09,63.06,140.09,140.85-62.73,140.84-140.09,140.84M479.85,380.45c-80.99,0-146.64,66.01-146.64,147.43s65.65,147.43,146.64,147.43,146.63-66,146.63-147.43c0-81.42-65.64-147.43-146.63-147.43h0Z"/>
  <path class="cls-4" d="M471.15,729.09l-.03,7.36,5.99,4.18-6.95,2.23-2.11,7.02-4.26-5.96-7.28.16,4.29-5.92-2.39-6.91,6.93,2.31,5.81-4.46ZM326.46,625.14l11.73,4.55,10.39-7.15-.68,12.65,9.98,7.73-12.17,3.25-4.23,11.92-6.85-10.63-12.59-.36,7.94-9.81-3.54-12.16ZM351.33,653.72l11.32.33,6.69-9.2,3.19,10.94,10.78,3.56-9.37,6.42-.04,11.4-8.97-6.96-10.79,3.48,3.81-10.72-6.62-9.24ZM339.01,693.34l8.92-5.54.52-10.54,8.01,6.82,10.13-2.77-3.99,9.77,5.75,8.83-10.47-.78-6.58,8.21-2.49-10.24-9.81-3.76ZM382.31,694.2l3.3-10-6.33-8.41,10.5.06,6-8.66,3.17,10.06,10.04,3.06-8.52,6.16.2,10.54-8.44-6.24-9.92,3.44ZM412.65,692.05l9.38,6.37,10.55-4.17-3.12,10.96,7.21,8.79-11.33.39-6.09,9.61-3.88-10.7-10.97-2.86,8.93-7-.69-11.38ZM463.43,695.74l1.98,10.06,9.37,4.05-8.9,5.01-.94,10.21-7.48-6.97-9.96,2.26,4.28-9.31-5.2-8.82,10.12,1.21,6.74-7.7ZM424.85,737.06l7.13-5.46-.46-8.99,7.37,5.11,8.37-3.21-2.56,8.62,5.63,7.03-8.96.22-4.89,7.54-2.97-8.5-8.65-2.36ZM371.46,710.53l7.13-5.46-.45-8.99,7.37,5.11,8.36-3.2-2.56,8.62,5.63,7.01-8.96.22-4.89,7.55-2.97-8.49-8.66-2.37ZM487.66,729.09l.02,7.36-6,4.18,6.95,2.23,2.11,7.02,4.25-5.96,7.29.16-4.3-5.92,2.38-6.91-6.93,2.31-5.79-4.46ZM632.34,625.14l-11.73,4.55-10.4-7.15.68,12.65-9.99,7.73,12.18,3.25,4.23,11.92,6.82-10.63,12.6-.36-7.93-9.81,3.53-12.16ZM607.48,653.72l-11.32.33-6.7-9.2-3.19,10.94-10.76,3.56,9.37,6.42.03,11.4,8.98-6.96,10.79,3.48-3.81-10.72,6.63-9.24ZM619.8,692.72l-8.92-5.54-.51-10.54-8.01,6.83-10.13-2.78,4,9.77-5.76,8.83,10.46-.79,6.58,8.23,2.49-10.26,9.81-3.75ZM576.49,694.2l-3.3-10,6.33-8.41-10.5.06-6-8.66-3.18,10.06-10.03,3.06,8.53,6.16-.2,10.54,8.44-6.24,9.92,3.44ZM546.15,692.05l-9.39,6.37-10.55-4.17,3.11,10.96-7.2,8.79,11.34.39,6.09,9.61,3.88-10.7,10.97-2.86-8.94-7,.68-11.38ZM495.38,695.74l-1.98,10.06-9.37,4.05,8.9,5.01.95,10.21,7.48-6.97,9.95,2.26-4.28-9.31,5.2-8.82-10.11,1.21-6.75-7.7ZM533.96,737.06l-7.12-5.46.45-8.99-7.37,5.11-8.37-3.21,2.56,8.62-5.63,7.03,8.95.22,4.89,7.54,2.97-8.5,8.66-2.36ZM587.34,710.53l-7.13-5.46.46-8.99-7.37,5.11-8.37-3.2,2.56,8.62-5.63,7.01,8.96.22,4.89,7.55,2.98-8.49,8.66-2.37ZM479.39,752.8l2.85,5.79,6.37.93-4.62,4.51,1.09,6.37-5.69-3.01-5.69,3.01,1.09-6.37-4.6-4.51,6.36-.93,2.84-5.79Z"/>
  <path class="cls-4" d="M511.97,324.84c-7.85,0-9.21-10.97-9.21-10.97,0,0-.68,12.69-11.27,12.69-9.79,0-10.22-12.93-10.23-14.84,0,1.9-.44,14.84-10.24,14.84-10.58,0-11.26-12.69-11.26-12.69,0,0-1.37,10.97-9.21,10.97s-11.61-6.85-11.61-6.85l11.27,32.93h62.09l11.27-32.94s-3.75,6.85-11.61,6.85M481.27,311.46v.26-.26h0Z"/>
  <path class="cls-4" d="M487.15,301.7c0,3.27-2.64,5.91-5.89,5.91-3.25,0-5.89-2.65-5.89-5.91s2.64-5.93,5.89-5.93,5.89,2.65,5.89,5.93"/>
  <path class="cls-4" d="M465.31,305.39c0,3.27-2.63,5.91-5.89,5.91s-5.89-2.65-5.89-5.91,2.64-5.92,5.89-5.92c3.26,0,5.89,2.65,5.89,5.92"/>
  <path class="cls-4" d="M443.57,310.27c0,3.26-2.64,5.92-5.89,5.92-3.25,0-5.89-2.65-5.89-5.92s2.64-5.92,5.89-5.92,5.89,2.64,5.89,5.92"/>
  <path class="cls-4" d="M497.21,305.39c0,3.27,2.64,5.91,5.88,5.91s5.88-2.65,5.88-5.91c0-3.27-2.63-5.92-5.88-5.92-3.24,0-5.88,2.65-5.88,5.92"/>
  <path class="cls-4" d="M518.97,310.27c0,3.26,2.63,5.92,5.87,5.92,3.26,0,5.89-2.65,5.89-5.92s-2.63-5.92-5.89-5.92-5.87,2.64-5.87,5.92"/>
  <path class="cls-4" d="M479.85,631.89c-57.13,0-103.45-46.56-103.45-104s46.32-104,103.45-104,103.44,46.57,103.44,104c0,57.44-46.31,104-103.44,104M479.85,387.03c-77.37,0-140.1,63.06-140.1,140.85s62.72,140.84,140.1,140.84c77.37,0,140.09-63.06,140.09-140.84s-62.73-140.85-140.09-140.85h0Z"/>
  <path class="cls-4" d="M479.85,393.75c-73.68,0-133.41,60.06-133.41,134.13s59.73,134.12,133.41,134.12c73.67,0,133.41-60.05,133.41-134.12s-59.73-134.13-133.41-134.13h0Z"/>
  <path class="cls-1" d="M479.85,624.32c-52.98,0-95.93-43.17-95.93-96.44s42.94-96.44,95.92-96.44c52.98,0,95.92,43.18,95.92,96.44s-42.94,96.44-95.92,96.44M479.85,423.88c-57.13,0-103.45,46.57-103.45,104s46.32,104,103.45,104c57.13,0,103.44-46.56,103.44-104,0-57.44-46.31-104-103.44-104h0Z"/>
  <path class="cls-2" d="M667.94,415.99c.03.08.06.17.09.27-.05-.06-.08-.12-.12-.18,0-.03.02-.06.03-.09"/>
  <path class="cls-6" d="M479.85,624.32c-52.98,0-95.93-43.17-95.93-96.44s42.94-96.44,95.92-96.44c52.98,0,95.92,43.18,95.92,96.44s-42.94,96.44-95.92,96.44"/>
  <path class="cls-1" d="M572.37,527.88c0,51.37-41.43,93.03-92.53,93.03s-92.53-41.65-92.53-93.03,41.43-93.02,92.53-93.02,92.53,41.65,92.53,93.02"/>
  <path class="cls-6" d="M477.58,451.01c-9.85,0-18.23,2.67-18.23,2.67l-15.44,25.85,17.21,21.14s15.87-3.25,37.34,0l17.19-21.14-15.43-25.85s-8.38-2.67-18.23-2.67h-4.41Z"/>
  <path class="cls-6" d="M411.39,535.83s14.7,3.26,28.36,3.26c0,0,5.74,18.46,19.41,32.81,0,0-5.88,17.73-9.12,20.98,0,0-26.75,4.15-39.39-17.74-12.64-21.86-3.68-26.16.74-39.31"/>
  <path class="cls-6" d="M399.33,553.54c1.03-6.05,8.33-20.25,8.33-20.25l-.1-.58c-1.91-13,.88-33.55.45-34.58-.45-1.03-8.24-6.5-8.24-6.5,0,0-.74.59-1.82,2.18-4.45,10.36-6.94,21.8-6.94,33.82,0,8.28,1.18,16.3,3.38,23.87,2.41,2.83,4.95,2.04,4.95,2.04"/>
  <path class="cls-6" d="M411.19,493.25s11.46-12.56,26.31-14.78c0,0,11.91-18.18,15.87-25.27,0,0-5.06-5.84-7.41-7.52-17.31,6.92-31.83,19.39-41.35,35.24-1.62,2.86-2.39,4.65-2.39,4.65,0,0,3.82,5.32,8.97,7.69"/>
  <path class="cls-6" d="M498.3,506.53s15.29,24.39,16.61,30.29c0,0-4.26,16.11-18.96,31.63,0,0-5.69.47-12.35.73v.15c-1.25,0-2.54,0-3.82-.04-1.28.03-2.56.05-3.82.05v-.15c-6.67-.26-12.36-.73-12.36-.73-14.69-15.52-18.96-31.63-18.96-31.63,1.32-5.91,16.61-30.29,16.61-30.29,0,0,11.46-1.75,20.54-1.75s16.5,1.75,16.5,1.75"/>
  <path class="cls-6" d="M548.16,535.83s-14.69,3.26-28.36,3.26c0,0-5.74,18.46-19.41,32.81,0,0,5.88,17.73,9.12,20.98,0,0,26.75,4.15,39.4-17.74,12.62-21.86,3.67-26.16-.75-39.31"/>
  <path class="cls-6" d="M560.23,553.54c-1.03-6.05-8.34-20.3-8.34-20.3l.11-.53c1.91-13-.88-33.55-.44-34.58.44-1.03,8.22-6.5,8.22-6.5,0,0,.75.59,1.84,2.18,4.45,10.36,6.93,21.8,6.93,33.82,0,8.28-1.17,16.3-3.38,23.87-2.41,2.83-4.95,2.04-4.95,2.04"/>
  <path class="cls-6" d="M547.55,492.06s-10.9-11.93-25-14.03c0,0-11.31-17.27-15.08-24,0,0,4.82-5.55,7.05-7.15,16.44,6.57,30.23,18.42,39.27,33.47,1.54,2.7,2.27,4.41,2.27,4.41,0,0-3.63,5.06-8.52,7.3"/>
  <path class="cls-6" d="M452.03,598.3c-11.16-.15-27.19-4.73-27.19-4.73l.15,3.91c14.21,11.69,32.29,18.79,52.01,19.12v-5.77c-11.17-.88-24.96-12.53-24.96-12.53"/>
  <path class="cls-6" d="M534.74,593.58s-16.02,4.58-27.2,4.73c0,0-13.73,11.6-24.89,12.52v5.78c19.69-.35,37.74-7.44,51.94-19.11l.16-3.91Z"/>
  <path class="cls-1" d="M670.79,541.2c-.09-3.17-.4-6.74-1.1-10.78-3.75-21.93-21.71-33.82-21.71-33.82-1.26-3.45,1.09-9.6,1.61-14.53h.01c.66-3.52-.64-5.97-2.43-8.01-1.05-1.23-2.28-2.32-3.38-3.35-2.96-2.86-3.73-6.03-2.36-7.9,1.37-1.87,7.32,4.02,14.81,6.32,6.46,1.99,9.58-1.88,9.58-1.88-6.43,2.76-20-9.03-10.54-12.08,9.93-3.2,9.5,7.9,9.5,7.9,3.54-8.79-2.95-9.78-5.63-11.67-2.71-1.89-.08-8.48,6.37-5.59,6.47,2.88,9.11,2.16,9.11,2.16,4.94-.23,3.84-.34,7.59-.69,3.12-.3,2.78,3.32,2.78,3.32,6.38-10.15-8.61-7.3-8.61-7.3-5.71.1-4.11-4.96-4.11-4.96.32-2.36.99-3.09.99-3.09,1.4-2.44,4.28.93,12.71-1.99,4.84-1.67,5.19-4.42,5.19-4.42-14.41,6.72-13.85-5.03-13.74-6.2.11-1.18,1.43-2.78,4.54-3.91,3.1-1.14,6.48-5.18,6.48-5.18,1.57-1.9,2.86,1.33,1.27,3.96-1.59,2.63-1.98,9.77,4.51,9.24,6.08-.49,6.88-11.24,6.98-13.72-.22,2.62-2.47,11.64-6.33,10.38-4.18-1.37-.35-6.55-.35-6.55,2.86-4.86,2.89-8.75.66-11.5-2.23-2.75-6.98-2.51-9.62.49-2.62,2.99-4.11,3.92-5.85,2.5-1.73-1.42,1.01-3.37,2.26-3.48,1.25-.11,2.26-4.01,2.52-5.65.26-1.65.83-2.93,2.31-3.94,1.47-1.01,4.68-7.33,7.42-3.5,2.76,3.82,3.15,7.3,3.15,7.3,1.91-17.4-13.42-12.69-13.42-12.69,4.01-7.65-2.06-11.48-2.06-11.48,1.23-11.35-8.48-14.87-8.48-14.87,2,1.12,9.96,8.22,6.33,11.77-3.63,3.55-9.66-.26-9.66-.26.62-7.11-3.07-10.08-3.07-10.08-5.28-1.21-14.45,7.51-14.45,7.51,0,0-3.2-1.66-12.39.32-9.2,1.98-20.03,4.49-22.96,4.87-2.94.38-7.53-1.18-9.12-.88-1.61.3-4.66,1.51-5.16,4.85-.51,3.34-1.65,9.59,2.47,13.24,4.12,3.64,6.62,2.09,8.78,1.7,0,0,3.79-1.61,5.2-.97,1.43.65,12.44,5.67,14.39,8.27,1.96,2.61.42,3.74-3.04,5.7-3.46,1.95-11.13,5.9-17.03,7.72-5.91,1.81-12.53,2.83-14.73,5.17,0,0-.02.01-.02.02-.87.69-1.66,1.53-2.34,2.58-.96,1.49-2.12,2.49-3.35,3.07-3.43-4.55-6.36-8.98-8.13-11.28-2.25-2.91-4.11-4.17-7.92-2.96-1.09-.21-2.37-.07-3.99.49-2.07.74-3.69,4.19-6.52,4.27-.64.18-4.7,4.06-6.25,9.16-1.56,5.09-3.85,9.74-5.62,13.85-1.76,4.11-1.75,12.09-1.75,12.09-1.66,4.34,3.89,13.97,3.89,13.97,0,0,1.47-.93,2.7-1.94.49.96.84,1.56.84,1.56,0,0,3.06-1.93,4.06-3.22.99-1.29,1.64-2.66,4.03-3.82,2.37-1.15,3.71-3.66,3.62-4.33-.08-.66-3.61-3.8-3.61-3.8-4.83-6.12-3.38-11.33-2.69-14.34.69-3.02,3.76-10.86,3.76-10.86.7-1.25,1.63-2.27,2.59-2.96.04.04.1.05.14.11,2.96,3.16,3.9,8.27,5.15,14.64.24,4.39,1.68,11.39,4.55,15.96,3.12,4.98,1.48,12.13,1.48,12.13-6.44,31.9,19.19,50.04,26.63,60.32,7.44,10.28-.17,14.84-6.82,26.48-6.24,10.92,3.36,29.12,6.78,38.14.91,3.44,1.86,6.99,2.51,9.04,1.95,6.24,2.68,6.89,1.02,10.11-1.65,3.21-20.47,12.23-25.75,14.72-5.3,2.48-7.77,6.68-7.77,6.68-6.96,6.89-7.7,20.47-7.7,20.47,6.14-4.54,13.66-5.88,13.66-5.88,3-2.89,1.81-10.24,1.81-10.24,3.43-.94,10.18-8.03,17.42-12.45,7.25-4.43,18.87-4.65,21.89-5.04,3.05-.38,3.54-1.95,2.57-7.32-.59-3.19-.29-11.45.05-16.41,3.26,4.52,4.78,10.75,8.56,16.57,6.19,9.53,6.39,15.9,6.19,20.43-.22,4.53-5.72,22.25-6.78,25.6-1.06,3.36-6.52,6.39-6.52,6.39-6.42,2.34-8.32,9.35-8.32,9.35,1.75,2.1,12.79.36,12.79.36,1.88.35,4.59-1.68,4.59-1.68.53-4.72,3.54-9.22,8.09-13.19,4.57-3.96.93-11.23,1.85-22.47.93-11.24,4.41-14.13,5.99-16.11,1.58-1.99,2.31-5.15-.4-7.94-2.71-2.8-5.83-6.84-8.46-16.81-2.6-9.97,5.01-10.16,5.65-14.28.64-4.14,12.67-4.7,14.75-18.94,0,0,1.23-2.23,2.1-6.78,2.21-.06,3.25,1.1,2.99,6.91-.28,6.47,1.14,7.99,2.89,8.82,1.75.83,3.85,1.02,7.16,3.03,3.3,2.02.25,7.36-1.91,9.16-2.16,1.8-5.8,1.36-8.55,4.08-2.75,2.73,1.56,7.54,3.45,9.82,1.9,2.27,1.42,3.16.45,4.93-.95,1.77-3.77,3.15-3.56,7.42.38,7.92,7.56,9.25,13.21,9.83,4.46.46,4.72,3.38,4.65,4.59.99-7.21-3.66-8.65-5.57-9.13-1.95-.51-6.57-.21-7.01-3.97-.6-5.09,3.76-6.72,5.54-7.32,1.79-.59,3.22-1.61,1.81-4.23-1.42-2.61-.68-3.98.27-4.74.93-.77,1.12-.15,1.12-.15,0,0,.58-.74.63-2.82.04-2.06,1.66-3.26,3.21-3.23,1.54.02,2.88,1.08,3.48-.49,0,0-.81-5.44,2.85-5.97,4.98-.7,1.4,4.76,1.4,4.76,0,0,3.76-1.5,1.79-4.82-2.74-4.58-2.51-8.01-.62-9.39,1.89-1.36,4.92-2.39,6.14-7.7,1.21-5.33-4.57-6.27-6.34-9.18-1.76-2.91,3.27-4.82,3.27-4.82-3.42-5.03-10.55-2.75-13.7-1.41-3.16,1.32-8.4.37-6.42-2.62,1.96-2.99,6.34-2.01,6.34-2.01-4.43-4.37-10.26-1.94-13.5-.66-2.22.87-3.25,2.16-4.68,2.71l.03-2.64Z"/>
  <path class="cls-1" d="M289.7,552.45c.87,4.55,2.1,6.78,2.1,6.78,2.08,14.24,14.11,14.8,14.75,18.94.63,4.12,8.25,4.31,5.64,14.28-2.62,9.97-5.74,14.01-8.46,16.81-2.71,2.79-1.98,5.95-.4,7.94,1.58,1.98,5.05,4.87,5.99,16.11.91,11.24-2.71,18.51,1.85,22.47,4.55,3.97,7.55,8.47,8.08,13.19,0,0,2.72,2.02,4.6,1.68,0,0,11.03,1.73,12.79-.36,0,0-1.9-7.02-8.33-9.35,0,0-5.46-3.03-6.52-6.39-1.06-3.35-6.57-21.06-6.78-25.6-.22-4.53,0-10.9,6.18-20.43,3.78-5.82,5.3-12.05,8.55-16.57.35,4.96.64,13.22.06,16.41-.98,5.37-.49,6.94,2.56,7.32,3.03.39,14.65.62,21.89,5.04,7.25,4.42,14.01,11.52,17.43,12.45,0,0-1.18,7.35,1.81,10.24,0,0,7.51,1.34,13.66,5.88,0,0-.74-13.59-7.7-20.47,0,0-2.47-4.2-7.76-6.68-5.29-2.49-24.1-11.51-25.75-14.72-1.65-3.21-.93-3.87,1.02-10.11.64-2.06,1.6-5.61,2.5-9.04,3.42-9.02,13.02-27.23,6.78-38.14-6.65-11.65-14.25-16.2-6.82-26.48,7.45-10.29,33.07-28.43,26.63-60.32,0,0-1.64-7.15,1.48-12.13,2.87-4.57,4.31-11.57,4.55-15.96,1.25-6.37,2.19-11.48,5.15-14.64.03-.06.09-.07.13-.11.96.69,1.89,1.71,2.59,2.96,0,0,3.06,7.84,3.75,10.86.69,3.01,2.15,8.22-2.69,14.34,0,0-3.52,3.14-3.61,3.8-.09.67,1.26,3.18,3.63,4.33,2.39,1.16,3.04,2.53,4.03,3.82.99,1.29,4.06,3.22,4.06,3.22,0,0,.35-.6.84-1.56,1.24,1,2.7,1.94,2.7,1.94,0,0,5.54-9.63,3.89-13.97,0,0,.02-7.98-1.75-12.09-1.77-4.11-4.06-8.76-5.62-13.85-1.55-5.1-5.61-8.98-6.25-9.16-2.82-.08-4.44-3.54-6.52-4.27-1.62-.56-2.89-.7-3.98-.49-3.82-1.21-5.68.04-7.93,2.96-1.77,2.3-4.7,6.73-8.14,11.28-1.23-.58-2.39-1.58-3.34-3.07-.68-1.05-1.47-1.9-2.34-2.58,0-.01,0-.02-.02-.02-2.19-2.34-8.81-3.36-14.72-5.17-5.91-1.82-13.58-5.77-17.04-7.72-3.45-1.96-4.98-3.09-3.02-5.7,1.95-2.6,12.96-7.62,14.38-8.27,1.42-.64,5.21.97,5.21.97,2.16.39,4.66,1.95,8.78-1.7,4.12-3.65,2.98-9.91,2.47-13.24-.49-3.33-3.54-4.55-5.15-4.85-1.6-.3-6.19,1.26-9.12.88-2.93-.37-13.77-2.89-22.97-4.87-9.19-1.99-12.38-.32-12.38-.32,0,0-9.17-8.71-14.45-7.51,0,0-3.69,2.97-3.07,10.08,0,0-6.03,3.81-9.66.26-3.62-3.55,4.33-10.65,6.34-11.77,0,0-9.71,3.52-8.49,14.87,0,0-6.07,3.83-2.07,11.48,0,0-15.33-4.71-13.41,12.69,0,0,.39-3.48,3.15-7.3,2.75-3.83,5.96,2.49,7.42,3.5,1.47,1.01,2.05,2.3,2.3,3.94.27,1.64,1.28,5.54,2.53,5.65,1.25.12,3.98,2.07,2.26,3.48-1.73,1.42-3.22.49-5.85-2.5-2.62-3-7.39-3.24-9.61-.49-2.22,2.75-2.2,6.63.65,11.5,0,0,3.85,5.18-.33,6.55-3.87,1.26-6.12-7.76-6.34-10.38.11,2.48.89,13.23,6.98,13.72,6.5.52,6.1-6.62,4.51-9.24-1.58-2.63-.3-5.86,1.28-3.96,0,0,3.38,4.04,6.48,5.18,3.11,1.13,4.42,2.74,4.54,3.91.11,1.18.67,12.92-13.74,6.2,0,0,.35,2.74,5.2,4.42,8.42,2.92,11.3-.46,12.7,1.99,0,0,.67.73.99,3.09,0,0,1.6,5.06-4.1,4.96,0,0-14.99-2.85-8.61,7.3,0,0-.35-3.62,2.77-3.32,3.76.35,2.65.46,7.6.69,0,0,2.63.73,9.1-2.16,6.46-2.88,9.08,3.7,6.38,5.59-2.69,1.89-9.18,2.88-5.64,11.67,0,0-.42-11.09,9.5-7.9,9.45,3.05-4.1,14.85-10.55,12.08,0,0,3.13,3.87,9.58,1.88,7.49-2.3,13.44-8.19,14.81-6.32,1.38,1.88.6,5.04-2.36,7.9-1.1,1.03-2.32,2.12-3.38,3.35-1.79,2.04-3.08,4.49-2.44,8.01h.01c.53,4.93,2.88,11.09,1.61,14.53,0,0-17.94,11.9-21.7,33.82-.7,4.04-1,7.61-1.09,10.78l.03,2.64c-1.43-.55-2.47-1.84-4.68-2.71-3.24-1.28-9.07-3.71-13.5.66,0,0,4.38-.99,6.36,2.01,1.97,2.99-3.28,3.95-6.43,2.62-3.15-1.34-10.27-3.61-13.7,1.41,0,0,5.03,1.9,3.27,4.82-1.77,2.91-7.54,3.85-6.34,9.18,1.21,5.32,4.25,6.35,6.14,7.7,1.89,1.37,2.12,4.8-.61,9.39-1.99,3.32,1.77,4.82,1.77,4.82,0,0-3.57-5.46,1.41-4.76,3.65.52,2.85,5.97,2.85,5.97.61,1.57,1.94.51,3.49.49,1.55-.03,3.17,1.17,3.2,3.23.04,2.08.62,2.82.62,2.82,0,0,.19-.63,1.13.15.95.76,1.67,2.13.26,4.74-1.41,2.62.03,3.64,1.81,4.23,1.78.6,6.15,2.23,5.54,7.32-.44,3.76-5.06,3.47-7.01,3.97-1.9.48-6.57,1.92-5.56,9.13-.09-1.2.18-4.13,4.64-4.59,5.65-.58,12.83-1.9,13.21-9.83.21-4.26-2.61-5.64-3.57-7.42-.96-1.77-1.44-2.66.46-4.93,1.89-2.28,6.2-7.09,3.45-9.82-2.76-2.72-6.39-2.28-8.55-4.08-2.16-1.8-5.22-7.14-1.92-9.16,3.31-2.01,5.42-2.2,7.16-3.03,1.75-.83,3.17-2.34,2.89-8.82-.25-5.81.78-6.96,3-6.91"/>
  <path class="cls-3" d="M561.88,618.49l-2.69-13.23,3.8-3.64,2.23,13.67,13.49,3.27-3.81,3.65-13.02-3.72ZM553.9,610.33l15.99,16.68-2.89,2.77-15.99-16.68,2.89-2.77ZM553.17,623.62l2.23,3.46-9.4,6.06,5.17,8.02-3.37,2.17-6.54-10.15c-.93-1.45-1.65-2.69-2.14-3.71-.5-1.02-.79-1.85-.88-2.48-.28-1.59-.09-2.99.58-4.2.67-1.2,1.93-2.41,3.78-3.6l5.46-3.52,2.23,3.46-5.03,3.24c-.75.48-1.35.93-1.82,1.34-.46.42-.76.77-.9,1.07-.3.5-.4,1.08-.32,1.73.09.65.38,1.36.87,2.12l.67,1.04,9.4-6.06ZM520.24,641.39l8.6-3.41,5.06,12.77-7.81,3.1c-1.39.55-2.53.86-3.4.92-.87.06-1.75-.1-2.64-.45-2.52-1-4.63-3.64-6.32-7.9-1.1-2.78-1.58-5.27-1.45-7.46.11-1.59.6-2.93,1.48-4,.87-1.07,2.2-1.96,3.99-2.67l7.63-3.03,1.52,3.83-7.22,2.86c-1.55.62-2.52,1.48-2.9,2.61-.44,1.31-.15,3.24.86,5.79.52,1.32,1.1,2.46,1.72,3.41.63.95,1.24,1.62,1.83,2.01.52.34,1.11.5,1.79.49.67-.01,1.44-.19,2.3-.53l3.37-1.33-2.03-5.11-4.88,1.93-1.52-3.83ZM499.34,642.8l-1.22,8.44,5.28-.95-4.06-7.5ZM492.49,661.88l3.58-24.12,4.54-.81,11.74,21.37-4.62.83-2.73-4.96-7.04,1.26-.84,5.6-4.62.83ZM473.59,657.59l5.45.14c.56.01.97,0,1.24-.07.27-.06.53-.21.76-.44.6-.54.91-1.3.94-2.27.02-.91-.23-1.61-.77-2.09-.4-.33-1.05-.5-1.96-.52l-5.53-.14-.14,5.39ZM473.83,648.08l5.45.14c.56.01.97,0,1.23-.07.26-.06.52-.21.78-.43.6-.54.91-1.29.94-2.25.02-.91-.23-1.6-.77-2.08-.4-.33-1.05-.5-1.96-.52l-5.53-.14-.14,5.36ZM469.48,661.61l.59-23.1,10.62.27c1.67.04,2.87.3,3.61.78.86.56,1.5,1.47,1.93,2.74.3.87.43,1.76.41,2.69-.03,1.18-.31,2.28-.85,3.31-.53,1.02-1.21,1.73-2.01,2.11,1.79,1.07,2.65,2.9,2.59,5.51-.04,1.49-.36,2.75-.96,3.78-.52.87-1.18,1.46-1.99,1.77-.81.31-1.99.45-3.54.41l-10.39-.26ZM455.86,641.91l-4.45,7.28,5.22,1.21-.77-8.49ZM442.04,656.74l12.81-20.75,4.49,1.04,2.36,24.27-4.58-1.06-.56-5.63-6.97-1.62-2.98,4.81-4.58-1.06ZM428.95,637.73l5.1,2.32c.84.38,1.52.51,2.02.36.75-.21,1.39-.91,1.92-2.06.58-1.28.55-2.28-.1-3.02-.22-.25-.66-.52-1.32-.82l-5.1-2.32-2.52,5.54ZM427.25,641.48l-3.64,8-3.65-1.66,9.56-21.04,8.35,3.8c2.39,1.09,3.9,2.22,4.51,3.41.41.77.6,1.66.59,2.67-.02,1.01-.26,2.01-.7,2.99-.91,2-2.02,3.36-3.34,4.06-.78.4-1.69.6-2.72.59.27.29.5.56.68.82.19.26.32.52.42.77.18.47.27,1.09.27,1.88-.02.54-.1,1.08-.22,1.65-.07.31-.16.66-.28,1.03-.12.38-.26.76-.43,1.14-.31.69-.56,1.35-.74,1.99-.13.44-.23.9-.29,1.37l-4.08-1.86c.1-.55.41-1.54.91-2.97.52-1.43.78-2.52.8-3.27.05-.76-.12-1.45-.49-2.08-.45-.73-1.32-1.38-2.59-1.96l-2.93-1.33ZM415.08,624.49l-6.89,5.02,4.36,3.12,2.53-8.14ZM396.63,632.9l19.77-14.27,3.75,2.68-7.11,23.32-3.82-2.73,1.64-5.42-5.82-4.16-4.6,3.3-3.82-2.73ZM398.37,608.24c-1.14-1.2-2.42-1.67-3.86-1.41-1.44.26-3.08,1.26-4.92,3.01-1.59,1.5-2.68,2.91-3.31,4.22-.82,1.75-.52,3.36.88,4.83,1.31,1.38,2.82,1.78,4.52,1.2,1.31-.46,2.82-1.5,4.55-3.14,1.55-1.47,2.59-2.93,3.11-4.38.57-1.61.25-3.06-.97-4.34ZM394.45,626.27l-2.99,2.83-4.85-5.12-1.06-1.12-.39-.41-.31-.33-.26-.27-.21-.22-.17-.18-.14-.15-.11-.12c-.13-.13-.23-.26-.33-.39-.09-.12-.17-.25-.2-.38-.19-.2-.36-.43-.52-.68-.15-.26-.36-.63-.61-1.12-1.02-1.93-1.02-4.07.02-6.42.39-.88.92-1.76,1.57-2.65.66-.89,1.44-1.76,2.34-2.62,3.18-3.02,6.06-4.52,8.65-4.52,2.21,0,4.31,1.06,6.29,3.15,1.31,1.39,2.17,2.86,2.56,4.41.12.47.2.95.22,1.43.03.47,0,.95-.09,1.42-.16.93-.54,1.91-1.15,2.97-.95,1.66-2.11,3.14-3.51,4.46-2.12,2.01-4.44,3.25-6.96,3.7l2.21,2.33Z"/>
  <path class="cls-3" d="M521.38,402.84l-.93,3.27-13.45,12.57-3.9-1.11,13.77-12.5-9.51-2.72.93-3.26,13.1,3.74ZM490.18,407.75c-1.37-.1-2.25-.08-2.65.08-.73.27-1.13.97-1.22,2.12-.1,1.26.23,2.06.96,2.4.12.05.39.1.82.17.42.07.99.13,1.71.19.41.03.81.06,1.21.08.39.02.7.03.92.01.22-.01.42-.05.61-.14.67-.26,1.04-.96,1.13-2.09.09-1.24-.27-2.06-1.1-2.44-.37-.16-1.16-.29-2.38-.38ZM490.82,399.82c-1.34-.1-2.23-.08-2.64.05-.75.25-1.16.93-1.25,2.05-.09,1.22.24,1.99,1,2.32.12.05.39.11.82.17.42.07,1,.13,1.72.19.42.03.83.06,1.23.08.4.02.71.03.92.01.21,0,.42-.05.62-.12.67-.26,1.05-.92,1.13-2,.09-1.22-.28-2.01-1.13-2.37-.37-.16-1.18-.29-2.42-.38ZM485.3,405.89c-.79-.68-1.34-1.4-1.64-2.13-.3-.73-.42-1.62-.34-2.67.17-2.25,1.13-3.71,2.87-4.36.73-.27,2.24-.32,4.53-.14.74.06,1.4.12,1.99.18.59.07,1.12.13,1.59.18.32.02.61.08.87.17.26.09.51.21.77.36.83.49,1.43,1.27,1.81,2.35.27.83.38,1.7.3,2.63-.16,2.04-1.07,3.45-2.73,4.21.67.53,1.13,1.03,1.39,1.5.47.87.66,1.9.57,3.08-.11,1.4-.64,2.62-1.6,3.66-.47.52-1.12.86-1.97,1.02-.39.07-.91.1-1.55.11-.64,0-1.37-.02-2.19-.08-.49-.04-.89-.07-1.19-.1-1.18-.13-1.81-.2-1.88-.2-.7-.05-1.32-.22-1.84-.5-.53-.28-.97-.66-1.34-1.13-.84-1.12-1.2-2.38-1.1-3.8.09-1.15.43-2.13,1.03-2.93.32-.45.87-.9,1.64-1.38ZM471.29,404.41c-.11-1.4-.42-2.49-.93-3.25-.33-.51-.76-.85-1.29-1.03-.53-.18-1.29-.23-2.27-.16-1.12.09-1.88.3-2.25.65-.49.46-.7,1.14-.64,2.04.06.8.36,1.4.9,1.81.35.27.94.36,1.79.3l4.68-.36ZM471.54,407.79l-5.23.4c-1.18.09-2.06.09-2.65,0-.59-.09-1.09-.33-1.51-.72-1.09-.94-1.7-2.33-1.85-4.17-.16-2.15.48-3.86,1.92-5.14.9-.78,2.34-1.24,4.31-1.4,1.4-.11,2.54-.04,3.42.19.89.23,1.67.68,2.35,1.35.83.84,1.5,1.99,2,3.45.45,1.34.72,2.7.83,4.1.16,2.13-.05,4.08-.64,5.86-.58,1.78-1.6,2.97-3.03,3.58-.79.33-1.98.56-3.56.68l-5.75.44-.26-3.38,4.76-.36c2.11-.16,3.45-.51,3.99-1.05.34-.35.59-.87.75-1.55.16-.68.21-1.45.15-2.29ZM454.53,418.3l-3.24.75-3.25-13.99-2.7,4.58-1.33-4.3,2.93-4.98,3.24-.75,4.34,18.69Z"/>
  <path class="cls-3" d="M513.34,628.55l1.99-.68c.6.99,1.45,1.3,2.57.92,1.08-.37,1.56-1.13,1.45-2.28l1.99-.68c.25.95.29,1.78.13,2.52-.31,1.44-1.23,2.42-2.77,2.94-1.16.39-2.21.35-3.17-.12-.49-.25-.93-.59-1.31-1.02-.38-.43-.67-.96-.89-1.6"/>
</svg>