<svg xmlns="http://www.w3.org/2000/svg" viewBox="0 0 994.66 497.33">
    <rect style="fill-rule:evenodd;stroke-width:1pt;fill:#ffffff" height="497.33" width="994.66" y="0" x="0" />
    <rect style="fill-rule:evenodd;stroke-width:1pt;fill:#ff0000" height="165.78" width="994.66" y="331.55" x="0" />
    <rect style="fill-rule:evenodd;stroke-width:1pt;fill:#005be5" height="165.78" width="994.66" y="165.78" x="0" />
    <path style="fill-rule:evenodd;stroke-width:1pt;fill:#ff0000"
        d="m282.04 90.314c-3.9028 59.88-6.1396 92.7-15.262 107.88-9.8559 16.31-19.444 28.25-57.912 42.63-38.468-14.38-48.068-26.32-57.924-42.63-9.122-15.18-11.359-48-15.262-107.88l5.6852-1.92c11.452-3.487 19.991-6.295 26.306-7.541 9.0404-1.915 16.729-4.079 41.043-4.587 24.314 0.418 32.038 2.717 41.078 4.632 6.2677 1.336 15.18 3.964 26.539 7.526l5.7085 1.89z" />
    <path style="fill-rule:evenodd;stroke-width:1pt;fill:#005be5"
        d="m276.44 88.349c-3.69 59.751-6.78 87.121-11.6 100.28-9.35 22.52-24.15 34.88-56.01 46.66-31.86-11.78-46.66-24.14-56.01-46.66-4.82-13.16-7.86-40.45-11.45-100.34 11.2-3.5 19.99-6.235 26.3-7.481 9.05-1.915 16.74-4.17 41.05-4.589 24.31 0.419 32.09 2.674 41.13 4.589 6.32 1.246 15.29 3.981 26.59 7.54z" />
    <path style="fill-rule:evenodd;stroke-width:1pt;fill:#ffffff"
        d="m262.54 174.47-3.728-2.94-2.6795-4.42-5.2658-4.57-2.7494-4.62-5.2658-4.71-2.5746-4.62-2.8076-2.26-1.8407-1.78-4.7648 4.18-2.598 4.53-3.227 2.93-3.5532-2.78-2.6795-4.72-9.9608-17.7-9.9724 17.7-2.6795 4.72-3.5532 2.78-3.227-2.93-2.598-4.53-4.7532-4.18-1.8524 1.78-2.796 2.26-2.5746 4.62-5.2774 4.71-2.7378 4.62-5.2658 4.57-2.6912 4.42-3.7164 3.01c1.9339 16.4 12.384 29.26 18.081 35.14 6.3609 6.17 19.467 14.43 35.498 19.89 16.065-5.35 29.358-13.72 35.719-19.89 5.6968-5.88 16.147-18.74 18.092-35.21z" />
    <path style="fill-rule:evenodd;stroke-width:1pt;fill:#005be5"
        d="m254.22 197.21-7.25 0.02-6.7-0.49-8.11-3.98-9.14 0.05-7.91 3.87-6.25 0.55-6.24-0.55-7.91-3.87-9.14-0.05-8.11 3.98-6.7 0.49-7.34-0.1-3.55-6.01 0.13-0.13 10.85 1.79 6.7-0.5 8.11-3.97 9.14 0.05 7.91 3.87 6.25 0.55 6.24-0.55 7.91-3.87 9.14-0.05 8.11 3.97 6.7 0.5 10.56-1.85 0.14 0.28-3.54 6z" />
    <path style="fill-rule:evenodd;stroke-width:1pt;fill:#005be5"
        d="m170.23 206.45 7.18-0.49 8.11-3.98 9.14 0.05 7.92 3.87 6.24 0.55 6.24-0.55 7.92-3.87 9.14-0.05 8.11 3.98 7.27 0.49 4.7-5.79-0.16-0.13-5.03 1.47-6.69-0.5-8.11-3.97-9.14 0.05-7.92 3.87-6.24 0.55-6.24-0.55-7.92-3.87-9.14-0.05-8.11 3.97-6.69 0.5-4.93-1.24-0.06 0.24 4.41 5.45z" />
    <polygon style="fill-rule:evenodd;fill:#ffe500" transform="matrix(1.0774,0,0,1.0774,-14.914,-6.8571)"
        d="m 198.4252,85.039368 -2.38212,3.449934 2.56886,3.31323 -4.17879,-0.338009 -1.58491,3.881314 -1.79667,-3.787944 -4.15377,0.568084 2.38212,-3.449935 -2.56886,-3.31323 4.17879,0.338009 1.58491,-3.881314 1.79667,3.787944 z"
        points="198.43 85.039 196.04 88.489 198.61 91.803 194.43 91.465 192.85 95.346 191.05 91.558 186.9 92.126 189.28 88.676 186.71 85.363 190.89 85.701 192.47 81.82 194.27 85.607" />
    <polygon style="fill-rule:evenodd;fill:#ffe500" transform="matrix(1.0774,0,0,1.0774,17.284,-6.8571)"
        d="m 198.4252,85.039368 -2.38212,3.449934 2.56886,3.31323 -4.17879,-0.338009 -1.58491,3.881314 -1.79667,-3.787944 -4.15377,0.568084 2.38212,-3.449935 -2.56886,-3.31323 4.17879,0.338009 1.58491,-3.881314 1.79667,3.787944 z"
        points="198.43 85.039 196.04 88.489 198.61 91.803 194.43 91.465 192.85 95.346 191.05 91.558 186.9 92.126 189.28 88.676 186.71 85.363 190.89 85.701 192.47 81.82 194.27 85.607" />
    <polygon style="fill-rule:evenodd;fill:#ffe500" transform="matrix(1.0774,0,0,1.0774,-14.914,-6.8571)"
        d="m 198.4252,85.039368 -2.38212,3.449934 2.56886,3.31323 -4.17879,-0.338009 -1.58491,3.881314 -1.79667,-3.787944 -4.15377,0.568084 2.38212,-3.449935 -2.56886,-3.31323 4.17879,0.338009 1.58491,-3.881314 1.79667,3.787944 z"
        points="198.43 85.039 196.04 88.489 198.61 91.803 194.43 91.465 192.85 95.346 191.05 91.558 186.9 92.126 189.28 88.676 186.71 85.363 190.89 85.701 192.47 81.82 194.27 85.607" />
    <polygon style="fill-rule:evenodd;fill:#ffe500" transform="matrix(1.0774,0,0,1.0774,1.3157,18.273)"
        d="m 198.4252,85.039368 -2.38212,3.449934 2.56886,3.31323 -4.17879,-0.338009 -1.58491,3.881314 -1.79667,-3.787944 -4.15377,0.568084 2.38212,-3.449935 -2.56886,-3.31323 4.17879,0.338009 1.58491,-3.881314 1.79667,3.787944 z"
        points="198.43 85.039 196.04 88.489 198.61 91.803 194.43 91.465 192.85 95.346 191.05 91.558 186.9 92.126 189.28 88.676 186.71 85.363 190.89 85.701 192.47 81.82 194.27 85.607" />
</svg>